<svg width="38" height="30" viewBox="0 0 38 30" fill="none" xmlns="http://www.w3.org/2000/svg">
<mask id="mask0" mask-type="alpha" maskUnits="userSpaceOnUse" x="0" y="0" width="38" height="30">
<path fill-rule="evenodd" clip-rule="evenodd" d="M0.5 0.600098H37.1967V29.1426H0.5V0.600098Z" fill="white"/>
</mask>
<g mask="url(#mask0)">
<path fill-rule="evenodd" clip-rule="evenodd" d="M18.8483 3.02875C18.7021 3.14372 18.5591 3.26216 18.4193 3.38375C16.0294 5.46307 14.517 8.52392 14.517 11.9401C14.517 15.356 16.0294 18.4171 18.4193 20.4958C18.5591 20.6177 18.7021 20.7362 18.8483 20.8511C18.9945 20.7362 19.1375 20.6177 19.2773 20.4958C21.6669 18.4171 23.1795 15.356 23.1795 11.9401C23.1795 8.52392 21.6669 5.46307 19.2773 3.38375C19.1375 3.26216 18.9945 3.14372 18.8483 3.02875ZM25.8564 0.600098C23.5349 0.600098 21.3765 1.29814 19.5788 2.49514C19.6708 2.57074 19.764 2.64476 19.8528 2.72225C22.5247 5.04664 24.0568 8.40611 24.0568 11.9401C24.0568 15.4738 22.5247 18.8336 19.8532 21.1576C19.7646 21.2348 19.6711 21.3091 19.5788 21.3847C21.3765 22.5817 23.5349 23.2798 25.8564 23.2798C32.1196 23.2798 37.1964 18.2029 37.1964 11.9401C37.1964 5.67695 32.1196 0.600098 25.8564 0.600098ZM17.8434 21.1576C17.9319 21.2348 18.0255 21.3092 18.1175 21.3844C16.3201 22.5818 14.1614 23.2801 11.8395 23.2801C5.57668 23.2801 0.499512 18.2029 0.499512 11.9401C0.499512 5.67728 5.57668 0.600108 11.8395 0.600108C14.1614 0.600108 16.3198 1.29815 18.1175 2.49515C18.0255 2.57043 17.9322 2.64477 17.8434 2.72195C15.1719 5.04665 13.6394 8.40612 13.6394 11.9401C13.6394 15.4738 15.1719 18.8336 17.8434 21.1576ZM31.482 28.7554V28.8295H31.55C31.5658 28.8295 31.5784 28.8263 31.5875 28.8203C31.597 28.814 31.6014 28.8049 31.6014 28.7923C31.6014 28.78 31.597 28.7709 31.5875 28.7646C31.5784 28.7586 31.5658 28.7554 31.55 28.7554H31.482ZM31.551 28.7035C31.5866 28.7035 31.614 28.7113 31.6336 28.7274C31.6528 28.7431 31.6625 28.7646 31.6625 28.7923C31.6625 28.815 31.6547 28.8342 31.6392 28.849C31.6241 28.8641 31.6021 28.8732 31.5737 28.8767L31.6647 28.9816H31.5935L31.5091 28.8773H31.482V28.9816H31.4228V28.7035H31.551ZM31.5333 29.0767C31.5658 29.0767 31.5957 29.0707 31.6237 29.0585C31.6518 29.0465 31.676 29.0295 31.6968 29.0087C31.7179 28.9876 31.7343 28.9627 31.7463 28.9343C31.7583 28.906 31.7646 28.8758 31.7646 28.8433C31.7646 28.8115 31.7583 28.7809 31.7463 28.7526C31.7343 28.7242 31.7179 28.6994 31.6968 28.6786C31.676 28.6575 31.6518 28.6411 31.6237 28.6291C31.5957 28.6168 31.5658 28.6112 31.5333 28.6112C31.5006 28.6112 31.4697 28.6168 31.4414 28.6291C31.4127 28.6411 31.3881 28.6575 31.3667 28.6786C31.3459 28.6994 31.3292 28.7242 31.3173 28.7526C31.3053 28.7809 31.2993 28.8115 31.2993 28.8433C31.2993 28.8758 31.3053 28.906 31.3173 28.9343C31.3292 28.9627 31.3459 28.9876 31.3667 29.0087C31.3881 29.0295 31.4127 29.0465 31.4414 29.0585C31.4697 29.0707 31.5006 29.0767 31.5333 29.0767ZM31.5333 28.5444C31.5752 28.5444 31.6149 28.5519 31.6518 28.5677C31.689 28.5834 31.7211 28.6045 31.7485 28.6319C31.7762 28.659 31.7979 28.6909 31.814 28.7274C31.8298 28.7636 31.8376 28.8024 31.8376 28.8433C31.8376 28.8846 31.8298 28.9233 31.814 28.9592C31.7979 28.9958 31.7762 29.0273 31.7485 29.0544C31.7211 29.0815 31.689 29.1029 31.6518 29.1189C31.6149 29.135 31.5752 29.1426 31.5333 29.1426C31.4905 29.1426 31.4502 29.135 31.4127 29.1189C31.3755 29.1029 31.3428 29.0815 31.3154 29.0544C31.288 29.0273 31.2665 28.9958 31.2505 28.9592C31.2347 28.9233 31.2269 28.8846 31.2269 28.8433C31.2269 28.8024 31.2347 28.7636 31.2505 28.7274C31.2665 28.6909 31.288 28.659 31.3154 28.6319C31.3428 28.6045 31.3755 28.5834 31.4127 28.5677C31.4502 28.5519 31.4905 28.5444 31.5333 28.5444ZM27.004 25.8993C27.1363 25.8993 27.3246 25.9248 27.4695 25.9812L27.2679 26.5977C27.1296 26.5413 26.9914 26.5221 26.8594 26.5221C26.4313 26.5221 26.2177 26.799 26.2177 27.296V28.9822H25.5631V25.9749H26.2114V26.3397C26.3812 26.0757 26.6263 25.8993 27.004 25.8993ZM24.7398 26.5725H23.6703V27.9317C23.6703 28.2335 23.7771 28.4344 24.1044 28.4344C24.2742 28.4344 24.4881 28.3781 24.6831 28.2647L24.8717 28.8247C24.6642 28.9696 24.3372 29.0575 24.054 29.0575C23.2801 29.0575 23.0098 28.6423 23.0098 27.944V26.5725H22.3993V25.9749H23.0098L23.0095 25.0627H23.6703V25.9749H24.7398V26.5725ZM21.596 26.7423C21.4137 26.6292 21.0423 26.4846 20.6586 26.4846C20.2998 26.4846 20.0862 26.6166 20.0862 26.8368C20.0862 27.0384 20.3124 27.0944 20.5959 27.1325L20.904 27.1763C21.5582 27.2708 21.9545 27.5477 21.9545 28.0763C21.9545 28.6486 21.4515 29.0575 20.5833 29.0575C20.0922 29.0575 19.6396 28.9315 19.2808 28.6675L19.5892 28.1579C19.8094 28.3277 20.1366 28.4722 20.5893 28.4722C21.036 28.4722 21.2751 28.3403 21.2751 28.1075C21.2751 27.9377 21.1053 27.8432 20.7465 27.7928L20.4384 27.749C19.7653 27.6548 19.4005 27.3527 19.4005 26.862C19.4005 26.2644 19.8913 25.8993 20.6526 25.8993C21.1305 25.8993 21.5645 26.0064 21.8789 26.214L21.596 26.7423ZM16.6011 27.2141C16.6704 26.7801 16.9344 26.4846 17.3999 26.4846C17.8217 26.4846 18.092 26.7489 18.1613 27.2141H16.6011ZM18.8408 27.4784C18.8345 26.5413 18.2558 25.8993 17.4126 25.8993C16.5318 25.8993 15.9154 26.5413 15.9154 27.4784C15.9154 28.4344 16.557 29.0575 17.4567 29.0575C17.9096 29.0575 18.3248 28.9441 18.6899 28.636L18.3689 28.1516C18.1172 28.3529 17.7965 28.4663 17.4945 28.4663C17.073 28.4663 16.6893 28.2713 16.5948 27.7301H18.8282C18.8345 27.6482 18.8408 27.5663 18.8408 27.4784ZM29.2799 26.5145C29.146 26.5145 29.0215 26.5381 28.9066 26.5851C28.7913 26.6323 28.6917 26.6982 28.608 26.7829C28.5245 26.8679 28.4583 26.9694 28.4101 27.0875C28.3619 27.2059 28.338 27.336 28.338 27.4784C28.338 27.6208 28.3619 27.7509 28.4101 27.8693C28.4583 27.9875 28.5245 28.0892 28.608 28.1739C28.6917 28.259 28.7913 28.3248 28.9066 28.3718C29.0215 28.419 29.146 28.4426 29.2799 28.4426C29.414 28.4426 29.5388 28.419 29.6538 28.3718C29.7687 28.3248 29.8686 28.259 29.9536 28.1739C30.0381 28.0892 30.1048 27.9875 30.153 27.8693C30.2012 27.7509 30.2252 27.6208 30.2252 27.4784C30.2252 27.336 30.2012 27.2059 30.153 27.0875C30.1048 26.9694 30.0381 26.8679 29.9536 26.7829C29.8686 26.6982 29.7687 26.6323 29.6538 26.5851C29.5388 26.5381 29.414 26.5145 29.2799 26.5145ZM29.2798 25.8959C29.5123 25.8959 29.7275 25.9362 29.9253 26.0168C30.1231 26.0971 30.2945 26.2083 30.4387 26.3495C30.5833 26.4909 30.6961 26.6578 30.7777 26.8503C30.8596 27.0431 30.9005 27.2522 30.9005 27.4784C30.9005 27.7046 30.8596 27.9137 30.7777 28.1062C30.6961 28.2993 30.5833 28.4659 30.4387 28.6074C30.2945 28.7485 30.1231 28.8594 29.9253 28.94C29.7275 29.0207 29.5123 29.0613 29.2798 29.0613C29.0477 29.0613 28.8325 29.0207 28.6347 28.94C28.4369 28.8594 28.2662 28.7485 28.1228 28.6074C27.9795 28.4659 27.8671 28.2993 27.7855 28.1062C27.7036 27.9137 27.6629 27.7046 27.6629 27.4784C27.6629 27.2522 27.7036 27.0431 27.7855 26.8503C27.8671 26.6578 27.9795 26.4909 28.1228 26.3495C28.2662 26.2083 28.4369 26.0971 28.6347 26.0168C28.8325 25.9362 29.0477 25.8959 29.2798 25.8959ZM12.846 27.4784C12.846 26.9498 13.1919 26.5161 13.7582 26.5161C14.2994 26.5161 14.6642 26.9313 14.6642 27.4784C14.6642 28.0256 14.2994 28.4411 13.7582 28.4411C13.1919 28.4411 12.846 28.007 12.846 27.4784ZM15.2806 27.4784V25.9749H14.6264V26.3397C14.4188 26.0694 14.1041 25.8993 13.6763 25.8993C12.8334 25.8993 12.1728 26.5599 12.1728 27.4784C12.1728 28.397 12.8334 29.0575 13.6763 29.0575C14.1041 29.0575 14.4188 28.8877 14.6264 28.6168V28.9822H15.2806V27.4784ZM11.5942 28.9822V27.0944C11.5942 26.3838 11.1412 25.9056 10.4114 25.8993C10.0277 25.8933 9.63143 26.0127 9.35455 26.4342C9.14697 26.1006 8.81999 25.8993 8.36072 25.8993C8.03974 25.8993 7.72505 25.9938 7.47998 26.346V25.9749H6.82573V28.9822H7.48628V27.3149C7.48628 26.7927 7.77577 26.5161 8.22212 26.5161C8.65651 26.5161 8.87638 26.799 8.87638 27.3086V28.9822H9.53693V27.3149C9.53693 26.7927 9.83902 26.5161 10.2731 26.5161C10.7198 26.5161 10.9336 26.799 10.9336 27.3086V28.9822H11.5942ZM36.8414 18.9671V18.5267H36.7265L36.5945 18.8295L36.4622 18.5267H36.3472V18.9671H36.4285V18.6351L36.5523 18.9211H36.6364L36.7602 18.6342V18.9671H36.8414ZM36.1138 18.9671V18.6017H36.2609V18.5274H35.886V18.6017H36.0334V18.9671H36.1138Z" fill="#5E616A"/>
</g>
</svg>
