<svg width="112" height="12" viewBox="0 0 112 12" fill="none" xmlns="http://www.w3.org/2000/svg">
<g clip-path="url(#clip0)">
<path d="M5.86324 0.322021C8.86411 0.322021 11.2584 2.81061 11.2584 5.85585C11.2584 8.90109 8.86411 11.3569 5.86324 11.3569C2.86238 11.3569 0.5 8.90109 0.5 5.85585C0.5 2.81061 2.86238 0.322021 5.86324 0.322021ZM5.86324 8.93384C7.5233 8.93384 8.86411 7.55857 8.86411 5.88859C8.86411 4.18588 7.5233 2.81061 5.86324 2.81061C4.23512 2.81061 2.89431 4.21862 2.89431 5.88859C2.89431 7.52582 4.23512 8.93384 5.86324 8.93384ZM13.0142 0.747701C13.0142 0.583978 13.1419 0.453 13.3016 0.453H16.909C18.7606 0.453 20.261 1.99199 20.261 3.85843C20.261 5.75762 18.7606 7.32935 16.909 7.32935H15.3447V10.9313C15.3447 11.095 15.217 11.226 15.0574 11.226H13.3016C13.1419 11.226 13.0142 11.095 13.0142 10.9313V0.747701ZM16.7813 5.06998C17.4198 5.06998 17.9625 4.54607 17.9625 3.85843C17.9625 3.20354 17.4198 2.71237 16.7813 2.71237H15.3447V5.06998H16.7813ZM21.9211 0.747701C21.9211 0.583978 22.0487 0.453 22.2084 0.453H28.4016C28.5613 0.453 28.689 0.583978 28.689 0.747701V2.41767C28.689 2.5814 28.5613 2.71237 28.4016 2.71237H24.2515V4.61156H27.6674C27.827 4.61156 27.9547 4.74254 27.9547 4.90626V6.57623C27.9547 6.73995 27.827 6.87093 27.6674 6.87093H24.2515V8.93384H28.4016C28.5613 8.93384 28.689 9.06482 28.689 9.22854V10.8985C28.689 11.0622 28.5613 11.1932 28.4016 11.1932H22.2084C22.0487 11.1932 21.9211 11.0622 21.9211 10.8985V0.747701ZM30.6682 0.583978C30.6682 0.420255 30.7959 0.322021 30.9556 0.322021H31.3387L37.3085 6.21604V0.747701C37.3085 0.583978 37.4361 0.453 37.5958 0.453H39.3835C39.5431 0.453 39.6708 0.583978 39.6708 0.747701V11.095C39.6708 11.2587 39.5431 11.3569 39.3835 11.3569H39.1281C39.0962 11.3569 38.9685 11.3242 38.9366 11.2914L33.0626 5.20096V10.9313C33.0626 11.095 32.9349 11.226 32.7752 11.226H30.9875C30.8279 11.226 30.7002 11.095 30.7002 10.9313L30.6682 0.583978ZM45.5768 0.747701C45.5768 0.583978 45.7045 0.453 45.8641 0.453H49.3438C51.0997 0.453 52.5682 1.69729 52.5682 3.30178C52.5682 4.48058 51.5466 5.33194 50.8443 5.72487C51.6424 6.05232 52.8555 6.80544 52.8555 8.21346C52.8555 9.94892 51.387 11.1932 49.5992 11.1932H45.896C45.7364 11.1932 45.6087 11.0622 45.6087 10.8985V0.747701H45.5768ZM49.0884 4.84077C49.6631 4.84077 50.1419 4.3496 50.1419 3.72745C50.1419 3.10531 49.6631 2.67963 49.0884 2.67963H47.9072V4.84077H49.0884ZM49.28 9.03207C49.8546 9.03207 50.3654 8.5409 50.3654 7.91876C50.3654 7.29661 49.7269 6.83819 49.1523 6.83819H47.9392V9.03207H49.28ZM53.7494 10.833L58.4422 0.485744C58.4741 0.387511 58.6018 0.322021 58.6976 0.322021H58.8572C58.953 0.322021 59.0807 0.387511 59.1126 0.485744L63.8054 10.833C63.9012 11.0295 63.7735 11.226 63.55 11.226H61.89C61.6346 11.226 61.5069 11.1277 61.3792 10.833L60.8365 9.62147H56.7502L56.2075 10.8658C56.1437 11.0622 55.9521 11.226 55.6648 11.226H54.0047C53.7813 11.226 53.6536 11.0295 53.7494 10.833ZM59.9107 7.52582L58.7614 5.00449L57.6441 7.52582H59.9107ZM65.2101 0.583978C65.2101 0.420255 65.3378 0.322021 65.4974 0.322021H65.8805L71.8503 6.21604V0.747701C71.8503 0.583978 71.978 0.453 72.1376 0.453H73.9254C74.085 0.453 74.2127 0.583978 74.2127 0.747701V11.095C74.2127 11.2587 74.085 11.3569 73.9254 11.3569H73.67C73.638 11.3569 73.5104 11.3242 73.4784 11.2914L67.6044 5.20096V10.9313C67.6044 11.095 67.4767 11.226 67.3171 11.226H65.5293C65.3697 11.226 65.242 11.095 65.242 10.9313L65.2101 0.583978ZM76.5431 0.845934C76.5431 0.649467 76.7028 0.485744 76.8943 0.485744H78.6501C78.8417 0.485744 79.0013 0.649467 79.0013 0.845934V4.87351L82.3214 0.616722C82.3852 0.551233 82.5129 0.453 82.6087 0.453H84.4922C84.7795 0.453 84.9392 0.780445 84.7476 1.00966L81.236 5.5284L85.0669 10.6366C85.2265 10.8658 85.0669 11.1932 84.7795 11.1932H82.7045C82.6087 11.1932 82.4491 11.1277 82.4491 11.095L79.0013 6.28153V10.8658C79.0013 11.0622 78.8417 11.226 78.6501 11.226H76.8943C76.6708 11.226 76.5431 11.0622 76.5431 10.8658V0.845934ZM86.8227 0.747701C86.8227 0.583978 86.9504 0.453 87.11 0.453H88.8978C89.0574 0.453 89.1851 0.583978 89.1851 0.747701V10.9313C89.1851 11.095 89.0574 11.226 88.8978 11.226H87.11C86.9504 11.226 86.8227 11.095 86.8227 10.9313V0.747701ZM91.5475 0.583978C91.5475 0.420255 91.6751 0.322021 91.8348 0.322021H92.2179L98.1877 6.21604V0.747701C98.1877 0.583978 98.3154 0.453 98.475 0.453H100.263C100.422 0.453 100.55 0.583978 100.55 0.747701V11.095C100.55 11.2587 100.422 11.3569 100.263 11.3569H100.007C99.9754 11.3569 99.8477 11.3242 99.8158 11.2914L93.9098 5.20096V10.9313C93.9098 11.095 93.7821 11.226 93.6225 11.226H91.8348C91.6751 11.226 91.5475 11.095 91.5475 10.9313V0.583978ZM107.669 0.322021C108.914 0.322021 110.319 0.845934 111.34 1.76278C111.468 1.86102 111.5 2.05748 111.372 2.18846L110.191 3.4655C110.063 3.56373 109.904 3.56373 109.776 3.4655C109.201 2.94159 108.563 2.71237 107.829 2.71237C106.201 2.71237 104.892 4.12039 104.892 5.8231C104.892 7.49308 106.233 8.86835 107.861 8.86835C108.308 8.86835 108.755 8.80286 109.201 8.60639V7.72229H108.244C108.084 7.72229 107.956 7.59131 107.956 7.46033V5.95408C107.956 5.79036 108.084 5.65938 108.244 5.65938H111.245C111.404 5.65938 111.5 5.79036 111.5 5.95408V10.0799C111.5 10.1454 111.436 10.2764 111.372 10.3419C111.372 10.3419 109.84 11.3242 107.669 11.3242C104.7 11.3242 102.306 8.90109 102.306 5.8231C102.306 2.74512 104.668 0.322021 107.669 0.322021Z" fill="#5E616A"/>
</g>
<defs>
<clipPath id="clip0">
<rect width="111" height="11.0349" fill="white" transform="translate(0.5 0.322021)"/>
</clipPath>
</defs>
</svg>
