<svg width="55" height="36" viewBox="0 0 55 36" fill="none" xmlns="http://www.w3.org/2000/svg">
<path d="M3.97998 32.8199H51.02V3.17993H3.97998V32.8199Z" fill="white"/>
<path d="M3.97998 28.5598H51.02V32.8198H3.97998V28.5598Z" fill="#5E616A"/>
<path d="M3.97998 7.43993H51.02V3.17993H3.97998V7.43993Z" fill="#5E616A"/>
<path fill-rule="evenodd" clip-rule="evenodd" d="M35.2324 18.8578C35.2324 16.9926 33.71 16.1781 32.4982 15.5298C31.6829 15.0937 31.0083 14.7328 31.0324 14.1778C31.0324 13.7578 31.4524 13.3378 32.2924 13.2178C32.7124 13.1578 33.9124 13.0978 35.2324 13.7578L35.7724 11.2378C35.0524 10.9978 34.0924 10.6978 32.9524 10.6978C30.0124 10.6978 27.9124 12.3178 27.8524 14.5978C27.8524 16.2778 29.3524 17.2378 30.4924 17.7778C31.6924 18.3778 32.0524 18.7378 32.0524 19.2178C32.0524 19.9978 31.0924 20.3578 30.2524 20.3578C28.7756 20.3578 27.8803 19.9506 27.2231 19.6517L27.1924 19.6378L26.6524 22.2178C27.3724 22.5178 28.6324 22.8178 30.0124 22.8178C33.1924 22.8778 35.2324 21.3178 35.2324 18.8578ZM27.0724 10.9378L24.6124 22.6978H21.6124L24.0724 10.9378H27.0724ZM39.7323 18.4978L41.2923 14.0578L42.1923 18.4978H39.7323ZM45.8524 22.6978H43.0924L42.7324 20.8978H38.8924L38.2924 22.6378H35.1124L39.6124 11.7778C39.7924 11.2978 40.2724 10.9378 40.8724 10.9378H43.4524L45.8524 22.6978ZM17.9524 22.6978L22.8124 10.9378H19.6324L16.5124 18.9178L15.2524 12.1378C15.1324 11.3578 14.5324 10.9378 13.8724 10.9378H8.7724L8.7124 11.2978C9.7324 11.5378 10.9324 11.8978 11.6524 12.3178C12.0724 12.5578 12.2524 12.7378 12.3724 13.3378L14.7724 22.6978H17.9524Z" fill="#5E616A"/>
<path d="M32.2275 25.5373H31.0875V26.6173H32.4075V26.9773H30.6675V23.9773H32.2875V24.2773H31.0875V25.2373H32.2275V25.5373Z" fill="#1A1F71"/>
<path d="M32.96 23.8201H33.38V26.9401H32.96V23.8201Z" fill="#1A1F71"/>
<path fill-rule="evenodd" clip-rule="evenodd" d="M35.0531 26.6544C34.6931 26.6544 34.3331 26.4744 34.3331 25.9344H35.8931V25.7544C35.8931 25.3344 35.7131 24.7344 34.9931 24.7344C34.3931 24.7344 33.9131 25.2144 33.9131 25.8744C33.9131 26.5344 34.3331 26.9544 34.9931 26.9544C35.3531 26.9544 35.5931 26.8944 35.7131 26.8344L35.6531 26.5344C35.5331 26.5944 35.3531 26.6544 35.0531 26.6544ZM34.933 25.0344C35.353 25.0344 35.473 25.4544 35.473 25.6944H34.333C34.393 25.3944 34.513 25.0344 34.933 25.0344Z" fill="#1A1F71"/>
<path d="M38.0145 26.8661C37.8945 26.9261 37.7145 26.9861 37.4145 26.9861C36.7545 26.9861 36.3345 26.5661 36.3345 25.9061C36.3345 25.2461 36.8145 24.7661 37.4745 24.7661C37.7145 24.7661 37.8945 24.8261 38.0145 24.8861L37.9545 25.1861C37.8345 25.1261 37.7145 25.0661 37.4745 25.0661C36.9945 25.0661 36.6945 25.4261 36.6945 25.9061C36.6945 26.3861 36.9945 26.6861 37.4145 26.6861C37.6545 26.6861 37.7745 26.6261 37.8945 26.5661L38.0145 26.8661Z" fill="#1A1F71"/>
<path d="M39.0769 24.3052V24.8452H39.6169V25.1452H39.0769V26.2852C39.0769 26.5252 39.1369 26.7052 39.3769 26.7052C39.4969 26.7052 39.5569 26.7052 39.6169 26.7052V27.0052C39.5569 27.0052 39.4369 27.0652 39.2569 27.0652C39.0769 27.0652 38.9569 27.0052 38.8369 26.8852C38.7169 26.7652 38.6569 26.5852 38.6569 26.3452V25.1452H38.2969V24.8452H38.6569V24.4252L39.0769 24.3052Z" fill="#1A1F71"/>
<path d="M40.1836 25.4439C40.1836 25.2039 40.1836 24.9639 40.1836 24.7839H40.5436V25.2039C40.6636 24.9039 40.9036 24.7239 41.1436 24.7239C41.2036 24.7239 41.2036 24.7239 41.2636 24.7239V25.0839C41.2036 25.0839 41.2036 25.0839 41.1436 25.0839C40.8436 25.0839 40.6636 25.2639 40.6036 25.5639C40.6036 25.6239 40.6036 25.6839 40.6036 25.7439V26.8839H40.1836V25.4439H40.1836Z" fill="#1A1F71"/>
<path fill-rule="evenodd" clip-rule="evenodd" d="M42.584 27.0188C43.124 27.0188 43.664 26.6588 43.664 25.8788C43.664 25.2188 43.244 24.7388 42.644 24.7988C42.044 24.7988 41.564 25.2188 41.564 25.9388C41.564 26.5988 41.984 27.0188 42.584 27.0188ZM42.6439 26.7188C42.2239 26.7188 41.9839 26.3588 41.9839 25.8788C41.9839 25.4588 42.1639 25.0388 42.6439 25.0388C43.1239 25.0388 43.3039 25.5188 43.3039 25.8788C43.3039 26.3588 43.0039 26.7188 42.6439 26.7188Z" fill="#1A1F71"/>
<path d="M44.252 25.3551C44.252 25.1151 44.252 24.9351 44.252 24.7551H44.612V25.1151C44.732 24.9351 44.972 24.6951 45.3319 24.6951C45.6319 24.6951 46.1119 24.8751 46.1119 25.5951V26.8551H45.6919V25.5951C45.6919 25.2351 45.5719 24.9351 45.2119 24.9351C44.972 24.9351 44.732 25.1151 44.672 25.3551C44.672 25.4151 44.672 25.4751 44.672 25.5351V26.8551H44.252V25.3551H44.252Z" fill="#1A1F71"/>
</svg>
