<svg width="38" height="30" viewBox="0 0 38 30" fill="none" xmlns="http://www.w3.org/2000/svg">
<path fill-rule="evenodd" clip-rule="evenodd" d="M19.0486 3.02899C18.9025 3.14397 18.7595 3.26241 18.6196 3.384C16.23 5.46331 14.7174 8.52417 14.7174 11.9403C14.7174 15.3562 16.23 18.4171 18.6196 20.4961C18.7595 20.618 18.9025 20.7364 19.0486 20.8514C19.1948 20.7364 19.3378 20.618 19.478 20.4961C21.8676 18.4171 23.3799 15.3562 23.3799 11.9403C23.3799 8.52417 21.8676 5.46331 19.478 3.384C19.3378 3.26241 19.1948 3.14397 19.0486 3.02899ZM26.0571 0.600342C23.7352 0.600342 21.5771 1.29838 19.7794 2.49538C19.8714 2.57067 19.9646 2.64501 20.0535 2.7225C22.725 5.04657 24.2575 8.40636 24.2575 11.9403C24.2575 15.474 22.725 18.8335 20.0538 21.1579C19.9653 21.235 19.8714 21.3094 19.7794 21.3847C21.5771 22.582 23.7352 23.28 26.0571 23.28C32.3199 23.28 37.3971 18.2032 37.3971 11.9403C37.3971 5.6772 32.3199 0.600342 26.0571 0.600342ZM18.0438 21.1579C18.1323 21.2351 18.2259 21.3094 18.3178 21.3847C16.5204 22.582 14.3621 23.28 12.0402 23.28C5.77705 23.28 0.700195 18.2032 0.700195 11.9404C0.700195 5.67753 5.77705 0.600359 12.0402 0.600359C14.3621 0.600359 16.5204 1.2984 18.3178 2.4954C18.2259 2.57068 18.1329 2.64502 18.0438 2.7222C15.3723 5.04658 13.8401 8.40637 13.8401 11.9404C13.8401 15.474 15.3723 18.8338 18.0438 21.1579ZM37.042 18.9674V18.527H36.9267L36.7944 18.8297L36.6625 18.527H36.5475V18.9674H36.6288V18.635L36.7529 18.9214H36.8367L36.9608 18.6344V18.9674H37.042ZM36.3141 18.9674V18.602H36.4612V18.5276H36.0861V18.602H36.2335V18.9674H36.3141ZM36.6685 28.7576V28.8316H36.7368C36.7523 28.8316 36.7649 28.8284 36.774 28.8225C36.7831 28.8162 36.7879 28.8067 36.7879 28.7941C36.7879 28.7818 36.7831 28.7727 36.774 28.7664C36.7649 28.7607 36.7523 28.7576 36.7368 28.7576H36.6685ZM36.7374 28.7053C36.773 28.7053 36.8004 28.7131 36.82 28.7292C36.8392 28.7453 36.8486 28.7667 36.8486 28.7941C36.8486 28.8171 36.8411 28.836 36.8256 28.8511C36.8102 28.8656 36.7885 28.8751 36.7601 28.8785L36.8508 28.9834H36.78L36.6955 28.8788H36.6684V28.9834H36.6092V28.7053H36.7374ZM36.7198 29.0785C36.7523 29.0785 36.7819 29.0726 36.8099 29.0606C36.8379 29.0483 36.8622 29.0316 36.8833 29.0102C36.9044 28.9894 36.9208 28.9648 36.9328 28.9365C36.9447 28.9078 36.951 28.8779 36.951 28.8454C36.951 28.8133 36.9447 28.7831 36.9328 28.7544C36.9208 28.7261 36.9044 28.7015 36.8833 28.6804C36.8622 28.6593 36.8379 28.6426 36.8099 28.6306C36.7819 28.6186 36.7523 28.613 36.7198 28.613C36.6871 28.613 36.6562 28.6186 36.6275 28.6306C36.5989 28.6426 36.5743 28.6593 36.5532 28.6804C36.5321 28.7015 36.5157 28.7261 36.5037 28.7544C36.4918 28.7831 36.4858 28.8133 36.4858 28.8454C36.4858 28.8779 36.4918 28.9078 36.5037 28.9365C36.5157 28.9648 36.5321 28.9894 36.5532 29.0102C36.5743 29.0316 36.5989 29.0483 36.6275 29.0606C36.6562 29.0726 36.6871 29.0785 36.7198 29.0785ZM36.7198 28.5462C36.7617 28.5462 36.8014 28.5538 36.8383 28.5695C36.8751 28.5853 36.9076 28.6064 36.9353 28.6338C36.9627 28.6609 36.9844 28.6927 37.0005 28.7292C37.0163 28.7654 37.0241 28.8042 37.0241 28.8454C37.0241 28.8864 37.0163 28.9251 37.0005 28.9614C36.9844 28.9973 36.9627 29.0291 36.9353 29.0562C36.9076 29.0836 36.8751 29.1047 36.8383 29.1208C36.8014 29.1368 36.7617 29.1447 36.7198 29.1447C36.6767 29.1447 36.6364 29.1368 36.5989 29.1208C36.5617 29.1047 36.5293 29.0836 36.5022 29.0562C36.4745 29.0291 36.4527 28.9973 36.437 28.9614C36.4212 28.9251 36.413 28.8864 36.413 28.8454C36.413 28.8042 36.4212 28.7654 36.437 28.7292C36.4527 28.6927 36.4745 28.6609 36.5022 28.6338C36.5293 28.6064 36.5617 28.5853 36.5989 28.5695C36.6364 28.5538 36.6767 28.5462 36.7198 28.5462ZM8.62969 27.4768C8.62969 26.9479 8.97588 26.5132 9.54288 26.5132C10.0847 26.5132 10.4501 26.929 10.4501 27.4768C10.4501 28.0252 10.0847 28.4407 9.54288 28.4407C8.97588 28.4407 8.62969 28.006 8.62969 27.4768ZM11.0675 27.4768V25.9714H10.4123V26.3368C10.2044 26.0662 9.88938 25.8961 9.46098 25.8961C8.61709 25.8961 7.95559 26.5573 7.95559 27.4768C7.95559 28.3966 8.61709 29.0581 9.46098 29.0581C9.88938 29.0581 10.2044 28.888 10.4123 28.6171V28.9828H11.0675V27.4768ZM33.1899 27.4768C33.1899 26.9479 33.5364 26.5132 34.1031 26.5132C34.6449 26.5132 35.0103 26.929 35.0103 27.4768C35.0103 28.0252 34.6449 28.4407 34.1031 28.4407C33.5364 28.4407 33.1899 28.006 33.1899 27.4768ZM35.6277 27.4768V24.7621H34.9725V26.3368C34.7646 26.0662 34.4496 25.8961 34.0215 25.8961C33.1773 25.8961 32.5158 26.5573 32.5158 27.4768C32.5158 28.3966 33.1773 29.0581 34.0215 29.0581C34.4496 29.0581 34.7646 28.888 34.9725 28.6171V28.9828H35.6277V27.4768ZM19.1932 26.4817C19.6153 26.4817 19.8862 26.7463 19.9552 27.2122H18.3931C18.4624 26.7778 18.727 26.4817 19.1932 26.4817ZM19.2058 25.8961C18.3238 25.8961 17.7067 26.5384 17.7067 27.4768C17.7067 28.4344 18.349 29.0581 19.2499 29.0581C19.7035 29.0581 20.1193 28.9447 20.4844 28.636L20.1634 28.1509C19.9114 28.3528 19.5901 28.4659 19.2877 28.4659C18.8656 28.4659 18.4813 28.2706 18.3868 27.7288H20.6233C20.6293 27.6469 20.6359 27.5653 20.6359 27.4768C20.6293 26.5384 20.0497 25.8961 19.2058 25.8961ZM27.1111 27.4768C27.1111 26.9479 27.4579 26.5132 28.0249 26.5132C28.5664 26.5132 28.9318 26.929 28.9318 27.4768C28.9318 28.0252 28.5664 28.4407 28.0249 28.4407C27.4579 28.4407 27.1111 28.006 27.1111 27.4768ZM29.5489 27.4768V25.9714H28.8937V26.3368C28.6861 26.0662 28.3711 25.8961 27.9427 25.8961C27.0985 25.8961 26.4373 26.5573 26.4373 27.4768C26.4373 28.3966 27.0985 29.0581 27.9427 29.0581C28.3711 29.0581 28.6861 28.888 28.8937 28.6171V28.9828H29.5489V27.4768ZM23.4136 27.4768C23.4136 28.3906 24.0499 29.0581 25.0201 29.0581C25.4734 29.0581 25.7757 28.9576 26.1033 28.699L25.7883 28.1701C25.543 28.3462 25.2843 28.4407 25.0012 28.4407C24.4783 28.4344 24.094 28.0564 24.094 27.4768C24.094 26.8975 24.4783 26.5195 25.0012 26.5132C25.2843 26.5132 25.543 26.6077 25.7883 26.7841L26.1033 26.2549C25.7757 25.9966 25.4734 25.8961 25.0201 25.8961C24.0499 25.8961 23.4136 26.5636 23.4136 27.4768ZM31.8546 25.8961C31.4766 25.8961 31.2306 26.0722 31.0608 26.3368V25.9714H30.4119V28.9828H31.0671V27.2944C31.0671 26.7967 31.281 26.5195 31.7097 26.5195C31.842 26.5195 31.9803 26.5384 32.1192 26.5951L32.3205 25.978C32.1756 25.9213 31.9869 25.8961 31.8546 25.8961ZM14.305 26.2108C13.99 26.0032 13.5556 25.8961 13.0768 25.8961C12.3145 25.8961 11.8235 26.2612 11.8235 26.8597C11.8235 27.3511 12.1885 27.6535 12.8626 27.748L13.1713 27.7918C13.5301 27.8422 13.7002 27.9367 13.7002 28.1068C13.7002 28.3402 13.4608 28.4722 13.0138 28.4722C12.5602 28.4722 12.2326 28.3276 12.0121 28.1572L11.7034 28.6678C12.0625 28.9318 12.5161 29.0581 13.0075 29.0581C13.8766 29.0581 14.3806 28.6486 14.3806 28.0756C14.3806 27.5464 13.9837 27.2692 13.3288 27.1744L13.0201 27.1306C12.7366 27.0928 12.5098 27.0361 12.5098 26.8345C12.5098 26.614 12.724 26.4817 13.0831 26.4817C13.4671 26.4817 13.8388 26.6266 14.0218 26.74L14.305 26.2108ZM22.7521 25.8961C22.3744 25.8961 22.1287 26.0722 21.9586 26.3368V25.9714H21.3097V28.9828H21.9646V27.2944C21.9646 26.7967 22.1791 26.5195 22.6072 26.5195C22.7395 26.5195 22.8784 26.5384 23.0167 26.5951L23.2183 25.978C23.0734 25.9213 22.8844 25.8961 22.7521 25.8961ZM17.1649 25.9714H16.0943V25.0582H15.4328V25.9714H14.8217V26.5699H15.4328V27.9433C15.4328 28.6426 15.7033 29.0581 16.4782 29.0581C16.7617 29.0581 17.0893 28.9699 17.2972 28.8253L17.1082 28.2643C16.9129 28.378 16.6987 28.4344 16.5286 28.4344C16.201 28.4344 16.0943 28.2331 16.0943 27.9307V26.5699H17.1649V25.9714ZM7.37599 28.9828V27.0928C7.37599 26.3809 6.92239 25.9021 6.1919 25.8961C5.8076 25.8895 5.4107 26.0092 5.1335 26.4313C4.9256 26.0974 4.598 25.8961 4.13842 25.8961C3.81712 25.8961 3.50212 25.9906 3.25642 26.3434V25.9714H2.60122V28.9828H3.26272V27.3133C3.26272 26.7904 3.55252 26.5132 3.99981 26.5132C4.4342 26.5132 4.6547 26.7967 4.6547 27.3067V28.9828H5.3162V27.3133C5.3162 26.7904 5.6186 26.5132 6.0533 26.5132C6.5006 26.5132 6.71449 26.7967 6.71449 27.3067V28.9828H7.37599Z" fill="#5E616A"/>
</svg>
