<svg width="55" height="36" viewBox="0 0 55 36" fill="none" xmlns="http://www.w3.org/2000/svg">
<path fill-rule="evenodd" clip-rule="evenodd" d="M7.30029 7.23169H12.5839C13.4695 7.23169 14.1414 7.4537 14.5996 7.89771C15.0577 8.34173 15.302 8.91261 15.302 9.57863C15.302 10.1495 15.1187 10.6252 14.8133 11.0058C14.5995 11.2596 14.2636 11.4816 13.836 11.6401C14.4774 11.7987 14.966 12.0842 15.2714 12.4965C15.5769 12.9088 15.7296 13.3845 15.7296 13.9871C15.7296 14.4628 15.6074 14.9068 15.3936 15.3191C15.1798 15.6997 14.8744 16.0169 14.4774 16.2389C14.2331 16.3657 13.8971 16.4926 13.4085 16.556C12.7671 16.6512 12.3395 16.6829 12.1563 16.6829H7.30029V7.23169ZM10.1406 10.9424H11.3622C11.7898 10.9424 12.0952 10.879 12.2784 10.7204C12.4617 10.5618 12.5228 10.3398 12.5228 10.0544C12.5228 9.76892 12.4311 9.57863 12.2784 9.42005C12.0952 9.26147 11.8203 9.19804 11.3927 9.19804H10.1406V10.9424ZM11.576 14.6531H10.1406V12.7502H11.576C12.0646 12.7502 12.4311 12.8453 12.6144 13.0039C12.8282 13.1625 12.9198 13.3845 12.9198 13.6699C12.9198 13.9871 12.8282 14.2091 12.6144 14.3994C12.4006 14.558 12.0646 14.6531 11.576 14.6531Z" fill="#5E616A"/>
<path fill-rule="evenodd" clip-rule="evenodd" d="M19.6135 15.1288H22.8166L23.2786 16.6829H26.2661L22.8166 7.19995H19.7059L16.2563 16.6829H19.1515L19.6135 15.1288ZM21.2457 9.67375L22.2621 13.0673H20.2294L21.2457 9.67375Z" fill="#5E616A"/>
<path d="M27.3511 7.19995H30.0442L33.5515 12.433V7.19995H36.2759V16.6829H33.5515L30.0442 11.4815V16.6829H27.3198V7.19995H27.3511Z" fill="#5E616A"/>
<path d="M38.3833 7.19995H41.2883V10.7838L44.3513 7.19995H48.2352L44.7933 10.7838L48.3931 16.6829H44.7933L42.804 12.7819L41.2883 14.3676V16.6829H38.3833C38.3833 16.6829 38.3833 7.19995 38.3833 7.19995Z" fill="#5E616A"/>
<path d="M9.40771 19.3171H12.1805L13.1888 24.6136L14.6382 19.3171H17.3795L18.8289 24.6136L19.8372 19.3171H22.5784L20.4989 28.8001H17.6315L15.9931 22.8376L14.3546 28.8001H11.5188L9.43922 19.3171H9.40771Z" fill="#5E616A"/>
<path d="M23.1055 19.3171H26.2664V28.8001H23.1395V19.3171H23.1055Z" fill="#5E616A"/>
<path fill-rule="evenodd" clip-rule="evenodd" d="M28.3735 19.3171V28.8001H31.3732V24.9625H31.6313C31.9216 24.9625 32.1474 25.0259 32.3731 25.1845C32.5344 25.3114 32.7279 25.5334 32.9215 25.914L34.502 28.8001H37.8565L36.405 26.0408C36.3527 25.9124 36.237 25.7631 36.0921 25.5762C36.0581 25.5323 36.0225 25.4864 35.9857 25.4382C35.952 25.4004 35.9197 25.3639 35.8889 25.3291C35.7132 25.1305 35.5842 24.9847 35.5019 24.9308C35.3406 24.8039 35.0825 24.7088 34.7277 24.5819C35.1471 24.4868 35.5019 24.3599 35.7599 24.2013C36.147 23.9793 36.4695 23.6622 36.6953 23.2816C36.9211 22.901 37.0501 22.457 37.0501 21.9178C37.0501 21.3152 36.8888 20.8078 36.5985 20.3955C36.3082 19.9832 35.9212 19.6977 35.4373 19.5391C34.9535 19.3806 34.2762 19.3171 33.3408 19.3171H28.3735ZM32.6312 23.1547H31.3732V21.2518H32.6957C33.2118 21.2518 33.5988 21.3469 33.7923 21.5055C33.9859 21.6641 34.0826 21.8861 34.0826 22.2032C34.0826 22.3935 34.0181 22.5838 33.8891 22.7424C33.7601 22.901 33.5988 22.9961 33.4053 23.0278C33.0182 23.123 32.7602 23.1547 32.6312 23.1547Z" fill="#5E616A"/>
<path d="M38.4147 19.3171H46.1603V21.3469H41.2997V22.8376H45.8154V24.7722H41.2997V26.6434H46.2857V28.8001H38.3833V19.3171H38.4147V19.3171Z" fill="#5E616A"/>
</svg>
