<svg width="55" height="36" viewBox="0 0 55 36" fill="none" xmlns="http://www.w3.org/2000/svg">
<mask id="mask0" mask-type="alpha" maskUnits="userSpaceOnUse" x="1" y="1" width="53" height="34">
<path fill-rule="evenodd" clip-rule="evenodd" d="M1.7002 1.5105H53.0793V34.403H1.7002V1.5105Z" fill="white"/>
</mask>
<g mask="url(#mask0)">
<path fill-rule="evenodd" clip-rule="evenodd" d="M48.4781 1.5105H6.30155C6.12586 1.5105 5.94985 1.5105 5.77447 1.51143C5.6261 1.51267 5.47834 1.51422 5.33059 1.51826C5.00807 1.52695 4.68276 1.54588 4.36428 1.60331C4.04053 1.66136 3.73943 1.75634 3.44578 1.90596C3.1571 2.05309 2.89263 2.24493 2.66355 2.47401C2.43416 2.7034 2.24233 2.96725 2.0955 3.25655C1.94588 3.5502 1.8509 3.85129 1.79285 4.17505C1.73543 4.49384 1.71618 4.81884 1.70749 5.14105C1.70345 5.28911 1.7019 5.43687 1.70097 5.58462C1.69973 5.76031 1.70035 5.936 1.70035 6.11201V29.8021C1.70035 29.9778 1.69973 30.1529 1.70097 30.3292C1.7019 30.477 1.70345 30.625 1.70749 30.7731C1.71618 31.095 1.73543 31.42 1.79285 31.7385C1.8509 32.0625 1.94588 32.3636 2.0955 32.6573C2.24233 32.9463 2.43416 33.2104 2.66355 33.4392C2.89263 33.6692 3.1571 33.861 3.44578 34.0076C3.73943 34.1575 4.04053 34.2525 4.36428 34.3108C4.68276 34.3676 5.00807 34.3869 5.33059 34.3956C5.47834 34.399 5.6261 34.4012 5.77447 34.4018C5.94985 34.403 6.12586 34.403 6.30155 34.403H48.4781C48.6535 34.403 48.8295 34.403 49.0049 34.4018C49.1529 34.4012 49.3004 34.399 49.4494 34.3956C49.771 34.3869 50.0963 34.3676 50.4154 34.3108C50.7385 34.2525 51.0399 34.1575 51.3336 34.0076C51.6229 33.861 51.8861 33.6692 52.1158 33.4392C52.3446 33.2104 52.5367 32.9463 52.6841 32.6573C52.8338 32.3636 52.9287 32.0625 52.9862 31.7385C53.0439 31.42 53.0628 31.095 53.0715 30.7731C53.0756 30.625 53.0771 30.477 53.0781 30.3292C53.0793 30.1529 53.0793 29.9778 53.0793 29.8021V6.11201C53.0793 5.936 53.0793 5.76031 53.0781 5.58462C53.0771 5.43687 53.0756 5.28911 53.0715 5.14105C53.0628 4.81884 53.0439 4.49384 52.9862 4.17505C52.9287 3.85129 52.8338 3.5502 52.6841 3.25655C52.5367 2.96725 52.3446 2.7034 52.1158 2.47401C51.8861 2.24493 51.6229 2.05309 51.3336 1.90596C51.0399 1.75634 50.7385 1.66136 50.4154 1.60331C50.0963 1.54588 49.771 1.52695 49.4494 1.51826C49.3004 1.51422 49.1529 1.51267 49.0049 1.51143C48.8295 1.5105 48.6535 1.5105 48.4781 1.5105Z" fill="#5E616A"/>
</g>
<path fill-rule="evenodd" clip-rule="evenodd" d="M48.4781 2.60693L48.9971 2.60786C49.1377 2.6088 49.278 2.61035 49.4195 2.61407C49.6654 2.6209 49.9528 2.63425 50.221 2.68236C50.4538 2.72427 50.6494 2.7879 50.8372 2.88351C51.0222 2.97756 51.1917 3.10079 51.34 3.24886C51.4884 3.39755 51.6123 3.56765 51.7073 3.75483C51.8022 3.94076 51.8659 4.13539 51.9075 4.37006C51.9553 4.63546 51.9686 4.92352 51.9755 5.17091C51.9792 5.3106 51.981 5.45028 51.9817 5.59338C51.9832 5.76597 51.9829 5.93887 51.9829 6.11208V29.8019C51.9829 29.9751 51.9832 30.1477 51.9817 30.324C51.981 30.4637 51.9792 30.6031 51.9755 30.7434C51.9686 30.9901 51.9553 31.2782 51.9069 31.5464C51.8659 31.7783 51.8026 31.9729 51.707 32.1598C51.612 32.3466 51.4884 32.5164 51.3407 32.6642C51.1917 32.8132 51.0225 32.9361 50.8353 33.0311C50.6491 33.1261 50.4538 33.1897 50.2232 33.2313C49.9497 33.28 49.6499 33.2934 49.4245 33.2996C49.2823 33.303 49.1411 33.3049 48.9965 33.3052C48.8239 33.3067 48.651 33.3067 48.4781 33.3067H6.30153H6.2947C6.12397 33.3067 5.95294 33.3067 5.77942 33.3052C5.63787 33.3049 5.49664 33.303 5.36006 33.2999C5.12942 33.2934 4.82926 33.28 4.55827 33.2316C4.32546 33.1897 4.13022 33.1261 3.9418 33.0298C3.75617 32.9358 3.587 32.8132 3.438 32.6636C3.29025 32.5161 3.16733 32.3469 3.07234 32.1598C2.97736 31.9732 2.91372 31.778 2.87182 31.5436C2.82339 31.2757 2.81004 30.9889 2.80353 30.7437C2.7998 30.6027 2.79794 30.4624 2.79732 30.3228L2.79639 29.9108V29.8019V6.11208V6.00312L2.79701 5.59183C2.79794 5.45152 2.7998 5.31091 2.80353 5.1706C2.81004 4.92507 2.82339 4.63794 2.87213 4.36789C2.91372 4.1357 2.97736 3.94076 3.07296 3.75296C3.16702 3.56734 3.29025 3.39786 3.43893 3.24917C3.587 3.10111 3.75648 2.97787 3.94335 2.8832C4.1299 2.7879 4.32515 2.72427 4.55796 2.68236C4.82615 2.63425 5.1139 2.6209 5.36037 2.61407C5.50098 2.61035 5.6416 2.6088 5.78066 2.60786L6.30153 2.60693H48.4781Z" fill="#FEFEFE"/>
<path fill-rule="evenodd" clip-rule="evenodd" d="M15.2056 12.6137C15.6411 12.0689 15.9366 11.3373 15.8587 10.5898C15.2211 10.6218 14.4432 11.0104 13.9928 11.5558C13.5884 12.0227 13.2301 12.7847 13.3236 13.5009C14.0394 13.5629 14.7543 13.1433 15.2056 12.6137Z" fill="#231F20"/>
<path fill-rule="evenodd" clip-rule="evenodd" d="M15.8503 13.6408C14.8107 13.5791 13.9273 14.2306 13.431 14.2306C12.934 14.2306 12.1741 13.6722 11.3518 13.6871C10.2819 13.7029 9.28887 14.3079 8.74596 15.2702C7.62911 17.195 8.45138 20.0505 9.5375 21.6184C10.0649 22.3941 10.7003 23.248 11.5378 23.2173C12.3293 23.1862 12.6394 22.7051 13.6014 22.7051C14.5627 22.7051 14.8421 23.2173 15.6799 23.2018C16.5484 23.1862 17.0916 22.4257 17.619 21.6494C18.224 20.7654 18.4717 19.9114 18.4872 19.8646C18.4717 19.849 16.8123 19.2124 16.7967 17.3034C16.7812 15.7051 18.0998 14.9446 18.1616 14.8974C17.4172 13.7961 16.2538 13.6722 15.8503 13.6408Z" fill="#5E616A"/>
<path fill-rule="evenodd" clip-rule="evenodd" d="M23.6562 17.6261H25.7301C27.3035 17.6261 28.1991 16.7789 28.1991 15.3104C28.1991 13.8419 27.3035 13.0028 25.7382 13.0028H23.6562V17.6261ZM26.2141 11.4778C28.4736 11.4778 30.0467 13.0348 30.0467 15.3023C30.0467 17.5776 28.4413 19.143 26.1579 19.143H23.6563V23.1209H21.8491V11.4778H26.2141Z" fill="#5E616A"/>
<path fill-rule="evenodd" clip-rule="evenodd" d="M35.9817 19.958V19.3043L33.9727 19.4337C32.8431 19.506 32.2543 19.9257 32.2543 20.6598C32.2543 21.37 32.8673 21.8298 33.8277 21.8298C35.0539 21.8298 35.9817 21.0472 35.9817 19.958ZM30.4951 20.7086C30.4951 19.2155 31.6328 18.3603 33.7305 18.2315L35.9816 18.094V17.4486C35.9816 16.5047 35.3605 15.9882 34.2551 15.9882C33.3431 15.9882 32.6816 16.4563 32.5447 17.1742H30.9148C30.9632 15.6653 32.383 14.5684 34.3035 14.5684C36.369 14.5684 37.7165 15.6495 37.7165 17.3276V23.1208H36.0462V21.7248H36.0058C35.53 22.6368 34.4811 23.2095 33.3431 23.2095C31.665 23.2095 30.4951 22.2091 30.4951 20.7086Z" fill="#5E616A"/>
<path fill-rule="evenodd" clip-rule="evenodd" d="M39.2519 26.2352V24.8396C39.3646 24.8554 39.639 24.8713 39.7843 24.8713C40.583 24.8713 41.0349 24.5329 41.3093 23.6613L41.4704 23.1451L38.4126 14.6731H40.3008L42.4308 21.5471H42.4712L44.6012 14.6731H46.441L43.2699 23.5725C42.5435 25.6138 41.7129 26.2836 39.9538 26.2836C39.8166 26.2836 39.373 26.2675 39.2519 26.2352Z" fill="#5E616A"/>
</svg>
