<svg width="55" height="36" viewBox="0 0 55 36" fill="none" xmlns="http://www.w3.org/2000/svg">
<path d="M48.7023 1.19995H6.14297C5.96569 1.19995 5.78809 1.19995 5.61112 1.20089C5.46171 1.20214 5.31261 1.20371 5.16321 1.20778C4.83777 1.21654 4.50951 1.23564 4.18814 1.29355C3.86176 1.35208 3.55793 1.44787 3.26162 1.59875C2.97001 1.74682 2.70346 1.94059 2.47198 2.1716C2.24082 2.40293 2.04694 2.66901 1.89878 2.96076C1.74781 3.25689 1.65196 3.56053 1.5937 3.88702C1.53544 4.2085 1.51634 4.53625 1.50757 4.86118C1.5035 5.01049 1.50162 5.1595 1.50068 5.3085C1.49974 5.48568 1.50005 5.66285 1.50005 5.84034V29.7303C1.50005 29.9078 1.49974 30.0847 1.50068 30.2622C1.50162 30.4112 1.5035 30.5605 1.50757 30.7095C1.51634 31.0341 1.53544 31.3622 1.5937 31.6833C1.65196 32.0098 1.74781 32.3135 1.89878 32.6099C2.04694 32.9014 2.24082 33.1677 2.47198 33.3988C2.70346 33.6301 2.97001 33.8239 3.26162 33.9716C3.55793 34.1228 3.86176 34.2186 4.18814 34.2774C4.50951 34.3347 4.83777 34.3541 5.16321 34.3629C5.31261 34.3663 5.46171 34.3685 5.61112 34.3692C5.78809 34.3704 5.96569 34.3704 6.14297 34.3704H48.7023C48.8793 34.3704 49.0569 34.3704 49.2338 34.3692C49.3829 34.3685 49.532 34.3663 49.6821 34.3629C50.0069 34.3541 50.3351 34.3347 50.6571 34.2774C50.9832 34.2186 51.287 34.1228 51.5836 33.9716C51.8752 33.8239 52.1412 33.6301 52.373 33.3988C52.6038 33.1677 52.7977 32.9014 52.9462 32.6099C53.0974 32.3135 53.1933 32.0098 53.2512 31.6833C53.3095 31.3622 53.3283 31.0341 53.3371 30.7095C53.3411 30.5605 53.343 30.4112 53.344 30.2622C53.3452 30.0847 53.3452 29.9078 53.3452 29.7303V5.84034C53.3452 5.66285 53.3452 5.48568 53.344 5.3085C53.343 5.1595 53.3411 5.01049 53.3371 4.86118C53.3283 4.53625 53.3095 4.2085 53.2512 3.88702C53.1933 3.56053 53.0974 3.25689 52.9462 2.96076C52.7977 2.66901 52.6038 2.40293 52.373 2.1716C52.1412 1.94059 51.8752 1.74682 51.5836 1.59875C51.287 1.44787 50.9832 1.35208 50.6571 1.29355C50.3351 1.23564 50.0069 1.21654 49.6821 1.20778C49.532 1.20371 49.3829 1.20214 49.2338 1.20089C49.0569 1.19995 48.8793 1.19995 48.7023 1.19995Z" fill="#5E616A"/>
<path d="M48.7024 2.30566L49.2261 2.3066C49.3677 2.30754 49.5096 2.30911 49.6521 2.31318C49.9002 2.31975 50.1905 2.33321 50.4611 2.38173C50.6961 2.42399 50.8934 2.48847 51.0826 2.58458C51.2696 2.67942 51.4406 2.80401 51.59 2.95301C51.74 3.10327 51.8647 3.2745 51.9608 3.46326C52.0567 3.65108 52.1206 3.84703 52.1629 4.08369C52.2111 4.35133 52.2246 4.64214 52.2312 4.89162C52.2352 5.03218 52.2371 5.17304 52.2377 5.31735C52.239 5.49171 52.239 5.66575 52.239 5.84042V29.7304C52.239 29.9051 52.239 30.0791 52.2377 30.2569C52.2371 30.3978 52.2352 30.5387 52.2312 30.6798C52.2246 30.9287 52.2111 31.2195 52.1623 31.49C52.1206 31.7235 52.0567 31.9195 51.9602 32.1082C51.8644 32.2967 51.74 32.4676 51.5906 32.6169C51.4403 32.7671 51.2699 32.8911 51.0807 32.9869C50.8928 33.0827 50.6961 33.1472 50.4633 33.1888C50.1871 33.2379 49.8848 33.2517 49.6571 33.2577C49.5139 33.2611 49.3714 33.263 49.2252 33.2636C49.0513 33.2649 48.8765 33.2649 48.7024 33.2649H6.14306C6.14087 33.2649 6.13867 33.2649 6.13617 33.2649C5.96421 33.2649 5.79162 33.2649 5.61653 33.2636C5.4737 33.263 5.33118 33.2611 5.19336 33.258C4.96032 33.2517 4.65775 33.2379 4.38399 33.1891C4.14907 33.1472 3.95237 33.0827 3.76193 32.9856C3.57462 32.8908 3.40423 32.7668 3.25388 32.6163C3.10478 32.4676 2.98075 32.297 2.8849 32.1082C2.78874 31.9198 2.72453 31.7232 2.68225 31.4868C2.6337 31.2167 2.62023 30.9275 2.61334 30.6798C2.60958 30.5384 2.60801 30.3966 2.60707 30.256L2.60645 29.8403V5.73086L2.60707 5.3161C2.60801 5.17429 2.60958 5.0328 2.61334 4.89131C2.62023 4.64339 2.6337 4.35383 2.68287 4.0815C2.72453 3.84766 2.78874 3.65076 2.88521 3.46138C2.98043 3.27419 3.10478 3.10327 3.25451 2.95364C3.40391 2.80401 3.57525 2.68005 3.7635 2.58426C3.95174 2.48816 4.14907 2.42399 4.38399 2.38173C4.65462 2.33321 4.94498 2.31975 5.19368 2.31318C5.33525 2.30911 5.47714 2.30754 5.61778 2.3066L6.14306 2.30566H48.7024Z" fill="#FFFFFE"/>
<path fill-rule="evenodd" clip-rule="evenodd" d="M26.461 23.2788V18.5512H28.9014C29.9014 18.5512 30.7455 18.2161 31.4336 17.5554L31.5987 17.3879C32.8556 16.0198 32.7731 13.8887 31.4336 12.623C30.7638 11.9529 29.8464 11.59 28.9014 11.6086H24.9839V23.2788H26.461ZM26.461 17.118V13.0418H28.9381C29.4702 13.0418 29.9748 13.2465 30.351 13.6188C31.1491 14.4005 31.1675 15.7034 30.3968 16.5131C30.0207 16.9132 29.4885 17.1366 28.9381 17.118H26.461Z" fill="#5E616A"/>
<path fill-rule="evenodd" clip-rule="evenodd" d="M38.489 15.9176C37.8559 15.3313 36.9935 15.0334 35.9017 15.0334C34.498 15.0334 33.443 15.5546 32.7457 16.5876L34.0485 17.4159C34.5256 16.7086 35.177 16.355 36.0027 16.355C36.5256 16.355 37.0302 16.5504 37.4247 16.904C37.81 17.2391 38.0302 17.723 38.0302 18.2348V18.5792C37.4614 18.2628 36.7458 18.0953 35.865 18.0953C34.8375 18.0953 34.0118 18.3372 33.3971 18.8305C32.7824 19.3237 32.4705 19.9751 32.4705 20.8034C32.4521 21.5572 32.7732 22.2738 33.3421 22.7578C33.92 23.2789 34.654 23.5395 35.5164 23.5395C36.5348 23.5395 37.3421 23.0835 37.9568 22.1715H38.0211V23.2789H39.4339V18.3558C39.4339 17.3228 39.122 16.5039 38.489 15.9176ZM34.4797 21.8085C34.1769 21.5852 33.9934 21.2222 33.9934 20.8313C33.9934 20.3939 34.1953 20.031 34.5898 19.7425C34.9935 19.454 35.4981 19.3051 36.0944 19.3051C36.9201 19.2958 37.5623 19.4819 38.0211 19.8542C38.0211 20.487 37.7733 21.0361 37.2871 21.5014C36.8467 21.9481 36.2504 22.1994 35.6265 22.1994C35.2136 22.2087 34.81 22.0691 34.4797 21.8085Z" fill="#5E616A"/>
<path d="M47.5442 15.2939L42.6083 26.7874H41.0853L42.9202 22.767L39.6816 15.2939H41.2872L43.6267 21.0267H43.6542L45.9387 15.2939H47.5442Z" fill="#5E616A"/>
<path fill-rule="evenodd" clip-rule="evenodd" d="M16.6812 14.3353C16.0022 13.6746 15.094 13.3116 14.149 13.3302C12.4242 13.3302 10.9654 14.5121 10.4425 16.1035L10.44 16.1016C10.1672 16.9371 10.168 17.837 10.4425 18.6628L10.4425 18.6628C10.9654 20.2449 12.4242 21.4268 14.149 21.4268C15.0389 21.4268 15.8004 21.1941 16.3968 20.7846C17.094 20.3193 17.5711 19.5748 17.7179 18.7465H14.149V16.1687H20.3785C20.4519 16.6154 20.4886 17.0714 20.4886 17.5274C20.4886 19.5748 19.773 21.2965 18.5252 22.4598C17.4335 23.4835 15.9289 24.0791 14.149 24.0791C11.6535 24.0791 9.36907 22.6552 8.24977 20.3938V20.3845L8.24975 20.3845C7.30477 18.4953 7.30477 16.2617 8.24975 14.3725H8.24978C9.36907 12.1111 11.6535 10.6779 14.149 10.6779C15.7912 10.6593 17.3693 11.2828 18.5711 12.4182L16.6812 14.3353Z" fill="#5E616A"/>
</svg>
