<svg width="55" height="36" viewBox="0 0 55 36" fill="none" xmlns="http://www.w3.org/2000/svg">
<path d="M3.97998 32.8199H51.02V3.17993H3.97998V32.8199Z" fill="white"/>
<path d="M3.97998 28.5601H51.02V32.8201H3.97998V28.5601Z" fill="#5E616A"/>
<path d="M3.97998 7.43993H51.02V3.17993H3.97998V7.43993Z" fill="#5E616A"/>
<path fill-rule="evenodd" clip-rule="evenodd" d="M35.2324 20.058C35.2324 18.1928 33.71 17.3783 32.4982 16.73C31.6829 16.2939 31.0083 15.933 31.0324 15.3779C31.0324 14.9579 31.4524 14.5379 32.2924 14.4179C32.7124 14.3579 33.9124 14.2979 35.2324 14.9579L35.7724 12.4379C35.0524 12.1979 34.0924 11.8979 32.9524 11.8979C30.0124 11.8979 27.9124 13.5179 27.8524 15.7979C27.8524 17.4779 29.3524 18.4379 30.4924 18.9779C31.6924 19.5779 32.0524 19.9379 32.0524 20.4179C32.0524 21.1979 31.0924 21.558 30.2524 21.558C28.7756 21.558 27.8803 21.1508 27.2231 20.8519L27.1924 20.8379L26.6524 23.4179C27.3724 23.7179 28.6324 24.018 30.0124 24.018C33.1924 24.078 35.2324 22.518 35.2324 20.058ZM27.0724 12.1379L24.6124 23.8979H21.6124L24.0724 12.1379H27.0724ZM39.7323 19.698L41.2923 15.258L42.1923 19.698H39.7323ZM45.8524 23.8979H43.0924L42.7324 22.0979H38.8924L38.2924 23.8379H35.1124L39.6124 12.9779C39.7924 12.4979 40.2724 12.1379 40.8724 12.1379H43.4524L45.8524 23.8979ZM17.9524 23.8979L22.8124 12.1379H19.6324L16.5124 20.1179L15.2524 13.3379C15.1324 12.5579 14.5324 12.1379 13.8724 12.1379H8.7724L8.7124 12.4979C9.7324 12.7379 10.9324 13.0979 11.6524 13.5179C12.0724 13.7579 12.2524 13.9379 12.3724 14.5379L14.7724 23.8979H17.9524Z" fill="#5E616A"/>
</svg>
