<svg width="33" height="30" viewBox="0 0 33 30" fill="none" xmlns="http://www.w3.org/2000/svg">
<path fill-rule="evenodd" clip-rule="evenodd" d="M32.9866 6.33824C32.8721 4.03345 31.8453 1.92062 31.2369 0.691554L30.8945 0L30.9325 0.614767C31.0086 1.42127 31.1986 4.26381 30.3621 5.87728C29.2974 8.06689 26.2548 7.87469 25.2283 7.7979H25.1518C23.5166 7.68272 18.1547 7.49075 16.481 7.49075C14.3132 7.49075 11.9176 7.68272 9.97786 7.83653C9.02688 7.91355 8.22841 7.95195 7.65801 7.99011H7.46772C4.76752 8.2591 3.05608 7.45236 2.37165 5.60852C1.95329 4.45625 1.9913 2.22824 1.9913 1.15275V0.384404L1.76323 0.768575C1.26885 1.72889 0.318106 3.4957 0.0140152 6.41526C-0.176273 9.91073 1.61119 11.1403 2.94228 11.7548C4.3494 12.4461 5.83253 12.5229 6.2889 12.5613H6.32691C6.40294 12.5613 6.51697 12.5613 6.631 12.5997C6.78328 12.5997 6.93509 12.5997 7.08737 12.6381C6.8593 12.6765 6.51697 12.7533 6.21288 12.7917C5.90879 12.8301 5.60447 12.9068 5.45219 12.9452C5.10986 12.9836 3.77899 13.3294 3.0183 13.5598C2.40989 13.7901 1.72545 14.0975 1.72545 14.0975L1.61119 14.1743L1.68744 14.29C1.68744 14.29 1.91551 14.5971 2.14381 14.8277C2.63819 15.3271 3.96928 16.1719 5.56669 15.98C6.85954 15.788 7.5442 15.519 7.81028 15.3654C7.92455 15.6342 8.11461 16.2874 8.30466 16.7865C8.87507 18.2459 10.2062 21.0503 10.7005 22.0104C11.1189 22.7789 11.4992 23.4703 11.7656 23.9312L11.8796 24.0848C11.8036 24.3919 11.5755 24.5841 11.4232 24.7377C11.3852 24.7761 11.3472 24.7761 11.3092 24.8145L11.2712 24.8529V24.8913C11.2712 25.1601 11.1952 27.5803 12.8306 29.3471L12.8686 29.3855C13.7053 29.6926 14.7323 30 16.4435 30C18.1929 30 19.6381 29.6158 20.1705 29.3471V29.3087H20.2085C21.3497 27.9644 21.8441 25.9284 21.8821 25.1601V25.1217L21.8441 25.0833C21.8061 25.0449 21.7681 25.0449 21.7301 25.0065C21.578 24.8145 21.3497 24.6223 21.2357 24.1232C21.3497 23.8928 21.6161 23.3167 21.8441 22.8557C21.9962 22.587 22.0722 22.3559 22.1482 22.2412C22.6046 21.2804 24.0115 18.2459 24.5819 16.8246C24.9242 15.9027 25.1147 15.442 25.2288 15.2884C25.4568 15.4036 26.1415 15.711 27.3963 15.8262C28.9935 16.0181 30.5529 14.9043 30.9713 14.29L31.1993 14.0591L31.2753 13.9439L31.1613 13.8672C31.1233 13.8672 31.0853 13.8672 30.8572 13.752L29.0315 13.1758C28.8034 13.0607 27.7007 12.8301 26.902 12.6765L26.2935 12.5229L26.4836 12.4845C28.3466 12.1769 33.2909 11.2936 32.9866 6.33824Z" fill="white"/>
<path fill-rule="evenodd" clip-rule="evenodd" d="M32.9866 6.33824C32.8721 4.03345 31.8453 1.92062 31.2369 0.691554L30.8945 0L30.9325 0.614767C31.0086 1.42127 31.1986 4.26381 30.3621 5.87728C29.2974 8.06689 26.2548 7.87469 25.2283 7.7979H25.1518C23.5166 7.68272 18.1547 7.49075 16.481 7.49075C14.3132 7.49075 11.9176 7.68272 9.97786 7.83653C9.02688 7.91355 8.22841 7.95195 7.65801 7.99011H7.46772C4.76752 8.2591 3.05608 7.45236 2.37165 5.60852C1.95329 4.45625 1.9913 2.22824 1.9913 1.15275V0.384404L1.76323 0.768575C1.26885 1.72889 0.318106 3.4957 0.0140152 6.41526C-0.176273 9.91073 1.61119 11.1403 2.94228 11.7548C4.3494 12.4461 5.83253 12.5229 6.2889 12.5613H6.32691C6.40294 12.5613 6.51697 12.5613 6.631 12.5997C6.78328 12.5997 6.93509 12.5997 7.08737 12.6381C6.8593 12.6765 6.51697 12.7533 6.21288 12.7917C5.90879 12.8301 5.60447 12.9068 5.45219 12.9452C5.10986 12.9836 3.77899 13.3294 3.0183 13.5598C2.40989 13.7901 1.72545 14.0975 1.72545 14.0975L1.61119 14.1743L1.68744 14.29C1.68744 14.29 1.91551 14.5971 2.14381 14.8277C2.63819 15.3271 3.96928 16.1719 5.56669 15.98C6.85954 15.788 7.5442 15.519 7.81028 15.3654C7.92455 15.6342 8.11461 16.2874 8.30466 16.7865C8.87507 18.2459 10.2062 21.0503 10.7005 22.0104C11.1189 22.7789 11.4992 23.4703 11.7656 23.9312L11.8796 24.0848C11.8036 24.3919 11.5755 24.5841 11.4232 24.7377C11.3852 24.7761 11.3472 24.7761 11.3092 24.8145L11.2712 24.8529V24.8913C11.2712 25.1601 11.1952 27.5803 12.8306 29.3471L12.8686 29.3855C13.7053 29.6926 14.7323 30 16.4435 30C18.1929 30 19.6381 29.6158 20.1705 29.3471V29.3087H20.2085C21.3497 27.9644 21.8441 25.9284 21.8821 25.1601V25.1217L21.8441 25.0833C21.8061 25.0449 21.7681 25.0449 21.7301 25.0065C21.578 24.8145 21.3497 24.6223 21.2357 24.1232C21.3497 23.8928 21.6161 23.3167 21.8441 22.8557C21.9962 22.587 22.0722 22.3559 22.1482 22.2412C22.6046 21.2804 24.0115 18.2459 24.5819 16.8246C24.9242 15.9027 25.1147 15.442 25.2288 15.2884C25.4568 15.4036 26.1415 15.711 27.3963 15.8262C28.9935 16.0181 30.5529 14.9043 30.9713 14.29L31.1993 14.0591L31.2753 13.9439L31.1613 13.8672C31.1233 13.8672 31.0853 13.8672 30.8572 13.752L29.0315 13.1758C28.8034 13.0607 27.7007 12.8301 26.902 12.6765L26.2935 12.5229L26.4836 12.4845C28.3466 12.1769 33.2909 11.2936 32.9866 6.33824Z" fill="#1F2528"/>
<path fill-rule="evenodd" clip-rule="evenodd" d="M1.76346 1.34448C1.72545 2.65057 1.72545 4.03345 2.02978 5.26251C1.76346 5.03215 1.45937 4.72477 1.19306 4.49417C0.926751 4.76316 0.698683 5.07031 0.432371 5.3393C0.698683 3.95642 1.15505 2.61218 1.76346 1.34448ZM32.4919 4.76339L32.568 5.10917L31.9215 4.64821C31.6175 4.76363 31.3511 4.9556 31.047 5.10917C31.2751 3.87987 31.3131 2.57402 31.2371 1.26793C31.8073 2.38158 32.1496 3.57249 32.4919 4.76339ZM16.5193 16.9401C17.204 18.0155 18.497 18.3232 19.6378 18.0155C20.0942 17.9388 20.5123 17.7468 20.8927 17.593C20.5503 18.7073 20.2843 19.9748 20.3223 21.2423C20.3223 22.3561 20.5123 23.4321 20.8167 24.4306C20.6646 24.3538 20.5126 24.2386 20.3223 24.1618C17.9646 22.9711 14.6938 23.0095 12.3742 24.2386C12.4882 23.8544 12.6023 23.4705 12.6783 23.0863C13.0586 21.2807 12.7926 19.3987 12.1839 17.785C13.439 18.3232 15.2262 18.4379 16.2532 17.2472C16.3672 17.1704 16.4053 17.0552 16.5193 16.9401ZM11.3092 17.8233C11.2332 18.3616 11.0811 18.8993 10.5485 19.0913C10.1301 19.2065 9.71178 18.9761 9.4457 18.6687C9.33143 18.5151 9.2174 18.3616 9.17939 18.1694C9.82604 18.5919 10.7005 18.2457 11.2709 17.8231L11.3092 17.8233ZM23.859 17.9001C23.7069 18.3616 23.3266 18.8223 22.8322 18.8993C22.4899 18.9761 22.1858 18.7841 21.9577 18.4767C21.8437 18.3232 21.8057 18.131 21.7676 17.9385C22.338 18.4 23.2505 18.2843 23.859 17.9001Z" fill="#CE0028"/>
<path fill-rule="evenodd" clip-rule="evenodd" d="M22.5661 19.2067C22.7942 19.2451 23.0605 19.2067 23.2886 19.1299C22.6421 20.7815 21.8437 22.395 21.0069 24.0082C20.7404 23.2017 20.7789 22.3182 20.8544 21.4345C20.9689 20.359 21.2352 19.3221 21.5393 18.3234C21.7296 18.7457 22.11 19.1297 22.5661 19.2067ZM12.1459 24.008C11.1569 22.4718 10.3964 20.8581 9.63599 19.2065C9.97832 19.36 10.5105 19.5136 10.8528 19.2448C11.1951 19.0145 11.3852 18.6687 11.4992 18.2841C12.336 19.9364 12.526 22.1255 12.1459 24.008ZM21.5396 25.3139C21.3495 26.7354 20.8547 28.0028 19.9419 29.1167C17.8886 29.9616 15.0742 30.0386 13.0206 29.1551C11.9939 28.0028 11.6135 26.5818 11.5375 25.0449C13.7433 23.4316 17.204 23.0861 19.7139 24.2384C20.3603 24.5458 20.9692 24.8531 21.5396 25.3139ZM30.0583 13.7517C28.3466 13.0604 26.1032 12.6762 24.2395 12.6379C24.0495 10.4869 23.8212 9.18078 23.4031 7.98987C22.4523 7.91308 18.1169 7.75951 16.4815 7.75951C14.8081 7.75951 10.5867 8.02826 9.59798 8.06689C9.21763 9.21917 8.76126 10.6404 8.57121 12.7533C6.66971 12.8684 4.08378 13.4062 2.37234 14.0591C2.10626 14.1743 1.992 14.2516 1.992 14.2516C2.25831 14.5587 3.20882 15.711 4.99628 15.7494C5.56692 15.7494 6.6317 15.6726 7.35415 15.3652C7.5442 15.25 7.92455 15.0965 7.92455 15.0965C7.92455 15.0965 8.03858 15.3268 8.1146 15.519C8.30466 16.0568 8.53296 16.8249 8.68501 17.1707C8.95132 17.67 9.33166 18.0539 10.0161 18.0926C10.5865 18.0926 11.0049 17.5932 11.0809 17.5164C9.40745 17.4012 8.72302 16.5177 8.60875 15.1351C8.1904 15.0583 8.07636 15.0199 8.03835 14.8279C8.00034 14.5976 8.07636 14.367 8.22841 14.0977C8.41846 13.8674 8.72279 13.5984 9.52149 13.8674C10.0539 14.0214 10.4722 14.3672 10.7383 14.636C11.1187 14.9431 12.1074 15.9802 12.7158 16.3644C13.3625 16.7486 14.5793 17.0941 15.378 16.2876C16.1767 15.5195 16.2527 14.8666 16.3668 14.4824C14.9977 14.444 13.7428 14.2904 12.5638 14.1361C12.2215 14.0977 12.3737 13.752 12.6398 13.829C12.6398 13.829 14.8456 14.1361 16.4048 14.1361V13.2912C15.4921 13.2529 13.9709 13.1761 12.5258 12.8687C12.2217 12.7919 12.2597 12.4461 12.5638 12.5229C12.7538 12.5997 15.15 12.9455 16.4428 12.9455V11.87C15.6061 11.9084 14.3512 11.7932 12.6018 11.5242C12.2977 11.4858 12.3357 11.217 12.6018 11.217C12.6018 11.217 14.8076 11.5628 16.4428 11.5242V10.6791C16.4428 10.3719 16.7089 10.3333 16.7089 10.6791C16.7089 10.7945 16.7469 11.1019 16.7469 11.5242C18.3063 11.4858 19.7132 11.2938 20.3596 11.1784C20.7399 11.1016 20.7019 11.4088 20.5116 11.4472C20.2836 11.4856 18.4583 11.8314 16.7086 11.8697C16.7086 12.1769 16.7467 12.5995 16.7467 12.9068C17.9257 12.8684 19.2568 12.8301 20.4356 12.5611C20.854 12.4843 20.892 12.8298 20.5116 12.8682C19.3708 13.0602 17.7357 13.2524 16.7467 13.2908C16.7467 13.5595 16.7467 13.9053 16.7847 14.1357C18.6484 14.0973 20.3974 13.8285 20.7017 13.7899C21.0063 13.7131 21.082 14.0587 20.7397 14.097C20.4356 14.1354 18.23 14.4433 16.8227 14.4433C16.9747 14.9426 16.9747 15.634 17.6596 16.2101C18.3441 16.7862 19.4469 16.7479 20.2453 16.2869C20.8537 15.9411 21.805 14.8659 22.1471 14.5585C22.4511 14.2897 23.1358 13.6747 24.0483 13.6747C24.9228 13.6747 24.9611 14.1741 24.9991 14.2897C25.0375 14.4433 25.0756 14.7123 24.885 14.8275C24.733 14.9426 24.5809 14.9043 24.4287 14.981C24.3146 15.7108 24.0863 16.5559 23.4779 17.0166C22.8695 17.4773 21.8807 17.5544 21.8807 17.5544L22.0708 17.7463C22.1468 17.8231 22.4892 18.0151 22.9453 17.9767C23.3256 17.9383 23.8198 17.6309 24.0101 17.4005C24.3142 17.0164 24.5805 16.1715 24.8085 15.6337C24.8846 15.4418 25.0751 15.096 25.1131 14.9424C25.3032 15.0192 25.3792 15.0576 25.7215 15.2112C26.444 15.4799 27.3567 15.5953 27.9271 15.5953C28.8398 15.5569 29.9048 14.9808 30.5513 14.4047C30.6653 14.2895 30.8554 14.0205 30.8554 14.0205C30.8554 14.0205 30.2483 13.7901 30.0583 13.7517Z" fill="#CE0028"/>
<path fill-rule="evenodd" clip-rule="evenodd" d="M20.056 25.5061C20.208 25.8518 20.094 26.2358 19.9039 26.5052C19.5236 26.9278 18.9912 27.1198 18.459 26.9662C18.1549 26.8894 17.8506 26.6974 17.6606 26.3517C17.5463 26.6204 17.7746 26.851 17.7366 27.0814C17.6986 27.1582 17.6225 27.1582 17.5845 27.1198C17.2802 26.6972 17.1659 26.0822 17.4323 25.6215C17.7748 25.0453 18.3832 24.7766 19.0677 24.8534C19.4476 24.9299 19.8659 25.1219 20.056 25.5061ZM15.4545 25.7364C15.7206 26.1595 15.6066 26.774 15.3402 27.1579C15.3022 27.2347 15.2642 27.3115 15.1882 27.2347C15.0742 27.1195 15.2262 27.0044 15.2262 26.8505C15.2642 26.7354 15.3022 26.6202 15.2642 26.5048C14.8839 27.0041 14.3515 27.2345 13.7811 27.1193C13.3627 27.0425 12.9824 26.7351 12.8303 26.3128C12.7541 26.0436 12.7923 25.7362 12.9444 25.5058C13.3247 25.0065 14.0474 24.8529 14.6558 25.0833C14.9601 25.1603 15.3022 25.4293 15.4545 25.7364ZM20.018 28.656C19.9799 28.7328 19.9419 28.7328 19.8659 28.848C19.6759 28.7712 19.4476 28.6944 19.2195 28.6176C17.318 27.8495 14.8839 28.0798 13.0966 28.848C13.0586 28.7712 13.0206 28.7328 12.9826 28.656C15.0742 27.7341 17.9266 27.6189 20.018 28.656ZM20.3603 18.4379C20.018 19.9746 19.0674 21.703 17.508 22.1255C16.253 22.4718 14.8078 22.2023 13.9714 21.1652C13.363 20.3971 13.0586 19.4752 12.9444 18.4767C13.0206 18.4379 13.0964 18.4379 13.1727 18.4379C13.2867 19.8594 14.0474 21.4726 15.4545 21.9336C16.6713 22.3182 18.1547 21.9336 19.0292 20.8581C19.5996 20.1284 19.9799 19.2448 20.17 18.3616C20.2463 18.3616 20.2843 18.3616 20.3603 18.4379Z" fill="#1F2528"/>
<path fill-rule="evenodd" clip-rule="evenodd" d="M2.37211 6.26122C3.17081 7.8363 4.84424 8.37404 6.51743 8.29725C7.46818 8.29725 8.38092 8.18207 9.29365 8.10529V8.18207C8.83729 9.52656 8.49495 10.9094 8.30489 12.3307C5.87101 12.4075 3.39888 12.2155 1.57364 10.5637C0.356813 9.33459 0.0524898 7.60593 0.318569 5.91567C0.62266 5.5699 0.926983 5.26275 1.19329 4.91697C1.61142 5.33954 2.25808 5.68508 2.37211 6.26122ZM32.644 5.5315C32.72 5.80026 32.72 6.03086 32.758 6.26122C32.8721 8.18207 32.0736 9.91049 30.4384 10.871C28.6887 11.9465 26.6734 12.3305 24.5434 12.3689C24.5054 12.1769 24.4674 11.9079 24.4674 11.7159C24.2773 10.4482 24.049 9.18054 23.7069 7.98964C25.989 7.98964 28.8028 8.60417 30.3244 6.45319C30.5144 6.14604 30.7047 5.87705 30.8948 5.56966C31.2371 5.41609 31.5792 5.18549 31.8835 5.03192C32.1496 5.14733 32.3777 5.37793 32.644 5.5315ZM23.9352 15.1348C23.9352 15.8646 23.7071 16.5943 23.0607 16.9401C22.7532 17.0929 22.4147 17.1718 22.072 17.1704C22.0533 17.135 22.0435 17.0954 22.0435 17.0552C22.0435 17.0151 22.0533 16.9755 22.072 16.9401C22.5663 16.9401 23.0987 16.7481 23.3648 16.3255C23.5549 16.0184 23.6309 15.6342 23.6309 15.25C23.7069 15.1732 23.8209 15.1348 23.9352 15.1348ZM10.9668 17.0936C10.8528 17.0936 10.8148 17.132 10.6245 17.0936C9.78803 17.0936 8.91331 16.4023 8.95132 15.25C9.06535 15.2116 9.17939 15.2116 9.25541 15.25C9.25541 15.903 9.52149 16.8249 10.9286 16.8249C11.0049 16.9784 10.9288 16.9784 10.9668 17.0936Z" fill="white"/>
</svg>
