<svg width="30" height="30" viewBox="0 0 30 30" fill="none" xmlns="http://www.w3.org/2000/svg">
<g clip-path="url(#clip0_3783_6459)">
<path fill-rule="evenodd" clip-rule="evenodd" d="M14.9985 0.154297C23.1955 0.154297 29.8429 6.80157 29.8429 14.9985C29.8429 23.1955 23.1955 29.8427 14.9985 29.8427C6.80157 29.8427 0.154297 23.1955 0.154297 14.9985C0.154297 6.80157 6.80157 0.154297 14.9985 0.154297Z" fill="#F9CC11"/>
<path fill-rule="evenodd" clip-rule="evenodd" d="M14.9993 0.0273438C23.2664 0.0273438 29.9708 6.73176 29.9708 14.9991C29.9708 23.2664 23.2664 29.9708 14.9993 29.9708C6.73177 29.9708 0.0273438 23.2664 0.0273438 14.9991C0.0273438 6.73176 6.73177 0.0273438 14.9993 0.0273438ZM14.9993 0.196939C23.1727 0.196939 29.8012 6.82546 29.8012 14.9991C29.8012 23.1727 23.1727 29.8012 14.9993 29.8012C6.82546 29.8012 0.196933 23.1727 0.196933 14.9991C0.196933 6.82546 6.82546 0.196939 14.9993 0.196939Z" fill="black"/>
<path fill-rule="evenodd" clip-rule="evenodd" d="M14.9991 3.75977C21.2053 3.75977 26.2383 8.79285 26.2383 14.999C26.2383 21.2052 21.2053 26.2383 14.9991 26.2383C8.79286 26.2383 3.75977 21.2052 3.75977 14.999C3.75977 8.79285 8.79286 3.75977 14.9991 3.75977Z" fill="black"/>
<path fill-rule="evenodd" clip-rule="evenodd" d="M19.08 15.6579V18.2069H19.2828C19.4321 18.2069 19.4482 18.1533 19.4482 18.074V15.8054C19.4482 15.7006 19.4187 15.6577 19.2844 15.6577H19.08V15.6579ZM13.4397 19.9874L8.72763 19.9783L7.03189 18.237V17.0464H8.35686V14.3892L5.02179 11.3588L4.0232 11.3613L2.56641 9.85234V8.66211H10.0841L11.6111 10.3205L11.615 11.3993L11.1316 11.397L11.9165 12.1069L14.443 10.28L14.0025 9.85709V8.66211H18.606L20.179 9.72669L20.1827 11.4428L18.4717 11.4439L16.4257 12.9219H20.0746C22.3519 12.9219 25.0402 14.4697 25.0351 17.0787C25.0324 18.4089 24.5403 19.3125 23.5046 20.0146C24.509 20.6909 25.1107 21.6742 25.1073 22.9971C25.1039 24.1985 24.5709 25.2086 23.7037 25.8674C23.0911 26.3331 22.3032 26.6401 21.455 26.6401H13.9549L12.2779 24.8979V23.5984H13.4397V19.9874ZM19.063 21.0128L19.0649 23.5984H19.2824C19.375 23.5984 19.4299 23.5556 19.4299 23.4312L19.4301 21.2501C19.4263 21.0491 19.3923 21.0219 19.2625 21.0128H19.063Z" fill="white"/>
<path fill-rule="evenodd" clip-rule="evenodd" d="M18.8667 15.4466V18.4198H19.2867C19.5312 18.4198 19.6592 18.3344 19.6592 18.0823V15.8002C19.6592 15.5308 19.5527 15.4466 19.288 15.4466H18.8667ZM13.6506 19.7766L8.816 19.7673L7.24285 18.1516V17.2593H8.56803V14.2962L5.10255 11.1474L4.112 11.1499L2.77734 9.76755V8.875H9.99017L11.3981 10.4044L11.401 11.1872L10.5771 11.1833L11.9005 12.3804L14.772 10.3038L14.2135 9.76755V8.875H18.5399L19.9662 9.84039L19.969 11.2316L18.4018 11.2326L15.7689 13.1348L20.0714 13.1351C22.063 13.1351 24.8282 14.487 24.8218 17.0811C24.8179 18.6992 24.0638 19.3959 23.1482 20.0023C23.4253 20.3029 24.8841 20.9008 24.894 22.9986C24.9041 25.0993 23.1385 26.4288 21.4514 26.4288H14.044L12.4888 24.8133V23.8113H13.6506V19.7766ZM18.8485 20.8015V23.8111H19.2872C19.5531 23.8111 19.6408 23.7017 19.6408 23.4364L19.641 21.2443C19.641 20.9816 19.5523 20.8015 19.2705 20.8015H18.8485Z" fill="black"/>
<path fill-rule="evenodd" clip-rule="evenodd" d="M17.3847 14.0176V18.5038H19.2906C19.6603 18.5038 19.7445 18.2898 19.7445 18.0837V14.4531C19.7445 14.1161 19.573 14.0174 19.2906 14.0174H17.3847V14.0176ZM17.3847 19.3363V23.8952H19.2906C19.5962 23.8952 19.7445 23.744 19.7445 23.4382V19.8627C19.7445 19.5217 19.5951 19.3363 19.2908 19.3363H17.3847ZM13.736 23.8952V14.0176H12.8647V13.2188L20.0711 13.219C21.9903 13.219 23.4411 14.297 23.5021 16.3102C23.5337 17.3511 22.9265 18.4363 21.9944 19.0181C22.8844 19.6123 23.5455 20.1972 23.5391 21.7441C23.5315 23.6249 21.8223 24.7275 20.525 24.7275H12.5742V23.8952H13.736Z" fill="#F9CC11"/>
<path fill-rule="evenodd" clip-rule="evenodd" d="M12.2119 13.2639V17.345H13.0468V18.0677H7.32897V17.345H8.65393V14.1065L4.59242 10.4326L3.76447 9.68363H2.86328V8.96094H9.90648V9.68363H8.793L11.8958 12.4904L15.7663 9.68363H14.2994V8.96094H18.4562V9.68363H17.1492L12.2119 13.2641" fill="#F9CC11"/>
<path fill-rule="evenodd" clip-rule="evenodd" d="M14.9996 4.6543L15.3718 5.80037H16.5771L15.6018 6.50865L15.9744 7.65477L14.9994 6.94644L14.0245 7.65477L14.3969 6.50865L13.4219 5.80037H14.6269L14.9994 4.6543" fill="#F9CC11"/>
<path fill-rule="evenodd" clip-rule="evenodd" d="M12.7355 28.8009L12.4405 28.7502L12.6323 27.6282C12.5075 27.7085 12.3728 27.7456 12.209 27.7437L12.2541 27.4815C12.4724 27.4749 12.6975 27.3492 12.7563 27.2461L12.9959 27.2873L12.7355 28.8011" fill="black"/>
<path fill-rule="evenodd" clip-rule="evenodd" d="M15.0392 28.6113L15.3452 28.5789C15.3671 28.6856 15.5067 28.7423 15.6493 28.7252C15.9371 28.6907 15.9565 28.4754 15.9643 28.2833C15.8725 28.3728 15.7122 28.4207 15.5688 28.4265C15.4126 28.4328 15.2752 28.392 15.1578 28.3041C15.0404 28.2158 14.9779 28.0976 14.9713 27.9488C14.9643 27.7939 15.0188 27.6664 15.1343 27.5665C15.2494 27.4669 15.3716 27.4131 15.5566 27.4052C16.0503 27.385 16.2331 27.713 16.2532 28.1574C16.2744 28.6295 16.1316 28.9472 15.6173 28.9685C15.3542 28.9792 15.1116 28.8391 15.0392 28.6113ZM15.9197 27.9261C15.9111 27.7334 15.764 27.6416 15.5783 27.649C15.3938 27.6565 15.2754 27.7615 15.2841 27.9334C15.2927 28.1054 15.4293 28.2166 15.6239 28.209C15.7941 28.2022 15.9276 28.1052 15.9197 27.9261Z" fill="black"/>
<path fill-rule="evenodd" clip-rule="evenodd" d="M13.7448 28.0979C13.6478 28.0649 13.5775 28.0202 13.534 27.9636C13.4902 27.9073 13.4687 27.8456 13.4692 27.779C13.47 27.6651 13.5213 27.5714 13.6241 27.498C13.7271 27.4245 13.8725 27.3886 14.0604 27.3907C14.2468 27.3926 14.391 27.4315 14.4931 27.5071C14.5959 27.5824 14.6466 27.6772 14.6458 27.7912C14.6454 27.8621 14.621 27.9248 14.5731 27.9799C14.5257 28.0346 14.4588 28.0763 14.3732 28.1045C14.4816 28.1394 14.5639 28.1901 14.62 28.2562C14.6761 28.322 14.7038 28.3977 14.7031 28.4831C14.7021 28.6245 14.6437 28.7385 14.5278 28.8256C14.4116 28.9127 14.2579 28.9552 14.0663 28.9533C13.8878 28.9514 13.7396 28.9135 13.6216 28.8394C13.4819 28.7513 13.4131 28.6325 13.4141 28.4823C13.4149 28.3998 13.4417 28.3241 13.4948 28.2554C13.5478 28.1869 13.6313 28.1343 13.7448 28.0979ZM13.7587 27.7848C13.7572 27.9413 13.9301 27.99 14.056 27.9915C14.181 27.9931 14.3479 27.9451 14.3489 27.7932C14.3501 27.6463 14.1822 27.6013 14.0623 27.5999C13.9414 27.5984 13.7597 27.6368 13.7584 27.7848H13.7587ZM13.7002 28.4672C13.6988 28.6676 13.888 28.7249 14.0611 28.727C14.2292 28.7289 14.4011 28.6556 14.4025 28.4716C14.404 28.2939 14.2131 28.2279 14.0592 28.2261C13.907 28.2244 13.7017 28.2875 13.7002 28.4672Z" fill="black"/>
<path fill-rule="evenodd" clip-rule="evenodd" d="M16.9083 27.9572C16.807 27.9415 16.73 27.9095 16.6774 27.8616C16.6244 27.814 16.5924 27.7568 16.5813 27.6912C16.5623 27.5789 16.5963 27.4775 16.6848 27.3873C16.7734 27.2972 16.9101 27.2365 17.0956 27.2055C17.2795 27.175 17.4284 27.188 17.5421 27.2445C17.6564 27.3008 17.723 27.3854 17.742 27.4976C17.754 27.5676 17.741 27.6336 17.7034 27.6961C17.6663 27.7582 17.6077 27.8111 17.5283 27.8538C17.6411 27.8693 17.7308 27.9047 17.7977 27.96C17.8646 28.0151 17.905 28.0849 17.9194 28.169C17.9429 28.3083 17.9054 28.4308 17.8061 28.5369C17.7071 28.6427 17.5633 28.7116 17.3742 28.743C17.198 28.7723 17.0457 28.7609 16.9166 28.7085C16.7636 28.6463 16.6749 28.5412 16.65 28.3933C16.6361 28.3118 16.6496 28.2325 16.6898 28.1556C16.7298 28.0788 16.8028 28.0126 16.9083 27.9572ZM16.8672 27.6462C16.8932 27.8005 17.0719 27.8185 17.1961 27.7981C17.3194 27.7776 17.4755 27.7011 17.4501 27.5517C17.4257 27.4067 17.2524 27.3916 17.134 27.4112C17.0147 27.4308 16.8427 27.5005 16.8672 27.6462ZM16.9289 28.3285C16.9623 28.5259 17.1587 28.5494 17.3296 28.5212C17.4954 28.4938 17.652 28.3916 17.6213 28.2101C17.5916 28.0349 17.3921 28.0034 17.2402 28.0283C17.0903 28.0533 16.899 28.1513 16.9289 28.3285Z" fill="black"/>
<path fill-rule="evenodd" clip-rule="evenodd" d="M4.19401 6.57096L3.89114 6.93699L4.14573 7.14783L4.4486 6.78202C4.51689 6.69973 4.55423 6.63535 4.56065 6.58871C4.56726 6.5425 4.54742 6.50019 4.50121 6.46206C4.45561 6.42429 4.40899 6.41357 4.36133 6.43005C4.31388 6.44679 4.25838 6.49359 4.19401 6.57118V6.57096ZM4.64025 7.55758L4.98129 7.14577C5.05064 7.06221 5.08756 6.9972 5.09252 6.95019C5.09727 6.90376 5.07477 6.85961 5.02444 6.81815C4.97432 6.77647 4.92414 6.76327 4.87423 6.77811C4.82453 6.79317 4.76775 6.83896 4.704 6.91591L4.36298 7.32772L4.64025 7.55758ZM4.62995 8.07149L3.39453 7.04816L4.05598 6.24952C4.17069 6.11088 4.28252 6.02816 4.39166 6.00176C4.50059 5.97514 4.60645 6.00403 4.70875 6.0888C4.76902 6.13876 4.81006 6.19692 4.83277 6.26315C4.85506 6.3298 4.85733 6.40243 4.84016 6.48081C4.92208 6.42862 5.00379 6.40528 5.08528 6.41188C5.16699 6.41848 5.24601 6.45361 5.32296 6.51736C5.4325 6.60809 5.48944 6.71521 5.49277 6.83838C5.49646 6.96154 5.44634 7.08593 5.34256 7.21095L4.62974 8.07149" fill="black"/>
<path fill-rule="evenodd" clip-rule="evenodd" d="M5.53964 6.20067L5.84001 5.92047L5.85052 5.93141C5.912 5.99764 5.98795 6.02098 6.07853 6.00139C6.16911 5.98174 6.26999 5.92005 6.38096 5.81653C6.46657 5.73667 6.52108 5.66257 6.54416 5.59391C6.5673 5.5254 6.55737 5.46826 6.51448 5.42225C6.47835 5.38343 6.43668 5.36922 6.38946 5.37931C6.34198 5.38924 6.26772 5.43255 6.1662 5.50951L5.93862 5.68343C5.77113 5.80951 5.6271 5.87922 5.50557 5.89285C5.38404 5.90627 5.27819 5.86438 5.18724 5.76678C5.07997 5.65185 5.04406 5.50972 5.07976 5.34054C5.11583 5.17174 5.21862 5.00817 5.389 4.84929C5.57201 4.67848 5.74678 4.57924 5.9139 4.55114C6.08101 4.52289 6.21944 4.56789 6.33004 4.6863L6.33892 4.69581L6.04694 4.96813C5.98546 4.91574 5.91717 4.89715 5.84228 4.91304C5.76738 4.92873 5.68525 4.97801 5.59573 5.0612C5.51323 5.13836 5.4602 5.20951 5.43664 5.27553C5.41314 5.34155 5.42138 5.39605 5.46141 5.43873C5.49342 5.47301 5.52992 5.48579 5.57159 5.47671C5.61326 5.46762 5.69149 5.42019 5.807 5.33394L6.04652 5.15384C6.21221 5.03003 6.35603 4.96338 6.47877 4.95329C6.60152 4.94315 6.71006 4.98915 6.80476 5.09067C6.92645 5.22107 6.96606 5.37002 6.9236 5.53676C6.88087 5.70366 6.75728 5.88213 6.55303 6.07253C6.35867 6.25391 6.17571 6.35769 6.00443 6.38431C5.83298 6.41051 5.68568 6.35748 5.56251 6.22523L5.53964 6.20067Z" fill="black"/>
<path fill-rule="evenodd" clip-rule="evenodd" d="M8.60825 3.80734C8.70559 3.98454 8.7207 4.17061 8.65277 4.36561C8.5849 4.56034 8.44462 4.73242 8.23193 4.88121C7.99219 5.04911 7.75679 5.12052 7.52608 5.09512C7.29564 5.06998 7.10709 4.95214 6.95978 4.74214C6.81269 4.53187 6.76626 4.314 6.82114 4.08832C6.87601 3.86279 7.02353 3.666 7.26348 3.49804C7.4729 3.35137 7.67962 3.27705 7.8826 3.27541C8.08605 3.27399 8.24968 3.34392 8.37448 3.48526L8.01527 3.73656C7.93732 3.67154 7.85085 3.64165 7.75594 3.64698C7.66124 3.65237 7.56036 3.69283 7.45225 3.7683C7.32105 3.86031 7.24325 3.97069 7.21975 4.09926C7.1964 4.22776 7.23047 4.35716 7.32226 4.48814C7.41327 4.61834 7.52323 4.69445 7.65137 4.71631C7.77966 4.73823 7.90985 4.70274 8.0421 4.6101C8.1564 4.53003 8.23151 4.44172 8.26779 4.34495C8.30371 4.2484 8.29711 4.15307 8.24762 4.05985L8.60825 3.80734Z" fill="black"/>
<path fill-rule="evenodd" clip-rule="evenodd" d="M10.4942 3.71705L10.2924 3.06307L9.35156 2.39066L9.8397 2.24008L10.3914 2.67064L10.6008 2.00526L11.0869 1.85547L10.6757 2.9446L10.8777 3.59885L10.4942 3.71705Z" fill="black"/>
<path fill-rule="evenodd" clip-rule="evenodd" d="M12.3343 2.8912C12.4909 2.85485 12.6037 2.78202 12.6728 2.67227C12.7421 2.56252 12.7591 2.42983 12.7234 2.27514C12.6872 2.11875 12.6138 2.0063 12.5034 1.9378C12.3928 1.86951 12.2596 1.85361 12.1032 1.88973C11.947 1.92559 11.8335 1.99885 11.7636 2.10945C11.6939 2.21984 11.6769 2.35246 11.7128 2.50827C11.7487 2.66297 11.8219 2.775 11.9325 2.84329C12.0436 2.91158 12.1774 2.92727 12.3343 2.8912ZM11.2818 2.60767C11.224 2.35785 11.2627 2.13834 11.398 1.94973C11.5336 1.76118 11.7436 1.6341 12.0289 1.56829C12.3142 1.50227 12.5587 1.52456 12.7623 1.63473C12.966 1.74507 13.0966 1.92539 13.1543 2.17547C13.2121 2.42551 13.1737 2.64443 13.0388 2.83236C12.9041 3.02054 12.694 3.14762 12.4087 3.21343C12.1234 3.27945 11.8789 3.25716 11.6745 3.1474C11.4702 3.03765 11.3394 2.85776 11.2816 2.60767" fill="black"/>
<path fill-rule="evenodd" clip-rule="evenodd" d="M13.7197 1.36576L13.7798 2.22609C13.7909 2.38327 13.8322 2.49551 13.9036 2.56217C13.9747 2.62882 14.0835 2.65729 14.2301 2.64699C14.3081 2.64139 14.3752 2.62571 14.4313 2.59972C14.4874 2.57373 14.5316 2.53782 14.5642 2.49181C14.59 2.45611 14.6071 2.41608 14.6162 2.37176C14.6248 2.32676 14.6261 2.25889 14.6197 2.16731L14.5594 1.30713L14.9576 1.2793L15.0208 2.18151C15.0377 2.42437 14.9811 2.61292 14.8514 2.74787C14.7216 2.88319 14.5225 2.96014 14.2533 2.97895C13.9849 2.99769 13.7773 2.94921 13.63 2.83328C13.4827 2.71771 13.4003 2.53866 13.3834 2.29602L13.3203 1.3938L13.7195 1.36597" fill="black"/>
<path fill-rule="evenodd" clip-rule="evenodd" d="M15.1855 2.86582L15.2974 1.26562L15.7897 1.29985L16.5103 2.48453L16.5893 1.35578L16.9745 1.38283L16.8627 2.98318L16.3758 2.94916L15.6481 1.75312L15.5685 2.8926L15.1855 2.86582Z" fill="black"/>
<path fill-rule="evenodd" clip-rule="evenodd" d="M17.8121 3.28259C17.6916 3.25475 17.5814 3.21145 17.4814 3.15261C17.3813 3.09425 17.2986 3.02453 17.2336 2.94425C17.1533 2.844 17.1009 2.73688 17.0768 2.62259C17.0522 2.50829 17.0555 2.3837 17.0867 2.24918C17.1445 1.99914 17.2752 1.81898 17.4797 1.70886C17.684 1.59868 17.9288 1.57661 18.2144 1.64242C18.455 1.69787 18.6436 1.79817 18.7793 1.94215C18.9153 2.08703 18.9749 2.24854 18.958 2.42701L18.5319 2.32861C18.516 2.23286 18.4758 2.15532 18.4108 2.09463C18.3458 2.03421 18.2553 1.99048 18.1397 1.96365C17.9835 1.92752 17.8494 1.94384 17.7384 2.01235C17.6272 2.08101 17.5538 2.19287 17.5179 2.34863C17.482 2.50333 17.4989 2.63621 17.5684 2.74597C17.6381 2.85594 17.7516 2.92898 17.9086 2.96511C18.0157 2.98967 18.2235 3.01253 18.4424 2.99479L18.4834 2.8225L17.959 2.70287L18.031 2.3911L18.9143 2.59724L18.744 3.26918C18.6254 3.3024 18.4861 3.32162 18.332 3.32823C18.1574 3.33583 17.966 3.31809 17.8121 3.28259Z" fill="black"/>
<path fill-rule="evenodd" clip-rule="evenodd" d="M20.99 3.01806L20.5632 2.80985L20.4184 3.10694L20.8452 3.31531C20.9414 3.36216 21.0125 3.38345 21.0594 3.37869C21.1058 3.37394 21.1421 3.34484 21.1685 3.29102C21.1943 3.23756 21.1939 3.18987 21.1667 3.14762C21.1392 3.10531 21.0806 3.06216 20.99 3.01806ZM20.1367 3.68445L20.6172 3.9188C20.7146 3.96628 20.7866 3.98688 20.8332 3.98048C20.8797 3.9743 20.9172 3.94193 20.9459 3.8833C20.9744 3.82494 20.9754 3.77297 20.9492 3.72797C20.9228 3.68318 20.865 3.63882 20.7751 3.59487L20.2946 3.36073L20.1367 3.68445ZM19.6348 3.79542L20.3379 2.35352L21.27 2.80822C21.4318 2.88701 21.5387 2.97617 21.59 3.07599C21.6416 3.17566 21.6383 3.2852 21.5801 3.40468C21.5458 3.47503 21.499 3.52869 21.44 3.56619C21.3806 3.60353 21.3104 3.62297 21.23 3.62503C21.3003 3.69205 21.342 3.76616 21.3548 3.84681C21.3678 3.92767 21.3523 4.01271 21.3084 4.10265C21.2461 4.23058 21.1553 4.31101 21.0367 4.34318C20.9176 4.37582 20.785 4.3566 20.6389 4.28524L19.6348 3.79542Z" fill="black"/>
<path fill-rule="evenodd" clip-rule="evenodd" d="M22.2306 4.91459C22.3623 5.0068 22.4919 5.04187 22.6198 5.0198C22.7477 4.99793 22.8577 4.92161 22.9488 4.79142C23.0406 4.66022 23.0753 4.53024 23.0522 4.40253C23.0291 4.2746 22.9517 4.16506 22.8201 4.07284C22.6889 3.98078 22.5585 3.9455 22.4298 3.96757C22.301 3.98944 22.191 4.06561 22.0992 4.19659C22.0083 4.32679 21.974 4.45613 21.9975 4.58406C22.0209 4.71219 22.0988 4.82237 22.2306 4.91459ZM21.737 3.94307C21.8841 3.7328 22.0728 3.6146 22.3037 3.58899C22.5343 3.56363 22.7696 3.63462 23.0093 3.80252C23.2493 3.97048 23.3964 4.16712 23.4506 4.39217C23.5051 4.61728 23.4585 4.83515 23.3112 5.04541C23.164 5.25541 22.9755 5.37346 22.7456 5.39923C22.5158 5.4248 22.2806 5.35386 22.0409 5.18591C21.8009 5.01795 21.6538 4.82131 21.5987 4.59605C21.5434 4.37072 21.5899 4.15307 21.737 3.94307Z" fill="black"/>
<path fill-rule="evenodd" clip-rule="evenodd" d="M23.248 6.07515L23.7149 5.57444L23.8297 4.42383L24.2033 4.77226L24.1047 5.4649L24.7858 5.31532L25.1579 5.66233L24.0086 5.84798L23.5417 6.34874L23.2483 6.07494" fill="black"/>
<path fill-rule="evenodd" clip-rule="evenodd" d="M24.6141 6.49023L24.8726 6.80961L24.8608 6.81912C24.7907 6.87605 24.762 6.9501 24.7754 7.04174C24.7886 7.13354 24.843 7.23832 24.9386 7.35637C25.0123 7.44732 25.0824 7.50674 25.1492 7.53463C25.2161 7.56246 25.2737 7.5567 25.3226 7.51709C25.3638 7.48387 25.3809 7.44299 25.3741 7.39535C25.3675 7.34729 25.3293 7.27012 25.2596 7.16343L25.1022 6.92433C24.9881 6.74855 24.9287 6.59977 24.9235 6.47766C24.9184 6.35549 24.9677 6.25276 25.0713 6.16878C25.1936 6.06975 25.338 6.04398 25.5041 6.0914C25.6698 6.13931 25.8262 6.25318 25.9726 6.43435C26.1301 6.62866 26.2169 6.81003 26.2335 6.97857C26.2499 7.14716 26.1955 7.28227 26.0694 7.38442L26.0595 7.39244L25.8082 7.08236C25.865 7.02457 25.8879 6.95776 25.8775 6.88181C25.867 6.80612 25.8235 6.72067 25.7467 6.62581C25.6755 6.53808 25.6083 6.48014 25.5441 6.45204C25.48 6.42399 25.4251 6.42854 25.3795 6.46524C25.343 6.49477 25.3279 6.53047 25.3341 6.57257C25.3401 6.61482 25.3822 6.69616 25.46 6.81743L25.6229 7.06894C25.7348 7.24287 25.7913 7.39102 25.793 7.51398C25.7944 7.63714 25.7409 7.74236 25.633 7.82961C25.4944 7.94206 25.3432 7.97116 25.1798 7.91713C25.0164 7.86283 24.8468 7.72709 24.6712 7.51007C24.5039 7.30355 24.4129 7.11373 24.3984 6.94102C24.3842 6.76815 24.4476 6.62496 24.5878 6.5113L24.6141 6.49001" fill="black"/>
</g>
<defs>
<clipPath id="clip0_3783_6459">
<rect width="30" height="30" fill="white"/>
</clipPath>
</defs>
</svg>
