<svg width="26" height="30" viewBox="0 0 26 30" fill="none" xmlns="http://www.w3.org/2000/svg">
<path fill-rule="evenodd" clip-rule="evenodd" d="M12.9985 30C11.6785 28.1974 10.0482 27.1201 8.38404 26.2094C6.09937 24.9628 3.74702 24.0279 2.0124 21.9674C0.334195 19.9794 0.0295543 17.4595 1.21418 14.1282C1.98698 11.9629 2.82754 10.2705 2.92906 8.52154C3.01932 6.97951 2.61598 5.42671 1.25648 3.43065L4.21809 0H21.7817L24.7433 3.43065C23.3838 5.42671 22.9804 6.97951 23.0707 8.52154C23.1722 10.2705 24.0128 11.9629 24.7856 14.1282C25.9703 17.4595 25.6656 19.9794 23.9902 21.9674C22.2527 24.0279 19.9004 24.9628 17.6157 26.2094C15.9516 27.1201 14.3213 28.1974 12.9985 30Z" fill="black"/>
<path fill-rule="evenodd" clip-rule="evenodd" d="M17.4812 25.4844L17.4731 25.4863C17.4731 25.4863 17.4731 25.4844 17.4812 25.4844ZM17.5146 25.4649C17.5146 25.4668 17.5146 25.4668 17.5064 25.4668V25.4688C17.4983 25.4707 17.4942 25.4746 17.4901 25.4765C17.4983 25.4746 17.5023 25.4707 17.5064 25.4688V25.4668C17.5064 25.4668 17.5064 25.4668 17.5146 25.4649ZM17.5433 25.4513C17.5433 25.4513 17.5351 25.4532 17.531 25.4572C17.531 25.4552 17.5392 25.4513 17.5433 25.4513ZM17.5514 25.4455C17.5514 25.4474 17.5433 25.4474 17.5433 25.4474C17.5433 25.4474 17.5433 25.4474 17.5514 25.4455ZM17.5907 25.428L17.5826 25.4299C17.5826 25.4299 17.5826 25.428 17.5907 25.428ZM17.6358 25.4046C17.6235 25.4105 17.6153 25.4183 17.6046 25.4241C17.6169 25.4183 17.6251 25.4105 17.6358 25.4046ZM17.648 25.4007C17.648 25.4007 17.648 25.4026 17.6399 25.4026C17.6399 25.4026 17.6399 25.4007 17.648 25.4007ZM17.716 25.3639C17.716 25.3639 17.716 25.3658 17.7078 25.3658C17.7078 25.3658 17.7078 25.3639 17.716 25.3639ZM17.7324 25.3522C17.7324 25.3541 17.7324 25.3541 17.7242 25.358C17.7242 25.358 17.7242 25.36 17.716 25.36C17.716 25.358 17.716 25.358 17.7242 25.358C17.7242 25.3561 17.7324 25.3561 17.7324 25.3522ZM3 2.6247L4.66415 0.722656H21.3478L23.8017 3.52736C22.5747 5.37028 22.2165 7.11918 22.2955 8.54571C22.3886 10.1603 23.105 11.8071 23.8299 13.7951C24.3404 15.1894 24.6789 16.4977 24.7014 17.6824C24.7266 19.1143 24.3179 20.3689 23.4886 21.3925C21.9655 23.2757 19.7458 24.2939 17.7572 25.3416L3 2.6247Z" fill="white"/>
<path fill-rule="evenodd" clip-rule="evenodd" d="M12.9999 28.9921C11.8068 27.3238 10.0524 26.3056 8.53208 25.4916C6.47312 24.3902 4.11227 23.3666 2.51865 21.3947C1.68943 20.3712 1.2804 19.1166 1.3058 17.6847C1.3281 16.5 1.66683 15.1916 2.17735 13.7974C2.90222 11.8093 3.61866 10.1625 3.71173 8.54795C3.79074 7.12142 3.4325 5.37253 2.20557 3.52961L2.99529 2.62695L17.7525 25.3439C17.6565 25.3922 17.5636 25.4433 17.4704 25.4916C15.9502 26.3057 14.1958 27.3238 12.9999 28.9921Z" fill="#008538"/>
<path fill-rule="evenodd" clip-rule="evenodd" d="M4.66211 0.722656H7.56733L21.9409 22.8862C21.295 23.3859 20.6012 23.813 19.896 24.2079L4.66211 0.722656Z" fill="#D1070F"/>
<path d="M17.8665 8.94754C20.1342 8.94754 21.9732 7.20938 21.9732 5.06556C21.9732 2.92175 20.1342 1.18359 17.8665 1.18359C15.5988 1.18359 13.7598 2.92175 13.7598 5.06556C13.7598 7.20938 15.5988 8.94754 17.8665 8.94754Z" fill="white"/>
<path d="M17.8682 1.34766C15.6964 1.34766 13.9336 3.01329 13.9336 5.06575C13.9336 7.11824 15.6964 8.78385 17.8682 8.78385C20.0401 8.78385 21.8001 7.11824 21.8001 5.06575C21.8001 3.01329 20.0401 1.34766 17.8682 1.34766ZM14.5287 5.06575C14.5287 3.32223 16.0236 1.91182 17.8682 1.91182C19.7101 1.91182 21.205 3.32223 21.205 5.06575C21.205 6.80659 19.7101 8.21969 17.8682 8.21969C16.0236 8.21969 14.5287 6.80659 14.5287 5.06575Z" fill="black"/>
<path d="M17.2133 2.68555H16.2656V7.36004H19.4669V6.47887H17.2133V2.68555Z" fill="black"/>
</svg>
