<svg width="44" height="44" viewBox="0 0 44 44" fill="none" xmlns="http://www.w3.org/2000/svg">
<path d="M22.0501 0H21.9499C9.82732 0 0 9.82731 0 21.9499V22.0501C0 34.1727 9.82732 44 21.9499 44H22.0501C34.1727 44 44 34.1727 44 22.0501V21.9499C44 9.82731 34.1727 0 22.0501 0Z" fill="#007EBB"/>
<path d="M10.4929 14.6261C9.91325 14.0881 9.625 13.4221 9.625 12.6298C9.625 11.8375 9.91479 11.1422 10.4929 10.6027C11.0725 10.0647 11.8186 9.79492 12.7327 9.79492C13.6468 9.79492 14.3637 10.0647 14.9417 10.6027C15.5214 11.1407 15.8096 11.8174 15.8096 12.6298C15.8096 13.4422 15.5198 14.0881 14.9417 14.6261C14.3621 15.1641 13.6268 15.4339 12.7327 15.4339C11.8386 15.4339 11.0725 15.1641 10.4929 14.6261ZM15.3225 17.7122V34.2067H10.1106V17.7122H15.3225Z" fill="#FEFFFC"/>
<path d="M32.6733 19.342C33.8094 20.5753 34.3767 22.2679 34.3767 24.4229V33.9157H29.4268V25.092C29.4268 24.0052 29.1447 23.1604 28.5821 22.5592C28.0194 21.958 27.261 21.6559 26.3114 21.6559C25.3618 21.6559 24.6033 21.9565 24.0407 22.5592C23.478 23.1604 23.1959 24.0052 23.1959 25.092V33.9157H18.2168V17.6664H23.1959V19.8214C23.7 19.1031 24.3798 18.5358 25.2339 18.118C26.0879 17.7003 27.0482 17.4922 28.1165 17.4922C30.0188 17.4922 31.5387 18.1088 32.6733 19.342Z" fill="#FEFFFC"/>
</svg>
