<svg width="44" height="44" viewBox="0 0 44 44" fill="none" xmlns="http://www.w3.org/2000/svg">
<path d="M43.9969 22.0008C43.9969 33.1121 35.7608 42.2981 25.0614 43.7888C24.061 43.9276 23.0374 44 21.9985 44C20.7992 44 19.6215 43.9044 18.4746 43.7194C8.00028 42.033 0 32.9503 0 22.0008C0 9.8504 9.85005 0 22 0C34.1499 0 44 9.8504 44 22.0008H43.9969Z" fill="#1C1C1B"/>
<path d="M8.92258 9.70312L19.0686 23.2686L8.85938 34.2983H11.1577L20.0968 24.6421L27.3186 34.2983H35.1385L24.4222 19.9697L33.9254 9.70312H31.627L23.3955 18.5962L16.7441 9.70312H8.92411H8.92258ZM12.3015 11.3957H15.8932L31.7565 32.6057H28.1649L12.3015 11.3957Z" fill="white"/>
</svg>
