<svg width="44" height="44" viewBox="0 0 44 44" fill="none" xmlns="http://www.w3.org/2000/svg">
<path d="M22.0501 0H21.9499C9.82729 0 0 9.82731 0 21.9499V22.0501C0 34.1727 9.82729 44 21.9499 44H22.0501C34.1727 44 44 34.1727 44 22.0501V21.9499C44 9.82731 34.1727 0 22.0501 0Z" fill="#00B0F2"/>
<path d="M8.33433 21.2501C8.39599 21.2193 8.45768 21.19 8.5178 21.1622C9.56296 20.6782 10.622 20.225 11.6795 19.7718C11.7365 19.7718 11.8321 19.7055 11.886 19.6839C11.9677 19.6485 12.0494 19.6145 12.1311 19.5791L12.6013 19.3772C12.9158 19.243 13.2287 19.1089 13.5432 18.9748C14.1706 18.7066 14.798 18.4384 15.4254 18.1686C16.6802 17.6321 17.9366 17.0941 19.1914 16.5577C20.4462 16.0212 21.7025 15.4832 22.9573 14.9468C24.2121 14.4103 25.4685 13.8723 26.7233 13.3359C27.9781 12.7994 29.2345 12.2614 30.4893 11.725C30.7683 11.6047 31.0704 11.4259 31.3695 11.3735C31.6208 11.3288 31.8659 11.2425 32.1187 11.1947C32.5981 11.1037 33.1268 11.0667 33.5862 11.2656C33.745 11.335 33.8914 11.4321 34.0132 11.5539C34.5959 12.1304 34.5142 13.0769 34.3909 13.8878C33.5322 19.539 32.6736 25.1918 31.8134 30.8431C31.6963 31.6185 31.536 32.4694 30.924 32.9596C30.406 33.3743 29.6692 33.4205 29.0294 33.2448C28.3897 33.0675 27.8255 32.696 27.2721 32.3307C24.9767 30.8107 22.6799 29.2908 20.3845 27.7708C19.8388 27.4101 19.2315 26.9384 19.2376 26.2832C19.2407 25.8886 19.4766 25.5371 19.717 25.2242C21.7118 22.6221 24.5898 20.8339 26.731 18.352C27.0332 18.0021 27.2706 17.3701 26.8559 17.1681C26.6092 17.0479 26.3256 17.2113 26.1005 17.367C23.2703 19.3324 20.4416 21.2994 17.6113 23.2649C16.6879 23.9062 15.7198 24.566 14.6069 24.7232C13.611 24.865 12.609 24.5875 11.6456 24.3039C10.8378 24.0665 10.0316 23.8229 9.22842 23.5717C8.80142 23.4391 8.36054 23.2957 8.03065 22.9951C7.70076 22.6945 7.51118 22.1889 7.71003 21.7881C7.8349 21.5368 8.07692 21.3781 8.33128 21.2486L8.33433 21.2501Z" fill="#FEFFFC"/>
</svg>
