<svg width="44" height="44" viewBox="0 0 44 44" fill="none" xmlns="http://www.w3.org/2000/svg">
<path d="M22.0501 0H21.9499C9.82731 0 0 9.82731 0 21.9499V22.0501C0 34.1727 9.82731 44 21.9499 44H22.0501C34.1727 44 44 34.1727 44 22.0501V21.9499C44 9.82731 34.1727 0 22.0501 0Z" fill="url(#paint0_linear_4757_102178)"/>
<path d="M28.8072 8.95312H15.1924C11.431 8.95312 8.37109 12.0131 8.37109 15.7744V28.23C8.37109 31.9913 11.431 35.0513 15.1924 35.0513H28.8072C32.5686 35.0513 35.6285 31.9913 35.6285 28.23V15.7744C35.6285 12.0131 32.5686 8.95312 28.8072 8.95312ZM10.7774 15.7744C10.7774 13.3403 12.7583 11.3595 15.1924 11.3595H28.8072C31.2413 11.3595 33.2222 13.3403 33.2222 15.7744V28.23C33.2222 30.6641 31.2413 32.645 28.8072 32.645H15.1924C12.7583 32.645 10.7774 30.6641 10.7774 28.23V15.7744Z" fill="white"/>
<path d="M22.0012 28.3442C25.4989 28.3442 28.3462 25.4985 28.3462 21.9993C28.3462 18.5 25.5005 15.6543 22.0012 15.6543C18.5019 15.6543 15.6562 18.5 15.6562 21.9993C15.6562 25.4985 18.5019 28.3442 22.0012 28.3442ZM22.0012 18.0622C24.1732 18.0622 25.9398 19.8288 25.9398 22.0008C25.9398 24.1728 24.1732 25.9394 22.0012 25.9394C19.8292 25.9394 18.0626 24.1728 18.0626 22.0008C18.0626 19.8288 19.8292 18.0622 22.0012 18.0622Z" fill="white"/>
<path d="M28.9322 16.6799C29.8741 16.6799 30.6418 15.9135 30.6418 14.9698C30.6418 14.0261 29.8756 13.2598 28.9322 13.2598C27.9888 13.2598 27.2227 14.0261 27.2227 14.9698C27.2227 15.9135 27.9888 16.6799 28.9322 16.6799Z" fill="white"/>
<defs>
<linearGradient id="paint0_linear_4757_102178" x1="6.4282" y1="37.5718" x2="37.5718" y2="6.42974" gradientUnits="userSpaceOnUse">
<stop stop-color="#FAAD4F"/>
<stop offset="0.35" stop-color="#DD2A7B"/>
<stop offset="0.62" stop-color="#9537B0"/>
<stop offset="1" stop-color="#515BD4"/>
</linearGradient>
</defs>
</svg>
