<svg width="44" height="44" viewBox="0 0 44 44" fill="none" xmlns="http://www.w3.org/2000/svg">
<path d="M44 22.0008C44 33.1121 35.7636 42.2981 25.0638 43.7888C24.0633 43.9276 23.0398 44 22.0008 44C20.8015 44 19.6237 43.9044 18.4768 43.7194C8.00056 42.033 0 32.9503 0 22.0008C0 9.8504 9.8504 0 21.9992 0C34.1481 0 44 9.8504 44 22.0008Z" fill="#1877F2"/>
<path d="M25.0626 17.6657V22.4584H30.9914L30.0526 28.9143H25.0626V43.7886C24.0622 43.9273 23.0386 43.9998 21.9996 43.9998C20.8003 43.9998 19.6225 43.9042 18.4756 43.7192V28.9143H13.0078V22.4584H18.4756V16.5944C18.4756 12.9564 21.4246 10.0059 25.0642 10.0059V10.0089C25.0749 10.0089 25.0842 10.0059 25.095 10.0059H30.9929V15.5893H27.1391C25.9937 15.5893 25.0642 16.5188 25.0642 17.6642L25.0626 17.6657Z" fill="white"/>
</svg>
