<svg width="44" height="44" viewBox="0 0 44 44" fill="none" xmlns="http://www.w3.org/2000/svg">
<path d="M44 22C44 9.84974 34.1503 0 22 0C9.84975 0 0 9.84974 0 22C0 34.1503 9.84975 44 22 44C34.1503 44 44 34.1503 44 22Z" fill="#FF0209"/>
<path d="M31.3391 31.7444C30.6836 31.8155 30.0127 31.8279 29.3696 31.8263C24.3531 31.8217 19.3365 31.817 14.3216 31.8139C12.7432 31.8139 11.0241 31.7629 9.8044 30.7596C8.43007 29.6265 8.14408 27.6616 8.03278 25.8838C7.87819 23.4474 7.86582 21.0033 7.99258 18.5654C8.06215 17.2266 8.18427 15.8554 8.7609 14.6434C9.17521 13.773 9.86623 12.9908 10.7505 12.5796C11.7785 12.1019 12.8545 12.1869 13.9614 12.1854C16.6111 12.1823 19.2608 12.1807 21.9105 12.1777C24.6654 12.1746 27.4217 12.173 30.1766 12.1699C31.4782 12.1699 32.8758 12.1962 33.9378 12.9491C35.309 13.9199 35.6816 15.7673 35.8532 17.4384C36.1701 20.5163 36.1747 23.6267 35.8656 26.7047C35.7372 27.9739 35.5239 29.3157 34.6875 30.2788C33.8589 31.2342 32.6299 31.6021 31.3406 31.7428L31.3391 31.7444Z" fill="white"/>
<path d="M26.4858 21.9979L19.0098 17.6816V26.3141L26.4858 21.9979Z" fill="#FF0209"/>
</svg>
