<svg width="128" height="73" viewBox="0 0 128 73" fill="none" xmlns="http://www.w3.org/2000/svg">
<defs>
	<style>
		/* By default, hide the 'group' and show the 'default-group' */
		.group, .group:target ~ .default-group {
			display: none;
		}

		/* Show the 'default-group' by default, and show the 'group' only when it's targeted */
		.default-group, .group:target {
			display: block;
		}
	</style>
	<filter id="filter0_f_3857_216990" x="0" y="0" width="55" height="55" filterUnits="userSpaceOnUse" color-interpolation-filters="sRGB">
	<feFlood flood-opacity="0" result="BackgroundImageFix"/>
	<feBlend mode="normal" in="SourceGraphic" in2="BackgroundImageFix" result="shape"/>
	<feGaussianBlur stdDeviation="7" result="effect1_foregroundBlur_3857_216990"/>
	</filter>
	<filter id="filter1_f_3857_216990" x="49" y="20" width="54" height="53" filterUnits="userSpaceOnUse" color-interpolation-filters="sRGB">
	<feFlood flood-opacity="0" result="BackgroundImageFix"/>
	<feBlend mode="normal" in="SourceGraphic" in2="BackgroundImageFix" result="shape"/>
	<feGaussianBlur stdDeviation="7" result="effect1_foregroundBlur_3857_216990"/>
	</filter>
	<linearGradient id="paint0_linear_3857_216990" x1="23.75" y1="24.6364" x2="28.1635" y2="40.8191" gradientUnits="userSpaceOnUse">
	<stop stop-color="#59ABFF"/>
	<stop offset="1" stop-color="#FE7EF8"/>
	</linearGradient>
	<linearGradient id="paint1_linear_3857_216990" x1="72.75" y1="46.5" x2="79.1187" y2="58.0418" gradientUnits="userSpaceOnUse">
	<stop stop-color="#2E6BFF"/>
	<stop offset="1" stop-color="#36F0EB"/>
	</linearGradient>
	
	<filter id="filter0_f_3870_688379" x="28" y="0" width="56" height="55" filterUnits="userSpaceOnUse" color-interpolation-filters="sRGB">
	<feFlood flood-opacity="0" result="BackgroundImageFix"/>
	<feBlend mode="normal" in="SourceGraphic" in2="BackgroundImageFix" result="shape"/>
	<feGaussianBlur stdDeviation="7" result="effect1_foregroundBlur_3870_688379"/>
	</filter>
	<filter id="filter1_f_3870_688379" x="73" y="20" width="54" height="53" filterUnits="userSpaceOnUse" color-interpolation-filters="sRGB">
	<feFlood flood-opacity="0" result="BackgroundImageFix"/>
	<feBlend mode="normal" in="SourceGraphic" in2="BackgroundImageFix" result="shape"/>
	<feGaussianBlur stdDeviation="7" result="effect1_foregroundBlur_3870_688379"/>
	</filter>
	<linearGradient id="paint0_linear_3870_688379" x1="52.1111" y1="24.6364" x2="56.3877" y2="40.898" gradientUnits="userSpaceOnUse">
	<stop stop-color="#59ABFF"/>
	<stop offset="1" stop-color="#FE7EF8"/>
	</linearGradient>
	<linearGradient id="paint1_linear_3870_688379" x1="96.75" y1="46.5" x2="103.119" y2="58.0418" gradientUnits="userSpaceOnUse">
	<stop stop-color="#2E6BFF"/>
	<stop offset="1" stop-color="#36F0EB"/>
	</linearGradient>

</defs>

<g id="rtl" class="group">
<g filter="url(#filter0_f_3870_688379)">
<ellipse cx="56" cy="27.5" rx="14" ry="13.5" fill="url(#paint0_linear_3870_688379)"/>
</g>
<g filter="url(#filter1_f_3870_688379)">
<ellipse cx="100" cy="46.5" rx="13" ry="12.5" fill="url(#paint1_linear_3870_688379)"/>
</g>
<path d="M67.1777 36.9297C67.1777 27.076 59.1897 19.088 49.3359 19.088C39.4822 19.088 31.4942 27.076 31.4942 36.9297C31.4942 46.7834 39.4822 54.7714 49.3359 54.7714V56.9297C38.2902 56.9297 29.3359 47.9754 29.3359 36.9297C29.3359 25.884 38.2902 16.9297 49.3359 16.9297C60.3816 16.9297 69.3359 25.884 69.3359 36.9297C69.3359 47.9754 60.3816 56.9297 49.3359 56.9297V54.7714C59.1897 54.7714 67.1777 46.7834 67.1777 36.9297Z" fill="white"/>
<path d="M78.3909 16.9297C89.4365 16.9297 98.3909 25.884 98.3909 36.9297C98.3909 47.9754 89.4365 56.9297 78.3909 56.9297C75.0742 56.9297 71.946 56.1224 69.1923 54.6935L69.0614 54.6249C67.8927 54.0075 66.7926 53.2775 65.7754 52.4497C66.2611 51.9195 66.722 51.366 67.1562 50.791C68.0585 51.5232 69.0337 52.1693 70.0696 52.7166L70.1863 52.7777C72.6403 54.051 75.4283 54.7714 78.3909 54.7714C88.2446 54.7714 96.2326 46.7834 96.2326 36.9297C96.2326 27.076 88.2446 19.088 78.3909 19.088C75.0507 19.088 71.9309 20.0038 69.2616 21.5969L69.1349 21.6733C68.3998 22.1203 67.6997 22.6189 67.0396 23.1638C66.6005 22.5925 66.135 22.0429 65.6447 21.5169C66.3502 20.9328 67.0964 20.3962 67.8785 19.912L68.0134 19.8292C71.0388 17.9893 74.5911 16.9297 78.3909 16.9297ZM60.9732 27.093C61.4873 27.712 61.9545 28.3726 62.3692 29.0692C61.2034 31.4411 60.5491 34.1092 60.5491 36.9297C60.5491 39.8036 61.2286 42.5194 62.4363 44.9249C62.0275 45.6252 61.5659 46.2898 61.0571 46.9131C59.3613 43.9751 58.3909 40.5658 58.3909 36.9297C58.3909 33.354 59.3293 29.9975 60.9732 27.093Z" fill="white"/>
<path d="M107.49 16.9297C118.536 16.9297 127.49 25.884 127.49 36.9297C127.49 47.9754 118.536 56.9297 107.49 56.9297C104.173 56.9297 101.045 56.1224 98.2912 54.6935L98.1604 54.6249C97.0277 54.0265 95.9595 53.3225 94.9687 52.526C95.4593 52.0001 95.9252 51.4504 96.3644 50.8789C97.236 51.575 98.1744 52.1914 99.1686 52.7166L99.2852 52.7777C101.739 54.051 104.527 54.7714 107.49 54.7714C117.344 54.7714 125.332 46.7834 125.332 36.9297C125.332 27.076 117.344 19.088 107.49 19.088C104.15 19.088 101.03 20.0038 98.3606 21.5969L98.2338 21.6733C97.5492 22.0896 96.8949 22.5506 96.2749 23.0522C95.832 22.4836 95.3627 21.937 94.8687 21.4142C95.5372 20.8698 96.2414 20.3677 96.9775 19.912L97.1124 19.8292C100.138 17.9893 103.69 16.9297 107.49 16.9297ZM90.1622 26.9355C90.6785 27.5395 91.1494 28.1851 91.5693 28.8667C90.3403 31.2889 89.6481 34.0286 89.6481 36.9297C89.6481 39.8714 90.3599 42.6475 91.6215 45.0947C91.206 45.7791 90.7393 46.4276 90.227 47.0349C88.4874 44.0695 87.4898 40.6161 87.4898 36.9297C87.4898 33.2892 88.4625 29.8759 90.1622 26.9355Z" fill="white"/>
<path d="M52.5374 40.6707C52.5374 40.1966 52.3746 39.7033 51.9515 39.2773C51.5206 38.8434 50.7447 38.4061 49.3992 38.2138C47.8353 37.9904 46.5544 37.6055 45.6617 36.8658C44.6937 36.0635 44.3359 34.9808 44.3359 33.7642C44.3359 32.2964 45.1625 31.2986 46.2109 30.7262C47.2092 30.1811 48.443 29.9872 49.5518 29.9872C51.9793 29.9872 53.7857 31.4721 54.2357 31.922L52.7096 33.4481C52.4401 33.1787 51.153 32.1455 49.5518 32.1455C48.6461 32.1455 47.8116 32.3113 47.2452 32.6206C46.7288 32.9025 46.4942 33.2536 46.4942 33.7642C46.4942 34.526 46.694 34.9182 47.0389 35.2041C47.4592 35.5524 48.2466 35.8689 49.7044 36.0772C51.3804 36.3166 52.6369 36.9045 53.483 37.7565C54.3369 38.6165 54.6957 39.6699 54.6957 40.6707C54.6957 41.4428 54.4034 42.559 53.6086 43.4988C52.7766 44.4827 51.4525 45.2031 49.5518 45.2031C46.6152 45.2031 44.5793 43.6477 43.8559 42.7513L45.5354 41.3959C45.9151 41.8664 47.366 43.0448 49.5518 43.0448C50.8524 43.0448 51.5608 42.5781 51.9607 42.1052C52.398 41.5882 52.5374 40.9777 52.5374 40.6707Z" fill="white"/>
<path d="M50.6309 44.1959V47.793H48.4726V44.1959H50.6309Z" fill="white"/>
<path d="M50.6309 27.7211V31.1024H48.4726V27.7211H50.6309Z" fill="white"/>
<path d="M102 37.465C102 34.1089 102.791 31.9137 104.139 30.5789C105.494 29.2375 107.201 28.9715 108.554 29L108.638 29.0023C110.4 29.0634 111.627 29.8609 112.398 30.6402C112.785 31.0316 113.059 31.4195 113.239 31.7123C113.329 31.8595 113.397 31.985 113.444 32.0781C113.467 32.1247 113.485 32.1634 113.499 32.1929C113.506 32.2076 113.512 32.2201 113.516 32.2302C113.518 32.2352 113.52 32.2396 113.522 32.2434C113.523 32.2453 113.524 32.2487 113.524 32.2487L113.525 32.2509L113.525 32.2519C113.525 32.2519 113.526 32.2529 112.532 32.6729C111.547 33.089 111.538 33.0938 111.538 33.0938L111.539 33.0963L111.54 33.0988L111.541 33.1011C111.541 33.1011 111.541 33.0993 111.539 33.0963C111.536 33.0887 111.528 33.0726 111.517 33.0499C111.493 33.0043 111.455 32.9314 111.399 32.8402C111.286 32.6563 111.11 32.4073 110.863 32.158C110.386 31.6757 109.655 31.1967 108.561 31.1592L108.508 31.1578C107.443 31.1353 106.425 31.3528 105.658 32.1124C104.884 32.8788 104.158 34.4022 104.158 37.465C104.158 40.4176 105.112 41.6943 105.94 42.2889C106.833 42.9304 107.843 42.9757 108.28 42.9808L108.347 42.9812C109.753 42.9829 110.608 42.5172 111.106 42.1027C111.366 41.8853 111.543 41.6702 111.65 41.5175C111.703 41.4414 111.738 41.382 111.757 41.3474L111.774 41.3163C111.774 41.3163 111.773 41.319 111.772 41.3211L111.77 41.3246L111.769 41.3266L111.769 41.3277C111.769 41.3277 111.769 41.3283 111.891 41.3841L113.612 42.1631C113.732 42.218 113.734 42.2196 113.734 42.2196L113.734 42.2208L113.732 42.2236C113.732 42.2254 113.731 42.2274 113.73 42.2296C113.728 42.2339 113.725 42.2388 113.723 42.2443C113.717 42.2552 113.711 42.2684 113.703 42.2837C113.688 42.3143 113.668 42.3534 113.642 42.3996C113.59 42.4921 113.516 42.6141 113.417 42.7555C113.22 43.0377 112.918 43.4017 112.487 43.7609C111.622 44.4815 110.283 45.1412 108.347 45.1395L108.254 45.1389C107.724 45.1327 106.14 45.09 104.681 44.0417C103.156 42.9465 102 40.9314 102 37.465Z" fill="white"/>
<path d="M108.526 40.3622H100.844L101.178 38.2039H108.856L108.526 40.3622ZM109.17 36.1583H100.843L101.177 34H109.5L109.17 36.1583Z" fill="white"/>
</g>

<g class="default-group">
<g filter="url(#filter0_f_3857_216990)">
<circle cx="27.5" cy="27.5" r="13.5" fill="url(#paint0_linear_3857_216990)"/>
</g>
<g filter="url(#filter1_f_3857_216990)">
<ellipse cx="76" cy="46.5" rx="13" ry="12.5" fill="url(#paint1_linear_3857_216990)"/>
</g>
<path d="M38.3027 36.2109C38.3027 26.3572 30.3147 18.3692 20.461 18.3692C10.6072 18.3692 2.61921 26.3572 2.61921 36.2109C2.61921 46.0647 10.6072 54.0527 20.461 54.0527V56.2109C9.41526 56.2109 0.460938 47.2566 0.460938 36.2109C0.460938 25.1652 9.41526 16.2109 20.461 16.2109C31.5067 16.2109 40.461 25.1652 40.461 36.2109C40.461 47.2566 31.5067 56.2109 20.461 56.2109V54.0527C30.3147 54.0527 38.3027 46.0647 38.3027 36.2109Z" fill="white"/>
<path d="M49.5157 16.2109C60.5614 16.2109 69.5157 25.1652 69.5157 36.2109C69.5157 47.2566 60.5614 56.2109 49.5157 56.2109C46.199 56.2109 43.0708 55.4036 40.3171 53.9748L40.1862 53.9062C39.0175 53.2887 37.9174 52.5588 36.9002 51.7309C37.3859 51.2008 37.8468 50.6473 38.281 50.0723C39.1833 50.8045 40.1585 51.4506 41.1944 51.9979C43.6766 53.3092 46.5061 54.0527 49.5157 54.0527C59.3694 54.0527 67.3574 46.0647 67.3574 36.2109C67.3574 26.3572 59.3694 18.3692 49.5157 18.3692C46.1225 18.3692 42.9567 19.3143 40.2597 20.9545C39.5246 21.4015 38.8245 21.9001 38.1644 22.4451C37.7253 21.8738 37.2597 21.3242 36.7695 20.7981C37.475 20.214 38.2212 19.6774 39.0033 19.1932L39.1382 19.1105C42.1636 17.2706 45.7159 16.2109 49.5157 16.2109ZM32.098 26.3742C32.6121 26.9932 33.0793 27.6538 33.494 28.3505C32.3281 30.7224 31.6739 33.3904 31.6739 36.2109C31.6739 39.0849 32.3534 41.8007 33.5611 44.2062C33.1523 44.9064 32.6907 45.571 32.1819 46.1944C30.4861 43.2564 29.5156 39.847 29.5156 36.2109C29.5156 32.6352 30.4541 29.2788 32.098 26.3742Z" fill="white"/>
<path d="M78.6153 16.2109C89.661 16.2109 98.6153 25.1652 98.6153 36.2109C98.6153 47.2566 89.661 56.2109 78.6153 56.2109C75.2986 56.2109 72.1704 55.4036 69.4167 53.9748L69.2858 53.9062C68.1532 53.3078 67.0849 52.6037 66.0941 51.8073C66.5847 51.2813 67.0506 50.7317 67.4899 50.1602C68.3615 50.8562 69.2998 51.4726 70.294 51.9979C72.7762 53.3092 75.6057 54.0527 78.6153 54.0527C88.469 54.0527 96.457 46.0647 96.457 36.2109C96.457 26.3572 88.469 18.3692 78.6153 18.3692C75.2221 18.3692 72.0563 19.3143 69.3593 20.9545C68.6746 21.3709 68.0203 21.8318 67.4004 22.3334C66.9575 21.7648 66.4881 21.2182 65.9941 20.6955C66.6626 20.151 67.3669 19.6489 68.1029 19.1932L68.2378 19.1105C71.2632 17.2706 74.8155 16.2109 78.6153 16.2109ZM61.2876 26.2168C61.8039 26.8208 62.2748 27.4663 62.6947 28.148C61.4657 30.5701 60.7735 33.3099 60.7735 36.2109C60.7735 39.1527 61.4853 41.9288 62.7469 44.3759C62.3314 45.0604 61.8647 45.7089 61.3524 46.3162C59.6128 43.3508 58.6152 39.8974 58.6152 36.2109C58.6152 32.5705 59.5879 29.1572 61.2876 26.2168Z" fill="white"/>
<path d="M20.6768 29.2698C23.1039 29.2699 24.9103 30.7543 25.3604 31.2043L23.834 32.7307C23.5644 32.4612 22.2777 31.4281 20.6768 31.428C19.7712 31.428 18.9365 31.5943 18.3701 31.9036C17.8538 32.1855 17.6191 32.5365 17.6191 33.0471C17.6192 33.8085 17.8184 34.2008 18.1631 34.4866C18.5834 34.8349 19.3714 35.1514 20.8291 35.3596C22.5051 35.5991 23.7613 36.1873 24.6074 37.0393C25.4613 37.8992 25.8203 38.9526 25.8203 39.9534C25.8203 40.7255 25.5281 41.8417 24.7334 42.7815C24.069 43.5671 23.0906 44.1826 21.7559 44.3997V47.0735H19.5977V44.4133C17.242 44.0986 15.6116 42.8155 14.9805 42.0334L16.6602 40.678C17.0399 41.1485 18.491 42.3274 20.6768 42.3274C21.9769 42.3273 22.685 41.8607 23.085 41.3879C23.5221 40.871 23.6621 40.2604 23.6621 39.9534C23.6621 39.4793 23.4992 38.9858 23.0762 38.5598C22.6453 38.1259 21.869 37.6886 20.5234 37.4963C18.9598 37.2729 17.6787 36.8883 16.7861 36.1487C15.8182 35.3465 15.461 34.2636 15.4609 33.0471C15.4609 31.5793 16.2875 30.5814 17.3359 30.009C18.3342 29.4641 19.5681 29.2698 20.6768 29.2698Z" fill="white"/>
<path d="M21.7561 27.002V30.3832H19.5979V27.002L21.7561 27.002Z" fill="white"/>
<path d="M73.2676 36.5237C73.2676 33.1676 74.0589 30.9723 75.4066 29.6376C76.7611 28.2961 78.4689 28.0301 79.8213 28.0586L79.9056 28.061C81.6675 28.1221 82.8943 28.9195 83.6652 29.6988C84.0523 30.0902 84.3269 30.4781 84.5064 30.7709C84.5966 30.9181 84.6642 31.0436 84.7112 31.1367C84.7346 31.1833 84.7531 31.222 84.7667 31.2515C84.7735 31.2663 84.7791 31.2788 84.7835 31.2888C84.7857 31.2938 84.7876 31.2982 84.7893 31.302C84.7901 31.3039 84.7909 31.3057 84.7915 31.3073C84.7919 31.3081 84.7922 31.3088 84.7925 31.3095C84.7927 31.3099 84.7929 31.3103 84.7929 31.3105C84.7931 31.311 84.7933 31.3115 83.7993 31.7316C82.8146 32.1476 82.8056 32.152 82.8057 32.1525C82.8057 32.1526 82.8059 32.1531 82.806 32.1534C82.8062 32.1539 82.8065 32.1545 82.8067 32.1549C82.8071 32.1559 82.8075 32.1567 82.8078 32.1574C82.8083 32.1587 82.8086 32.1595 82.8087 32.1598C82.8086 32.1595 82.8078 32.1577 82.8064 32.1546C82.8029 32.147 82.7955 32.1313 82.7841 32.1086C82.7611 32.0629 82.7222 31.99 82.6663 31.8988C82.5536 31.715 82.3775 31.466 82.1308 31.2166C81.6538 30.7344 80.9227 30.2553 79.8282 30.2178L79.7758 30.2164C78.7105 30.1939 77.6924 30.4115 76.9254 31.1711C76.1516 31.9374 75.4259 33.4608 75.4259 36.5237C75.4259 39.4762 76.38 40.753 77.2076 41.3475C78.1006 41.9891 79.1104 42.0343 79.5472 42.0394L79.6145 42.0398C81.0203 42.0415 81.8755 41.5758 82.3732 41.1613C82.6341 40.9439 82.8101 40.7289 82.9171 40.5761C82.9703 40.5001 83.0056 40.4407 83.0249 40.406L83.0416 40.3749C83.0411 40.376 83.0404 40.3776 83.0394 40.3797C83.0389 40.3807 83.0384 40.3819 83.0378 40.3832C83.0375 40.3838 83.0372 40.3845 83.0369 40.3852C83.0367 40.3856 83.0365 40.3862 83.0364 40.3864C83.0363 40.3867 83.0361 40.387 83.1589 40.4428L84.8792 41.2218C85 41.2767 85.0018 41.2779 85.0017 41.2782C85.0016 41.2784 85.0014 41.279 85.0012 41.2795C85.0008 41.2803 85.0004 41.2813 85 41.2822C84.9991 41.2841 84.9982 41.2861 84.9972 41.2882C84.9952 41.2926 84.9928 41.2975 84.9902 41.3029C84.985 41.3139 84.9786 41.3271 84.971 41.3423C84.9556 41.3729 84.9352 41.412 84.9093 41.4583C84.8577 41.5507 84.784 41.6727 84.685 41.8141C84.4874 42.0963 84.1858 42.4603 83.7546 42.8195C82.8897 43.5401 81.5509 44.1999 79.6146 44.1981L79.5219 44.1976C78.9916 44.1914 77.4075 44.1486 75.9484 43.1004C74.4238 42.0051 73.2676 39.9901 73.2676 36.5237Z" fill="white"/>
<path d="M79.7374 39.5868H72.0558L72.3896 37.4285H80.0679L79.7374 39.5868ZM80.3811 35.3829H72.0547L72.3885 33.2246H80.7115L80.3811 35.3829Z" fill="white"/>
</g>

</svg>