<svg width="41" height="27" viewBox="0 0 41 27" fill="none" xmlns="http://www.w3.org/2000/svg">
<path d="M0 0H41V27H0V0Z" fill="#000066"/>
<path fill-rule="evenodd" clip-rule="evenodd" d="M0 20.5215L14.313 13.4522L0 6.38299V0.367111L20.4031 10.4443L41 0.271484V6.2873L26.4932 13.4522L41 20.6172V26.633L20.4031 16.4601L0 26.5373V20.5215Z" fill="white"/>
<path d="M15.9443 0V27H25.0554V0H15.9443H15.9443Z" fill="white"/>
<path d="M0 9V18H41V9H0Z" fill="white"/>
<path d="M0 11.25V15.75H41V11.25H0Z" fill="#CC0000"/>
<path d="M18.2222 0V27H22.7777V0H18.2222H18.2222Z" fill="#CC0000"/>
<path fill-rule="evenodd" clip-rule="evenodd" d="M0 3.38692L11.3244 8.99992H7.26428L0 5.39938V3.38692ZM0 25.6253V23.6129L11.3244 17.9999H15.3844L0 25.6253ZM41 21.6965V23.7089L29.4821 17.9999H33.5421L41 21.6965ZM41 1.27856V3.29097L29.4821 8.99992H25.422L41 1.27856Z" fill="#CC0000"/>
</svg>
