<svg width="41" height="27" viewBox="0 0 41 27" fill="none" xmlns="http://www.w3.org/2000/svg">
<rect width="41" height="27" fill="white"/>
<rect width="41" height="2" fill="#BE3E45"/>
<rect y="10" width="41" height="2" fill="#BE3E45"/>
<rect y="5" width="41" height="2" fill="#BE3E45"/>
<rect y="23" width="41" height="2" fill="#BE3E45"/>
<rect y="14" width="41" height="2" fill="#BE3E45"/>
<rect width="23" height="16" fill="white"/>
<path fill-rule="evenodd" clip-rule="evenodd" d="M0 0H23V16H0V0ZM2.02696 0.7316L2.23395 1.36264H2.90392L2.36189 1.7527L2.56894 2.38374L2.0269 1.99374L1.48499 2.38374L1.69198 1.7527L1.15 1.36264H1.81991L2.02696 0.7316ZM6.02609 1.36264L5.81904 0.7316L5.61205 1.36264H4.94214L5.48412 1.7527L5.27712 2.38374L5.81904 1.99374L6.36108 2.38374L6.15403 1.7527L6.69606 1.36264H6.02609ZM9.6113 0.7316L9.81829 1.36264H10.4883L9.94623 1.7527L10.1533 2.38374L9.6113 1.99374L9.06932 2.38374L9.27631 1.7527L8.73434 1.36264H9.40431L9.6113 0.7316ZM13.6103 1.36264L13.4033 0.7316L13.1963 1.36264H12.5263L13.0683 1.7527L12.8613 2.38374L13.4033 1.99374L13.9452 2.38374L13.7382 1.7527L14.2802 1.36264H13.6103ZM17.1955 0.7316L17.4025 1.36264H18.0725L17.5304 1.7527L17.7375 2.38374L17.1955 1.99374L16.6535 2.38374L16.8605 1.7527L16.3186 1.36264H16.9885L17.1955 0.7316ZM21.1947 1.36264L20.9877 0.7316L20.7807 1.36264H20.1108L20.6528 1.7527L20.4457 2.38374L20.9877 1.99374L21.5297 2.38374L21.3226 1.7527L21.8647 1.36264H21.1947ZM3.92309 2.32832L4.13008 2.95936H4.80005L4.25802 3.34936L4.46512 3.98046L3.92309 3.59046L3.38111 3.98046L3.5881 3.34936L3.04613 2.95936H3.7161L3.92309 2.32832ZM7.9221 2.95936L7.71511 2.32832L7.50806 2.95936H6.83809L7.38013 3.34936L7.17308 3.98046L7.71511 3.59046L8.25703 3.98046L8.05004 3.34936L8.59202 2.95936H7.9221ZM11.5073 2.32832L11.7143 2.95936H12.3843L11.8422 3.34936L12.0493 3.98046L11.5073 3.59046L10.9653 3.98046L11.1723 3.34936L10.6303 2.95936H11.3003L11.5073 2.32832ZM15.5065 2.95936L15.2995 2.32832L15.0926 2.95936H14.4226L14.9646 3.34936L14.7575 3.98046L15.2995 3.59046L15.8415 3.98046L15.6344 3.34936L16.1765 2.95936H15.5065ZM19.0915 2.32832L19.2985 2.95936H19.9684L19.4265 3.34936L19.6334 3.98046L19.0915 3.59046L18.5495 3.98046L18.7565 3.34936L18.2145 2.95936H18.8845L19.0915 2.32832ZM2.23395 4.55602L2.02696 3.92498L1.81991 4.55602H1.15L1.69198 4.94608L1.48499 5.57712L2.0269 5.18712L2.56894 5.57712L2.36189 4.94608L2.90392 4.55602H2.23395ZM5.81904 3.92498L6.02609 4.55602H6.69606L6.15403 4.94608L6.36108 5.57712L5.81904 5.18712L5.27712 5.57712L5.48412 4.94608L4.94214 4.55602H5.61205L5.81904 3.92498ZM9.81829 4.55602L9.6113 3.92498L9.40431 4.55602H8.73434L9.27631 4.94608L9.06932 5.57712L9.6113 5.18712L10.1533 5.57712L9.94623 4.94608L10.4883 4.55602H9.81829ZM13.4033 3.92498L13.6103 4.55602H14.2802L13.7382 4.94608L13.9452 5.57712L13.4033 5.18712L12.8613 5.57712L13.0683 4.94608L12.5263 4.55602H13.1963L13.4033 3.92498ZM17.4025 4.55602L17.1955 3.92498L16.9885 4.55602H16.3186L16.8605 4.94608L16.6535 5.57712L17.1955 5.18712L17.7375 5.57712L17.5304 4.94608L18.0725 4.55602H17.4025ZM20.9877 3.92498L21.1947 4.55602H21.8647L21.3226 4.94608L21.5297 5.57712L20.9877 5.18712L20.4457 5.57712L20.6528 4.94608L20.1108 4.55602H20.7807L20.9877 3.92498ZM4.13008 6.15274L3.92309 5.52164L3.7161 6.15274H3.04613L3.5881 6.54274L3.38111 7.17384L3.92309 6.78384L4.46512 7.17384L4.25802 6.54274L4.80005 6.15274H4.13008ZM7.71511 5.52164L7.9221 6.15274H8.59202L8.05004 6.54274L8.25703 7.17384L7.71511 6.78384L7.17308 7.17384L7.38013 6.54274L6.83809 6.15274H7.50806L7.71511 5.52164ZM11.7143 6.15274L11.5073 5.52164L11.3003 6.15274H10.6303L11.1723 6.54274L10.9653 7.17384L11.5073 6.78384L12.0493 7.17384L11.8422 6.54274L12.3843 6.15274H11.7143ZM15.2995 5.52164L15.5065 6.15274H16.1765L15.6344 6.54274L15.8415 7.17384L15.2995 6.78384L14.7575 7.17384L14.9646 6.54274L14.4225 6.15274H15.0925L15.2995 5.52164ZM19.2985 6.15274L19.0915 5.52164L18.8845 6.15274H18.2145L18.7565 6.54274L18.5495 7.17384L19.0915 6.78384L19.6334 7.17384L19.4265 6.54274L19.9684 6.15274H19.2985ZM2.02696 7.11836L2.23395 7.7494H2.90392L2.36189 8.13946L2.56894 8.7705L2.0269 8.3805L1.48499 8.7705L1.69198 8.13946L1.15 7.7494H1.81991L2.02696 7.11836ZM6.02609 7.7494L5.81904 7.11836L5.61205 7.7494H4.94214L5.48412 8.13946L5.27712 8.7705L5.81904 8.3805L6.36108 8.7705L6.15403 8.13946L6.69606 7.7494H6.02609ZM9.6113 7.11836L9.81829 7.7494H10.4883L9.94623 8.13946L10.1533 8.7705L9.6113 8.3805L9.06932 8.7705L9.27631 8.13946L8.73434 7.7494H9.40431L9.6113 7.11836ZM13.6103 7.7494L13.4033 7.11836L13.1963 7.7494H12.5263L13.0683 8.13946L12.8613 8.7705L13.4033 8.3805L13.9452 8.7705L13.7382 8.13946L14.2802 7.7494H13.6103ZM17.1955 7.11836L17.4025 7.7494H18.0725L17.5304 8.13946L17.7375 8.7705L17.1955 8.3805L16.6535 8.7705L16.8605 8.13946L16.3186 7.7494H16.9885L17.1955 7.11836ZM21.1947 7.7494L20.9877 7.11836L20.7807 7.7494H20.1108L20.6528 8.13946L20.4457 8.7705L20.9877 8.3805L21.5297 8.7705L21.3226 8.13946L21.8647 7.7494H21.1947ZM3.92309 8.71502L4.13008 9.34612H4.80005L4.25802 9.73612L4.46512 10.3672L3.92309 9.97722L3.38111 10.3672L3.5881 9.73612L3.04613 9.34612H3.7161L3.92309 8.71502ZM7.9221 9.34612L7.71511 8.71502L7.50806 9.34612H6.83809L7.38013 9.73612L7.17308 10.3672L7.71511 9.97722L8.25703 10.3672L8.05004 9.73612L8.59202 9.34612H7.9221ZM11.5073 8.71502L11.7143 9.34612H12.3843L11.8422 9.73612L12.0493 10.3672L11.5073 9.97722L10.9653 10.3672L11.1723 9.73612L10.6303 9.34612H11.3003L11.5073 8.71502ZM15.5065 9.34612L15.2995 8.71502L15.0925 9.34612H14.4225L14.9646 9.73612L14.7575 10.3672L15.2995 9.97722L15.8415 10.3672L15.6344 9.73612L16.1765 9.34612H15.5065ZM19.0915 8.71502L19.2985 9.34612H19.9684L19.4265 9.73612L19.6334 10.3672L19.0915 9.97722L18.5495 10.3672L18.7565 9.73612L18.2145 9.34612H18.8845L19.0915 8.71502ZM2.23395 10.9428L2.02696 10.3117L1.81991 10.9428H1.15L1.69198 11.3328L1.48499 11.9639L2.0269 11.5739L2.56894 11.9639L2.36189 11.3328L2.90392 10.9428H2.23395ZM5.81904 10.3117L6.02609 10.9428H6.69606L6.15403 11.3328L6.36108 11.9639L5.81904 11.5739L5.27712 11.9639L5.48412 11.3328L4.94214 10.9428H5.61205L5.81904 10.3117ZM9.81829 10.9428L9.6113 10.3117L9.40431 10.9428H8.73434L9.27631 11.3328L9.06932 11.9639L9.6113 11.5739L10.1533 11.9639L9.94623 11.3328L10.4883 10.9428H9.81829ZM13.4033 10.3117L13.6103 10.9428H14.2802L13.7382 11.3328L13.9452 11.9639L13.4033 11.5739L12.8613 11.9639L13.0683 11.3328L12.5263 10.9428H13.1963L13.4033 10.3117ZM17.4025 10.9428L17.1955 10.3117L16.9885 10.9428H16.3186L16.8605 11.3328L16.6535 11.9639L17.1955 11.5739L17.7375 11.9639L17.5304 11.3328L18.0725 10.9428H17.4025ZM20.9877 10.3117L21.1947 10.9428H21.8647L21.3226 11.3328L21.5297 11.9639L20.9877 11.5739L20.4457 11.9639L20.6528 11.3328L20.1108 10.9428H20.7807L20.9877 10.3117ZM4.13008 12.5395L3.92309 11.9084L3.7161 12.5395H3.04613L3.5881 12.9295L3.38111 13.5606L3.92309 13.1706L4.46512 13.5606L4.25802 12.9295L4.80005 12.5395H4.13008ZM7.71511 11.9084L7.9221 12.5395H8.59202L8.05004 12.9295L8.25703 13.5606L7.71511 13.1706L7.17308 13.5606L7.38013 12.9295L6.83809 12.5395H7.50806L7.71511 11.9084ZM11.7143 12.5395L11.5073 11.9084L11.3003 12.5395H10.6303L11.1723 12.9295L10.9653 13.5606L11.5073 13.1706L12.0493 13.5606L11.8422 12.9295L12.3843 12.5395H11.7143ZM15.2995 11.9084L15.5065 12.5395H16.1765L15.6344 12.9295L15.8415 13.5606L15.2995 13.1706L14.7575 13.5606L14.9646 12.9295L14.4225 12.5395H15.0925L15.2995 11.9084ZM19.2985 12.5395L19.0915 11.9084L18.8845 12.5395H18.2145L18.7565 12.9295L18.5495 13.5606L19.0915 13.1706L19.6334 13.5606L19.4265 12.9295L19.9684 12.5395H19.2985ZM2.02696 13.5051L2.23395 14.1362H2.90392L2.36189 14.5262L2.56894 15.1573L2.0269 14.7673L1.48499 15.1573L1.69198 14.5262L1.15 14.1362H1.81991L2.02696 13.5051ZM6.02609 14.1362L5.81904 13.5051L5.61205 14.1362H4.94214L5.48412 14.5262L5.27712 15.1573L5.81904 14.7673L6.36108 15.1573L6.15403 14.5262L6.69606 14.1362H6.02609ZM9.6113 13.5051L9.81829 14.1362H10.4883L9.94623 14.5262L10.1533 15.1573L9.6113 14.7673L9.06932 15.1573L9.27631 14.5262L8.73434 14.1362H9.40431L9.6113 13.5051ZM13.6103 14.1362L13.4033 13.5051L13.1963 14.1362H12.5263L13.0683 14.5262L12.8613 15.1573L13.4033 14.7673L13.9452 15.1573L13.7382 14.5262L14.2802 14.1362H13.6103ZM17.1955 13.5051L17.4025 14.1362H18.0725L17.5304 14.5262L17.7375 15.1573L17.1955 14.7673L16.6535 15.1573L16.8605 14.5262L16.3186 14.1362H16.9885L17.1955 13.5051ZM21.1947 14.1362L20.9877 13.5051L20.7807 14.1362H20.1108L20.6528 14.5262L20.4457 15.1573L20.9877 14.7673L21.5297 15.1573L21.3226 14.5262L21.8647 14.1362H21.1947Z" fill="#192F5D"/>
<rect y="18" width="41" height="2" fill="#BE3E45"/>
</svg>
