<svg width="126" height="24" viewBox="0 0 126 24" fill="none" xmlns="http://www.w3.org/2000/svg">
<path d="M32.4315 19.6403V19.3953H32.5948V19.3136H32.2798H32.3615V19.7219L32.4315 19.6403ZM33.0732 19.6403V19.3136L32.9098 19.5586L32.7465 19.3136H32.6648V19.7219V19.3953L32.8281 19.6403H32.9098L32.9915 19.3953V19.7219L33.0732 19.6403ZM12.1891 11.9752C12.1658 8.63853 13.6475 5.46518 16.2259 3.34183C11.7225 0.180151 5.52725 1.13682 2.19048 5.52351C-1.30964 10.0852 -0.527946 16.6069 3.96387 20.2003C7.49898 23.0703 12.5042 23.2336 16.2259 20.6086C13.6359 18.4853 12.1541 15.3236 12.1891 11.9752ZM31.2181 5.52351C27.8813 1.14849 21.6861 0.180151 17.1826 3.34183C19.7844 5.45351 21.2894 8.62686 21.2894 11.9752C21.2894 15.3236 19.7844 18.4853 17.1826 20.6086C18.9094 21.8219 20.9628 22.4636 23.0745 22.4636C25.8396 22.4403 28.4763 21.3203 30.4131 19.3603C32.3498 17.3886 33.4232 14.7402 33.3998 11.9752C33.3998 9.64187 32.6415 7.37852 31.2181 5.52351ZM16.7043 3.75017C14.2192 5.75685 12.7725 8.77853 12.7725 11.9752C12.7725 15.1719 14.2192 18.1936 16.7043 20.2003C19.201 18.1936 20.6361 15.1719 20.6361 11.9752C20.6361 8.77853 19.1894 5.75685 16.7043 3.75017Z" fill="white"/>
<path d="M124.271 16.0082V16.1885H124.439C124.465 16.1885 124.503 16.1756 124.529 16.1628C124.555 16.1499 124.568 16.1241 124.568 16.0984C124.568 16.0726 124.555 16.0468 124.529 16.034C124.503 16.0211 124.465 16.0082 124.439 16.0082H124.271ZM124.439 15.8794C124.516 15.8794 124.58 15.8923 124.645 15.9438C124.696 15.9824 124.722 16.0468 124.722 16.1112C124.722 16.1628 124.709 16.2143 124.671 16.2529C124.619 16.2916 124.568 16.3173 124.503 16.3173L124.735 16.5749H124.555L124.349 16.3173H124.284V16.5749H124.142V15.8794H124.439ZM124.4 16.8197C124.477 16.8197 124.555 16.8068 124.632 16.7682C124.696 16.7424 124.761 16.6909 124.812 16.6393C124.864 16.5878 124.903 16.5234 124.941 16.459C125.006 16.3173 125.006 16.1499 124.941 16.0082C124.915 15.9438 124.864 15.8794 124.812 15.8279C124.761 15.7763 124.696 15.7377 124.632 15.6991C124.555 15.6733 124.477 15.6604 124.4 15.6604C124.323 15.6604 124.246 15.6733 124.168 15.6991C124.104 15.7248 124.039 15.7763 123.975 15.8279C123.808 15.9953 123.756 16.2529 123.846 16.4719C123.872 16.5363 123.911 16.6007 123.975 16.6522C124.027 16.7037 124.091 16.7424 124.168 16.781C124.246 16.8068 124.323 16.8197 124.4 16.8197ZM124.4 15.493C124.606 15.493 124.8 15.5703 124.941 15.7119C125.006 15.7763 125.07 15.8665 125.109 15.9567C125.186 16.137 125.186 16.356 125.109 16.5363C125.07 16.6265 125.019 16.7037 124.941 16.781C124.877 16.8454 124.787 16.897 124.696 16.9356C124.606 16.9742 124.503 17 124.4 17C124.297 17 124.194 16.9742 124.104 16.9356C124.014 16.897 123.936 16.8454 123.859 16.781C123.795 16.7037 123.73 16.6265 123.704 16.5363C123.627 16.356 123.627 16.137 123.704 15.9567C123.743 15.8665 123.795 15.7892 123.872 15.7119C123.936 15.6475 124.027 15.5831 124.117 15.5574C124.194 15.5059 124.297 15.4801 124.4 15.493ZM54.0729 12.8009C54.0729 11.4742 54.936 10.3923 56.3531 10.3923C57.7058 10.3923 58.6205 11.4356 58.6205 12.8009C58.6205 14.1663 57.7058 15.2096 56.3531 15.2096C54.9489 15.2225 54.0729 14.1276 54.0729 12.8009ZM60.1793 12.8009V9.02693H58.5432V9.94145C58.0279 9.25878 57.2292 8.83372 56.1599 8.83372C54.0471 8.83372 52.3852 10.4953 52.3852 12.7881C52.3852 15.0937 54.0471 16.7424 56.1599 16.7424C57.2292 16.7424 58.015 16.3173 58.5432 15.6347V16.5492H60.1793V12.8009ZM115.563 12.8009C115.563 11.4742 116.426 10.3923 117.856 10.3923C119.208 10.3923 120.123 11.4356 120.123 12.8009C120.123 14.1663 119.208 15.2096 117.856 15.2096C116.426 15.2225 115.563 14.1276 115.563 12.8009ZM121.669 12.8009V6H120.033V9.95433C119.518 9.27166 118.719 8.8466 117.65 8.8466C115.537 8.8466 113.875 10.5082 113.875 12.8009C113.875 15.1066 115.537 16.7553 117.65 16.7553C118.719 16.7553 119.505 16.3302 120.033 15.6475V16.5621H121.669V12.8009ZM80.5213 10.315C81.5777 10.315 82.2605 10.9719 82.428 12.144H78.5116C78.6919 11.0492 79.349 10.315 80.5213 10.315ZM80.5599 8.8466C78.357 8.8466 76.8111 10.4567 76.8111 12.8009C76.8111 15.1967 78.4214 16.7553 80.6759 16.7553C81.8096 16.7553 82.8531 16.4719 83.7678 15.6991L82.969 14.4883C82.3378 14.9906 81.5262 15.274 80.779 15.274C79.7226 15.274 78.7564 14.7845 78.5245 13.4321H84.1027C84.1156 13.226 84.1414 13.0199 84.1414 12.8009C84.1156 10.4567 82.6598 8.8466 80.5599 8.8466ZM100.348 12.8009C100.348 11.4742 101.211 10.3923 102.628 10.3923C103.981 10.3923 104.896 11.4356 104.896 12.8009C104.896 14.1663 103.981 15.2096 102.628 15.2096C101.211 15.2225 100.348 14.1276 100.348 12.8009ZM106.442 12.8009V9.03981H104.805V9.95433C104.29 9.27166 103.491 8.8466 102.422 8.8466C100.309 8.8466 98.6474 10.5082 98.6474 12.8009C98.6474 15.1066 100.309 16.7553 102.422 16.7553C103.491 16.7553 104.277 16.3302 104.805 15.6475V16.5621H106.442V12.8009ZM91.0852 12.8009C91.0852 15.0808 92.6827 16.7553 95.1046 16.7553C96.2383 16.7553 96.9984 16.4977 97.81 15.8536L97.0242 14.5269C96.4058 14.9649 95.7617 15.2096 95.0531 15.2096C93.7391 15.1967 92.7857 14.2436 92.7857 12.8009C92.7857 11.3583 93.7519 10.4052 95.0531 10.3923C95.7617 10.3923 96.4058 10.6241 97.0242 11.0749L97.81 9.74824C96.9855 9.10422 96.2383 8.8466 95.1046 8.8466C92.6827 8.8466 91.0852 10.5211 91.0852 12.8009ZM112.213 8.8466C111.273 8.8466 110.654 9.28454 110.229 9.95433V9.03981H108.606V16.5749H110.242V12.3501C110.242 11.1007 110.783 10.4052 111.852 10.4052C112.2 10.4052 112.548 10.4696 112.883 10.5984L113.385 9.05269C113.025 8.91101 112.548 8.8466 112.213 8.8466ZM68.2826 9.63232C67.4968 9.1171 66.4017 8.8466 65.2036 8.8466C63.297 8.8466 62.0602 9.76113 62.0602 11.2553C62.0602 12.4789 62.9749 13.2389 64.6626 13.4836L65.4355 13.5995C66.3373 13.7283 66.7625 13.9602 66.7625 14.3852C66.7625 14.9649 66.1698 15.2998 65.049 15.2998C63.9153 15.2998 63.0909 14.9391 62.5369 14.5141L61.7639 15.7892C62.6657 16.4461 63.7994 16.7682 65.0233 16.7682C67.2005 16.7682 68.463 15.7377 68.463 14.308C68.463 12.9813 67.471 12.2857 65.8349 12.0539L65.0619 11.9379C64.3534 11.8478 63.7865 11.7061 63.7865 11.2037C63.7865 10.6499 64.3276 10.315 65.2165 10.315C66.1827 10.315 67.1103 10.6756 67.5612 10.959L68.2826 9.63232ZM89.4362 8.8466C88.4958 8.8466 87.8774 9.28454 87.4522 9.95433V9.03981H85.829V16.5749H87.4651V12.3501C87.4651 11.1007 88.0062 10.4052 89.0755 10.4052C89.4233 10.4052 89.7711 10.4696 90.1061 10.5984L90.6085 9.05269C90.2349 8.91101 89.7583 8.8466 89.4362 8.8466ZM75.4455 9.03981H72.7658V6.75996H71.104V9.03981H69.5709V10.534H71.104V13.9731C71.104 15.7248 71.7868 16.7682 73.7192 16.7682C74.4277 16.7682 75.2522 16.5492 75.7675 16.1885L75.2909 14.7845C74.8013 15.0679 74.2603 15.2096 73.8351 15.2096C73.0106 15.2096 72.753 14.7073 72.753 13.9473V10.5468H75.4326L75.4455 9.03981ZM50.9424 16.5749V11.8478C50.9424 10.0703 49.8087 8.87237 47.9793 8.8466C47.0131 8.83372 46.0211 9.12998 45.3255 10.1862C44.8101 9.34895 43.9856 8.8466 42.8391 8.8466C42.0403 8.8466 41.2416 9.07846 40.6361 9.96721V9.03981H39V16.5749H40.649V12.4016C40.649 11.0878 41.3704 10.3923 42.4912 10.3923C43.5734 10.3923 44.1274 11.1007 44.1274 12.3759V16.5749H45.7892V12.4016C45.7892 11.0878 46.5493 10.3923 47.6315 10.3923C48.7523 10.3923 49.2805 11.1007 49.2805 12.3759V16.5749H50.9424Z" fill="white"/>
</svg>
