<svg width="178" height="168" fill="none" xmlns="http://www.w3.org/2000/svg">
  <g opacity=".3" clip-path="url(#a)" stroke="#161A28" stroke-miterlimit="10">
    <path d="m177.656-1.113-2.957 7.04 2.957 7.04-2.957 7.04 2.957 7.04-2.957 7.04 2.957 7.039-2.957 7.04 2.957 7.04-2.957 7.04 2.957 7.04-2.957 7.04 2.957 7.04-2.957 7.04M130.277-1.113l-2.956 7.04 2.956 7.04-2.956 7.04 2.956 7.04-2.956 7.04 2.956 7.039-2.956 7.04 2.956 7.04-2.956 7.04 2.956 7.04-2.956 7.04 2.956 7.04-2.956 7.04M82.898-1.113l-2.956 7.04 2.956 7.04-2.956 7.04 2.956 7.04-2.956 7.04 2.956 7.039-2.956 7.04 2.956 7.04-2.956 7.04 2.956 7.04-2.956 7.04 2.956 7.04-2.956 7.04M153.965-1.113l-2.957 7.04 2.957 7.04-2.957 7.04 2.957 7.04-2.957 7.04 2.957 7.039-2.957 7.04 2.957 7.04-2.957 7.04 2.957 7.04-2.957 7.04 2.957 7.04-2.957 7.04M106.586-1.113l-2.957 7.04 2.957 7.04-2.957 7.04 2.957 7.04-2.957 7.04 2.957 7.039-2.957 7.04 2.957 7.04-2.957 7.04 2.957 7.04-2.957 7.04 2.957 7.04-2.957 7.04M59.207-1.113l-2.957 7.04 2.957 7.04-2.957 7.04 2.957 7.04-2.957 7.04 2.957 7.039-2.957 7.04 2.957 7.04-2.957 7.04 2.957 7.04-2.957 7.04 2.957 7.04-2.957 7.04M23.676-1.113l-2.957 7.04 2.957 7.04-2.957 7.04 2.957 7.04-2.957 7.04 2.957 7.039-2.957 7.04 2.957 7.04-2.957 7.04 2.957 7.04-2.957 7.04 2.957 7.04-2.957 7.04M165.812-1.113l-2.956 7.04 2.956 7.04-2.956 7.04 2.956 7.04-2.956 7.04 2.956 7.039-2.956 7.04 2.956 7.04-2.956 7.04 2.956 7.04-2.956 7.04 2.956 7.04-2.956 7.04M118.434-1.113l-2.957 7.04 2.957 7.04-2.957 7.04 2.957 7.04-2.957 7.04 2.957 7.039-2.957 7.04 2.957 7.04-2.957 7.04 2.957 7.04-2.957 7.04 2.957 7.04-2.957 7.04M71.055-1.113l-2.957 7.04 2.957 7.04-2.957 7.04 2.957 7.04-2.957 7.04 2.957 7.039-2.957 7.04 2.957 7.04-2.957 7.04 2.957 7.04-2.957 7.04 2.957 7.04-2.957 7.04M35.52-1.113l-2.957 7.04 2.956 7.04-2.956 7.04 2.956 7.04-2.956 7.04 2.956 7.039-2.956 7.04 2.956 7.04-2.956 7.04 2.956 7.04-2.956 7.04 2.956 7.04-2.956 7.04M142.121-1.113l-2.957 7.04 2.957 7.04-2.957 7.04 2.957 7.04-2.957 7.04 2.957 7.039-2.957 7.04 2.957 7.04-2.957 7.04 2.957 7.04-2.957 7.04 2.957 7.04-2.957 7.04M94.742-1.113l-2.957 7.04 2.957 7.04-2.957 7.04 2.957 7.04-2.957 7.04 2.957 7.039-2.957 7.04 2.957 7.04-2.957 7.04 2.957 7.04-2.957 7.04 2.957 7.04-2.957 7.04M47.363-1.113l-2.956 7.04 2.956 7.04-2.956 7.04 2.956 7.04-2.956 7.04 2.956 7.039-2.956 7.04 2.956 7.04-2.956 7.04 2.956 7.04-2.956 7.04 2.956 7.04-2.956 7.04M11.828-1.113l-2.957 7.04 2.957 7.04-2.957 7.04 2.957 7.04-2.957 7.04 2.957 7.039-2.957 7.04 2.957 7.04-2.957 7.04 2.957 7.04-2.957 7.04 2.957 7.04-2.957 7.04M171.742-1.113l-2.957 7.04 2.957 7.04-2.957 7.04 2.957 7.04-2.957 7.04 2.957 7.039-2.957 7.04 2.957 7.04-2.957 7.04 2.957 7.04-2.957 7.04 2.957 7.04-2.957 7.04M124.363-1.113l-2.957 7.04 2.957 7.04-2.957 7.04 2.957 7.04-2.957 7.04 2.957 7.039-2.957 7.04 2.957 7.04-2.957 7.04 2.957 7.04-2.957 7.04 2.957 7.04-2.957 7.04M76.984-1.113l-2.956 7.04 2.956 7.04-2.956 7.04 2.956 7.04-2.956 7.04 2.956 7.039-2.956 7.04 2.956 7.04-2.956 7.04 2.956 7.04-2.956 7.04 2.956 7.04-2.956 7.04M148.055-1.113l-2.957 7.04 2.957 7.04-2.957 7.04 2.957 7.04-2.957 7.04 2.957 7.039-2.957 7.04 2.957 7.04-2.957 7.04 2.957 7.04-2.957 7.04 2.957 7.04-2.957 7.04M100.676-1.113l-2.957 7.04 2.957 7.04-2.957 7.04 2.957 7.04-2.957 7.04 2.957 7.039-2.957 7.04 2.957 7.04-2.957 7.04 2.957 7.04-2.957 7.04 2.957 7.04-2.957 7.04M53.293-1.113l-2.957 7.04 2.957 7.04-2.957 7.04 2.957 7.04-2.957 7.04 2.957 7.039-2.957 7.04 2.957 7.04-2.957 7.04 2.957 7.04-2.957 7.04 2.957 7.04-2.957 7.04M17.762-1.113l-2.957 7.04 2.957 7.04-2.957 7.04 2.957 7.04-2.957 7.04 2.957 7.039-2.957 7.04 2.957 7.04-2.957 7.04 2.957 7.04-2.957 7.04 2.957 7.04-2.957 7.04M159.898-1.113l-2.956 7.04 2.956 7.04-2.956 7.04 2.956 7.04-2.956 7.04 2.956 7.039-2.956 7.04 2.956 7.04-2.956 7.04 2.956 7.04-2.956 7.04 2.956 7.04-2.956 7.04M112.52-1.113l-2.957 7.04 2.957 7.04-2.957 7.04 2.957 7.04-2.957 7.04 2.957 7.039-2.957 7.04 2.957 7.04-2.957 7.04 2.957 7.04-2.957 7.04 2.957 7.04-2.957 7.04M65.14-1.113l-2.956 7.04 2.957 7.04-2.957 7.04 2.957 7.04-2.957 7.04 2.957 7.039-2.957 7.04 2.957 7.04-2.957 7.04 2.957 7.04-2.957 7.04 2.957 7.04-2.957 7.04M29.605-1.113l-2.956 7.04 2.956 7.04-2.956 7.04 2.956 7.04-2.956 7.04 2.956 7.039-2.956 7.04 2.956 7.04-2.956 7.04 2.956 7.04-2.956 7.04 2.956 7.04-2.956 7.04M136.207-1.113l-2.957 7.04 2.957 7.04-2.957 7.04 2.957 7.04-2.957 7.04 2.957 7.039-2.957 7.04 2.957 7.04-2.957 7.04 2.957 7.04-2.957 7.04 2.957 7.04-2.957 7.04M88.828-1.113l-2.957 7.04 2.957 7.04-2.957 7.04 2.957 7.04-2.957 7.04 2.957 7.039-2.957 7.04 2.957 7.04-2.957 7.04 2.957 7.04-2.957 7.04 2.957 7.04-2.957 7.04M41.45-1.113l-2.958 7.04 2.957 7.04-2.957 7.04 2.957 7.04-2.957 7.04 2.957 7.039-2.957 7.04 2.957 7.04-2.957 7.04 2.957 7.04-2.957 7.04 2.957 7.04-2.957 7.04M5.914-1.113l-2.957 7.04 2.957 7.04-2.957 7.04 2.957 7.04-2.957 7.04 2.957 7.039-2.957 7.04 2.957 7.04-2.957 7.04 2.957 7.04-2.957 7.04 2.957 7.04-2.957 7.04"/>
    <path d="m174.699 90.389 2.957 7.04-2.957 7.04 2.957 7.04-2.957 7.04 2.957 7.039-2.957 7.04 2.957 7.04-2.957 7.04 2.957 7.04-2.957 7.04 2.957 7.04-2.957 7.041M127.321 90.389l2.956 7.04-2.956 7.04 2.956 7.04-2.956 7.04 2.956 7.039-2.956 7.04 2.956 7.04-2.956 7.04 2.956 7.04-2.956 7.04 2.956 7.04-2.956 7.041M79.942 90.389l2.956 7.04-2.956 7.04 2.956 7.04-2.956 7.04 2.956 7.039-2.956 7.04 2.956 7.04-2.956 7.04 2.956 7.04-2.956 7.04 2.956 7.04-2.956 7.041M151.008 90.389l2.957 7.04-2.957 7.04 2.957 7.04-2.957 7.04 2.957 7.039-2.957 7.04 2.957 7.04-2.957 7.04 2.957 7.04-2.957 7.04 2.957 7.04-2.957 7.041M103.629 90.389l2.957 7.04-2.957 7.04 2.957 7.04-2.957 7.04 2.957 7.039-2.957 7.04 2.957 7.04-2.957 7.04 2.957 7.04-2.957 7.04 2.957 7.04-2.957 7.041M56.25 90.389l2.957 7.04-2.957 7.04 2.957 7.04-2.957 7.04 2.957 7.039-2.957 7.04 2.957 7.04-2.957 7.04 2.957 7.04-2.957 7.04 2.957 7.04-2.957 7.041M20.719 90.389l2.957 7.04-2.957 7.04 2.957 7.04-2.957 7.04 2.957 7.039-2.957 7.04 2.957 7.04-2.957 7.04 2.957 7.04-2.957 7.04 2.957 7.04-2.957 7.041M162.856 90.389l2.956 7.04-2.956 7.04 2.956 7.04-2.956 7.04 2.956 7.039-2.956 7.04 2.956 7.04-2.956 7.04 2.956 7.04-2.956 7.04 2.956 7.04-2.956 7.041M115.477 90.389l2.957 7.04-2.957 7.04 2.957 7.04-2.957 7.04 2.957 7.039-2.957 7.04 2.957 7.04-2.957 7.04 2.957 7.04-2.957 7.04 2.957 7.04-2.957 7.041M68.098 90.389l2.957 7.04-2.957 7.04 2.957 7.04-2.957 7.04 2.957 7.039-2.957 7.04 2.957 7.04-2.957 7.04 2.957 7.04-2.957 7.04 2.957 7.04-2.957 7.041M32.563 90.389l2.956 7.04-2.956 7.04 2.956 7.04-2.956 7.04 2.956 7.039-2.956 7.04 2.956 7.04-2.956 7.04 2.956 7.04-2.956 7.04 2.956 7.04-2.956 7.041M139.164 90.389l2.957 7.04-2.957 7.04 2.957 7.04-2.957 7.04 2.957 7.039-2.957 7.04 2.957 7.04-2.957 7.04 2.957 7.04-2.957 7.04 2.957 7.04-2.957 7.041M91.785 90.389l2.957 7.04-2.957 7.04 2.957 7.04-2.957 7.04 2.957 7.039-2.957 7.04 2.957 7.04-2.957 7.04 2.957 7.04-2.957 7.04 2.957 7.04-2.957 7.041M44.407 90.389l2.956 7.04-2.956 7.04 2.956 7.04-2.956 7.04 2.956 7.039-2.956 7.04 2.956 7.04-2.956 7.04 2.956 7.04-2.956 7.04 2.956 7.04-2.956 7.041M8.871 90.389l2.957 7.04-2.957 7.04 2.957 7.04-2.957 7.04 2.957 7.039-2.957 7.04 2.957 7.04-2.957 7.04 2.957 7.04-2.957 7.04 2.957 7.04-2.957 7.041M168.785 90.406l2.957 7.04-2.957 7.04 2.957 7.04-2.957 7.04 2.957 7.04-2.957 7.04 2.957 7.04-2.957 7.04 2.957 7.04-2.957 7.04 2.957 7.04-2.957 7.04M121.406 90.406l2.957 7.04-2.957 7.04 2.957 7.04-2.957 7.04 2.957 7.04-2.957 7.04 2.957 7.04-2.957 7.04 2.957 7.04-2.957 7.04 2.957 7.04-2.957 7.04M74.028 90.406l2.956 7.04-2.956 7.04 2.956 7.04-2.956 7.04 2.956 7.04-2.956 7.04 2.956 7.04-2.956 7.04 2.956 7.04-2.956 7.04 2.956 7.04-2.956 7.04M145.098 90.406l2.957 7.04-2.957 7.04 2.957 7.04-2.957 7.04 2.957 7.04-2.957 7.04 2.957 7.04-2.957 7.04 2.957 7.04-2.957 7.04 2.957 7.04-2.957 7.04M97.719 90.406l2.957 7.04-2.957 7.04 2.957 7.04-2.957 7.04 2.957 7.04-2.957 7.04 2.957 7.04-2.957 7.04 2.957 7.04-2.957 7.04 2.957 7.04-2.957 7.04M50.336 90.406l2.957 7.04-2.957 7.04 2.957 7.04-2.957 7.04 2.957 7.04-2.957 7.04 2.957 7.04-2.957 7.04 2.957 7.04-2.957 7.04 2.957 7.04-2.957 7.04M14.805 90.406l2.957 7.04-2.957 7.04 2.957 7.04-2.957 7.04 2.957 7.04-2.957 7.04 2.957 7.04-2.957 7.04 2.957 7.04-2.957 7.04 2.957 7.04-2.957 7.04M156.942 90.406l2.956 7.04-2.956 7.04 2.956 7.04-2.956 7.04 2.956 7.04-2.956 7.04 2.956 7.04-2.956 7.04 2.956 7.04-2.956 7.04 2.956 7.04-2.956 7.04M109.563 90.406l2.957 7.04-2.957 7.04 2.957 7.04-2.957 7.04 2.957 7.04-2.957 7.04 2.957 7.04-2.957 7.04 2.957 7.04-2.957 7.04 2.957 7.04-2.957 7.04M62.184 90.406l2.957 7.04-2.957 7.04 2.957 7.04-2.957 7.04 2.957 7.04-2.957 7.04 2.957 7.04-2.957 7.04 2.957 7.04-2.957 7.04 2.957 7.04-2.957 7.04M26.649 90.406l2.956 7.04-2.956 7.04 2.956 7.04-2.956 7.04 2.956 7.04-2.956 7.04 2.956 7.04-2.956 7.04 2.956 7.04-2.956 7.04 2.956 7.04-2.956 7.04M133.25 90.406l2.957 7.04-2.957 7.04 2.957 7.04-2.957 7.04 2.957 7.04-2.957 7.04 2.957 7.04-2.957 7.04 2.957 7.04-2.957 7.04 2.957 7.04-2.957 7.04M85.871 90.406l2.957 7.04-2.957 7.04 2.957 7.04-2.957 7.04 2.957 7.04-2.957 7.04 2.957 7.04-2.957 7.04 2.957 7.04-2.957 7.04 2.957 7.04-2.957 7.04M38.492 90.406l2.957 7.04-2.957 7.04 2.957 7.04-2.957 7.04 2.957 7.04-2.957 7.04 2.957 7.04-2.957 7.04 2.957 7.04-2.957 7.04 2.957 7.04-2.957 7.04M2.957 90.406l2.957 7.04-2.957 7.04 2.957 7.04-2.957 7.04 2.957 7.04-2.957 7.04 2.957 7.04-2.957 7.04 2.957 7.04-2.957 7.04 2.957 7.04-2.957 7.04M171.742-1.113l2.957 7.04-2.957 7.04 2.957 7.04-2.957 7.04 2.957 7.04-2.957 7.039 2.957 7.04-2.957 7.04 2.957 7.04-2.957 7.04 2.957 7.04-2.957 7.04 2.957 7.04M124.363-1.113l2.957 7.04-2.957 7.04 2.957 7.04-2.957 7.04 2.957 7.04-2.957 7.039 2.957 7.04-2.957 7.04 2.957 7.04-2.957 7.04 2.957 7.04-2.957 7.04 2.957 7.04M76.984-1.113l2.957 7.04-2.957 7.04 2.957 7.04-2.957 7.04 2.957 7.04-2.957 7.039 2.957 7.04-2.957 7.04 2.957 7.04-2.957 7.04 2.957 7.04-2.957 7.04 2.957 7.04"/>
    <path d="m148.055-1.113 2.956 7.04-2.956 7.04 2.956 7.04-2.956 7.04 2.956 7.04-2.956 7.039 2.956 7.04-2.956 7.04 2.956 7.04-2.956 7.04 2.956 7.04-2.956 7.04 2.956 7.04M100.676-1.113l2.957 7.04-2.957 7.04 2.957 7.04-2.957 7.04 2.957 7.04-2.957 7.039 2.957 7.04-2.957 7.04 2.957 7.04-2.957 7.04 2.957 7.04-2.957 7.04 2.957 7.04M53.293-1.113l2.957 7.04-2.957 7.04 2.957 7.04-2.957 7.04 2.957 7.04-2.957 7.039 2.957 7.04-2.957 7.04 2.957 7.04-2.957 7.04 2.957 7.04-2.957 7.04 2.957 7.04M17.762-1.113l2.956 7.04-2.956 7.04 2.956 7.04-2.956 7.04 2.956 7.04-2.956 7.039 2.956 7.04-2.956 7.04 2.956 7.04-2.956 7.04 2.956 7.04-2.956 7.04 2.956 7.04M159.898-1.113l2.957 7.04-2.957 7.04 2.957 7.04-2.957 7.04 2.957 7.04-2.957 7.039 2.957 7.04-2.957 7.04 2.957 7.04-2.957 7.04 2.957 7.04-2.957 7.04 2.957 7.04M112.52-1.113l2.956 7.04-2.956 7.04 2.956 7.04-2.956 7.04 2.956 7.04-2.956 7.039 2.956 7.04-2.956 7.04 2.956 7.04-2.956 7.04 2.956 7.04-2.956 7.04 2.956 7.04M65.14-1.113l2.957 7.04-2.956 7.04 2.956 7.04-2.956 7.04 2.956 7.04-2.956 7.039 2.956 7.04-2.956 7.04 2.956 7.04-2.956 7.04 2.956 7.04-2.956 7.04 2.956 7.04M29.605-1.113l2.957 7.04-2.956 7.04 2.956 7.04-2.956 7.04 2.956 7.04-2.956 7.039 2.956 7.04-2.956 7.04 2.956 7.04-2.956 7.04 2.956 7.04-2.956 7.04 2.956 7.04M136.207-1.113l2.957 7.04-2.957 7.04 2.957 7.04-2.957 7.04 2.957 7.04-2.957 7.039 2.957 7.04-2.957 7.04 2.957 7.04-2.957 7.04 2.957 7.04-2.957 7.04 2.957 7.04M88.828-1.113l2.957 7.04-2.957 7.04 2.957 7.04-2.957 7.04 2.957 7.04-2.957 7.039 2.957 7.04-2.957 7.04 2.957 7.04-2.957 7.04 2.957 7.04-2.957 7.04 2.957 7.04M41.45-1.113l2.956 7.04-2.957 7.04 2.957 7.04-2.957 7.04 2.957 7.04-2.957 7.039 2.957 7.04-2.957 7.04 2.957 7.04-2.957 7.04 2.957 7.04-2.957 7.04 2.957 7.04M5.914-1.113l2.957 7.04-2.957 7.04 2.957 7.04-2.957 7.04 2.957 7.04-2.957 7.039 2.957 7.04-2.957 7.04 2.957 7.04-2.957 7.04 2.957 7.04-2.957 7.04 2.957 7.04M165.828-1.113l2.957 7.04-2.957 7.04 2.957 7.04-2.957 7.04 2.957 7.04-2.957 7.039 2.957 7.04-2.957 7.04 2.957 7.04-2.957 7.04 2.957 7.04-2.957 7.04 2.957 7.04M118.449-1.113l2.957 7.04-2.957 7.04 2.957 7.04-2.957 7.04 2.957 7.04-2.957 7.039 2.957 7.04-2.957 7.04 2.957 7.04-2.957 7.04 2.957 7.04-2.957 7.04 2.957 7.04M71.07-1.113l2.957 7.04-2.957 7.04 2.957 7.04-2.957 7.04 2.957 7.04-2.957 7.039 2.957 7.04-2.957 7.04 2.957 7.04-2.957 7.04 2.957 7.04-2.957 7.04 2.957 7.04M142.141-1.113l2.956 7.04-2.956 7.04 2.956 7.04-2.956 7.04 2.956 7.04-2.956 7.039 2.956 7.04-2.956 7.04 2.956 7.04-2.956 7.04 2.956 7.04-2.956 7.04 2.956 7.04M94.762-1.113l2.957 7.04-2.957 7.04 2.957 7.04-2.957 7.04 2.957 7.04-2.957 7.039 2.957 7.04-2.957 7.04 2.957 7.04-2.957 7.04 2.957 7.04-2.957 7.04 2.957 7.04M47.383-1.113l2.957 7.04-2.957 7.04 2.957 7.04-2.957 7.04 2.957 7.04-2.957 7.039 2.957 7.04-2.957 7.04 2.957 7.04-2.957 7.04 2.957 7.04-2.957 7.04 2.957 7.04M11.848-1.113l2.957 7.04-2.957 7.04 2.957 7.04-2.957 7.04 2.957 7.04-2.957 7.039 2.957 7.04-2.957 7.04 2.957 7.04-2.957 7.04 2.957 7.04-2.957 7.04 2.957 7.04M153.984-1.113l2.957 7.04-2.957 7.04 2.957 7.04-2.957 7.04 2.957 7.04-2.957 7.039 2.957 7.04-2.957 7.04 2.957 7.04-2.957 7.04 2.957 7.04-2.957 7.04 2.957 7.04M106.605-1.113l2.957 7.04-2.957 7.04 2.957 7.04-2.957 7.04 2.957 7.04-2.957 7.039 2.957 7.04-2.957 7.04 2.957 7.04-2.957 7.04 2.957 7.04-2.957 7.04 2.957 7.04M59.227-1.113l2.956 7.04-2.956 7.04 2.956 7.04-2.956 7.04 2.956 7.04-2.956 7.039 2.956 7.04-2.956 7.04 2.956 7.04-2.956 7.04 2.956 7.04-2.956 7.04 2.956 7.04M23.691-1.113l2.957 7.04-2.957 7.04 2.957 7.04-2.957 7.04 2.957 7.04-2.957 7.039 2.957 7.04-2.957 7.04 2.957 7.04-2.957 7.04 2.957 7.04-2.957 7.04 2.957 7.04M130.293-1.113l2.957 7.04-2.957 7.04 2.957 7.04-2.957 7.04 2.957 7.04-2.957 7.039 2.957 7.04-2.957 7.04 2.957 7.04-2.957 7.04 2.957 7.04-2.957 7.04 2.957 7.04M82.914-1.113l2.957 7.04-2.957 7.04 2.957 7.04-2.957 7.04 2.957 7.04-2.957 7.039 2.957 7.04-2.957 7.04 2.957 7.04-2.957 7.04 2.957 7.04-2.957 7.04 2.957 7.04M35.535-1.113l2.957 7.04-2.957 7.04 2.957 7.04-2.957 7.04 2.957 7.04-2.957 7.039 2.957 7.04-2.957 7.04 2.957 7.04-2.957 7.04 2.957 7.04-2.957 7.04 2.957 7.04M0-1.113l2.957 7.04L0 12.967l2.957 7.04L0 27.047l2.957 7.04L0 41.126l2.957 7.04L0 55.206l2.957 7.04L0 69.286l2.957 7.04L0 83.366l2.957 7.04M174.699 90.389l-2.957 7.04 2.957 7.04-2.957 7.04 2.957 7.04-2.957 7.039 2.957 7.04-2.957 7.04 2.957 7.04-2.957 7.04 2.957 7.04-2.957 7.04 2.957 7.041M127.32 90.389l-2.957 7.04 2.957 7.04-2.957 7.04 2.957 7.04-2.957 7.039 2.957 7.04-2.957 7.04 2.957 7.04-2.957 7.04 2.957 7.04-2.957 7.04 2.957 7.041M79.941 90.389l-2.957 7.04 2.957 7.04-2.957 7.04 2.957 7.04-2.957 7.039 2.957 7.04-2.957 7.04 2.957 7.04-2.957 7.04 2.957 7.04-2.957 7.04 2.957 7.041"/>
    <path d="m151.011 90.389-2.956 7.04 2.956 7.04-2.956 7.04 2.956 7.04-2.956 7.039 2.956 7.04-2.956 7.04 2.956 7.04-2.956 7.04 2.956 7.04-2.956 7.04 2.956 7.041M103.633 90.389l-2.957 7.04 2.957 7.04-2.957 7.04 2.957 7.04-2.957 7.039 2.957 7.04-2.957 7.04 2.957 7.04-2.957 7.04 2.957 7.04-2.957 7.04 2.957 7.041M56.25 90.389l-2.957 7.04 2.957 7.04-2.957 7.04 2.957 7.04-2.957 7.039 2.957 7.04-2.957 7.04 2.957 7.04-2.957 7.04 2.957 7.04-2.957 7.04 2.957 7.041M20.718 90.389l-2.956 7.04 2.956 7.04-2.956 7.04 2.956 7.04-2.956 7.039 2.956 7.04-2.956 7.04 2.956 7.04-2.956 7.04 2.956 7.04-2.956 7.04 2.956 7.041M162.855 90.389l-2.957 7.04 2.957 7.04-2.957 7.04 2.957 7.04-2.957 7.039 2.957 7.04-2.957 7.04 2.957 7.04-2.957 7.04 2.957 7.04-2.957 7.04 2.957 7.041M115.476 90.389l-2.956 7.04 2.956 7.04-2.956 7.04 2.956 7.04-2.956 7.039 2.956 7.04-2.956 7.04 2.956 7.04-2.956 7.04 2.956 7.04-2.956 7.04 2.956 7.041M68.097 90.389l-2.956 7.04 2.956 7.04-2.956 7.04 2.956 7.04-2.956 7.039 2.956 7.04-2.956 7.04 2.956 7.04-2.956 7.04 2.956 7.04-2.956 7.04 2.956 7.041M32.562 90.389l-2.956 7.04 2.956 7.04-2.956 7.04 2.956 7.04-2.956 7.039 2.956 7.04-2.956 7.04 2.956 7.04-2.956 7.04 2.956 7.04-2.956 7.04 2.956 7.041M139.164 90.389l-2.957 7.04 2.957 7.04-2.957 7.04 2.957 7.04-2.957 7.039 2.957 7.04-2.957 7.04 2.957 7.04-2.957 7.04 2.957 7.04-2.957 7.04 2.957 7.041M91.785 90.389l-2.957 7.04 2.957 7.04-2.957 7.04 2.957 7.04-2.957 7.039 2.957 7.04-2.957 7.04 2.957 7.04-2.957 7.04 2.957 7.04-2.957 7.04 2.957 7.041M44.406 90.389l-2.957 7.04 2.957 7.04-2.957 7.04 2.957 7.04-2.957 7.039 2.957 7.04-2.957 7.04 2.957 7.04-2.957 7.04 2.957 7.04-2.957 7.04 2.957 7.041M8.87 90.389l-2.956 7.04 2.957 7.04-2.957 7.04 2.957 7.04-2.957 7.039 2.957 7.04-2.957 7.04 2.957 7.04-2.957 7.04 2.957 7.04-2.957 7.04 2.957 7.041M168.785 90.406l-2.957 7.04 2.957 7.04-2.957 7.04 2.957 7.04-2.957 7.04 2.957 7.04-2.957 7.04 2.957 7.04-2.957 7.04 2.957 7.04-2.957 7.04 2.957 7.04M121.406 90.406l-2.957 7.04 2.957 7.04-2.957 7.04 2.957 7.04-2.957 7.04 2.957 7.04-2.957 7.04 2.957 7.04-2.957 7.04 2.957 7.04-2.957 7.04 2.957 7.04M74.027 90.406l-2.957 7.04 2.957 7.04-2.957 7.04 2.957 7.04-2.957 7.04 2.957 7.04-2.957 7.04 2.957 7.04-2.957 7.04 2.957 7.04-2.957 7.04 2.957 7.04M145.097 90.406l-2.956 7.04 2.956 7.04-2.956 7.04 2.956 7.04-2.956 7.04 2.956 7.04-2.956 7.04 2.956 7.04-2.956 7.04 2.956 7.04-2.956 7.04 2.956 7.04M97.719 90.406l-2.957 7.04 2.957 7.04-2.957 7.04 2.957 7.04-2.957 7.04 2.957 7.04-2.957 7.04 2.957 7.04-2.957 7.04 2.957 7.04-2.957 7.04 2.957 7.04M50.34 90.406l-2.957 7.04 2.957 7.04-2.957 7.04 2.957 7.04-2.957 7.04 2.957 7.04-2.957 7.04 2.957 7.04-2.957 7.04 2.957 7.04-2.957 7.04 2.957 7.04M14.805 90.406l-2.957 7.04 2.957 7.04-2.957 7.04 2.957 7.04-2.957 7.04 2.957 7.04-2.957 7.04 2.957 7.04-2.957 7.04 2.957 7.04-2.957 7.04 2.957 7.04M156.941 90.406l-2.957 7.04 2.957 7.04-2.957 7.04 2.957 7.04-2.957 7.04 2.957 7.04-2.957 7.04 2.957 7.04-2.957 7.04 2.957 7.04-2.957 7.04 2.957 7.04M109.562 90.406l-2.957 7.04 2.957 7.04-2.957 7.04 2.957 7.04-2.957 7.04 2.957 7.04-2.957 7.04 2.957 7.04-2.957 7.04 2.957 7.04-2.957 7.04 2.957 7.04M62.183 90.406l-2.956 7.04 2.956 7.04-2.956 7.04 2.956 7.04-2.956 7.04 2.956 7.04-2.956 7.04 2.956 7.04-2.956 7.04 2.956 7.04-2.956 7.04 2.956 7.04M26.648 90.406l-2.957 7.04 2.957 7.04-2.957 7.04 2.957 7.04-2.957 7.04 2.957 7.04-2.957 7.04 2.957 7.04-2.957 7.04 2.957 7.04-2.957 7.04 2.957 7.04M133.25 90.406l-2.957 7.04 2.957 7.04-2.957 7.04 2.957 7.04-2.957 7.04 2.957 7.04-2.957 7.04 2.957 7.04-2.957 7.04 2.957 7.04-2.957 7.04 2.957 7.04M85.87 90.406l-2.956 7.04 2.957 7.04-2.957 7.04 2.957 7.04-2.957 7.04 2.957 7.04-2.957 7.04 2.957 7.04-2.957 7.04 2.957 7.04-2.957 7.04 2.957 7.04M38.492 90.406l-2.957 7.04 2.957 7.04-2.957 7.04 2.957 7.04-2.957 7.04 2.957 7.04-2.957 7.04 2.957 7.04-2.957 7.04 2.957 7.04-2.957 7.04 2.957 7.04M2.957 90.406 0 97.446l2.957 7.04L0 111.526l2.957 7.04L0 125.606l2.957 7.04L0 139.686l2.957 7.04L0 153.766l2.957 7.04L0 167.846l2.957 7.04"/>
  </g>
  <defs>
    <clipPath id="a">
      <path fill="#fff" transform="translate(0 -1.113)" d="M0 0h178v169H0z"/>
    </clipPath>
  </defs>
</svg>
