<svg width="40" height="40" viewBox="0 0 40 40" fill="none" xmlns="http://www.w3.org/2000/svg">
<g clip-path="url(#clip0_5555_370)">
<circle cx="20" cy="20" r="19.5" stroke="#E8F5FF"/>
<path d="M11 31.6836L6.20588 33.8599L4.5 36.9896L10.5 42.4991L28.5 43L33.5 34.9862L31.5 33.4836L25.5 30.9799L24 29.4773L25.5 26.973C25.5 26.973 27.8493 27.2271 28.5 26.4721L30.9412 24.9696L29.5 21.4635V16.9551L29 12.4487L26.6765 9.48546L24.5441 6.87392L19.8529 6.00309C19.8529 6.00309 18.0833 5.87224 15.5 7.30917C13.2033 8.58666 11.901 10.9771 11 13.449C10.4601 14.9303 10.5 17.4559 10.5 17.4559V21.4635L9 24.9696L11 26.4721L14.5 27.4739L15.5 28.9765L14.5 30.9792L11 31.6836Z" fill="#E8F5FF" fill-opacity="0.2"/>
<path d="M19.2498 6.05347C19.2657 6.05159 19.2817 6.04955 19.2968 6.04782C21.5976 5.79507 24.1965 6.55936 26.0059 7.98194C28.7132 10.1113 29.7878 13.3712 30.0107 16.6869C30.1139 18.2292 30.0744 19.8122 30.3679 21.3347C30.4764 21.9016 30.6606 22.4819 30.9048 23.0051C31.1687 23.5686 31.6457 24.1483 31.7102 24.7791C31.7451 25.1181 31.6336 25.3083 31.4235 25.5605C30.2822 26.9301 27.5006 27.5992 25.7807 27.7457C25.6093 28.2955 24.8001 28.5856 24.8199 29.3026C24.8388 29.99 25.5964 30.6794 26.1568 30.9892C27.2079 31.5708 29.2797 32.0248 30.5257 32.505C31.5274 32.8912 32.5004 33.3715 33.3042 34.0909C34.6784 35.3204 35.4231 37.2026 35.4959 39.0236C35.5277 39.8197 35.3829 40.5246 34.8186 41.1131C32.6627 43.3595 24.2655 43.8878 21.2018 43.9844C17.9462 44.1244 8.64154 43.3153 5.96883 41.7332C5.29087 41.3319 4.79157 40.7361 4.59774 39.9691C4.37584 39.0909 4.5677 38.0867 4.81546 37.228C6.44726 31.5717 13.2634 32.1129 14.6095 29.8568C14.8233 29.4982 14.8499 29.0931 14.743 28.6957C14.6376 28.3027 14.4631 27.9523 14.0961 27.744C13.701 27.6659 13.2922 27.6423 12.8941 27.5641C11.6982 27.3296 10.3249 26.8338 9.33633 26.1162C9.05711 25.9135 8.51057 25.4448 8.47774 25.0772C8.41313 24.3525 9.01927 23.5084 9.28674 22.8607C9.48239 22.3869 9.64832 21.8787 9.75722 21.3779C10.0159 20.1879 10.0233 18.9078 10.0667 17.6938C10.1739 14.6957 10.5941 11.7939 12.6234 9.43734C14.2925 7.48049 16.6767 6.26309 19.2498 6.05347ZM26.9493 32.3586C26.9986 32.9729 26.4094 33.7708 26.0317 34.2106C24.7364 35.7186 22.6844 36.5502 20.7195 36.6894C18.4528 36.8499 16.0526 36.2211 14.3274 34.7129C13.8989 34.3386 13.4955 33.9079 13.1755 33.4388C13.0822 33.3014 12.5976 32.4004 12.5339 32.368C12.5021 32.352 12.3542 32.359 12.3117 32.3597C10.2473 32.8544 7.54148 34.1165 6.40905 35.9736C5.81746 36.9439 5.21859 38.5767 5.50654 39.7013C5.65055 40.2636 6.03139 40.6576 6.53076 40.9388C7.62915 41.5574 9.21644 41.7308 10.4544 41.9593C15.8456 42.9542 20.7839 43.2346 26.2395 42.6016C27.7069 42.4315 29.2638 42.2313 30.6872 41.8376C30.7213 41.8281 30.7554 41.8169 30.7888 41.8052C31.8672 41.5836 33.5734 41.1817 34.2211 40.2271C34.6465 39.5998 34.5449 38.7288 34.3955 38.0308C34.0656 36.4841 33.3035 35.1119 31.9407 34.2405C30.6379 33.4078 28.4607 32.5952 26.9493 32.3586ZM15.7114 29.3778C15.7334 29.9847 15.5142 30.5759 15.1009 31.0236C14.6975 31.4562 13.9247 31.9262 13.3453 32.078C13.3552 32.087 13.3643 32.0958 13.3741 32.1049C13.792 32.515 14.0733 33.0994 14.4866 33.5378C15.9108 35.0479 17.8939 35.671 19.93 35.6896C21.1616 35.7007 22.2764 35.4773 23.3881 34.9435C23.564 34.8591 23.8279 34.7569 23.9622 34.6194C23.9811 34.5996 24.0016 34.5653 24.016 34.5439C24.7357 34.2984 25.5744 33.3324 25.9005 32.6692C25.9741 32.5197 26.0855 32.3023 26.0529 32.1348C26.0454 32.1272 26.0378 32.1195 26.0294 32.112C25.7519 31.8493 25.359 31.7158 25.0603 31.4724C24.4232 30.9536 24.2974 30.2852 23.8643 29.6558C23.0021 30.5189 21.2776 31.0527 20.0893 31.0579C18.9753 31.0629 17.7612 30.6511 16.8193 30.0584C16.5122 29.8651 16.067 29.4212 15.7114 29.3778ZM26.3919 26.6605C27.4961 26.6002 29.8575 25.8742 30.5772 25.0359C30.6242 24.9812 30.6568 24.9337 30.6743 24.8631C30.694 24.5666 30.3573 24.1564 30.2117 23.8912C29.8128 23.1651 29.5451 22.3563 29.357 21.5526C29.1728 20.7639 29.1523 19.8734 29.0939 19.0648C28.855 15.734 28.8103 12.4587 26.4609 9.80936C24.9609 8.11882 22.8808 7.18338 20.6254 7.052C20.1242 7.02286 19.6184 7.03762 19.1171 7.06819C16.7571 7.41513 14.5481 8.55423 13.1087 10.4847C11.2735 12.946 11.1985 15.9451 11.0268 18.8771C10.9775 19.7204 10.9436 20.593 10.7877 21.4245C10.651 22.1533 10.3702 22.9146 10.0525 23.5849C9.85914 23.993 9.62777 24.3915 9.49528 24.8243C9.98692 25.7082 11.4586 26.1461 12.3875 26.4128C12.681 26.497 12.9768 26.5719 13.2703 26.656C13.2718 26.6452 13.274 26.6346 13.2756 26.6238C13.3241 26.2562 12.7212 25.2699 12.5771 24.8392C12.0774 23.3425 11.6959 20.7124 12.2199 19.1975C12.3807 18.7344 12.6674 18.3245 13.0488 18.0131C14.153 17.1024 15.8501 16.9398 17.2061 16.6287C18.7956 16.2643 20.4336 15.7838 21.7501 14.7939C21.9518 14.642 22.3499 14.3967 22.4265 14.1595C22.4387 14.1528 22.4508 14.1465 22.4622 14.1396C22.9612 13.8417 23.1614 13.0341 23.7165 12.8622C23.8947 12.9079 23.9842 12.9541 24.0896 13.1188C24.5059 13.7682 24.4672 14.7109 24.973 15.4322C25.56 16.268 26.4458 16.7252 27.1472 17.4342C27.4392 17.7291 27.6758 18.0656 27.8085 18.4601C28.2794 19.8574 28.0026 22.5988 27.625 24.016C27.4559 24.6523 26.9038 26.2864 26.3919 26.6605ZM17.3494 29.2637C18.81 29.9224 20.1098 30.3797 21.7068 29.7737C23.6164 29.0495 25.2711 27.2061 26.0757 25.3735C26.762 23.8095 26.9288 22.1674 26.947 20.4794C26.9538 19.9054 26.9796 19.2805 26.7643 18.7367C26.379 17.7639 25.0921 17.178 24.4119 16.3778C24.0304 15.9288 23.762 15.3062 23.5239 14.7718C23.4928 14.7018 23.4776 14.6778 23.4139 14.6369C22.9574 15.1408 22.5031 15.5775 21.9222 15.9437C21.0084 16.5199 19.9945 16.8985 18.9632 17.209C17.7483 17.5749 14.1954 18.1275 13.497 19.0249C12.9699 19.7026 13.0064 20.8287 13.0496 21.6471C13.1808 24.1175 13.9186 26.3777 15.8198 28.0682C16.1899 28.3969 17.109 28.9628 17.3494 29.2637Z" fill="#E8F5FF"/>
</g>
<defs>
<clipPath id="clip0_5555_370">
<rect width="40" height="40" rx="20" fill="white"/>
</clipPath>
</defs>
</svg>
