<svg width="27" height="24" viewBox="0 0 27 24" fill="none" xmlns="http://www.w3.org/2000/svg">
<g clip-path="url(#clip0_531_7497)">
<path d="M17.6663 21.376H0.883105C0.631063 21.376 0.423828 21.1715 0.423828 20.9195V19.1272C0.423828 18.8751 0.631063 18.6679 0.883105 18.6679H1.75685V17.0716C1.75685 16.8196 1.96689 16.6124 2.21613 16.6124H3.14588V6.87795H1.19956C1.07572 6.87577 0.957603 6.82542 0.870284 6.73757C0.782965 6.64973 0.733317 6.53132 0.731879 6.40747V5.04084C0.731879 4.85601 0.843898 4.69078 1.01753 4.61517L11.7741 0L22.5195 4.61517C22.6018 4.65244 22.672 4.71213 22.722 4.7874C22.7721 4.86267 22.7999 4.9505 22.8024 5.04084V6.41867C22.8024 6.67071 22.5951 6.87795 22.3347 6.87795H20.4416V12.9466C20.2567 13.067 20.0495 13.2098 19.8283 13.3498V6.87795H18.4952V14.148C18.2992 14.26 18.092 14.3664 17.8819 14.4784V6.87795H15.5211V16.6068H16.4425V17.2229H2.37015V18.6511H16.4649C16.4873 18.8051 16.5209 19.0236 16.5853 19.2644H1.03713V20.7487H17.2182C17.3498 20.9587 17.5039 21.1687 17.6663 21.3732V21.376ZM14.9022 16.6096V6.87795H13.5664V16.6068H14.9022V16.6096ZM12.9559 16.6096V6.87795H10.6455V16.6068H12.9531L12.9559 16.6096ZM10.0238 16.6096V6.87795H8.69081V16.6068H10.0238V16.6096ZM8.0775 16.6096V6.87795H5.71671V16.6068H8.0775V16.6096ZM5.09221 16.6096V6.87795H3.75918V16.6068H5.09221V16.6096ZM1.35358 6.26464H22.1947V5.13886L11.7741 0.666511L1.35358 5.13886V6.26464ZM11.7713 5.23687C10.8752 5.23687 10.1554 4.51715 10.1554 3.6182C10.1554 2.72205 10.878 2.00233 11.7741 2.00233C12.6703 2.00233 13.3928 2.72205 13.3928 3.6182C13.3913 4.04705 13.2203 4.4579 12.9171 4.76114C12.6138 5.06438 12.203 5.2354 11.7741 5.23687H11.7713ZM11.7713 2.63524C11.2168 2.63524 10.7688 3.08331 10.7688 3.62941C10.7688 4.1783 11.2168 4.62637 11.7741 4.62637C12.3314 4.62637 12.7823 4.1783 12.7823 3.62941C12.7786 3.36446 12.6708 3.11161 12.4821 2.92556C12.2934 2.73951 12.0391 2.63521 11.7741 2.63524H11.7713Z" fill="white" fill-opacity="0.8"/>
<path d="M21.4276 24.0002L21.3408 23.9778C18.6608 23.2132 17.3922 21.7262 16.7929 20.6312C16.1348 19.427 16.1348 18.402 16.1348 18.3684V15.2515C16.1348 15.0555 16.2552 14.8706 16.4428 14.7922C18.5964 13.9409 20.7275 12.3866 21.1196 12.0926C21.2051 12.0281 21.3093 11.9932 21.4164 11.9932C21.5236 11.9932 21.6278 12.0281 21.7133 12.0926C22.1166 12.4006 24.2365 13.9409 26.3901 14.7922C26.5777 14.8706 26.6981 15.0443 26.6981 15.2515V18.346C26.6981 18.3908 26.6981 19.4102 26.0428 20.6116C25.4519 21.715 24.1721 23.1908 21.4921 23.9554L21.4276 24.0002ZM16.7481 15.3411V18.3432C16.7481 18.3544 16.7593 19.273 17.3502 20.3568C18.1259 21.7766 19.4925 22.7848 21.4164 23.3533C23.3404 22.7848 24.707 21.7654 25.4855 20.3568C25.8354 19.7397 26.0403 19.0512 26.0848 18.3432V15.3411C24.0293 14.5094 22.0718 13.1288 21.4164 12.6527C20.7611 13.1288 18.8036 14.4982 16.7481 15.3411V15.3411Z" fill="white"/>
<path d="M20.9575 19.3792C20.8791 19.3792 20.7923 19.3484 20.7391 19.2952L19.6133 18.1666C19.5845 18.1379 19.5617 18.1039 19.5461 18.0664C19.5305 18.0289 19.5225 17.9887 19.5225 17.9481C19.5225 17.9075 19.5305 17.8673 19.5461 17.8298C19.5617 17.7924 19.5845 17.7583 19.6133 17.7297C19.6419 17.7009 19.676 17.6781 19.7134 17.6625C19.7509 17.6469 19.7911 17.6389 19.8317 17.6389C19.8723 17.6389 19.9125 17.6469 19.95 17.6625C19.9875 17.6781 20.0215 17.7009 20.0502 17.7297L20.9687 18.637L22.8058 16.8447C22.8345 16.816 22.8685 16.7931 22.906 16.7775C22.9435 16.7619 22.9837 16.7539 23.0243 16.7539C23.0649 16.7539 23.1051 16.7619 23.1426 16.7775C23.18 16.7931 23.2141 16.816 23.2427 16.8447C23.2715 16.8734 23.2943 16.9074 23.3099 16.9449C23.3255 16.9824 23.3335 17.0226 23.3335 17.0632C23.3335 17.1038 23.3255 17.144 23.3099 17.1815C23.2943 17.219 23.2715 17.253 23.2427 17.2816L21.1872 19.2812C21.12 19.3484 21.0443 19.382 20.9575 19.382V19.3792Z" fill="white"/>
</g>
<defs>
<clipPath id="clip0_531_7497">
<rect width="26.2964" height="24" fill="white" transform="translate(0.423828)"/>
</clipPath>
</defs>
</svg>
