<svg width="96" height="96" viewBox="0 0 96 96" fill="none" xmlns="http://www.w3.org/2000/svg">
<g filter="url(#filter0_f_2081_16908)">
<circle cx="48" cy="48" r="24" fill="url(#paint0_linear_2081_16908)" fill-opacity="0.5"/>
</g>
<path d="M52.6332 38.0675C54.041 37.761 55.5688 37.9952 56.7757 38.7936C57.9029 39.5409 58.6854 40.707 58.9496 42.0329C59.2219 43.3876 58.944 44.7949 58.177 45.9445C57.3275 47.1931 56.0794 47.827 54.6256 48.0988C54.282 48.1257 53.9403 48.1487 53.5954 48.1352C50.9669 48.033 49.5692 46.0849 47.9234 44.3167C46.473 45.8583 45.1077 47.6839 42.8968 48.0642C41.5165 48.3018 40.0668 48.0378 38.9157 47.2246C37.8131 46.4438 37.0701 45.2536 36.8524 43.9206C36.638 42.551 36.9386 41.1201 37.7673 40C38.6255 38.8398 39.8579 38.1927 41.2707 37.9914C41.5685 37.969 41.8672 37.9593 42.1659 37.9622C44.8222 37.996 46.2774 39.9789 47.9673 41.7243C49.3675 40.2128 50.5005 38.5319 52.6332 38.0675ZM42.2911 39.6331C42.0778 39.6229 41.8515 39.6221 41.6391 39.6417C40.6774 39.7837 39.8178 40.1802 39.2194 40.9752C38.6584 41.7251 38.4239 42.6702 38.5693 43.5957C38.713 44.4857 39.2058 45.2813 39.9383 45.8059C40.7346 46.3781 41.7149 46.5423 42.668 46.3649C42.9448 46.3134 43.2237 46.2207 43.4779 46.1C44.7317 45.3579 45.7661 44.062 46.753 43.0062C45.555 41.7005 44.2196 39.7242 42.2911 39.6331ZM54.2142 39.6731C54.0125 39.651 53.802 39.6462 53.5998 39.6625C51.4382 39.9461 50.5465 41.6633 49.1109 43.0433C50.1606 44.1877 51.4349 45.9194 52.9877 46.3556C54.0233 46.5263 55.0295 46.4429 55.9135 45.8116C56.6443 45.2926 57.1329 44.4993 57.2673 43.6134C57.4166 42.6704 57.1703 41.7076 56.5865 40.9518C55.9972 40.1935 55.1591 39.7771 54.2142 39.6731Z" fill="#E8F5FF"/>
<path d="M61.4925 29.4836C61.4925 28.1333 61.4918 27.1761 61.4287 26.4283C61.3666 25.6914 61.2487 25.2395 61.0605 24.8838C60.7173 24.2352 60.1901 23.703 59.5457 23.3539L59.515 23.3374C59.1596 23.1491 58.7081 23.0312 57.9718 22.969C57.2244 22.9059 56.2678 22.9052 54.9183 22.9052H40.9189C39.5694 22.9052 38.6128 22.9059 37.8654 22.969C37.1521 23.0293 36.7061 23.1418 36.3558 23.3199L36.3222 23.3374C35.6742 23.6807 35.1422 24.2081 34.7932 24.8529L34.7767 24.8837C34.5885 25.2395 34.4706 25.6914 34.4084 26.4283C34.3454 27.1761 34.3446 28.1333 34.3446 29.4836V59.5491C34.3446 60.8994 34.3454 61.8566 34.4084 62.6044C34.4706 63.3413 34.5884 63.7932 34.7767 64.149L34.7932 64.1798C35.1422 64.8246 35.6742 65.352 36.3222 65.6953L36.3558 65.7128C36.7061 65.8909 37.1521 66.0034 37.8654 66.0637C38.6128 66.1268 39.5694 66.1275 40.9189 66.1275H54.9183C56.2678 66.1275 57.2244 66.1268 57.9718 66.0637C58.7081 66.0015 59.1596 65.8836 59.515 65.6953L59.5457 65.6789C60.1901 65.3297 60.7173 64.7975 61.0605 64.149L61.0779 64.1153C61.256 63.7647 61.3685 63.3183 61.4287 62.6044C61.4918 61.8566 61.4925 60.8994 61.4925 59.5491V29.4836ZM51.6672 61.2655L51.6903 61.2658C52.1728 61.278 52.5602 61.673 52.5602 62.1585C52.5602 62.644 52.1728 63.039 51.6903 63.0513L51.6672 63.0516H45.1141C44.6209 63.0516 44.221 62.6517 44.221 62.1585C44.221 61.6653 44.6209 61.2655 45.1141 61.2655H51.6672ZM63.2786 59.5491C63.2786 60.8689 63.2793 61.9142 63.2084 62.7545C63.1378 63.5925 62.9913 64.305 62.6552 64.9535L62.6391 64.9843C62.1311 65.9443 61.3508 66.7322 60.3966 67.2492L60.3511 67.2736C59.6945 67.6214 58.9729 67.7715 58.122 67.8434C57.2821 67.9143 56.2373 67.9136 54.9183 67.9136H40.9189C39.5999 67.9136 38.5551 67.9143 37.7152 67.8434C36.8776 67.7727 36.1652 67.6261 35.5169 67.2898L35.4861 67.2736C34.5265 66.7652 33.7391 65.9844 33.2225 65.0299L33.1981 64.9843C32.8506 64.3276 32.7005 63.6058 32.6287 62.7545C32.5579 61.9142 32.5586 60.8689 32.5586 59.5491V29.4836C32.5586 28.1638 32.5579 27.1185 32.6287 26.2782C32.7005 25.4269 32.8506 24.7051 33.1981 24.0484L33.2225 24.0028C33.7391 23.0483 34.5265 22.2675 35.4861 21.7591L35.5169 21.7429C36.1652 21.4066 36.8776 21.26 37.7152 21.1893C38.5551 21.1184 39.5999 21.1191 40.9189 21.1191H54.9183C56.2373 21.1191 57.2821 21.1184 58.122 21.1893C58.9729 21.2612 59.6945 21.4113 60.3511 21.7591L60.3966 21.7835C61.3508 22.3005 62.1311 23.0884 62.6391 24.0484L62.6552 24.0792C62.9913 24.7277 63.1378 25.4402 63.2084 26.2782C63.2793 27.1185 63.2786 28.1638 63.2786 29.4836V59.5491Z" fill="#E8F5FF"/>
<defs>
<filter id="filter0_f_2081_16908" x="0" y="0" width="96" height="96" filterUnits="userSpaceOnUse" color-interpolation-filters="sRGB">
<feFlood flood-opacity="0" result="BackgroundImageFix"/>
<feBlend mode="normal" in="SourceGraphic" in2="BackgroundImageFix" result="shape"/>
<feGaussianBlur stdDeviation="12" result="effect1_foregroundBlur_2081_16908"/>
</filter>
<linearGradient id="paint0_linear_2081_16908" x1="43.8261" y1="39.6522" x2="63.1304" y2="58.9565" gradientUnits="userSpaceOnUse">
<stop stop-color="#FE7EF8"/>
<stop offset="1" stop-color="#75D2FF"/>
</linearGradient>
</defs>
</svg>
