<svg width="90" height="94" fill="none" xmlns="http://www.w3.org/2000/svg">
  <g filter="url(#a)">
    <circle cx="45" cy="49" r="25" fill="#273971"/>
  </g>
  <path d="M50.392 43.646c1.311-.286 2.734-.068 3.859.676a4.73 4.73 0 0 1 2.025 3.017 4.844 4.844 0 0 1-.72 3.644c-.791 1.163-1.954 1.754-3.308 2.007a8.18 8.18 0 0 1-.96.034c-2.448-.095-3.75-1.91-5.284-3.557-1.35 1.436-2.623 3.137-4.682 3.49-1.286.222-2.636-.024-3.709-.781a4.699 4.699 0 0 1-1.922-3.078c-.2-1.276.08-2.609.852-3.652.8-1.081 1.948-1.684 3.264-1.871.278-.021.556-.03.834-.028 2.474.032 3.83 1.88 5.404 3.505 1.305-1.408 2.36-2.974 4.347-3.406Zm-9.634 1.458a4.46 4.46 0 0 0-.608.008c-.896.132-1.696.502-2.254 1.242a3.237 3.237 0 0 0-.605 2.441 3.15 3.15 0 0 0 1.275 2.06c.742.532 1.655.685 2.543.52.258-.048.517-.134.754-.247 1.168-.691 2.132-1.898 3.051-2.882-1.116-1.216-2.36-3.057-4.156-3.142Zm11.106.037a3.057 3.057 0 0 0-.572-.01c-2.013.265-2.844 1.864-4.181 3.15.977 1.066 2.165 2.679 3.61 3.085.966.16 1.903.081 2.727-.507a3.078 3.078 0 0 0 1.26-2.047 3.23 3.23 0 0 0-.634-2.48c-.548-.706-1.33-1.094-2.21-1.19Z" fill="#F2E6CC"/>
  <path d="M58.645 35.65c0-1.259-.001-2.15-.06-2.847-.058-.686-.168-1.107-.343-1.439-.32-.604-.81-1.1-1.41-1.425l-.03-.015c-.33-.176-.751-.285-1.437-.343-.696-.06-1.587-.06-2.845-.06H39.48c-1.258 0-2.149 0-2.845.06-.665.056-1.08.16-1.406.326l-.032.017c-.603.32-1.099.81-1.424 1.412l-.015.028c-.176.332-.286.753-.343 1.44-.06.696-.06 1.587-.06 2.845v28.008c0 1.257 0 2.15.06 2.846.057.686.167 1.107.343 1.439l.015.028c.325.6.82 1.092 1.424 1.412l.032.016c.326.166.741.271 1.406.327.696.059 1.587.06 2.844.06H52.52c1.258 0 2.149-.001 2.845-.06.686-.058 1.106-.168 1.437-.343l.03-.015a3.464 3.464 0 0 0 1.41-1.425l.016-.032c.166-.326.271-.742.327-1.407.059-.697.06-1.589.06-2.846V35.649Zm-9.153 29.605h.021a.832.832 0 0 1 0 1.664h-6.126a.832.832 0 1 1 0-1.663h6.105Zm10.816-1.598c0 1.229.001 2.203-.065 2.986-.066.78-.202 1.444-.515 2.048l-.015.029a5.127 5.127 0 0 1-2.09 2.11l-.042.022c-.611.324-1.284.464-2.076.531-.783.066-1.756.065-2.985.065H39.48c-1.23 0-2.203.001-2.985-.065-.78-.066-1.444-.202-2.048-.516l-.029-.015a5.127 5.127 0 0 1-2.108-2.09l-.023-.042c-.324-.612-.463-1.284-.53-2.077-.066-.783-.066-1.757-.066-2.986V35.649c0-1.23 0-2.203.066-2.986.067-.793.206-1.465.53-2.077l.023-.042a5.127 5.127 0 0 1 2.108-2.09l.03-.015c.603-.314 1.267-.45 2.047-.516.782-.066 1.756-.066 2.984-.066H52.52c1.23 0 2.202 0 2.985.066.792.067 1.465.207 2.076.53l.043.023a5.127 5.127 0 0 1 2.089 2.11l.015.029c.313.604.45 1.268.515 2.048.066.783.065 1.757.065 2.986v28.008Z" fill="#F2E6CC"/>
  <path d="M55.58 53.308a.61.61 0 0 1-.427.74l-.34.094-.05.204-.003.015a.61.61 0 0 1-.271.364l-1.134.694-.016.01a.609.609 0 0 0-.186.192l-.694 1.134-.008.012a.61.61 0 0 1-.37.263l-.205.048-.095.341-.004.015a.61.61 0 0 1-.72.416l-.015-.004-.73-.188-.79.675-.01.01a.61.61 0 0 1-.419.135h-.015l-1.325-.106a.61.61 0 0 0-.282.045l-.621.257-.414.406-.012.011a.61.61 0 0 1-.831 0l-.011-.01-.415-.407-.62-.257a.61.61 0 0 0-.282-.045l-1.325.105-.015.001a.61.61 0 0 1-.418-.136l-.012-.01-.788-.674-.731.188-.015.004a.61.61 0 0 1-.72-.416l-.005-.015-.095-.34-.204-.05a.61.61 0 0 1-.37-.262l-.008-.012-.694-1.134a.61.61 0 0 0-.187-.193l-.015-.01-1.134-.693a.61.61 0 0 1-.271-.364l-.004-.014-.049-.205-.34-.095a.61.61 0 0 1-.431-.724l.003-.015.176-.684a5.488 5.488 0 0 0 .96.67l.096.402 1.564.436-.02-.243c.187.038.375.066.564.085l.035.446v.005a.057.057 0 0 0 .01.022l.015.015a.056.056 0 0 0 .026.01l3.089.246.023.002c.236.023.459.118.64.272l2.358 2.01c.02.018.051.018.072 0l2.358-2.01.018-.014c.183-.15.408-.241.645-.26l3.088-.247h.005a.054.054 0 0 0 .021-.009l.016-.016a.055.055 0 0 0 .01-.026l.036-.456.08-.006.052-.004.051-.01c.128-.023.255-.05.381-.08l-.021.268 1.564-.436.107-.448c.332-.18.648-.393.943-.645l.181.705Zm-6.47 1.963h-.012a.61.61 0 0 0-.335.143l-2.358 2.01-.011.01a.61.61 0 0 1-.77 0l-.01-.01-2.36-2.01a.61.61 0 0 0-.334-.142l-.012-.001-2.757-.22.437 1.564.771.185.017.004c.173.044.334.127.47.243l.002.002 1.307-.336.019-.004c.39-.094.8.02 1.086.3l1.219 1.194.509.211.005.002a.056.056 0 0 0 .037-.002l.508-.21 1.219-1.195.014-.013c.29-.275.702-.383 1.09-.283l1.309.336.002-.002c.14-.12.307-.204.486-.247l.772-.185.436-1.564-2.756.22Zm-5.238 2.135a.61.61 0 0 0-.578-.156l-.931.24.492.421.005.004c.01.007.023.01.036.01l1.325-.106.017-.001a1.16 1.16 0 0 1 .053-.002l-.419-.41Zm4.852-.156a.61.61 0 0 0-.579.156l-.419.41c.024 0 .047.001.07.003l1.326.105h.005a.056.056 0 0 0 .035-.013l.493-.421-.931-.24Zm-7.954.02.002.005c.01.026.038.041.066.034l.129-.033-.209-.05.012.044Zm10.281.006.129.033.005.001a.055.055 0 0 0 .062-.04l.012-.044-.208.05Zm1.797-2.586-.02.006a.61.61 0 0 0-.404.418L52.1 56.28l.58-.949c.097-.157.229-.29.386-.386l.95-.58-1.167.325Zm-13.895.256.014.009c.151.095.278.224.371.376l.58.948-.325-1.165a.61.61 0 0 0-.404-.418l-.02-.006-1.165-.325.949.58Zm-1.979-1.5c-.007.03.01.059.04.067l.044.013-.05-.21-.034.13Zm17.986.08.044-.013a.055.055 0 0 0 .04-.062l-.001-.005-.033-.129-.05.208Zm-9.378-16.057a.61.61 0 0 1 .854 0l.415.407.62.257a.61.61 0 0 0 .264.046l.018-.001 1.325-.105a.61.61 0 0 1 .445.144l.788.674.73-.188a.61.61 0 0 1 .74.427l.095.341.204.05a.61.61 0 0 1 .379.274l.694 1.134a.61.61 0 0 0 .202.202l1.134.694a.61.61 0 0 1 .275.378l.048.204.341.095c.32.09.51.418.427.74l-.188.73.013.016c-.194-.171-.4-.33-.619-.475l-.033-.021a5.43 5.43 0 0 0-.294-.18l-.11-.458-1.564-.437.021.273a6.125 6.125 0 0 0-.563-.093l-.038-.468a.055.055 0 0 0-.009-.026l-.016-.016a.056.056 0 0 0-.026-.009l-3.088-.246a1.165 1.165 0 0 1-.663-.275l-2.358-2.01a.055.055 0 0 0-.068-.002l-.004.003-2.358 2.01a1.165 1.165 0 0 1-.663.274l-3.089.246a.056.056 0 0 0-.026.01l-.015.014a.056.056 0 0 0-.01.022v.005l-.038.475-.04.003-.033.003-.032.004c-.154.022-.307.05-.458.082l.022-.279-1.564.437-.106.444a5.5 5.5 0 0 0-.944.65l-.182-.706a.61.61 0 0 1 .412-.735l.015-.005.342-.095.048-.203a.61.61 0 0 1 .262-.37l.013-.009 1.134-.694a.61.61 0 0 0 .193-.186l.01-.016.693-1.134a.61.61 0 0 1 .364-.271l.014-.004.204-.048.095-.342a.61.61 0 0 1 .74-.427l.73.188.789-.674a.61.61 0 0 1 .445-.144l1.325.105a.61.61 0 0 0 .265-.038l.017-.007.62-.257.415-.407Zm-8.569 5.567a.056.056 0 0 0-.039.068l.034.13.05-.21-.045.012Zm17.997.197.033-.13.001-.005a.055.055 0 0 0-.035-.06l-.005-.002-.044-.012.05.209Zm-2.586-1.797a.61.61 0 0 0 .424.423l1.165.325-.948-.58a1.164 1.164 0 0 1-.377-.37l-.009-.015-.58-.95.325 1.167Zm-13.086-.217c-.093.152-.22.28-.37.376l-.015.01-.948.58 1.164-.326a.61.61 0 0 0 .419-.404l.005-.02.325-1.164-.58.948Zm6.692-3.083a.055.055 0 0 0-.042 0l-.51.211-1.218 1.193c-.286.281-.697.394-1.086.3l-.019-.004-1.307-.336-.003.003c-.135.116-.296.2-.469.243l-.017.004-.772.185-.436 1.564 2.757-.22a.61.61 0 0 0 .338-.136l.009-.008 2.358-2.01a.61.61 0 0 1 .791 0l2.359 2.01a.61.61 0 0 0 .347.144l2.756.22-.436-1.564-.772-.185a1.166 1.166 0 0 1-.472-.236l-.014-.011-.002-.003-1.308.336c-.389.1-.8-.007-1.091-.282l-.014-.014-1.218-1.193-.509-.211Zm-5.192 1.104a.056.056 0 0 0-.066.034l-.002.005-.012.045.21-.05-.13-.034Zm10.409.04a.055.055 0 0 0-.067-.04l-.13.034.21.05-.013-.045Zm-8.351-.654a.055.055 0 0 0-.036.01l-.005.003-.492.421.93.24a.61.61 0 0 0 .565-.142l.014-.014.419-.41c-.018 0-.035 0-.053-.002l-.017-.001-1.325-.105Zm6.226 0-1.325.105a1.093 1.093 0 0 1-.07.003l.418.41a.61.61 0 0 0 .56.16l.019-.005.93-.24-.492-.42a.055.055 0 0 0-.04-.014Z" fill="url(#b)"/>
  <path d="M38.785 34.11a1.153 1.153 0 1 0-1.153 1.154v.554a1.708 1.708 0 1 1 0-3.416 1.708 1.708 0 0 1 0 3.416v-.554c.637 0 1.153-.517 1.153-1.154Z" fill="url(#c)"/>
  <path d="M45.801 33.143v.554h-5.455v-.554H45.8Z" fill="url(#d)"/>
  <path d="M42.528 34.58v.555h-2.182v-.555h2.182Z" fill="url(#e)"/>
  <defs>
    <linearGradient id="b" x1="47.73" y1="56.643" x2="40.762" y2="41.967" gradientUnits="userSpaceOnUse">
      <stop offset=".413" stop-color="#5C6A96"/>
      <stop offset=".957" stop-color="#93A3D8"/>
    </linearGradient>
    <linearGradient id="c" x1="37.938" y1="35.412" x2="36.948" y2="33.025" gradientUnits="userSpaceOnUse">
      <stop offset=".413" stop-color="#5C6A96"/>
      <stop offset=".957" stop-color="#93A3D8"/>
    </linearGradient>
    <linearGradient id="d" x1="43.563" y1="33.631" x2="43.544" y2="33.178" gradientUnits="userSpaceOnUse">
      <stop offset=".413" stop-color="#5C6A96"/>
      <stop offset=".957" stop-color="#93A3D8"/>
    </linearGradient>
    <linearGradient id="e" x1="41.633" y1="35.069" x2="41.585" y2="34.62" gradientUnits="userSpaceOnUse">
      <stop offset=".413" stop-color="#5C6A96"/>
      <stop offset=".957" stop-color="#93A3D8"/>
    </linearGradient>
    <filter id="a" x="-4" y="0" width="98" height="98" filterUnits="userSpaceOnUse" color-interpolation-filters="sRGB">
      <feFlood flood-opacity="0" result="BackgroundImageFix"/>
      <feBlend in="SourceGraphic" in2="BackgroundImageFix" result="shape"/>
      <feGaussianBlur stdDeviation="12" result="effect1_foregroundBlur_3894_185004"/>
    </filter>
  </defs>
</svg>
