<svg width="96" height="96" viewBox="0 0 96 96" fill="none" xmlns="http://www.w3.org/2000/svg">
<g filter="url(#filter0_f_2215_36670)">
<circle cx="48" cy="48" r="24" fill="url(#paint0_linear_2215_36670)" fill-opacity="0.5"/>
</g>
<path d="M27.8081 43.0734C26.6889 42.4927 26.7441 40.8735 27.9002 40.3704L45.9923 32.4976C47.517 31.8341 49.2488 31.8341 50.7735 32.4976L68.8656 40.3704C70.0127 40.8696 70.076 42.4675 68.9838 43.0596L68.9578 43.0734L50.6248 52.5851C49.2301 53.3087 47.5728 53.3144 46.174 52.6021L46.141 52.5851L27.8081 43.0734ZM47.0033 50.9232L47.044 50.9439C47.9004 51.3719 48.911 51.365 49.7625 50.9232L67.3976 41.7735L50.0265 34.2144C48.9782 33.7583 47.7876 33.7582 46.7394 34.2144L29.3681 41.7735L47.0033 50.9232Z" fill="#E8F5FF"/>
<path d="M60.4778 46.381L60.4768 51.7712L60.4765 51.7843C60.449 52.7575 60.0073 53.6947 59.3557 54.5175C58.699 55.3467 57.7866 56.1161 56.7039 56.7721C54.5382 58.084 51.5961 59 48.3641 59C45.1321 59 42.1898 58.0838 40.0239 56.7716C38.9411 56.1156 38.0285 55.3461 37.3718 54.5168C36.7201 53.694 36.2782 52.7568 36.2508 51.7836L36.2504 51.7704V46.5448H38.1227V51.7411C38.1381 52.1802 38.3486 52.7345 38.8395 53.3544C39.3292 53.9727 40.0579 54.6032 40.994 55.1703C42.8662 56.3045 45.4727 57.1277 48.3641 57.1277C51.2556 57.1277 53.8619 56.3047 55.7337 55.1707C56.6698 54.6036 57.3983 53.9733 57.8879 53.3551C58.3788 52.7353 58.5892 52.181 58.6046 51.7418L58.6055 46.3806L60.4778 46.381Z" fill="#E8F5FF"/>
<path d="M48.0175 40.9617C48.5286 40.884 49.0059 41.2354 49.0836 41.7465C49.1613 42.2577 48.81 42.735 48.2988 42.8127L32.5342 45.2093L32.2528 43.3583L48.0175 40.9617Z" fill="#E8F5FF"/>
<path d="M33.2548 52.2597L33.2545 52.2839C33.2417 52.7897 32.8276 53.1959 32.3186 53.1959C31.8097 53.1959 31.3956 52.7897 31.3828 52.2839L31.3825 52.2597L31.3825 44.0217H33.2548L33.2548 52.2597Z" fill="#E8F5FF"/>
<path d="M33.5918 55.1056L33.6159 55.1059C34.1218 55.1187 34.5279 55.5328 34.5279 56.0417C34.5279 56.5507 34.1218 56.9648 33.6159 56.9776L33.5918 56.9779H31.0455C30.5284 56.9779 30.1093 56.5588 30.1093 56.0417C30.1093 55.5247 30.5284 55.1056 31.0455 55.1056H33.5918Z" fill="#E8F5FF"/>
<path d="M33.5918 51.8478L33.6159 51.8481C34.1218 51.8609 34.5279 52.275 34.5279 52.784C34.5279 53.2929 34.1218 53.707 33.6159 53.7198L33.5918 53.7201H31.0455C30.5284 53.7201 30.1093 53.301 30.1093 52.784C30.1093 52.267 30.5284 51.8478 31.0455 51.8478H33.5918Z" fill="#E8F5FF"/>
<defs>
<filter id="filter0_f_2215_36670" x="0" y="0" width="96" height="96" filterUnits="userSpaceOnUse" color-interpolation-filters="sRGB">
<feFlood flood-opacity="0" result="BackgroundImageFix"/>
<feBlend mode="normal" in="SourceGraphic" in2="BackgroundImageFix" result="shape"/>
<feGaussianBlur stdDeviation="12" result="effect1_foregroundBlur_2215_36670"/>
</filter>
<linearGradient id="paint0_linear_2215_36670" x1="43.8261" y1="39.6522" x2="63.1304" y2="58.9565" gradientUnits="userSpaceOnUse">
<stop stop-color="#FE7EF8"/>
<stop offset="1" stop-color="#75D2FF"/>
</linearGradient>
</defs>
</svg>
