<svg width="96" height="96" viewBox="0 0 96 96" fill="none" xmlns="http://www.w3.org/2000/svg">
<g filter="url(#filter0_f_2081_16906)">
<circle cx="48" cy="48" r="24" fill="url(#paint0_linear_2081_16906)" fill-opacity="0.5"/>
</g>
<path d="M30.3848 45.6039C30.3848 40.6063 32.4667 36.0914 35.8105 32.8755L36.2334 32.4805C37.2368 31.5764 38.3449 30.7852 39.5371 30.1261C40.02 29.8592 40.6295 30.0322 40.8975 30.5133C41.1654 30.9944 40.9906 31.6006 40.5078 31.8676C39.4499 32.4524 38.4663 33.1554 37.5752 33.9584L37.1992 34.3086C34.2296 37.1645 32.3848 41.1689 32.3848 45.6039C32.3849 54.2731 39.4397 61.3007 48.1416 61.3007C56.8433 61.3004 63.8973 54.273 63.8975 45.6039C63.8975 39.8797 60.8222 34.8697 56.2236 32.1264L55.7744 31.8676L55.6875 31.8141C55.2714 31.5258 55.1336 30.9644 55.3848 30.5133C55.636 30.0622 56.1875 29.8811 56.6533 30.0804L56.7451 30.1261L57.251 30.417C62.4283 33.5058 65.8975 39.1506 65.8975 45.6039C65.8973 55.3734 57.9479 63.2929 48.1416 63.2932C38.3351 63.2932 30.3849 55.3736 30.3848 45.6039Z" fill="#E8F5FF"/>
<path d="M49.0937 38.0244L49.0889 38.127C49.0375 38.6311 48.6114 39.0244 48.0937 39.0244C47.5761 39.0244 47.15 38.6311 47.0986 38.127L47.0937 38.0244L47.0937 26C47.0937 25.4477 47.5415 25 48.0938 25C48.646 25 49.0937 25.4477 49.0937 26L49.0937 38.0244Z" fill="#E8F5FF"/>
<defs>
<filter id="filter0_f_2081_16906" x="0" y="0" width="96" height="96" filterUnits="userSpaceOnUse" color-interpolation-filters="sRGB">
<feFlood flood-opacity="0" result="BackgroundImageFix"/>
<feBlend mode="normal" in="SourceGraphic" in2="BackgroundImageFix" result="shape"/>
<feGaussianBlur stdDeviation="12" result="effect1_foregroundBlur_2081_16906"/>
</filter>
<linearGradient id="paint0_linear_2081_16906" x1="43.8261" y1="39.6522" x2="63.1304" y2="58.9565" gradientUnits="userSpaceOnUse">
<stop stop-color="#FE7EF8"/>
<stop offset="1" stop-color="#75D2FF"/>
</linearGradient>
</defs>
</svg>
