<svg width="90" height="98" viewBox="0 0 90 98" fill="none" xmlns="http://www.w3.org/2000/svg">
<g filter="url(#filter0_f_2150_17717)">
<circle cx="45" cy="49" r="25" fill="#273971"/>
</g>
<path d="M55.1179 51.6856C55.2671 51.9945 55.2697 52.0001 55.2696 52.0003C55.2696 52.0003 55.2694 52.0004 55.2692 52.0005C55.269 52.0006 55.2687 52.0008 55.2683 52.0009C55.2676 52.0013 55.2667 52.0017 55.2656 52.0022C55.2634 52.0033 55.2605 52.0047 55.2567 52.0064C55.2492 52.0099 55.2386 52.0148 55.2249 52.0211C55.1975 52.0335 55.1576 52.0512 55.1052 52.0734C55.0006 52.1177 54.8463 52.1799 54.6426 52.2541C54.2351 52.4024 53.6298 52.5983 52.8285 52.7936C51.2257 53.1842 48.8399 53.5721 45.6856 53.5721C42.5312 53.5721 40.1454 53.1842 38.5426 52.7936C37.7413 52.5983 37.1361 52.4024 36.7285 52.2541C36.5248 52.1799 36.3705 52.1177 36.2659 52.0733C36.2136 52.0512 36.1737 52.0335 36.1462 52.021C36.1325 52.0148 36.1219 52.0099 36.1144 52.0064C36.1106 52.0047 36.1077 52.0033 36.1055 52.0022C36.1044 52.0017 36.1035 52.0013 36.1028 52.0009C36.1024 52.0008 36.1021 52.0006 36.1019 52.0005C36.1017 52.0004 36.1015 52.0003 36.1015 52.0003C36.1014 52.0001 36.104 51.9946 36.2532 51.6856C36.3977 51.3867 36.4047 51.3718 36.405 51.371C36.4051 51.3711 36.4053 51.3711 36.4056 51.3713C36.4066 51.3717 36.4083 51.3725 36.4107 51.3737C36.4156 51.376 36.4237 51.3797 36.4348 51.3847C36.457 51.3948 36.4916 51.4101 36.5385 51.43C36.6322 51.4697 36.7753 51.5276 36.9675 51.5975C37.3518 51.7374 37.9326 51.9258 38.7081 52.1148C40.2588 52.4927 42.5891 52.8734 45.6856 52.8734C48.782 52.8734 51.1124 52.4927 52.663 52.1148C53.4385 51.9258 54.0193 51.7374 54.4036 51.5975C54.5958 51.5276 54.7389 51.4697 54.8327 51.43C54.8796 51.4101 54.9141 51.3948 54.9363 51.3847C54.9474 51.3797 54.9555 51.376 54.9604 51.3737C54.9629 51.3725 54.9646 51.3717 54.9655 51.3713C54.9657 51.3712 54.966 51.3711 54.9661 51.371C54.9663 51.3717 54.9728 51.3853 55.1179 51.6856ZM36.405 51.371L36.405 51.371C36.4049 51.371 36.4049 51.3709 36.4049 51.3709L36.405 51.371ZM54.9661 51.371L54.9662 51.3709C54.9662 51.3709 54.9662 51.371 54.9661 51.371Z" fill="url(#paint0_linear_2150_17717)"/>
<path d="M53.6856 50.6026C53.8263 50.9223 53.8262 50.9224 53.8261 50.9224C53.8261 50.9224 53.8259 50.9225 53.8258 50.9226C53.8255 50.9227 53.8252 50.9228 53.8249 50.9229C53.8243 50.9232 53.8235 50.9235 53.8225 50.924C53.8206 50.9248 53.818 50.9259 53.8148 50.9273C53.8083 50.93 53.7992 50.9339 53.7874 50.9388C53.7639 50.9485 53.7297 50.9623 53.6851 50.9795C53.5958 51.014 53.4644 51.0623 53.2911 51.1197C52.9444 51.2347 52.43 51.3864 51.7494 51.5375C50.3881 51.8398 48.3627 52.1397 45.6856 52.1397C43.0085 52.1397 40.9831 51.8398 39.6218 51.5375C38.9412 51.3864 38.4268 51.2347 38.0801 51.1197C37.9068 51.0623 37.7754 51.014 37.6861 50.9795C37.6415 50.9623 37.6073 50.9485 37.5838 50.9388C37.572 50.9339 37.5629 50.93 37.5564 50.9273C37.5532 50.9259 37.5506 50.9248 37.5487 50.924C37.5477 50.9235 37.5469 50.9232 37.5463 50.9229C37.546 50.9228 37.5456 50.9227 37.5454 50.9226C37.5453 50.9225 37.5451 50.9224 37.5451 50.9224C37.545 50.9224 37.5449 50.9223 37.6856 50.6026C37.8202 50.2967 37.826 50.2834 37.8261 50.2828C37.8262 50.2828 37.8263 50.2828 37.8265 50.2829C37.8272 50.2832 37.8286 50.2838 37.8306 50.2846C37.8346 50.2864 37.8413 50.2892 37.8506 50.293C37.8691 50.3007 37.8982 50.3124 37.9377 50.3277C38.0167 50.3582 38.1376 50.4027 38.3 50.4565C38.625 50.5643 39.1165 50.7096 39.7732 50.8554C41.0865 51.147 43.0611 51.441 45.6856 51.441C48.3101 51.441 50.2847 51.147 51.598 50.8554C52.2547 50.7096 52.7462 50.5643 53.0712 50.4565C53.2336 50.4027 53.3545 50.3582 53.4335 50.3277C53.473 50.3124 53.502 50.3007 53.5206 50.293C53.5299 50.2892 53.5366 50.2864 53.5406 50.2846C53.5426 50.2838 53.544 50.2832 53.5447 50.2829C53.5448 50.2828 53.545 50.2828 53.545 50.2828C53.5452 50.2833 53.5503 50.2952 53.6856 50.6026ZM53.5452 50.2827L53.5451 50.2827C53.5452 50.2827 53.5453 50.2826 53.5453 50.2826L53.5452 50.2827Z" fill="url(#paint1_linear_2150_17717)"/>
<path d="M46.0349 37.1703V47.7555H45.3362V37.1703H46.0349Z" fill="url(#paint2_linear_2150_17717)"/>
<path d="M51.0949 40.7608L49.9071 47.3285L49.2196 47.2041L50.4073 40.6365L51.0949 40.7608Z" fill="url(#paint3_linear_2150_17717)"/>
<path d="M42.8781 47.2429L42.2048 47.4297L40.528 41.3861L41.2012 41.1992L42.8781 47.2429Z" fill="url(#paint4_linear_2150_17717)"/>
<path d="M31.7467 55.7031H32.4454L32.4454 70.3755H31.7467L31.7467 55.7031Z" fill="url(#paint5_linear_2150_17717)"/>
<path d="M36.8122 60.2795H37.5109L37.5109 66.7773H36.8122L36.8122 60.2795Z" fill="url(#paint6_linear_2150_17717)"/>
<path d="M42.1572 58.2533H42.8559V66.7773H42.1572V58.2533Z" fill="url(#paint7_linear_2150_17717)"/>
<path d="M47.3624 61.0131H48.0611V66.7773H47.3624V61.0131Z" fill="url(#paint8_linear_2150_17717)"/>
<path d="M52.5677 55.7031H53.2664V66.7773H52.5677V55.7031Z" fill="url(#paint9_linear_2150_17717)"/>
<path d="M46.7686 29.9913C46.7686 29.2774 46.1899 28.6987 45.476 28.6987C44.7621 28.6987 44.1834 29.2774 44.1834 29.9913C44.1834 30.7051 44.7621 31.2838 45.476 31.2838V31.9825C44.3762 31.9825 43.4847 31.091 43.4847 29.9913C43.4847 28.8915 44.3762 28 45.476 28C46.5757 28 47.4672 28.8915 47.4672 29.9913C47.4672 31.091 46.5757 31.9825 45.476 31.9825V31.2838C46.1899 31.2838 46.7686 30.7051 46.7686 29.9913Z" fill="url(#paint10_linear_2150_17717)"/>
<path d="M61.3013 34.3581C61.3013 34.0687 61.0667 33.8341 60.7773 33.8341C60.4879 33.8341 60.2533 34.0687 60.2533 34.3581C60.2533 34.6475 60.4879 34.8821 60.7773 34.8821V35.5808C60.102 35.5808 59.5546 35.0334 59.5546 34.3581C59.5546 33.6828 60.102 33.1354 60.7773 33.1354C61.4526 33.1354 62 33.6828 62 34.3581C62 35.0334 61.4526 35.5808 60.7773 35.5808V34.8821C61.0667 34.8821 61.3013 34.6475 61.3013 34.3581Z" fill="url(#paint11_linear_2150_17717)"/>
<path d="M31.7467 34.3581C31.7467 34.0687 31.5121 33.8341 31.2227 33.8341C30.9333 33.8341 30.6987 34.0687 30.6987 34.3581C30.6987 34.6475 30.9333 34.8821 31.2227 34.8821V35.5808C30.5474 35.5808 30 35.0334 30 34.3581C30 33.6828 30.5474 33.1354 31.2227 33.1354C31.898 33.1354 32.4454 33.6828 32.4454 34.3581C32.4454 35.0334 31.898 35.5808 31.2227 35.5808V34.8821C31.5121 34.8821 31.7467 34.6475 31.7467 34.3581Z" fill="url(#paint12_linear_2150_17717)"/>
<path d="M60.3231 72.0873V72.786H31.3974V72.0873H60.3231Z" fill="url(#paint13_linear_2150_17717)"/>
<path d="M36.1135 66.7769H34.3668L34.3668 62.3751H36.1135L36.1135 66.7769Z" fill="url(#paint14_linear_2150_17717)"/>
<path d="M41.4585 66.7769H39.7118L39.7118 60.6633H41.4585L41.4585 66.7769Z" fill="url(#paint15_linear_2150_17717)"/>
<path d="M46.8035 66.7769H45.0568L45.0568 58.8817H46.8035L46.8035 66.7769Z" fill="url(#paint16_linear_2150_17717)"/>
<path d="M52.1485 66.7769H50.4018V57.135H52.1485V66.7769Z" fill="url(#paint17_linear_2150_17717)"/>
<path d="M57.4585 66.7769H55.7118V55.2485H57.4585V66.7769Z" fill="url(#paint18_linear_2150_17717)"/>
<path d="M57.5983 68.6284V70.3751H34.0873L34.0873 68.6284L57.5983 68.6284Z" fill="url(#paint19_linear_2150_17717)"/>
<path d="M50.7274 40.6201L59.3834 36.894L57.4102 48.8707C57.2439 49.8803 56.1485 50.3517 55.3096 49.9723C54.0332 49.3952 50.8325 48.2442 45.5862 48.2442C40.5121 48.2442 37.4525 49.3208 36.1588 49.9086L36.0985 49.9363C35.2579 50.3247 34.1281 49.8549 33.9679 48.8234L33.9644 48.799L32.3066 36.8888L40.6441 40.6068L45.571 33.9189L50.7274 40.6201ZM41.9004 41.8466C41.5074 42.38 40.8011 42.5732 40.1928 42.3177L40.1639 42.3052L34.4707 39.7663L35.6479 48.2246C37.2468 47.5325 40.4915 46.4974 45.5862 46.4974C50.7673 46.4974 54.1225 47.5677 55.7414 48.2547L57.1407 39.7611L51.1936 42.3211C50.6015 42.576 49.9134 42.4036 49.5111 41.9031L49.4922 41.879L45.6014 36.8227L41.9004 41.8466Z" fill="url(#paint20_linear_2150_17717)"/>
<defs>
<filter id="filter0_f_2150_17717" x="-4" y="0" width="98" height="98" filterUnits="userSpaceOnUse" color-interpolation-filters="sRGB">
<feFlood flood-opacity="0" result="BackgroundImageFix"/>
<feBlend mode="normal" in="SourceGraphic" in2="BackgroundImageFix" result="shape"/>
<feGaussianBlur stdDeviation="12" result="effect1_foregroundBlur_2150_17717"/>
</filter>
<linearGradient id="paint0_linear_2150_17717" x1="48.8713" y1="67.4601" x2="32.9471" y2="40.0248" gradientUnits="userSpaceOnUse">
<stop offset="0.413462" stop-color="#5C6A96"/>
<stop offset="0.956731" stop-color="#93A3D8"/>
</linearGradient>
<linearGradient id="paint1_linear_2150_17717" x1="48.8713" y1="67.4601" x2="32.9471" y2="40.0248" gradientUnits="userSpaceOnUse">
<stop offset="0.413462" stop-color="#5C6A96"/>
<stop offset="0.956731" stop-color="#93A3D8"/>
</linearGradient>
<linearGradient id="paint2_linear_2150_17717" x1="48.8713" y1="67.4601" x2="32.9471" y2="40.0248" gradientUnits="userSpaceOnUse">
<stop offset="0.413462" stop-color="#5C6A96"/>
<stop offset="0.956731" stop-color="#93A3D8"/>
</linearGradient>
<linearGradient id="paint3_linear_2150_17717" x1="48.8713" y1="67.4601" x2="32.9471" y2="40.0248" gradientUnits="userSpaceOnUse">
<stop offset="0.413462" stop-color="#5C6A96"/>
<stop offset="0.956731" stop-color="#93A3D8"/>
</linearGradient>
<linearGradient id="paint4_linear_2150_17717" x1="48.8713" y1="67.4601" x2="32.9471" y2="40.0248" gradientUnits="userSpaceOnUse">
<stop offset="0.413462" stop-color="#5C6A96"/>
<stop offset="0.956731" stop-color="#93A3D8"/>
</linearGradient>
<linearGradient id="paint5_linear_2150_17717" x1="48.8713" y1="67.4601" x2="32.9471" y2="40.0248" gradientUnits="userSpaceOnUse">
<stop offset="0.413462" stop-color="#5C6A96"/>
<stop offset="0.956731" stop-color="#93A3D8"/>
</linearGradient>
<linearGradient id="paint6_linear_2150_17717" x1="48.8713" y1="67.4601" x2="32.9471" y2="40.0248" gradientUnits="userSpaceOnUse">
<stop offset="0.413462" stop-color="#5C6A96"/>
<stop offset="0.956731" stop-color="#93A3D8"/>
</linearGradient>
<linearGradient id="paint7_linear_2150_17717" x1="48.8713" y1="67.4601" x2="32.9471" y2="40.0248" gradientUnits="userSpaceOnUse">
<stop offset="0.413462" stop-color="#5C6A96"/>
<stop offset="0.956731" stop-color="#93A3D8"/>
</linearGradient>
<linearGradient id="paint8_linear_2150_17717" x1="48.8713" y1="67.4601" x2="32.9471" y2="40.0248" gradientUnits="userSpaceOnUse">
<stop offset="0.413462" stop-color="#5C6A96"/>
<stop offset="0.956731" stop-color="#93A3D8"/>
</linearGradient>
<linearGradient id="paint9_linear_2150_17717" x1="48.8713" y1="67.4601" x2="32.9471" y2="40.0248" gradientUnits="userSpaceOnUse">
<stop offset="0.413462" stop-color="#5C6A96"/>
<stop offset="0.956731" stop-color="#93A3D8"/>
</linearGradient>
<linearGradient id="paint10_linear_2150_17717" x1="48.8713" y1="67.4601" x2="32.9471" y2="40.0248" gradientUnits="userSpaceOnUse">
<stop offset="0.413462" stop-color="#5C6A96"/>
<stop offset="0.956731" stop-color="#93A3D8"/>
</linearGradient>
<linearGradient id="paint11_linear_2150_17717" x1="48.8713" y1="67.4601" x2="32.9471" y2="40.0248" gradientUnits="userSpaceOnUse">
<stop offset="0.413462" stop-color="#5C6A96"/>
<stop offset="0.956731" stop-color="#93A3D8"/>
</linearGradient>
<linearGradient id="paint12_linear_2150_17717" x1="48.8713" y1="67.4601" x2="32.9471" y2="40.0248" gradientUnits="userSpaceOnUse">
<stop offset="0.413462" stop-color="#5C6A96"/>
<stop offset="0.956731" stop-color="#93A3D8"/>
</linearGradient>
<linearGradient id="paint13_linear_2150_17717" x1="48.8713" y1="67.4601" x2="32.9471" y2="40.0248" gradientUnits="userSpaceOnUse">
<stop offset="0.413462" stop-color="#5C6A96"/>
<stop offset="0.956731" stop-color="#93A3D8"/>
</linearGradient>
<linearGradient id="paint14_linear_2150_17717" x1="43.7445" y1="44.5843" x2="45.5112" y2="70.398" gradientUnits="userSpaceOnUse">
<stop stop-color="#F2E6CC"/>
<stop offset="1" stop-color="#C4B18A"/>
</linearGradient>
<linearGradient id="paint15_linear_2150_17717" x1="43.7445" y1="44.5843" x2="45.5112" y2="70.398" gradientUnits="userSpaceOnUse">
<stop stop-color="#F2E6CC"/>
<stop offset="1" stop-color="#C4B18A"/>
</linearGradient>
<linearGradient id="paint16_linear_2150_17717" x1="43.7445" y1="44.5843" x2="45.5112" y2="70.398" gradientUnits="userSpaceOnUse">
<stop stop-color="#F2E6CC"/>
<stop offset="1" stop-color="#C4B18A"/>
</linearGradient>
<linearGradient id="paint17_linear_2150_17717" x1="43.7445" y1="44.5843" x2="45.5112" y2="70.398" gradientUnits="userSpaceOnUse">
<stop stop-color="#F2E6CC"/>
<stop offset="1" stop-color="#C4B18A"/>
</linearGradient>
<linearGradient id="paint18_linear_2150_17717" x1="43.7445" y1="44.5843" x2="45.5112" y2="70.398" gradientUnits="userSpaceOnUse">
<stop stop-color="#F2E6CC"/>
<stop offset="1" stop-color="#C4B18A"/>
</linearGradient>
<linearGradient id="paint19_linear_2150_17717" x1="43.7445" y1="44.5843" x2="45.5112" y2="70.398" gradientUnits="userSpaceOnUse">
<stop stop-color="#F2E6CC"/>
<stop offset="1" stop-color="#C4B18A"/>
</linearGradient>
<linearGradient id="paint20_linear_2150_17717" x1="43.7445" y1="44.5843" x2="45.5112" y2="70.398" gradientUnits="userSpaceOnUse">
<stop stop-color="#F2E6CC"/>
<stop offset="1" stop-color="#C4B18A"/>
</linearGradient>
</defs>
</svg>
