<svg width="90" height="94" viewBox="0 0 90 94" fill="none" xmlns="http://www.w3.org/2000/svg">
<g filter="url(#filter0_f_2124_34455)">
<circle cx="45" cy="45" r="25" fill="#273971"/>
</g>
<path d="M33.8844 49.5011H33.2259C32.6805 49.5011 32.2383 49.0589 32.2383 48.5134L32.2383 39.9208C32.2383 39.3753 32.6805 38.9332 33.2259 38.9332H33.8844L33.8844 49.5011Z" fill="url(#paint0_linear_2124_34455)"/>
<path d="M40.6004 38.9661H39.942C39.3965 38.9661 38.9543 38.5239 38.9543 37.9784L38.9543 32.4476C38.9543 31.9021 39.3965 31.4599 39.942 31.4599H40.6004V38.9661Z" fill="url(#paint1_linear_2124_34455)"/>
<path d="M47.514 31.4599H46.8556C46.3101 31.4599 45.8679 31.0177 45.8679 30.4723L45.8679 28.4969C45.8679 27.9515 46.3101 27.5093 46.8556 27.5093H47.514L47.514 31.4599Z" fill="url(#paint2_linear_2124_34455)"/>
<path d="M37.2095 48.5134C37.2095 49.0589 36.7673 49.5011 36.2218 49.5011H35.5634L35.5634 38.9332H36.2218C36.7673 38.9332 37.2095 39.3753 37.2095 39.9208L37.2095 48.5134Z" fill="url(#paint3_linear_2124_34455)"/>
<path d="M43.9255 37.9784C43.9255 38.5239 43.4833 38.9661 42.9379 38.9661H42.2794L42.2794 31.4599H42.9379C43.4833 31.4599 43.9255 31.9021 43.9255 32.4476L43.9255 37.9784Z" fill="url(#paint4_linear_2124_34455)"/>
<path d="M50.8391 30.4723C50.8391 31.0177 50.3969 31.4599 49.8514 31.4599H49.193V27.5093H49.8514C50.3969 27.5093 50.8391 27.9515 50.8391 28.4969V30.4723Z" fill="url(#paint5_linear_2124_34455)"/>
<path d="M35.5634 38.9332H33.9173L33.9173 31.855C33.9173 31.4004 34.2858 31.0319 34.7403 31.0319C35.1949 31.0319 35.5634 31.4004 35.5634 31.855L35.5634 38.9332Z" fill="url(#paint6_linear_2124_34455)"/>
<path d="M42.2794 31.4599H40.6333V25.534C40.6333 25.0794 41.0018 24.7109 41.4564 24.7109C41.9109 24.7109 42.2794 25.0794 42.2794 25.534V31.4599Z" fill="url(#paint7_linear_2124_34455)"/>
<path d="M49.193 27.5093H47.5469V25.534C47.5469 25.0794 47.9154 24.7109 48.37 24.7109C48.8245 24.7109 49.193 25.0794 49.193 25.534V27.5093Z" fill="url(#paint8_linear_2124_34455)"/>
<path d="M35.5634 54.7685C35.5634 55.2231 35.1949 55.5916 34.7403 55.5916C34.2858 55.5916 33.9173 55.2231 33.9173 54.7685L33.9173 49.5011H35.5634L35.5634 54.7685Z" fill="url(#paint9_linear_2124_34455)"/>
<path d="M42.2794 44.9579C42.2794 45.4124 41.9109 45.7809 41.4564 45.7809C41.0018 45.7809 40.6333 45.4124 40.6333 44.9579V38.9661H42.2794L42.2794 44.9579Z" fill="url(#paint10_linear_2124_34455)"/>
<path d="M49.193 38.2747L49.1928 38.296C49.1815 38.7407 48.8174 39.0978 48.37 39.0978C47.9225 39.0978 47.5585 38.7407 47.5472 38.296L47.5469 38.2747V31.4599H49.193V38.2747Z" fill="url(#paint11_linear_2124_34455)"/>
<path d="M57.2792 50.4834C57.2792 48.0697 55.32 46.1101 52.8997 46.1101C50.4794 46.1101 48.5203 48.0697 48.5203 50.4834V53.701C48.5203 55.1201 48.0618 56.4985 47.2174 57.6327H58.5468C57.7249 56.5077 57.2792 55.148 57.2792 53.7487V50.4834ZM58.9253 53.7487L58.9256 53.802C58.9376 54.9197 59.3286 56.0009 60.0353 56.8682L61.9996 59.2788H43.7609L45.7642 56.8204C46.4709 55.9531 46.8618 54.8719 46.8739 53.7542L46.8742 53.701V50.4834C46.8742 47.159 49.5719 44.464 52.8997 44.464L52.9776 44.4645C56.2695 44.5062 58.9253 47.185 58.9253 50.4834V53.7487Z" fill="url(#paint12_linear_2124_34455)"/>
<path d="M55.1848 60.8262C55.1848 62.0989 54.153 63.1307 52.8803 63.1307C51.6075 63.1307 50.5757 62.0989 50.5757 60.8262H55.1848Z" fill="url(#paint13_linear_2124_34455)"/>
<path d="M50.5871 48.2666C50.9933 47.9704 51.4709 47.8901 51.7942 47.9042L51.7643 48.5922C51.56 48.5833 51.2458 48.6384 50.9924 48.8232C50.7572 48.9946 50.5402 49.3013 50.5402 49.878H49.8519C49.8519 49.0957 50.1626 48.576 50.5871 48.2666Z" fill="url(#paint14_linear_2124_34455)"/>
<path d="M61.6379 31.1307V31.7891L52.7161 31.7891V31.1307L61.6379 31.1307Z" fill="url(#paint15_linear_2124_34455)"/>
<path d="M61.6379 27.5093V28.1677L52.7161 28.1677V27.5093L61.6379 27.5093Z" fill="url(#paint16_linear_2124_34455)"/>
<path d="M61.6379 37.9784V38.6368L52.7161 38.6368V37.9784L61.6379 37.9784Z" fill="url(#paint17_linear_2124_34455)"/>
<path d="M61.6379 24.25V24.9084L52.7161 24.9084V24.25L61.6379 24.25Z" fill="url(#paint18_linear_2124_34455)"/>
<path d="M41.0288 59.4105H30L30 24.25L30.6584 24.25L30.6585 58.7521H41.0288V59.4105Z" fill="url(#paint19_linear_2124_34455)"/>
<defs>
<filter id="filter0_f_2124_34455" x="-4" y="-4" width="98" height="98" filterUnits="userSpaceOnUse" color-interpolation-filters="sRGB">
<feFlood flood-opacity="0" result="BackgroundImageFix"/>
<feBlend mode="normal" in="SourceGraphic" in2="BackgroundImageFix" result="shape"/>
<feGaussianBlur stdDeviation="12" result="effect1_foregroundBlur_2124_34455"/>
</filter>
<linearGradient id="paint0_linear_2124_34455" x1="44.8102" y1="35.9508" x2="46.596" y2="63.165" gradientUnits="userSpaceOnUse">
<stop stop-color="#F2E6CC"/>
<stop offset="1" stop-color="#C4B18A"/>
</linearGradient>
<linearGradient id="paint1_linear_2124_34455" x1="44.8102" y1="35.9508" x2="46.596" y2="63.165" gradientUnits="userSpaceOnUse">
<stop stop-color="#F2E6CC"/>
<stop offset="1" stop-color="#C4B18A"/>
</linearGradient>
<linearGradient id="paint2_linear_2124_34455" x1="44.8102" y1="35.9508" x2="46.596" y2="63.165" gradientUnits="userSpaceOnUse">
<stop stop-color="#F2E6CC"/>
<stop offset="1" stop-color="#C4B18A"/>
</linearGradient>
<linearGradient id="paint3_linear_2124_34455" x1="44.8102" y1="35.9508" x2="46.596" y2="63.165" gradientUnits="userSpaceOnUse">
<stop stop-color="#F2E6CC"/>
<stop offset="1" stop-color="#C4B18A"/>
</linearGradient>
<linearGradient id="paint4_linear_2124_34455" x1="44.8102" y1="35.9508" x2="46.596" y2="63.165" gradientUnits="userSpaceOnUse">
<stop stop-color="#F2E6CC"/>
<stop offset="1" stop-color="#C4B18A"/>
</linearGradient>
<linearGradient id="paint5_linear_2124_34455" x1="44.8102" y1="35.9508" x2="46.596" y2="63.165" gradientUnits="userSpaceOnUse">
<stop stop-color="#F2E6CC"/>
<stop offset="1" stop-color="#C4B18A"/>
</linearGradient>
<linearGradient id="paint6_linear_2124_34455" x1="44.8102" y1="35.9508" x2="46.596" y2="63.165" gradientUnits="userSpaceOnUse">
<stop stop-color="#F2E6CC"/>
<stop offset="1" stop-color="#C4B18A"/>
</linearGradient>
<linearGradient id="paint7_linear_2124_34455" x1="44.8102" y1="35.9508" x2="46.596" y2="63.165" gradientUnits="userSpaceOnUse">
<stop stop-color="#F2E6CC"/>
<stop offset="1" stop-color="#C4B18A"/>
</linearGradient>
<linearGradient id="paint8_linear_2124_34455" x1="44.8102" y1="35.9508" x2="46.596" y2="63.165" gradientUnits="userSpaceOnUse">
<stop stop-color="#F2E6CC"/>
<stop offset="1" stop-color="#C4B18A"/>
</linearGradient>
<linearGradient id="paint9_linear_2124_34455" x1="44.8102" y1="35.9508" x2="46.596" y2="63.165" gradientUnits="userSpaceOnUse">
<stop stop-color="#F2E6CC"/>
<stop offset="1" stop-color="#C4B18A"/>
</linearGradient>
<linearGradient id="paint10_linear_2124_34455" x1="44.8102" y1="35.9508" x2="46.596" y2="63.165" gradientUnits="userSpaceOnUse">
<stop stop-color="#F2E6CC"/>
<stop offset="1" stop-color="#C4B18A"/>
</linearGradient>
<linearGradient id="paint11_linear_2124_34455" x1="44.8102" y1="35.9508" x2="46.596" y2="63.165" gradientUnits="userSpaceOnUse">
<stop stop-color="#F2E6CC"/>
<stop offset="1" stop-color="#C4B18A"/>
</linearGradient>
<linearGradient id="paint12_linear_2124_34455" x1="44.8102" y1="35.9508" x2="46.596" y2="63.165" gradientUnits="userSpaceOnUse">
<stop stop-color="#F2E6CC"/>
<stop offset="1" stop-color="#C4B18A"/>
</linearGradient>
<linearGradient id="paint13_linear_2124_34455" x1="44.8102" y1="35.9508" x2="46.596" y2="63.165" gradientUnits="userSpaceOnUse">
<stop stop-color="#F2E6CC"/>
<stop offset="1" stop-color="#C4B18A"/>
</linearGradient>
<linearGradient id="paint14_linear_2124_34455" x1="48.6578" y1="55.2292" x2="37.7115" y2="31.4792" gradientUnits="userSpaceOnUse">
<stop offset="0.413462" stop-color="#5C6A96"/>
<stop offset="0.956731" stop-color="#93A3D8"/>
</linearGradient>
<linearGradient id="paint15_linear_2124_34455" x1="48.6578" y1="55.2292" x2="37.7115" y2="31.4792" gradientUnits="userSpaceOnUse">
<stop offset="0.413462" stop-color="#5C6A96"/>
<stop offset="0.956731" stop-color="#93A3D8"/>
</linearGradient>
<linearGradient id="paint16_linear_2124_34455" x1="48.6578" y1="55.2292" x2="37.7115" y2="31.4792" gradientUnits="userSpaceOnUse">
<stop offset="0.413462" stop-color="#5C6A96"/>
<stop offset="0.956731" stop-color="#93A3D8"/>
</linearGradient>
<linearGradient id="paint17_linear_2124_34455" x1="48.6578" y1="55.2292" x2="37.7115" y2="31.4792" gradientUnits="userSpaceOnUse">
<stop offset="0.413462" stop-color="#5C6A96"/>
<stop offset="0.956731" stop-color="#93A3D8"/>
</linearGradient>
<linearGradient id="paint18_linear_2124_34455" x1="48.6578" y1="55.2292" x2="37.7115" y2="31.4792" gradientUnits="userSpaceOnUse">
<stop offset="0.413462" stop-color="#5C6A96"/>
<stop offset="0.956731" stop-color="#93A3D8"/>
</linearGradient>
<linearGradient id="paint19_linear_2124_34455" x1="48.6578" y1="55.2292" x2="37.7115" y2="31.4792" gradientUnits="userSpaceOnUse">
<stop offset="0.413462" stop-color="#5C6A96"/>
<stop offset="0.956731" stop-color="#93A3D8"/>
</linearGradient>
</defs>
</svg>
