<svg xmlns="http://www.w3.org/2000/svg" viewBox="0 0 104 50">
  <path fill="#fff" d="M21.65 30.91H16.6l-2.89-8.25h6.5l-.72-3.67 5.78 1.83-.72-8.25 7.22 3.67 5.78 8.25 4.33-1.83 5.06-.92-2.17 6.42h.72l7.22-1.83-5.78 8.25-3.61-1.83h-1.44l-10.11-.92-2.89 2.75-1.44-2.75-5.78-.92Z"/>
  <path fill="#1844b5" d="M41.14 33.37H10.07c-.22 0-.43-.03-.64-.07-.35-.06-.59-.36-.59-.74 0-.92-.01-1.84 0-2.75 0-.42.31-.68.75-.69h1.29c.2 0 .29-.05.3-.28.07-.98.05-1.97.05-2.95 0-.41.05-.45.45-.53.36-.08.72-.04 1.08-.05.42 0 .83-.09 1.21-.28.22-.12.47-.19.69-.31.21-.1.29-.24.2-.5-.42-1.2-.87-2.4-1.31-3.59-.23-.62-.46-1.24-.74-1.84-.07-.14-.09-.3-.07-.45.04-.33.31-.41.57-.46 1.16-.2 2.32-.12 3.48.03.42.05.84.1 1.25.19.09-.16.01-.28-.02-.4-.17-.64-.21-1.31-.38-1.95-.12-.48.11-.74.6-.76.83-.03 1.65.11 2.47.2.89.1 1.76.31 2.61.6.08.03.17.04.26.06.08-.12.03-.24 0-.34-.38-1.57-.77-3.13-1.16-4.7-.02-.09-.05-.19-.06-.28-.04-.51.22-.74.71-.61 1.81.47 3.61 1 5.27 1.87 1.36.71 2.61 1.58 3.73 2.64 1.46 1.37 2.67 2.94 3.72 4.63.11.18.21.15.36.07 1.35-.7 2.78-1.22 4.27-1.54 1.53-.33 3.08-.46 4.64-.32.24.02.49-.02.72.06.39.13.52.4.36.78-.15.38-.38.72-.59 1.08-.57.97-.93 2.04-1.39 3.06-.03.08-.12.14-.09.25.22.03.43-.07.6-.17.5-.29 1.06-.39 1.59-.58.89-.32 1.82-.49 2.74-.68.69-.13 1.38-.21 2.08-.23.37-.01.74-.04 1.11-.05.17 0 .33.03.48.11.35.17.43.49.2.79-.41.55-.93 1-1.42 1.47-.34.33-.67.66-1.01.97-.15.14-.08.22.03.33.55.54 1.08 1.1 1.59 1.68.33.38.63.79.92 1.21.06.1.09.22.08.33v1.08c0 .23.08.37.35.34.19-.02.39 0 .58 0 .39.02.65.28.65.67v2.75c0 .42-.23.69-.65.75-.48.07-.96.06-1.45.05-.49-.01-.99.03-1.49.03h-9.96Zm-11.19-9.12c.21-.19.43-.37.63-.57 1.26-1.19 2.54-2.36 3.93-3.41.13-.1.25-.21.37-.31-2.6-4.23-6.03-7.33-10.99-8.47 0 .07 0 .1.01.14.41 1.41.7 2.85 1.08 4.27.38 1.42.68 2.87 1.02 4.31.44 1.88.89 3.76 1.33 5.65.12.5.14.51.56.18.7-.56 1.32-1.21 2.07-1.78Zm20.18 6.08H10.1v1.09c0 .77-.11.69.68.69h41.71c.18 0 .35-.01.53 0 .26.02.38-.07.36-.35-.02-.37-.01-.74 0-1.11 0-.24-.07-.32-.32-.32-.96.01-1.91 0-2.93 0Zm-7.61-3.22c-.64-.14-1.3-.03-1.94-.03-.56 0-1.13 0-1.69.03-.24.01-.49-.05-.7-.16-.47-.25-.97-.43-1.51-.41-1.46.05-2.92.11-4.38.11-.84 0-1.68-.05-2.51-.1-.34-.02-.64.01-.9.24-.43.38-.88.74-1.34 1.08-.48.34-1 .19-1.05-.38-.06-.59-.37-.83-.9-.9-.09-.01-.17-.03-.26-.06-.85-.23-1.72-.31-2.58-.46-.4-.07-.81-.09-1.22-.13-.14-.01-.27.01-.23.2.19.82.1 1.65.1 2.47 0 .5-.02.5.49.5h29.05c.93 0 .93 0 .9-.93 0-.21-.09-.29-.28-.25-.7.14-1.42.12-2.12.15-1.1.05-2.2.09-3.3.08-.56 0-1.07-.06-1.54-.4-.25-.18-.54-.31-.82-.44-.38-.18-.78-.31-1.26-.23Zm-2.97-7.97c-.36.12-.72.24-1.08.37-.51.19-1.02.39-1.49.67-.31.18-.31.22-.11.51.29.42.59.85.87 1.28.76 1.17 1.51 2.34 2.26 3.51.17.26.31.52.7.47.29-.04.59.03.93-.05-.14-.32-.27-.59-.37-.87-.27-.73-.43-1.49-.65-2.24-.16-.54.02-.75.59-.77.56-.02 1.1.08 1.67.23.56-1.25.87-2.6 1.64-3.71-.09-.1-.16-.11-.23-.11-.57-.03-1.15 0-1.72.07-1 .12-1.99.36-3.01.62Zm-22.64 6.45c-.83-.05-1.64 0-2.36.49-.36.25-.77.31-1.18.37-.22.03-.45.02-.67.01-.17 0-.26.05-.25.24.05.77-.09 1.55-.02 2.32.19.09.37.1.55.1h6.9c.14 0 .21-.07.23-.21.14-.92.07-1.84-.04-2.76-.06-.44-.11-.48-.57-.51-.85-.06-1.69-.11-2.6-.06Zm2.72-6.3.91 4.9h.08l3.29-6.78c-1.52-.78-3.14-1.02-4.86-1.07.25 1 .4 1.95.59 2.95Zm27.89 3.44c-.94.27-1.9.52-2.78.97-.18.09-.38.11-.57.06-.64-.14-1.29-.26-1.94-.35-.08-.01-.15-.06-.22.04.18.66.4 1.32.64 1.98.12.33.32.56.72.57.43 0 .84.11 1.21.37.25.17.52.31.77.48.25.18.46.15.68-.06.2-.2.42-.38.62-.58.82-.85 1.63-1.7 2.45-2.55.48-.5.97-.98 1.52-1.46h-.33c-.92.08-1.81.32-2.76.54Zm-14.84.73c-.7.63-1.38 1.27-2.04 1.94.37.03.66.08.95.08.8 0 1.59.03 2.39.01.8-.01 1.59-.06 2.39-.15.71-.09 1.35.06 1.98.32.07.03.14.07.26 0-.98-1.58-2.01-3.11-3.06-4.68-.99.79-1.94 1.62-2.87 2.48Zm-7.38-.73c-.32-1.13-.53-2.28-.8-3.49l-2.61 5.46c1.37.09 2.67.34 3.99.55l-.58-2.52Zm-6.94-3.23c-.06-.08-.16-.1-.25-.13-1.14-.3-2.3-.38-3.47-.35-.1 0-.2 0-.29.13.58 1.33 1.03 2.73 1.47 4.13.15-.03.19-.13.24-.2.58-.79 1.17-1.59 1.9-2.25.41-.38.66-.74.4-1.33Zm-.82 3.82c-.25.33-.54.64-.75 1.04.85.12 1.66 0 2.5.08-.08-.88-.35-1.68-.48-2.57-.5.47-.87.94-1.27 1.45Zm31.78 1.97-1.39 1.55c1.04 0 1.99-.1 2.95-.1-.43-.53-.88-1.01-1.33-1.49-.07-.08-.14-.04-.23.05Zm-6.06 11.43c-.83.27-1.72.25-2.54-.06-.53-.19-1.03-.47-1.58-.62-.65-.17-1.23-.03-1.77.27-1.33.75-2.65.82-4.01.13-.41-.21-.84-.37-1.29-.46-.5-.1-.96.06-1.38.29-1.43.82-2.86.85-4.31.06-.84-.46-1.69-.47-2.54-.04-.69.35-1.41.6-2.2.61-.71 0-1.42-.17-2.04-.52-1.03-.57-2.03-.55-3.04.07-.52.32-1.09.52-1.73.4a.588.588 0 0 1-.49-.57c0-.24.22-.52.49-.53.52-.02.98-.21 1.42-.48.51-.32 1.09-.44 1.66-.5.66-.06 1.3.1 1.9.38.47.22.9.49 1.43.56.33.05.64 0 .95-.06.39-.09.75-.26 1.11-.44.86-.42 1.76-.51 2.7-.31.44.09.83.28 1.21.49.97.55 1.91.39 2.83-.12 1.17-.64 2.34-.62 3.53-.06.47.22.9.49 1.44.54.62.05 1.14-.19 1.67-.46 1.25-.65 2.51-.67 3.78-.05.3.15.59.29.91.4.85.29 1.58-.08 2.32-.42.74-.34 1.49-.58 2.33-.39.61.13 1.19.37 1.72.7.17.1.35.16.55.17h.26c.38.03.63.26.65.59 0 .3-.28.58-.64.6-.5.03-.97-.08-1.41-.3-.36-.18-.7-.37-1.08-.51-.66-.24-1.25-.06-1.84.19-.33.14-.65.31-1.01.45Zm-21.75 3.4c-.64 0-1.19-.22-1.74-.45-.53-.23-1.04-.56-1.66-.5-.21.02-.43.05-.64.06-.38.02-.66-.18-.69-.48-.04-.35.18-.58.57-.67 1.01-.24 1.93-.02 2.82.45.96.51 1.89.51 2.86-.03 1.16-.64 2.39-.72 3.62-.17.37.16.72.35 1.1.47.64.21 1.26.13 1.84-.17.63-.33 1.26-.62 1.98-.64.6-.02 1.18.08 1.74.32.37.16.71.37 1.09.49.77.25 1.48.06 2.17-.27.72-.35 1.46-.6 2.27-.55.74.04 1.39.35 2.04.66.79.39 1.57.36 2.33-.03.65-.33 1.32-.58 2.05-.63.38-.03.74.04 1.08.19.23.09.32.3.31.55-.01.24-.15.39-.38.46-.16.05-.33.07-.49.04-.69-.15-1.28.09-1.87.4-1.24.64-2.49.67-3.75.04-.52-.26-1.05-.49-1.67-.48-.53.01-.98.24-1.43.46-1.26.62-2.51.66-3.78.02-.41-.21-.82-.44-1.31-.48-.62-.04-1.15.15-1.67.44-1.2.66-2.41.65-3.64.08-.47-.22-.93-.48-1.48-.52-.62-.04-1.16.17-1.7.44-.61.31-1.26.53-1.98.5Z"/>
  <path fill="#0c2780" d="M57.71 33.57h8v3h-8v-3Zm19.46 0h18v3h-18v-3Z"/>
  <path fill="#d93e3e" d="M65.71 33.57h8v3h-8v-3Z"/>
  <path fill="#fff" d="M73.71 33.57h4v3h-4v-3Z"/>
  <path fill="#1844b5" d="m65.76 27.07-.9-2.85h-3.97l-.88 2.85h-2.14l3.74-11.17h2.62l3.71 11.17h-2.19Zm-2.85-9.25h-.08l-1.42 4.59h2.94l-1.44-4.59Zm10.16 9.44c-.96 0-1.78-.17-2.45-.51a5.71 5.71 0 0 1-1.71-1.34l1.42-1.38c.38.45.81.79 1.28 1.02.48.24 1.01.35 1.58.35.65 0 1.14-.14 1.47-.42.33-.29.5-.67.5-1.15 0-.37-.11-.68-.32-.91s-.61-.41-1.2-.51l-1.06-.16c-2.23-.35-3.34-1.43-3.34-3.25 0-.5.09-.95.27-1.36.19-.41.46-.75.82-1.04.37-.3.8-.52 1.26-.66a5.42 5.42 0 0 1 1.7-.24c.84 0 1.58.14 2.21.42.63.28 1.17.69 1.62 1.23l-1.44 1.36c-.28-.34-.62-.62-1.01-.83-.39-.21-.89-.32-1.49-.32s-1.07.12-1.38.35c-.3.22-.45.54-.45.96s.12.74.37.94c.25.2.64.35 1.18.45l1.04.19c1.13.2 1.96.57 2.5 1.09.54.51.82 1.23.82 2.16 0 .53-.1 1.02-.29 1.46-.18.43-.45.8-.82 1.12-.35.31-.79.55-1.31.72-.51.17-1.1.26-1.78.26Zm5.85-.19v-1.7h1.47v-7.78h-1.47v-1.7h5.07v1.7H82.5v7.78h1.49v1.7h-5.07Zm11.56.19c-.74 0-1.4-.12-2-.35a4.1 4.1 0 0 1-1.52-1.09c-.42-.48-.74-1.07-.96-1.78-.22-.72-.34-1.54-.34-2.48s.11-1.77.34-2.5c.22-.74.54-1.35.96-1.84.43-.5.93-.88 1.52-1.14.6-.26 1.26-.38 2-.38 1 0 1.83.21 2.5.64s1.19 1.07 1.58 1.94l-1.81.96c-.16-.5-.42-.9-.78-1.2-.36-.31-.86-.46-1.49-.46-.79 0-1.42.27-1.89.8-.46.53-.69 1.28-.69 2.24v1.76c0 .97.23 1.72.69 2.24.47.51 1.1.77 1.89.77.63 0 1.14-.17 1.54-.51.4-.34.7-.76.88-1.26l1.71 1.01c-.4.83-.94 1.48-1.62 1.95-.67.46-1.51.69-2.51.69Z"/>
</svg>
