<svg viewBox="0 0 104 50" fill="none" xmlns="http://www.w3.org/2000/svg">
<path d="M19.2734 34.9544L21.4172 13.7925H25.6874L27.8398 34.9544" fill="white"/>
<path d="M19.2734 34.9544L21.4172 13.7925H25.6874L27.8398 34.9544" stroke="#1844B5" stroke-width="1.128" stroke-miterlimit="10"/>
<path d="M16.9199 36.66L17.8599 35.25H38.5399L39.4799 36.66L39.0099 37.13H36.6599L31.0199 41.36H23.0299L16.9199 36.66Z" fill="white"/>
<path d="M23.2974 41.3513L17.2536 37.1241C17.1158 37.0293 17.0555 36.8486 17.1072 36.685L17.641 35.0751" stroke="#1844B5" stroke-width="1.128" stroke-miterlimit="10"/>
<path d="M38.3525 35.0751H8.84797C8.47776 35.0751 8.15921 35.3075 8.03007 35.6519L7.81483 36.2631C7.6943 36.5989 7.94398 36.9605 8.30557 36.9605H8.64134C9.244 36.9605 9.82948 37.1758 10.2858 37.5804L15.4084 41.1189C15.6322 41.2738 15.9077 41.3599 16.1832 41.3599H30.3888C30.6642 41.3599 30.9397 41.2738 31.1636 41.1189L36.2862 37.5804C36.7425 37.1843 37.328 36.9605 37.9306 36.9605H38.8518C39.2048 36.9605 39.4544 36.6161 39.3511 36.2803L39.1617 35.6777C39.0498 35.3161 38.7141 35.0751 38.3353 35.0751H38.3525Z" stroke="#1844B5" stroke-width="1.128" stroke-miterlimit="10"/>
<path d="M25.2339 9.85811C25.1822 8.21375 24.7087 6.60378 23.8564 5.20045L23.5809 4.73554C23.5551 4.68388 23.4861 4.69249 23.4517 4.73554L23.0643 5.44151C22.3755 6.69849 21.9709 8.0846 21.8848 9.51379" fill="white"/>
<path d="M25.2339 9.85811C25.1822 8.21375 24.7087 6.60378 23.8564 5.20045L23.5809 4.73554C23.5551 4.68388 23.4861 4.69249 23.4517 4.73554L23.0643 5.44151C22.3755 6.69849 21.9709 8.0846 21.8848 9.51379" stroke="#1844B5" stroke-width="1.128" stroke-miterlimit="10"/>
<path d="M8.86426 36.9608H38.98" stroke="#1844B5" stroke-width="1.128" stroke-miterlimit="10"/>
<path d="M19.9121 9.90112H27.2043" stroke="#1844B5" stroke-width="1.128" stroke-linecap="round" stroke-linejoin="round"/>
<path d="M26.3784 13.7067H20.7393C20.5671 13.7067 20.4207 13.5947 20.3777 13.4312L19.9386 11.8642C19.8697 11.6232 20.0506 11.3821 20.3002 11.3821H26.809C27.0586 11.3821 27.2394 11.6232 27.1705 11.8642L26.7314 13.4312C26.6884 13.5947 26.5334 13.7067 26.3699 13.7067H26.3784Z" fill="white" stroke="#1844B5" stroke-width="1.128" stroke-miterlimit="10"/>
<rect x="71.3369" y="31" width="28.3353" height="3" fill="white"/>
<rect x="43" y="31" width="28.3353" height="3" fill="#D93E3E"/>
<path d="M42.8306 26V16.228H47.3526C48.9626 16.228 49.9426 17.222 49.9426 18.734C49.9426 20.218 49.0886 20.778 48.1926 20.834V20.918C49.0466 20.932 50.3066 21.534 50.3066 23.2C50.3066 24.768 49.2286 26 47.7866 26H42.8306ZM44.6786 21.814V24.432H47.2546C47.9546 24.432 48.3746 24.054 48.3746 23.368V22.892C48.3746 22.206 47.9546 21.814 47.2546 21.814H44.6786ZM44.6786 17.796V20.302H46.9606C47.6326 20.302 48.0246 19.91 48.0246 19.266V18.832C48.0246 18.174 47.6326 17.796 46.9606 17.796H44.6786ZM53.8078 26.168C52.3238 26.168 51.4838 25.314 51.4838 24.012C51.4838 22.514 52.6178 21.772 54.6058 21.772H55.8518V21.24C55.8518 20.428 55.4458 19.952 54.4938 19.952C53.6538 19.952 53.1778 20.372 52.8278 20.876L51.7638 19.924C52.2958 19.084 53.1498 18.524 54.6198 18.524C56.5938 18.524 57.6438 19.462 57.6438 21.128V24.572H58.3718V26H57.3778C56.6078 26 56.1318 25.496 56.0198 24.74H55.9358C55.6978 25.678 54.8998 26.168 53.8078 26.168ZM54.4098 24.866C55.2078 24.866 55.8518 24.502 55.8518 23.816V22.85H54.7038C53.7658 22.85 53.3038 23.172 53.3038 23.746V23.984C53.3038 24.572 53.7098 24.866 54.4098 24.866ZM59.8221 28.8V18.692H61.6141V19.896H61.6701C61.9361 19.056 62.7201 18.524 63.6861 18.524C65.5341 18.524 66.5561 19.896 66.5561 22.332C66.5561 24.782 65.5341 26.168 63.6861 26.168C62.7201 26.168 61.9501 25.608 61.6701 24.782H61.6141V28.8H59.8221ZM63.1121 24.684C64.0361 24.684 64.6801 24.012 64.6801 22.976V21.716C64.6801 20.68 64.0361 19.994 63.1121 19.994C62.2581 19.994 61.6141 20.456 61.6141 21.17V23.494C61.6141 24.25 62.2581 24.684 63.1121 24.684ZM68.2167 28.8V18.692H70.0087V19.896H70.0647C70.3307 19.056 71.1147 18.524 72.0807 18.524C73.9287 18.524 74.9507 19.896 74.9507 22.332C74.9507 24.782 73.9287 26.168 72.0807 26.168C71.1147 26.168 70.3447 25.608 70.0647 24.782H70.0087V28.8H68.2167ZM71.5067 24.684C72.4307 24.684 73.0747 24.012 73.0747 22.976V21.716C73.0747 20.68 72.4307 19.994 71.5067 19.994C70.6527 19.994 70.0087 20.456 70.0087 21.17V23.494C70.0087 24.25 70.6527 24.684 71.5067 24.684ZM79.5652 26.168C77.4092 26.168 76.1212 24.67 76.1212 22.332C76.1212 20.022 77.3672 18.524 79.5092 18.524C81.7912 18.524 82.8412 20.204 82.8412 22.206V22.794H77.9832V22.976C77.9832 24.026 78.5852 24.74 79.7612 24.74C80.6432 24.74 81.1752 24.32 81.6232 23.746L82.5892 24.824C81.9872 25.65 80.9232 26.168 79.5652 26.168ZM79.5372 19.868C78.5992 19.868 77.9832 20.568 77.9832 21.576V21.688H80.9792V21.562C80.9792 20.554 80.4612 19.868 79.5372 19.868ZM84.4178 26V15.64H86.2098V19.896H86.2658C86.5318 19.056 87.3158 18.524 88.2818 18.524C90.1298 18.524 91.1518 19.896 91.1518 22.332C91.1518 24.782 90.1298 26.168 88.2818 26.168C87.3158 26.168 86.5458 25.608 86.2658 24.782H86.2098V26H84.4178ZM87.7078 24.684C88.6318 24.684 89.2758 24.012 89.2758 22.976V21.716C89.2758 20.68 88.6318 19.994 87.7078 19.994C86.8538 19.994 86.2098 20.456 86.2098 21.17V23.494C86.2098 24.25 86.8538 24.684 87.7078 24.684ZM95.0123 26C93.7803 26 93.1223 25.328 93.1223 24.138V20.12H92.0443V18.692H92.6043C93.1363 18.692 93.3043 18.44 93.3043 17.936V16.69H94.9143V18.692H96.4123V20.12H94.9143V24.572H96.3003V26H95.0123ZM98.8627 17.628C98.1207 17.628 97.8127 17.25 97.8127 16.732V16.452C97.8127 15.934 98.1207 15.556 98.8627 15.556C99.5907 15.556 99.9127 15.934 99.9127 16.452V16.732C99.9127 17.25 99.5907 17.628 98.8627 17.628ZM97.9667 26V18.692H99.7587V26H97.9667Z" fill="#1844B5"/>
</svg>
