<svg xmlns="http://www.w3.org/2000/svg" viewBox="0 0 104 50">
  <path fill="#fff" d="m31.14 20.32 1.42-.98.39-.29-2.15-1.76c-.94.64-2.68 1.89-2.05 1.85.78-.05 1.56 1.47.88 1.51-.55.04-1.2-.73-1.47-1.12l-.88.24c.23 1.14.76 3.55 1.07 4.05.31.51 1.47.57 2 .54l.58-1.86.54-.19-.34-2Zm-1.81 15.82c1.21-.82 4.12-6.3 5.42-8.94v-.64l-1.37-.05c-3.09 2.67-9.53 8.3-10.55 9.47s.1 2.96.78 3.71c1.4-.85 4.5-2.74 5.71-3.56Zm-7.37-7.66-.54-7.67-1.02.34c-.15.08-.47-.08-.59-1.37-.15-1.61.68-1.42 1.51-2.3.66-.7.08-1.95-.29-2.49l.93-.19.15-1.61h.88l.25-1.95c-.57-.11-1.64-.62-1.37-1.76.27-1.13-.41-2.46-.78-2.98-.49.5-1.52 1.54-1.76 1.66-.23.12-.33 1.87-.34 2.73l-1.22.24-.29 1.81 1.32.2.34 1.66c-.33.23-1.01.79-1.12 1.22-.12.43.86 3.56 1.37 5.08 0 .91.02 3.01.1 4.1.08 1.09 1.69 2.64 2.49 3.27Zm9.38-12.6.98-1.95c-.26-.16-.96-.5-1.66-.54-.7-.04-2.77.77-3.71 1.17-.21.31-.7 1.02-.98 1.37-.27.35-.21 2.26-.15 3.17.91-.82 1.81-1.67 2.68-2.54 1.02-1.02 2.31-.88 2.83-.68Zm-1.57 11.08c-.27-.04-.96-.6-1.27-.88l-2.27-.51-2.64-.56-2.15 5.66 3.96-1.68.49 3.81 3.25-3.2c.33-.86.91-2.6.64-2.64Zm10.5 3.62-3.81 5.08.19 3.81 2.44.59 1.37-1.47 2.25-3.91 1.66-2.25-4.1-1.86Zm-4.2 1.56-4.2 11.91-.98-.2c.42-2.41 1.37-7.36 1.76-7.91.39-.55 2.51-5.89 3.51-8.5l-.1 4.69Z"/>
  <path fill="#1844b5" d="M22.94 44.17h-2.91c-.31 0-.57-.25-.58-.56 0-.24.2-.44.49-.44h1.81c.19 0 .28-.04.31-.26.11-.78.23-1.56.47-2.31.09-.26.19-.52.32-.77.1-.19.08-.35-.05-.52-.28-.37-.57-.74-.66-1.21-.26-1.35.16-2.45 1.26-3.28.11-.08.22-.16.33-.25.21-.16.24-.33.04-.53-.31-.33-.64-.64-.96-.97-.61-.64-1.27-1.24-1.86-1.9-.07-.08-.15-.09-.24-.08-.75.02-1.26-.36-1.6-1-.24-.46-.32-.96-.36-1.48-.08-.92.18-1.77.45-2.62.06-.17.06-.35.02-.53-.22-.92-.31-1.85-.37-2.79-.05-.8-.03-1.61-.24-2.39-.16-.62-.41-1.22-.6-1.83-.18-.56-.31-1.13-.31-1.72-.01-.75.31-1.37.88-1.85.13-.11.18-.19.1-.36-.09-.21-.14-.43-.19-.65-.03-.13-.1-.19-.24-.19-.18 0-.36-.02-.53-.07-.47-.11-.59-.24-.61-.71-.03-.49-.03-.98-.06-1.46 0-.18.02-.36.06-.53.07-.33.22-.45.56-.47h.67c.08-.11 0-.24-.03-.36-.19-.78.1-1.4.63-1.95.23-.24.48-.47.74-.68.4-.33.69-.72.8-1.25.1-.45.27-.54.7-.34.62.29.97.84 1.21 1.44.35.86.38 1.75.15 2.65-.04.15-.07.31-.11.49.15.01.28.01.42.03.47.06.6.16.67.61.11.66.05 1.33-.01 1.99-.04.42-.4.64-.86.6-.38-.03-.38-.03-.38.34 0 .45.02.89-.08 1.33-.04.18.1.34.13.51.09.47.03.92-.08 1.37-.17.69-.28 1.4-.33 2.11-.03.44.06.81.23 1.19.48 1.12.83 2.29 1.31 3.41.07.16.16.24.33.27.35.07.69.17 1.03.28.17.05.25 0 .26-.17 0-.61.16-1.19.32-1.77.06-.2.04-.41.01-.61-.09-.66.02-1.32.31-1.92.04-.09.06-.15 0-.24-.28-.41-.43-.87-.48-1.36 0-.12-.04-.24-.11-.34-.08-.11-.06-.23-.02-.35.07-.22.03-.34-.19-.46-.64-.36-1.28-.72-1.81-1.24-.16-.15-.21-.32-.12-.53.08-.2.23-.32.44-.34.2-.02.41-.02.61 0 .55.08 1.1.17 1.66.27.2.04.3-.03.45-.18.37-.4.34-.74.06-1.19-.39-.62-.64-1.31-.91-1.99-.06-.13-.09-.26-.1-.4 0-.22.06-.42.26-.51.22-.1.46-.12.67.04.49.37.92.81 1.34 1.24.28.29.59.53.82.86.06.09.13.07.21.04.32-.12.64-.25.98-.3.19-.03.19-.21.2-.35.07-.55.17-1.1.3-1.65.11-.47.22-.93.35-1.39.06-.23.15-.46.43-.5.33-.05.52.06.61.38.15.52.27 1.05.4 1.58.15.56.24 1.14.34 1.72.03.15.09.24.24.27.3.05.58.14.87.24.13.05.21.02.31-.09.63-.74 1.36-1.37 2.08-2.03.18-.17.59-.17.78-.03.21.15.29.47.17.75-.35.84-.68 1.69-1.17 2.46-.12.18-.13.36.05.52.1.09.17.2.23.31.09.22.24.23.45.2.66-.12 1.32-.25 1.99-.3.2-.02.41-.01.57.15.27.27.25.62-.06.86-.56.45-1.18.81-1.8 1.17-.18.1-.26.22-.26.44 0 .69-.07 1.38-.44 1.99-.09.15-.09.27 0 .43.21.36.28.77.22 1.16-.14.87.1 1.69.26 2.52.08.39.13.78.12 1.18-.01.51.06 1.02 0 1.53-.01.1-.01.2.11.24 1 .38 1.45 1.23 1.81 2.15.24.61.38 1.24.55 1.88.17-.08.24-.24.33-.37.26-.39.56-.72 1.09-.71.22 0 .41.11.59.21.71.37 1.42.75 2.13 1.13.32.17.65.3.98.43.33.13.46.39.39.74-.09.49-.39.87-.63 1.28-.17.29-.37.55-.56.83-.06.08-.1.15-.03.26.45.78.36 1.58 0 2.36-.32.68-.83 1.2-1.45 1.62-.16.1-.24.23-.3.42-.34 1.05-.81 2.03-1.78 2.66-.12.08-.16.17-.14.31.04.32.04.65.01.97-.02.19.05.22.21.22h1.69c.35 0 .49.13.51.48.02.24-.19.49-.45.53-.08.01-.16 0-.24 0-1.56 0-3.11.02-4.66 0-4.62-.09-9.24-.01-13.89-.04Zm4.15-6.88c.86-.8 1.68-1.64 2.46-2.51 1.56-1.74 2.94-3.6 3.86-5.78.25-.59.47-1.19.69-1.8.03-.08.11-.2-.04-.24-.19-.05-.38-.12-.58.06-1.87 1.69-3.7 3.43-5.55 5.14-1.12 1.03-2.21 2.09-3.39 3.05-.43.36-.87.71-1.15 1.21-.45.78-.41 1.5.22 2.14.46.46.47.93.23 1.48-.4.9-.53 1.87-.67 2.83-.03.22.06.28.27.28.9 0 1.79-.01 2.68 0 .24 0 .37-.08.47-.29.43-.88.89-1.76 1.26-2.67.12-.29.32-.39.63-.32.21.05.34.26.35.53 0 .11-.02.21-.07.31-.3.73-.63 1.45-.98 2.15-.04.08-.12.16-.06.29h2.95c.14 0 .16-.08.18-.2.11-.77.23-1.54.35-2.31.19-1.21.37-2.42.57-3.62.08-.51.11-1.03.29-1.53.09-.25.31-.36.56-.29.32.08.46.38.38.79-.1.55-.19 1.1-.28 1.65-.19 1.17-.38 2.35-.57 3.53-.1.65-.2 1.29-.31 1.94.06.02.1.03.14.03 1.44.02 2.88-.05 4.32.04.15 0 .2-.06.19-.21-.04-.53-.07-1.05-.11-1.58-.06-.75-.13-1.5-.18-2.25-.06-.78-.1-1.56-.16-2.33-.06-.83-.12-1.67-.19-2.5-.04-.51-.1-1.02-.13-1.53-.02-.31-.09-.61-.01-.92.06-.26.3-.43.54-.39.3.04.45.21.47.5.03.55.05 1.1.11 1.65.02.21 0 .43.08.65.08-.03.1-.08.14-.12.32-.48.61-.98.96-1.44.29-.39.47-.77.21-1.24v-.07c-.18-.72-.3-1.45-.58-2.13-.41-1-1.14-1.64-2.15-1.98-.17-.06-.27-.04-.33.15-.06.2-.15.39-.22.59-.7 1.97-1.69 3.82-2.94 5.49-1.17 1.57-2.51 2.99-3.94 4.33-.6.57-1.22 1.13-1.94 1.55-.3.17-.62.11-.78-.14-.17-.26-.08-.58.22-.77.55-.34 1.05-.75 1.55-1.2Zm1.27-10.87c-.22.09-.44.15-.68.17-.62.06-1.17-.15-1.68-.47a6.91 6.91 0 0 0-1.9-.8c-.35-.09-.38-.09-.4.27-.03.77-.27 1.48-.52 2.19-.35.96-.8 1.87-1.48 2.67a71 71 0 0 0 2.28 2.32c.11-.69.21-1.34.32-2 .09-.58.19-1.17.29-1.75.03-.16.1-.29.27-.35.48-.17.78.14.72.67-.13.97-.33 1.93-.49 2.9-.07.41-.13.82-.2 1.24.13 0 .18-.08.24-.14 2.41-2.24 4.81-4.49 7.22-6.71.29-.27.5-.49.3-.9-.09-.18 0-.4-.08-.6-1.13.62-2.27.51-3.43.03.03.6-.24.99-.75 1.26Zm4.22-2.53c.68-.63 1.2-1.35 1.31-2.3.05-.46.08-.92.14-1.38.06-.45.06-.46-.36-.6-1.08-.37-2.15-.75-2.83-1.8-.54.75-1.28 1.18-2.1 1.5-.33.13-.65.25-.98.36-.18.06-.22.16-.2.33.07.46.13.91.19 1.37.11.97.45 1.8 1.23 2.46.97.82 2.65.93 3.62.06Zm6.81 8.61c-.75 1.12-1.49 2.25-2.24 3.37-.1.13-.14.29-.13.46.05.71.11 1.42.14 2.14 0 .2.08.32.25.4.41.2.82.4 1.22.62.16.09.24.04.34-.1.23-.33.42-.67.63-1.01.09-.14.11-.3.06-.46-.09-.4-.16-.82-.06-1.21.26-1.05.82-1.92 1.7-2.56.28-.21.64-.28.97-.19.14.03.23 0 .31-.11.29-.45.58-.9.88-1.35.09-.14.03-.2-.1-.26-.34-.12-.66-.27-.98-.43-.55-.3-1.1-.59-1.65-.9-.17-.09-.26-.06-.36.09-.31.49-.64.98-.98 1.5Zm-4.73-16.84c-.49-.58-1.09-.99-1.78-1.29-1.29-.56-2.59-.65-3.92-.09-.95.4-1.62 1.09-2.24 1.86-.33.41-.48.9-.57 1.41-.01.06-.02.12.07.14.03-.03.06-.06.09-.1.37-.43.75-.84 1.24-1.13 1.43-.87 2.97-1.2 4.62-.83 1.2.27 2.28.77 3.08 1.75.13.16.23.08.36 0-.13-.66-.49-1.2-.94-1.72Zm-12.18 8.65-1.14-3.05c-.45.39-.95.49-1.49.36.02.45.04.86.06 1.26.04.89.15 1.78.34 2.64.22.94.79 1.72 1.56 2.32.05.04.1.09.18.07.03-.05.07-.1.09-.16.29-.74.53-1.5.57-2.3.02-.39 0-.76-.19-1.15Zm-3.3-5.57c.08.26.16.53.25.79.13.36.27.72.57.98.16.14.31.17.49 0 .24-.22.32-.5.37-.8.04-.22.1-.45.06-.7-.23.08-.43.18-.64.01-.34-.29-.31-.69.09-.92.31-.18.61-.36.78-.71.18-.38.24-.77.2-1.18a.839.839 0 0 0-.7-.75c-.39-.07-.77-.06-1.15.08-.43.16-.71.47-.78.92-.05.28-.03.57.01.85.08.48.28.93.45 1.42Zm15.64 2.54c-.04 1.03-.28 1.99-.92 2.82-.11.13-.17.3-.19.47-.04.31-.06.61-.06.92 0 .25.11.38.33.43.33.08.66.15.99.23.23.06.46.13.71.2.02-.96-.03-1.88-.23-2.79-.12-.53-.35-1.04-.26-1.6.06-.4.04-.79.04-1.19 0-.18-.04-.34-.27-.38-.12.27-.07.56-.13.88ZM21.5 12.64h.83c.15 0 .21-.06.2-.2v-.73c0-.16-.07-.21-.22-.21h-3.98c-.2 0-.27.06-.27.27 0 .22.03.44.05.65.01.18.09.23.26.23h3.12Zm4.92 8.11c.01.38-.01.76.04 1.14.04.27.06.55-.04.82-.19.56-.29 1.14-.39 1.73-.05.28.01.51.26.68.23.17.48.31.75.39.25.08.51.1.77.03.29-.07.33-.14.26-.42-.05-.21-.09-.43-.13-.64a.432.432 0 0 0-.13-.26c-.69-.67-.84-1.55-.94-2.44-.05-.47-.09-.95-.14-1.42 0-.06 0-.14-.08-.16-.09-.01-.13.05-.16.12-.06.13-.08.28-.07.42ZM19.65 8.91c-.46.44-.35.95-.17 1.46.04.11.12.12.21.12h1.34c.14 0 .2-.05.25-.18.25-.61.41-1.23.37-1.89-.02-.42-.19-.76-.42-1.1-.48.57-1.08 1.01-1.58 1.58ZM42 35.05c-.17-.02-.29.08-.41.19-.39.38-.71.81-.89 1.33-.11.33-.17.66-.08 1 .08.32.17.38.48.28.8-.26 1.3-.84 1.59-1.6.23-.6-.04-1.1-.7-1.2Zm-4.54 7.65c0 .48.02.5.49.5h.17c.67 0 .67 0 .67-.68 0-.58 0-1.17-.15-1.74-.03-.1-.04-.22-.15-.27-.38-.18-.76-.35-1.18-.54.01.92.16 1.8.15 2.72Zm-4.4-24.42c.66.29 1.33.54 2.04.72-.62-1.33-2.82-2.72-3.77-2.38.33.8.92 1.31 1.74 1.66Zm-5.92-.04-.51.77c1.52-.51 3-.93 3.79-2.44-1.27.17-2.44.57-3.28 1.67Zm-6.61 11.83c.13.01.22-.07.28-.16.19-.25.37-.51.56-.76.13-.17.08-.31-.09-.4-.41-.23-.68-.59-.96-.95-.13-.17-.22-.37-.4-.5-.13.26-.07.52-.11.78-.07.43-.03.86.12 1.27.11.3.25.59.6.73Zm.21-16.41h-1.28l.15.74c.28 0 .55-.02.81 0s.52.09.79.14c.08-.1.05-.21.05-.31 0-.51 0-.51-.52-.58Zm19.89 25.32c-.07-.13-.16-.15-.22 0-.19.44-.47.83-.75 1.22-.08.11-.1.23.03.38.49-.43.76-.97.95-1.6ZM30.92 12s0-.11-.08-.14l-.2 1.01c.17.05.31.05.47.02l-.19-.89Zm3.79 1.42c-.11.14-.23.27-.34.41-.08.1-.02.16.06.22s.15.05.2-.05c.12-.26.23-.52.35-.78l-.04-.02c-.07.06-.14.13-.23.22Zm-7.77.29c.04.1.08.19.13.29.03.07.09.13.17.06.07-.05.17-.12.09-.21-.13-.17-.28-.32-.42-.49-.1.14 0 .23.03.35Z"/>
  <path fill="#0c2780" d="M49.8 34.21h12v3h-12v-3Z"/>
  <path fill="#fff" d="M69.8 34.21h4v3h-4v-3Zm-8 0h4v3h-4v-3Z"/>
  <path fill="#d93e3e" d="M73.8 34.21h4v3h-4v-3Zm-8 0h4v3h-4v-3Z"/>
  <path fill="#fff" d="M77.8 34.21h4v3h-4v-3Z"/>
  <path fill="#d93e3e" d="M81.8 34.21h4v3h-4v-3Z"/>
  <path fill="#1844b5" d="M54.42 27.4c-.74 0-1.4-.12-2-.35a4.1 4.1 0 0 1-1.52-1.09c-.42-.48-.74-1.07-.96-1.78-.22-.72-.33-1.54-.33-2.48s.11-1.77.34-2.5c.22-.74.54-1.35.96-1.84.41-.49.93-.88 1.52-1.14.6-.26 1.26-.38 2-.38 1 0 1.83.21 2.5.64.66.43 1.19 1.07 1.58 1.94l-1.81.96c-.16-.5-.42-.9-.78-1.2-.36-.31-.86-.46-1.49-.46-.79 0-1.42.27-1.89.8-.46.53-.69 1.28-.69 2.24v1.76c0 .97.23 1.72.69 2.24.47.51 1.1.77 1.89.77.63 0 1.14-.17 1.54-.51.4-.34.7-.76.88-1.26l1.71 1.01c-.41.83-.94 1.48-1.62 1.95-.67.46-1.51.69-2.51.69Zm5.93-.19V16.04h7.18v1.87h-5.07v2.7h4.42v1.87h-4.42v4.72h-2.11Zm13.62-9.3v9.3h-2.11v-9.3h-3.17v-1.87h8.45v1.87h-3.17Zm8.84 9.49c-.74 0-1.4-.12-2-.35a4.1 4.1 0 0 1-1.52-1.09c-.42-.48-.74-1.07-.96-1.78-.22-.72-.34-1.54-.34-2.48s.11-1.77.34-2.5c.22-.74.54-1.35.96-1.84.41-.49.93-.88 1.52-1.14.6-.26 1.26-.38 2-.38 1 0 1.83.21 2.5.64.66.43 1.19 1.07 1.58 1.94l-1.81.96c-.16-.5-.42-.9-.78-1.2-.36-.31-.86-.46-1.49-.46-.79 0-1.42.27-1.89.8-.46.53-.69 1.28-.69 2.24v1.76c0 .97.23 1.72.69 2.24.47.51 1.1.77 1.89.77.63 0 1.14-.17 1.54-.51.41-.34.7-.76.88-1.26l1.71 1.01c-.4.83-.94 1.48-1.62 1.95-.67.46-1.51.69-2.51.69Z"/>
</svg>
