<svg xmlns="http://www.w3.org/2000/svg" viewBox="0 0 104 50">
  <path fill="#fff" d="m16.42 42.58 5.11-2.11 6.19 2.25v-.88l3.95-3.88-1.29-.82 1.43-3.47-3.2.34-.2-1.36-3.4 2.25.34-5.85-1.57.27-1.7-3.68-1.7 3.74-2.04-.48.68 6.06-2.59-2.45-.95 1.57-2.86.14 1.5 2.65-1.77 1.36 3.88 3.13s.2 1.22.2 1.23ZM39.54 25.5l1.09 8.22.75.56.09-8.84-1.94.06Z"/>
  <path fill="#1844b5" d="M14.86 32.87c.08-.26.13-.51.23-.73.26-.59.64-.7 1.15-.31.47.35.9.76 1.35 1.14.19.16.39.33.67.57-.16-.81-.32-1.51-.43-2.21-.14-.84-.26-1.68-.36-2.52-.06-.51.39-.9.92-.78.4.09.81.2 1.19.36.37.15.5.01.6-.33.27-.9.56-1.78.97-2.63.19-.4.37-.87.91-.86.53 0 .72.47.91.87.39.82.67 1.68.94 2.55.05.15.07.31.21.47.4-.12.82-.25 1.24-.38.79-.24 1.22.13 1.14.94-.12 1.39-.38 2.76-.68 4.13-.02.1-.03.19-.06.36.66-.56 1.27-1.08 1.88-1.58.64-.53 1.06-.4 1.35.39.29.81.3.82 1.18.65.58-.11 1.15-.23 1.74-.23.67 0 .93.4.66 1.03-.39.9-.88 1.74-1.37 2.59-.07.12-.18.22-.19.41.34.16.69.31 1.03.48.63.32.71.79.23 1.32-.55.6-1.25 1.01-1.87 1.51-.58.47-1.17.93-1.75 1.4-.1.08-.21.15-.25.3.04.18.23.2.33.32.21.25.41.5.24.85-.16.34-.46.39-.8.35-1.03-.14-2-.48-2.95-.87-.81-.33-1.59-.7-2.39-1.05-.19.14-.12.33-.13.49v3.37c0 .53-.28.82-.74.8-.42-.02-.66-.31-.66-.84v-4.17c-.44.22-.79.39-1.14.58-1.22.64-2.49 1.14-3.79 1.59-.11.04-.22.07-.33.1-.35.1-.68.06-.86-.28-.19-.35-.07-.67.2-.94.09-.09.19-.17.29-.25-.07-.25-.27-.35-.44-.47-1.02-.81-2.05-1.61-3.07-2.42-.17-.13-.32-.28-.46-.45-.35-.46-.26-.92.25-1.19.35-.19.72-.33 1.12-.52-.26-.46-.5-.87-.73-1.3-.28-.52-.55-1.04-.81-1.57-.14-.27-.26-.56-.04-.85.23-.3.56-.33.89-.28.69.1 1.38.22 2.07.32.15.02.36.14.41-.18Zm14.7 5.99c.26-.25.6-.41.84-.74-.22-.1-.4-.17-.58-.25-.63-.3-.77-.72-.43-1.32.25-.45.53-.89.78-1.34.14-.27.36-.51.42-.88-.43.06-.82.12-1.21.18-1.02.17-1.12.12-1.5-.84 0-.02-.04-.03-.07-.05-.2.08-.33.26-.5.4-.5.42-.92.95-1.53 1.24-.8.37-1.53-.08-1.57-.97 0-.16 0-.32.04-.47.2-1.04.42-2.09.6-3.13.05-.29.2-.6.04-.96-.28.1-.55.19-.82.28-.62.21-.94.06-1.18-.55-.15-.4-.26-.82-.41-1.23-.14-.39-.2-.82-.46-1.27-.08.24-.13.39-.18.53-.22.67-.42 1.35-.65 2.01-.21.6-.55.74-1.14.56-.32-.1-.63-.27-1.05-.29.11.65.22 1.27.32 1.89.14.85.43 1.68.46 2.54.04 1.04-.68 1.5-1.61 1.04-.22-.11-.42-.25-.6-.41-.35-.3-.68-.62-1.03-.92-.11-.1-.2-.25-.39-.21-.35.96-.53 1.05-1.54.86-.38-.07-.76-.21-1.16-.15 0 .06 0 .09.01.12.35.61.69 1.23 1.04 1.84.47.8.34 1.23-.49 1.6-.13.06-.32.06-.37.29.83.66 1.66 1.33 2.5 2.01.37.29.76.56.88 1.08 1.09-.39 2.09-.88 3.15-1.46l-3.35-1.66c-.54-.27-.72-.64-.51-1.06s.6-.52 1.14-.26c.1.05.2.1.31.16 1.05.55 2.1 1.11 3.15 1.66.1.06.2.17.38.07v-4.3c0-.62-.01-1.24.01-1.86.01-.47.27-.71.69-.71.46 0 .7.27.7.84v4.97c0 .17-.05.34.07.52.11-.06.23-.11.34-.17l3.21-1.83c.49-.28.9-.24 1.14.13.24.37.11.77-.38 1.08-.41.26-.84.5-1.26.74-.93.53-1.86 1.05-2.83 1.6.69.33 1.32.67 1.97.95.65.28 1.28.61 2.01.74.08-.46.33-.75.63-1 .63-.54 1.27-1.07 1.96-1.64Z"/>
  <path fill="#fff" d="m34.19 25.02-.68 7.35 4.08 2.86-.82-14.3c-.02.32-.18 1.18-.61 2.11-.44.93-1.5 1.7-1.97 1.97Zm.61-7.83c-.76-.05-1.59.48-1.91.75-.23-.57-.68-1.84-.68-2.38 0-.68 2.18-1.29 3.2-1.43.82-.11 2.29.64 2.93 1.02l-.2 2.52-.75-.14c-.54-.09-1.82-.29-2.59-.34Z"/>
  <path fill="#1844b5" d="M37.71 21.66c.03.69.08 1.34.08 1.98 0 .34.13.45.45.44 1.07-.01 2.14 0 3.21 0 .86 0 1.06.21 1.06 1.07v9.34c0 .58-.22.87-.66.88-.36.01-.6-.15-.7-.51-.06-.2-.06-.4-.05-.6 0-2.68.01-5.36.02-8.05 0-.71 0-.72-.73-.72h-2.1c-.31 0-.42.09-.39.43.1 1.51.18 3.02.23 4.53.05 1.38.2 2.76.18 4.14 0 .35-.15.58-.46.7-.28.11-.53 0-.73-.22-.16-.18-.2-.42-.21-.65 0-1.44-.13-2.88-.2-4.32-.11-2.34-.23-4.69-.33-7.03-.03-.65 0-1.3-.08-1.94-.03-.23-.1-.35-.34-.33h-.13c-1.06-.02-1.08-.02-1.15 1.05-.1 1.48-.16 2.96-.23 4.44-.09 1.77-.18 3.54-.28 5.3-.03.5-.33.8-.74.78-.42-.02-.69-.33-.66-.84.1-1.91.22-3.82.32-5.74.08-1.54.13-3.08.2-4.62 0-.2-.01-.36-.26-.42-1.01-.25-1.32-1.05-1.37-1.95-.06-1.03-.04-2.08 0-3.11.03-.84.53-1.39 1.27-1.69.43-.18.58-.43.54-.88-.03-.34-.01-.69 0-1.04.01-.63.21-1.16.8-1.47.3-.16.29-.45.3-.71.1-1.61.17-3.22.19-4.84 0-.16 0-.32.03-.47.09-.43.4-.66.79-.63.4.03.66.32.68.75.06 1.37.11 2.74.17 4.1.02.45.06.89.09 1.33 0 .19.09.32.26.41.55.32.78.81.78 1.44 0 .46.02.92 0 1.38 0 .27.07.43.33.53.33.13.63.34.9.58.37.33.58.74.57 1.25 0 1.05.02 2.11 0 3.16-.02.8-.41 1.43-1.15 1.72-.4.16-.54.35-.48.75.01.07 0 .14 0 .26Zm-3.23-6.63c-1.26.17-1.64.67-1.32 1.81 1.55-.65 3.12-.63 4.69-.06.24-1.22 0-1.41-.84-1.66-.81-.24-1.63-.24-2.53-.09Zm1.96 4.36h.85c.27 0 .53-.03.61-.35.08-.32.01-.57-.29-.77-1.08-.71-3.2-.66-4.23.12-.24.18-.38.4-.28.7.1.28.34.3.6.3h2.74Zm-.25-7.08c0-.18-.05-.29-.26-.32-.94-.15-1.06-.04-1.06.89v.26c-.02.25.09.32.33.31 1.14-.05.98.15.99-.98v-.16ZM30.37 29.6v-7c0-.49-.06-.55-.55-.52-.4.02-.8.03-1.2-.02-.37-.04-.54.06-.53.49.03 1.34.02 2.68 0 4.02 0 .66-.56 1.02-1.06.72-.25-.15-.35-.39-.35-.66 0-1.73-.01-3.46 0-5.19 0-.5.3-.75.81-.75h3.43c.55 0 .83.25.83.82.01 2.7 0 5.39 0 8.09 0 .47-.29.77-.69.79-.4.02-.64-.23-.71-.78Zm5.43 13.15c1.91.16 3.78.11 5.64 0 .9-.06 1.79-.18 2.68-.26.58-.05.88.16.92.64.04.42-.24.73-.78.8-2.75.36-5.5.54-8.27.35-1.35-.1-2.7-.24-4.03-.44-.1-.02-.2-.04-.29-.07-.43-.12-.66-.44-.6-.86.05-.37.38-.61.83-.57.71.07 1.41.19 2.12.27.58.06 1.16.1 1.78.15Zm1.41-4c-1.03-.07-2.03-.13-3.03-.19-.43-.03-.7-.31-.7-.72 0-.4.26-.66.72-.69.76-.05 1.51.01 2.27.08 1.84.17 3.64.5 5.39 1.12.88.31 1.75.62 2.58 1.04.47.24.64.58.49.96-.15.37-.53.53-1.01.36-.88-.31-1.71-.72-2.6-1.01-1.33-.43-2.68-.79-4.12-.95Z"/>
  <path fill="#fff" d="M66.63 33.63h13v3h-13v-3Z"/>
  <path fill="#d93e3e" d="M79.63 33.63h13v3h-13v-3Zm-26 0h13v3h-13v-3Z"/>
  <path fill="#1844b5" d="M58.64 26.82c-.74 0-1.4-.12-2-.35a4.1 4.1 0 0 1-1.52-1.09c-.42-.48-.74-1.07-.96-1.78-.22-.72-.34-1.54-.34-2.48s.11-1.77.34-2.5c.22-.74.54-1.35.96-1.84.43-.5.93-.88 1.52-1.14.6-.26 1.26-.38 2-.38 1 0 1.83.21 2.5.64s1.19 1.07 1.58 1.94l-1.81.96c-.16-.5-.42-.9-.78-1.2-.36-.31-.86-.46-1.49-.46-.79 0-1.42.27-1.89.8-.46.53-.69 1.28-.69 2.24v1.76c0 .97.23 1.72.69 2.24.47.51 1.1.77 1.89.77.63 0 1.14-.17 1.54-.51.4-.34.7-.76.88-1.26l1.71 1.01c-.4.83-.94 1.48-1.62 1.95-.67.46-1.51.69-2.51.69Zm5.46-.19v-1.7h1.47v-7.78H64.1v-1.7h5.07v1.7h-1.49v7.78h1.49v1.7H64.1Zm9.34 0h-2.11V15.46h5.04c.51 0 .97.08 1.38.24.41.16.75.4 1.02.7.29.3.51.66.66 1.09.16.43.24.9.24 1.42 0 .77-.18 1.43-.53 1.98-.34.56-.86.95-1.55 1.18l2.29 4.54h-2.35l-2.08-4.3h-2v4.3Zm2.72-6.08c.41 0 .73-.11.96-.32.24-.22.35-.54.35-.94v-.74c0-.41-.12-.72-.35-.93-.23-.21-.55-.32-.96-.32h-2.72v3.25h2.72Zm10.02 6.27c-.74 0-1.4-.12-2-.37-.59-.24-1.12-.62-1.54-1.1-.42-.49-.74-1.09-.98-1.81-.23-.72-.35-1.55-.35-2.5s.12-1.76.35-2.48c.24-.73.56-1.33.98-1.82.43-.49.94-.86 1.54-1.1s1.26-.37 2-.37 1.4.12 2 .37 1.11.61 1.54 1.1c.43.49.75 1.1.98 1.82.24.72.35 1.54.35 2.48s-.12 1.78-.35 2.5c-.22.72-.55 1.32-.98 1.81-.43.49-.94.86-1.54 1.1s-1.26.37-2 .37Zm0-1.87c.8 0 1.43-.27 1.9-.8.48-.53.72-1.28.72-2.24v-1.73c0-.96-.24-1.71-.72-2.24-.47-.53-1.1-.8-1.9-.8s-1.44.27-1.92.8c-.47.53-.7 1.28-.7 2.24v1.73c0 .96.24 1.71.7 2.24.48.53 1.12.8 1.92.8Z"/>
</svg>
