<svg xmlns="http://www.w3.org/2000/svg" viewBox="0 0 104 50">
  <path fill="#fff" d="M19.81 41h-8.25l.75-2.89h1.5l.75-16.61-.75-2.89-2.25-.72v-2.17l12-.72-.75 3.61-1.5 1.44v.72l-1.5 1.44 1.5 15.89 2.25 1.44-3.75 1.44Z"/>
  <path fill="#1844b5" d="M42.93 9.04v3.85c0 .38-.11.65-.46.8-.16.07-.21.18-.21.34v3.65c0 .16.07.28.16.39.24.32.48.64.73.95.31.39.44.83.44 1.33v17.1c0 .48 0 .48.45.56.66.12 1.31.25 1.95.44.41.12.61.4.56.82-.04.38-.37.66-.76.65-.54-.01-1.05-.2-1.58-.3-1.4-.27-2.8-.49-4.22-.64a50.5 50.5 0 0 0-6.27-.26c-1.62.04-3.24.21-4.83.5-3.07.54-6.02 1.48-8.9 2.67-.17.07-.36.11-.54.11H9.4c-.59 0-.86-.28-.84-.85.02-.44.29-.7.78-.72.46-.02.92 0 1.38 0q.66 0 .67-.67c0-.38-.02-.75.12-1.12.26-.72.73-1.08 1.48-1.1.37 0 .44-.07.45-.45.03-1.32.05-2.63.08-3.95.04-1.67.07-3.34.13-5.01.05-1.46.1-2.92.12-4.38.01-.61.08-1.22.07-1.84 0-.19-.05-.33-.19-.47-.46-.44-.7-1-.67-1.65.01-.3-.08-.43-.38-.5-.69-.17-1.4-.76-1.48-1.8-.05-.65-.07-1.29 0-1.93.05-.5.32-.82.81-.93.24-.05.33-.18.32-.42-.01-.4-.01-.8 0-1.2 0-.21-.08-.33-.26-.41-.49-.22-.97-.46-1.46-.69-.44-.2-.66-.53-.65-1.02V8.85c0-.63.21-.83.84-.83h31.23c.76 0 1.06.19.99 1.04Zm-5.74 22.68-.59-.03c-.42-.03-.59-.27-.58-.8 0-.43.21-.64.62-.65.38-.01.77-.02 1.15 0 .33.02.43-.09.43-.43-.01-2.3 0-4.6 0-6.89 0-.41-.01-.83-.1-1.23-.7-3.38-3.57-5.78-6.99-5.46-2.25.21-3.99 1.32-5.14 3.33-.45.79-.71 1.65-.84 2.55-.04.25 0 .41.31.39.21-.01.42 0 .62.03.41.05.62.3.64.71.01.27-.04.53-.07.8-.1.93-.21 1.85-.34 2.78-.05.4-.36.67-.75.66-.33-.01-.43.1-.43.44.01 3.37 0 6.74 0 10.11 0 .42.05.46.47.35 1.37-.33 2.74-.66 4.15-.86 1.16-.16 2.33-.26 3.5-.3 1.04-.03 2.09-.03 3.13 0 .89.02 1.77.08 2.66.15.89.08 1.78.2 2.67.3.28.03.39-.08.38-.38-.02-.59 0-1.18 0-1.77v-7.66c0-.29-.08-.41-.37-.38-.18.02-.35.01-.53-.01-.43-.05-.69-.37-.67-.77.03-.46.29-.71.74-.73.14 0 .29-.01.43 0 .3.03.4-.09.4-.4-.01-1.26-.06-2.52 0-3.78.05-1.02-.1-1.92-.88-2.63-.05-.04-.08-.1-.12-.16-.23-.34-.36-.75-.35-1.16.02-1.24 0-2.48.01-3.72 0-.27-.08-.37-.36-.37-.83.01-1.67 0-2.5 0h-1.85c-.39 0-.62-.29-.63-.74-.01-.47.18-.74.59-.77.32-.03.64-.04.95-.04h4.08c.28 0 .39-.09.38-.39-.02-.6 0-1.2 0-1.81q0-.47-.45-.47H12.04c-.74 0-.68-.14-.69.73 0 .19.07.28.23.36.33.15.67.3.97.49.4.25.82.28 1.26.28H25.4c.69 0 1.38-.05 2.07.03.4.05.63.31.67.7.05.52-.26.83-.83.83H14.07c-.21 0-.3.08-.29.3.01.27 0 .53 0 .8 0 .5.03.52.53.53h5.83c.81 0 1.63-.02 2.44.01.64.02 1.14.15 1.25 1.07.06.5.03 1 .03 1.5.01 1.07-.51 1.82-1.5 2.14-.26.08-.36.19-.33.46.06.69-.19 1.27-.7 1.72-.1.09-.12.19-.12.33.07 1.36.03 2.72.08 4.08.07 2.05.08 4.1.14 6.15.05 1.7.06 3.41.07 5.12 0 .32.11.42.4.39.52-.06.95.13 1.3.51.14.15.25.34.38.53.02-.23.04-.44.04-.65 0-1.66 0-3.32.01-4.99V27.9c0-.21-.03-.36-.28-.41-.43-.08-.67-.42-.64-.83.04-.43.31-.67.79-.68h1.09c.18 0 .28-.05.3-.26.03-.36.09-.73.12-1.09.05-.57.05-.56-.53-.57-.51-.01-1.03.07-1.54-.04-.41-.08-.64-.45-.57-.87.07-.4.24-.55.74-.6.25-.02.44-.07.46-.39.08-1.31.52-2.49 1.19-3.6 1.7-2.86 5.14-4.36 8.35-3.77 3.82.7 6.64 4.1 6.65 8.04v6.9q0 .52.51.54c.41.01.65.24.68.62.03.52-.14.78-.58.84-.14.02-.28.03-.43.03h-2.76ZM15.33 22.8c.01.7-.04 1.4-.06 2.11-.06 1.69-.08 3.39-.12 5.08-.02.87-.03 1.74-.05 2.61-.03 1.54-.07 3.08-.11 4.61 0 .23.1.32.32.32h.86c.57 0 .57 0 .57-.57V24.81c0-.68.53-1.03 1.12-.78.38.16.43.5.43.86v12.35c0 .14.01.28.19.29h1.45c.09-.14.07-.26.07-.37-.09-1.19-.03-2.39-.08-3.58-.08-1.95-.1-3.9-.14-5.85-.04-1.76-.06-3.52-.08-5.28 0-.32-.1-.43-.42-.42-1.09.01-2.17 0-3.26 0-.7 0-.7 0-.7.78Zm3.17-5.02c.89 0 1.78-.02 2.66 0 1.16.03 1.12-.12 1.13-1.16 0-.46-.01-.47-.46-.47h-8.22q-.93 0-.92.93c0 .54.16.7.71.7h5.1Zm3.28 21.77c.12-.05.29-.06.27-.24-.02-.17-.17-.25-.34-.26h-7.84c-1 0-.91-.08-.93.94 0 .31.08.43.4.43 1.83-.01 3.67 0 5.5 0 .37 0 .71-.05 1.06-.19.6-.24 1.22-.44 1.87-.68Zm-2.3-19.09c.36.04.67-.02.9-.34.15-.2.13-.43.07-.64-.06-.19-.26-.11-.41-.12-.23-.01-.46 0-.69 0H14.9c-.35 0-.43.1-.37.45.05.3.38.67.76.66 1.37-.03 2.75-.01 4.18-.01Z"/>
  <path fill="#fff" d="M47.44 33h8v3h-8v-3Z"/>
  <path fill="#468429" d="M55.44 33h8v3h-8v-3Z"/>
  <path fill="#fff" d="M79.44 33h16v3h-16v-3Z"/>
  <path fill="#d57800" d="M63.44 33h16v3h-16v-3Z"/>
  <path fill="#1844b5" d="M51.21 26.19c-.74 0-1.4-.12-2-.35a4.1 4.1 0 0 1-1.52-1.09c-.42-.48-.74-1.07-.96-1.78-.22-.72-.34-1.54-.34-2.48s.11-1.77.34-2.5c.22-.74.54-1.35.96-1.84.43-.5.93-.88 1.52-1.14.6-.26 1.26-.38 2-.38 1 0 1.83.21 2.5.64s1.19 1.07 1.58 1.94l-1.81.96c-.16-.5-.42-.9-.78-1.2-.36-.31-.86-.46-1.49-.46-.79 0-1.42.27-1.89.8-.46.53-.69 1.28-.69 2.24v1.76c0 .97.23 1.72.69 2.24.47.51 1.1.77 1.89.77.63 0 1.14-.17 1.54-.51.4-.34.7-.76.88-1.26l1.71 1.01c-.4.83-.94 1.48-1.62 1.95-.67.46-1.51.69-2.51.69Zm8.46-.19v-4.38l-3.82-6.78h2.37l2.58 4.72h.03l2.51-4.72h2.3l-3.84 6.77v4.4h-2.13Zm10.3.19c-.96 0-1.78-.17-2.45-.51a5.71 5.71 0 0 1-1.71-1.34l1.42-1.38c.38.45.81.79 1.28 1.02.48.24 1.01.35 1.58.35.65 0 1.14-.14 1.47-.42.33-.29.5-.67.5-1.15 0-.37-.11-.68-.32-.91-.21-.24-.61-.41-1.2-.51l-1.06-.16c-2.23-.35-3.34-1.43-3.34-3.25 0-.5.09-.95.27-1.36.19-.4.46-.75.82-1.04.37-.3.8-.52 1.26-.66a5.42 5.42 0 0 1 1.7-.24c.84 0 1.58.14 2.21.42.63.28 1.17.69 1.62 1.23l-1.44 1.36c-.28-.34-.62-.62-1.01-.83-.39-.21-.89-.32-1.49-.32s-1.07.12-1.38.35c-.3.22-.45.54-.45.96s.12.74.37.94c.25.2.64.35 1.18.45l1.04.19c1.13.2 1.96.56 2.5 1.09.54.51.82 1.23.82 2.16 0 .53-.1 1.02-.29 1.46-.18.43-.45.8-.82 1.12-.35.31-.79.55-1.31.72-.51.17-1.1.26-1.78.26Zm6.31-.19V14.83h7.36v1.87h-5.25v2.7h4.64v1.87h-4.64v2.85h5.25v1.87h-7.36Zm13.93.19c-.74 0-1.4-.12-2-.35a4.1 4.1 0 0 1-1.52-1.09c-.42-.48-.74-1.07-.96-1.78-.22-.72-.34-1.54-.34-2.48s.11-1.77.34-2.5c.22-.74.54-1.35.96-1.84.43-.5.93-.88 1.52-1.14.6-.26 1.26-.38 2-.38 1 0 1.83.21 2.5.64.66.43 1.19 1.07 1.58 1.94l-1.81.96c-.16-.5-.42-.9-.78-1.2-.36-.31-.86-.46-1.49-.46-.79 0-1.42.27-1.89.8-.46.53-.69 1.28-.69 2.24v1.76c0 .97.23 1.72.69 2.24.47.51 1.1.77 1.89.77.63 0 1.14-.17 1.54-.51.41-.34.7-.76.88-1.26l1.71 1.01c-.4.83-.94 1.48-1.62 1.95-.67.46-1.51.69-2.51.69Z"/>
</svg>
