<svg xmlns="http://www.w3.org/2000/svg" viewBox="0 0 104 50">
  <path fill="#1844b5" d="M22.1 5.32c-.31-.01-.47.03-.53.36-.19.96-.28 1.95-.41 2.92-.33 2.48-.62 4.96-.86 7.44-.42.28-.47.65-.07.99v3.07c-.39.62-1.04 1.25-1.22 1.92-.05.17-.04.66-.04.86 0 .39.15.53.14.96-.06.08-.3.16-.41.24-.24.17-.22.42-.04.64.15.18.49.18.71.2.06.41.01 1.62.02 2.08 0 .27.02 1.89-.03 2.06-.23.75-.8 2.06-1.3 2.69-.13.17-.25.28-.4.42-.29.26-.94.58-.99.99-.04.3.24.6.41.83h-.02c.17.24.16.22.43.35v9.33c-.55 0-2.43-.28-1.92.79.15.33 1.12.23 1.45.23h29.34c.34 0 .68-.1.69-.51 0-.14-.05-.27-.15-.36-.24-.24-1.3-.15-1.67-.15.03-4.1.03-8.2 0-12.31.29-.23.8-.67.85-1.06.07-.56.04-1.26.04-1.83v-3.72l.05-.04c1.51-1.34.68-1.75-.42-2.91-.54-.62-1.31-1.4-1.88-2.01l-3.7-3.94c-.96-1.03-1.99-2.06-2.87-3.16-.08-.09-.37-.17-.48-.13-.43.14-.74.71-1.08 1.02-.29.3-.54.59-.81.88l-3.89 4.11-2.5 2.62c-.34.36-.68.72-1.01 1.08-.19.2-.39.41-.56.62-.55.67.09 1.43.64 1.83v3.76c0 .47-.04.94-.05 1.42 0 .67.33.96.78 1.39.03 1.36 0 2.83 0 4.2v8.18h-2.21c-.04-3.06 0-6.22 0-9.28l.03-.02c.31-.18.63-.79.72-1.15-.09-.32-.26-.47-.54-.64-.75-.45-.97-1.02-1.34-1.79-.29-.59-.56-1.2-.82-1.8.06-.32.04-.98.04-1.33 0-.95-.03-1.78.06-2.72.2 0 .36 0 .55-.08.23-.11.39-.35.25-.6-.13-.23-.39-.3-.62-.37.29-.55.3-.62.29-1.26 0-.35 0-.36-.08-.73-.12-.53-1.16-1.55-1.17-1.95-.01-.68-.03-2.12 0-2.88.04-.04.15-.14.17-.17.21-.38 0-.64-.27-.84-.2-2.27-.42-4.55-.67-6.81l-.23-2.11c-.05-.44-.1-.9-.17-1.33-.04-.21-.06-.33-.24-.45Z"/>
  <path fill="#fff" d="M37.43 28.79c-.62-.03-1.37 0-1.99.04-1.11.05-2.23.14-3.33.28-1.08.13-1.75.22-2.77.64v13.89h14.87v-3.21h-2.1c-.49-.32-.4-.74.04-1.05.66-.02 1.4 0 2.06 0l.03-4.96c0-1.51-.03-3.19.02-4.68-1.62-.68-5.02-.87-6.82-.95Z"/>
  <path fill="#1844b5" d="M42.29 32.9c-.45-.03-1.2-.01-1.66 0-.49.29-.42.91.11 1.1.55-.02 1.09-.02 1.64-.01.47-.33.45-.87-.09-1.09Zm-1.61-1.64c-.59-.02-2.08-.23-1.82.68.07.23.18.32.39.41.34.03 1.08.01 1.44.01.54-.29.55-.83-.01-1.1Zm-5.49 5.01c-.45-.02-1.08 0-1.53 0-.44.28-.46.95.07 1.05.41 0 1.28.07 1.62-.04.47-.15.35-.81-.16-1.01Zm-1.53 1.57c-.44-.01-.87 0-1.31.02-.33.22-.33.35-.32.72.14.22.2.32.47.33.34 0 1.3.06 1.51-.08.41-.28.19-.89-.35-1Zm-.1-4.44c-.49 0-1.7-.19-1.79.44-.04.31.14.5.41.58.36 0 1.13.06 1.46-.06.49-.17.43-.77-.08-.97Zm7.91 4.46c-.26-.02-.54 0-.79-.01-.5-.03-1.13-.03-.95.68.05.2.17.29.37.35.36 0 1.02.02 1.36-.03.53-.08.51-.72.01-.99Z"/>
  <path fill="#fff" d="M37.71 22.04c-.74-.03-1.48-.02-2.22.02-1.84.1-3.89.18-5.66.76-.5.17-.84.38-1.24.71 0 1.77-.03 3.64 0 5.4.27-.04.57-.2.84-.27 2.12-.61 4.44-.78 6.64-.88 2.45-.03 5 .14 7.4.69.53.12.95.3 1.46.46.04.09.04.1.1.18h.04c.04-.13.03-1.41.03-1.62v-3.95c-.74-.58-1.46-.86-2.39-1.03-1.64-.3-3.35-.4-5.01-.46Z"/>
  <path fill="#1844b5" d="M32 23.67h-.09c-.17 0-.28.02-.4.13-.19.19-.19.47-.19.72 0 .47 0 .94.01 1.4.12.23.2.28.42.41.29.08.47-.12.63-.35.02-.33.06-1.78-.04-2.02-.06-.16-.2-.23-.35-.3Zm9.97-.06c-.74-.02-.69.61-.67 1.18.02.6-.16 1.17.44 1.49.31.07.6-.2.62-.49.03-.58.02-1.21 0-1.79-.12-.21-.18-.27-.39-.38Zm-4.99-.1c-.69-.01-.67.62-.63 1.12.04.6-.19 1.09.43 1.41.92.07.57-1.21.63-1.75.05-.41-.06-.61-.43-.77Z"/>
  <path fill="#fff" d="M25.06 34.58h-6.59v9.07h6.59v-9.07Z"/>
  <path fill="#1844b5" d="M21.83 36.44c-.78-.03-1.36.6-1.52 1.32-.16.71-.07 1.46-.09 2.18 0 .15-.01.31 0 .47.02.45-.09.85.16 1.25h1.28c.28 0 1.36.06 1.56-.1.17-.14.13-1.05.12-1.32-.05-1.32.35-3.56-1.5-3.79Z"/>
  <path fill="#fff" d="M21.81 37.45c-.73.15-.58 1.54-.58 2.1v1.1H22.32c0-.86.04-1.77-.05-2.62-.03-.29-.21-.46-.47-.58Zm1.38-12.57h-2.78v3.76c.49.02 1.04.01 1.54.01.37 0 .89.02 1.24-.02.02-.33 0-.91 0-1.26v-2.49Z"/>
  <path fill="#1844b5" d="M21.86 25.67c-.6.05-.61.56-.61 1.05 0 .46-.06.91.45 1.11.34 0 .44-.06.62-.36 0-.43.02-1.01-.01-1.43-.13-.23-.21-.3-.45-.37Z"/>
  <path fill="#fff" d="M22.48 17.08h-1.23c0 .8-.01 1.64 0 2.43.42 0 .81 0 1.23.02v-2.46Z"/>
  <path fill="#1d69f3" d="M49.89 33.09h38.65v3H49.89v-3Z"/>
  <path fill="#1844b5" d="M50.47 26.09V14.92h7.36v1.87h-5.25v2.7h4.64v1.87h-4.64v2.85h5.25v1.87h-7.36Zm9.6 0V14.92h7.18v1.87h-5.07v2.7h4.42v1.87h-4.42v4.72h-2.11Zm12.7.2c-.96 0-1.78-.17-2.45-.51a5.71 5.71 0 0 1-1.71-1.34l1.42-1.38c.38.45.81.79 1.28 1.02.48.24 1.01.35 1.58.35.65 0 1.14-.14 1.47-.42.33-.29.5-.67.5-1.15 0-.37-.11-.68-.32-.91-.21-.24-.61-.41-1.2-.51l-1.06-.16c-2.23-.35-3.34-1.43-3.34-3.25 0-.5.09-.95.27-1.36.19-.41.46-.75.82-1.04.37-.3.8-.52 1.26-.66a5.42 5.42 0 0 1 1.7-.24c.84 0 1.58.14 2.21.42.63.28 1.17.69 1.62 1.23l-1.44 1.36c-.28-.34-.62-.62-1.01-.83-.39-.21-.89-.32-1.49-.32s-1.07.12-1.38.35c-.3.22-.45.54-.45.96s.12.74.37.94c.25.2.64.35 1.18.45l1.04.19c1.13.2 1.96.57 2.5 1.09.54.51.82 1.23.82 2.16 0 .53-.1 1.02-.29 1.46-.18.43-.45.8-.82 1.12-.35.31-.79.55-1.31.72-.51.17-1.1.26-1.78.26Zm13.22-.2-.89-2.85h-3.97l-.88 2.85h-2.14l3.74-11.17h2.62l3.71 11.17h-2.19Zm-2.84-9.24h-.08l-1.42 4.59h2.94l-1.44-4.59Z"/>
</svg>
