<svg xmlns="http://www.w3.org/2000/svg" viewBox="0 0 104 50">
  <path fill="#fff" d="M42.69 24.91c-.28.03-.47.28-.41.55.23 1 .76 1.91 1.17 2.48.15.21.44.25.65.1.01 0 .03-.02.04-.03.2-.19.23-.5.07-.72-.33-.47-.73-1.18-.92-1.93-.07-.27-.31-.47-.59-.44Zm-5.63-4.38c-.24.13-.33.43-.2.67.28.49.63 1.09.99 1.65.24.37.48.72.7 1.02.09.12.19.25.29.36.18.21.49.16.65-.07.16-.23.12-.56-.05-.77-.26-.34-.51-.7-.74-1.07-.33-.52-.65-1.05-.96-1.59a.509.509 0 0 0-.68-.2Zm2.22-.5c-.24.12-.34.4-.22.64 0 0 0 .02.01.03.19.32.42.69.69 1.06.3.4.66.81 1.05 1.11.22.17.52.07.65-.18.12-.25.02-.55-.18-.74-.26-.24-.5-.51-.72-.8-.22-.29-.42-.6-.6-.91a.531.531 0 0 0-.69-.21Zm11.16.5c-.2.2-.21.51-.03.72.38.48.6.91.71 1.23.09.26.33.49.61.49s.5-.23.43-.5c-.12-.5-.42-1.19-1.02-1.91a.475.475 0 0 0-.67-.05s-.02.02-.03.02ZM49 16.47c-.11.25 0 .55.24.68.74.44 1.38 1.04 1.87 1.76.15.23.46.33.7.21.25-.12.35-.42.2-.65-.6-.92-1.41-1.68-2.36-2.23a.476.476 0 0 0-.64.19c0 .01-.01.02-.02.04Zm-3.72-.37c-.74-.23-1.62-.37-2.48-.24-.27.04-.43.32-.35.58.07.27.35.42.62.39.63-.07 1.3.03 1.92.22.48.15.94.35 1.37.59.24.14.55.08.71-.14.16-.21.11-.5-.09-.65-.01 0-.03-.02-.04-.03-.52-.3-1.08-.55-1.66-.73Zm.16 9.4c-.25.04-.43.29-.38.54v.04c.1.36.25.78.45 1.19.23.48.55.98.98 1.36.21.18.52.1.66-.14.14-.24.06-.55-.13-.75-.25-.27-.45-.58-.6-.92-.15-.31-.27-.62-.37-.95a.534.534 0 0 0-.61-.39Zm3.87-1.87c-.18.21-.15.53.02.75.29.38.6.97.63 1.68.01.27.2.53.47.57s.53-.16.53-.43c0-1.14-.52-2.06-.98-2.6-.18-.21-.5-.18-.67.03Zm-5.06-5.25c-.14-.24-.44-.33-.65-.15-.35.3-.63.67-.81 1.09-.26.6-.34 1.34-.08 2.19.08.26.38.38.63.26s.36-.41.29-.67c-.15-.58-.08-1.04.07-1.39.1-.24.25-.44.4-.6.19-.2.28-.5.14-.75Z"/>
  <path fill="#1844b5" d="M32.81 32.97c-.03-1.89-.42-3.66-1.4-5.28-.13-.22-.28-.41-.53-.51-.28-.12-.54-.11-.76.11-.23.23-.26.51-.16.81.03.09.09.17.14.25a7.966 7.966 0 0 1 1.28 3.71c.05.55.05 1.1 0 1.65-.02.18-.08.24-.25.15-.37-.2-.75-.4-1.12-.59-.16-.08-.16-.22-.16-.37-.06-1.94-.34-3.86-.83-5.74-.08-.31-.18-.6-.53-.73-.29-.1-.55-.1-.78.09-.23.21-.29.49-.2.78.23.77.44 1.55.58 2.34.15.82.28 1.65.32 2.48 0 .08.02.16-.04.26-.22-.06-.4-.22-.62-.29-.45-.16-.64-.47-.72-.93-.13-.77-.26-1.53-.3-2.31-.04-.77-.09-1.54-.09-2.31 0-.47-.33-.78-.8-.77-.35 0-.59.22-.65.57-.11.66-.02 1.31.03 1.97.05.73.14 1.45.26 2.17.01.05 0 .11 0 .23-.24-.16-.43-.31-.65-.41-.58-.27-.76-.68-.76-1.33 0-1.03.06-2.04.3-3.04.15-.63-.17-1.08-.73-1.09-.39 0-.66.23-.75.66-.19.86-.28 1.75-.25 2.63 0 .1.04.22-.1.31-.31-.24-.6-.5-.86-.8-.03-.04-.02-.11-.03-.16-.09-1.13.09-2.2.71-3.18.19-.3.29-.61.18-.98-.08-.3-.28-.46-.57-.54-.31-.08-.57 0-.77.24-.32.38-.5.83-.66 1.3-.15.44-.27.89-.3 1.35 0 .09-.04.17-.08.32-.22-.3-.47-.48-.48-.87-.04-.93.25-1.84.8-2.58.2-.28.4-.58.39-.95-.01-.38-.15-.62-.47-.75-.35-.14-.68-.1-.94.17-.36.37-.57.83-.78 1.29-.14.31-.21.64-.33.96-.32-.2-.56-.83-.48-1.22.09-.43.31-.8.58-1.14.15-.19.3-.38.45-.58.2-.26.26-.56.22-.88a.644.644 0 0 0-.45-.56c-.31-.1-.61-.1-.87.13-.28.25-.5.56-.67.89-.06.11-.12.21-.19.35-.2-.35-.26-.72-.34-1.07-.12-.53-.22-1.06-.34-1.59-.03-.14-.08-.28-.15-.41-.17-.34-.46-.46-.89-.4-.27.04-.49.29-.57.6-.09.34 0 .66.08.98.2.7.4 1.4.64 2.09.03.09.1.19.02.31-.16 0-.28-.1-.42-.15-.3-.11-.6-.22-.92-.22-.42 0-.75.23-.85.59-.11.41.07.8.45 1.01.26.14.54.17.82.23.65.13 1.28.39 1.84.76.31.2.38.58.57.88-.11.09-.19.03-.27.01-.64-.18-1.28-.37-1.96-.35-.3.01-.58.08-.79.32a.75.75 0 0 0-.14.82c.11.29.35.45.66.46 1.35.03 2.6.46 3.84.93.31.12.42.43.65.67-.18.07-.33.03-.48.01-.96-.14-1.93-.15-2.9-.13-.26 0-.53.04-.72.25-.23.25-.3.54-.17.86.12.3.37.43.68.43.56.01 1.12 0 1.68 0 1.21.03 2.4.24 3.58.52.34.08.49.4.78.6-.2.11-.37.08-.53.06-.99-.08-1.96.01-2.94.14-.43.06-.85.14-1.27.21-.06.01-.13.02-.19.04-.45.13-.71.51-.61.88.11.41.51.65.96.51.83-.25 1.67-.29 2.52-.34 1.31-.07 2.61.05 3.92.16.06 0 .11.02.16.05.24.16.48.33.72.49-.04.08-.11.05-.16.05-1.53 0-3.02.27-4.5.61-.42.1-.84.18-1.26.27-.41.09-.66.32-.69.65-.05.58.44.97 1.02.76 1.08-.38 2.2-.53 3.33-.69.71-.1 1.42-.16 2.14-.17.58 0 1.17-.02 1.75-.05.51-.03.94.12 1.35.43-.3.11-.61.12-.91.17-1.95.32-3.84.87-5.71 1.53-.3.11-.53.3-.57.63-.07.55.48.93 1.04.73 2.01-.75 4.1-1.25 6.21-1.62.63-.11 1.27-.17 1.9-.26.37-.05.62.19.92.38-.29.11-.58.21-.86.32-1.46.6-2.93 1.17-4.48 1.49-.28.06-.56.1-.83.17-.39.1-.66.49-.58.83.09.39.49.62.91.53 1.74-.37 3.42-.91 5.06-1.59.83-.34 1.68-.6 2.54-.86.11-.03.23-.02.33.01.54.14 1.05.35 1.57.54.39.15.78.32 1.22.32.3 0 .57-.19.65-.43.1-.33 0-.63-.28-.82-.25-.17-.54-.23-.82-.29-.47-.12-.92-.28-1.35-.48-.16-.07-.23-.17-.23-.36.02-.44.03-.88.04-1.34Z"/>
  <path fill="#1844b5" d="M46.71 35.68c-.21.04-.4.08-.58.15-.32.14-.51.49-.43.79.1.34.39.53.77.48 1.16-.15 2.31-.31 3.44-.63.12-.03.22 0 .32.05.39.21.77.42 1.16.62.25.13.5.08.71-.09.21-.17.25-.42.2-.67-.05-.24-.23-.39-.43-.51-.21-.13-.42-.24-.64-.35-.15-.07-.21-.15-.19-.32.13-1.08.09-2.17.16-3.26.05-.77.4-1.43.93-1.99.58-.61 1.23-1.17 1.77-1.81.92-1.08 1.46-2.34 1.72-3.72.62-3.23-.17-6.14-2.21-8.68-1.17-1.46-2.73-2.45-4.46-3.16-1.01-.42-2.06-.7-3.14-.83-1.26-.15-2.5-.02-3.72.26-1.36.31-2.66.8-3.94 1.33-.75.32-1.36.25-1.99-.25-.65-.51-1.41-.86-2.22-1.02-1.66-.32-3.17.05-4.48 1.11-1.16.95-1.81 2.19-1.95 3.69-.01.14-.06.28-.04.41.06.42-.12.7-.43.98-1.15 1.04-2.18 2.19-3.19 3.36-.4.47-.74.99-.94 1.59-.17.51.01 1.02.43 1.22.28.13.54.08.78-.08.97-.66 1.93-1.33 2.91-1.97.75-.5 1.53-.96 2.3-1.43.27-.17.57-.22.89-.23.95-.03 1.89.06 2.78.39 1.04.39 1.81 1.1 2.36 2.06.74 1.32 1.57 2.59 2.48 3.8 1.28 1.69 2.89 2.89 4.93 3.49.31.09.33.13.24.46-.2.78-.56 1.49-.89 2.21-.29.64-.53 1.29-.88 1.9-.07.12-.18.21-.31.24-.5.14-1.01.15-1.52.21-.49.05-.99.09-1.47.2-.2.05-.4.11-.52.29-.17.23-.2.49-.06.74.15.27.42.36.71.34.47-.04.93-.1 1.4-.16.63-.08 1.27-.09 1.87-.3.36-.13.63-.06.93.12.27.16.52.36.84.44.29.08.57-.03.72-.27.15-.25.12-.61-.07-.81-.23-.24-.52-.39-.82-.52-.23-.1-.26-.23-.17-.45.26-.65.62-1.24.88-1.88.28-.7.68-1.36.78-2.12.04-.3.18-.29.41-.32.59-.06 1.05.13 1.49.53.72.66 1.61.99 2.59 1.09.21.02.42.07.63.08.18 0 .21.1.21.25v1.81c0 .12-.03.24-.05.36-.02.16-.11.25-.27.3-.51.15-1.03.21-1.55.29-.38.06-.75.12-1.15.19ZM30.17 14.45c1.03-.96 2.24-1.24 3.59-.94.69.15 1.3.51 1.86.94.68.53 1.42.69 2.24.43 1.24-.4 2.47-.81 3.7-1.21 1.33-.43 2.69-.61 4.08-.45 1.11.13 2.18.45 3.19.93.9.43 1.81.88 2.53 1.59 2.02 2.01 3.13 4.4 2.96 7.3a7.817 7.817 0 0 1-.85 3.2c-.46.89-1.14 1.6-1.84 2.29-.71.7-1.37 1.44-1.62 2.45-.03.11-.09.17-.23.17-.29 0-.58-.02-.87-.08-.82-.17-1.52-.57-2.12-1.13-.3-.28-.62-.49-1.03-.5-.51 0-1.02-.05-1.53-.11-.49-.06-.98-.14-1.44-.32-1.4-.52-2.54-1.4-3.49-2.53-1.01-1.21-1.84-2.54-2.63-3.9-.63-1.08-1.5-1.95-2.63-2.51-1.23-.61-2.55-.8-3.91-.74-.72.03-1.37.27-1.98.68-.55.36-1.11.71-1.66 1.07-.06.04-.12.12-.21.06 0-.1.07-.15.12-.21.29-.31.58-.61.87-.93.39-.42.85-.76 1.26-1.15.24-.23.36-.5.33-.83-.03-.26-.03-.52 0-.77.11-1.08.49-2.03 1.32-2.81Z"/>
  <path fill="#1844b5" d="M30.56 16.97c-.02.78.61 1.25 1.25.95.43-.2.58-.57.43-1.16-.11-.43-.52-.64-.98-.56-.41.08-.6.28-.7.76Z"/>
  <path fill="#0c2780" d="M58.86 32.38h8v3h-8v-3Zm16 0h16v3h-16v-3Z"/>
  <path fill="#d93e3e" d="M66.86 32.38h8v3h-8v-3Z"/>
  <path fill="#1844b5" d="M58.95 25.38V14.21h7.18v1.87h-5.07v2.7h4.42v1.87h-4.42v4.72h-2.11Zm17.66-8.02h-.06l-.86 1.78-2.29 4.22-2.29-4.22-.86-1.78h-.06v8.02h-2V14.21h2.38l2.86 5.46h.06l2.83-5.46h2.29v11.17h-2v-8.02Zm11.54 8.02-.9-2.85h-3.97l-.88 2.85h-2.14L84 14.21h2.62l3.71 11.17h-2.19Zm-2.84-9.25h-.08l-1.42 4.59h2.94l-1.44-4.59Z"/>
</svg>
