<svg xmlns="http://www.w3.org/2000/svg" viewBox="0 0 104 50">
  <path fill="#1844b5" d="M43.65 38.18a34.9 34.9 0 0 0 6.61 1.77c.65.1 1.29.18 1.94.24.48.05.64.28.66.67.02.33-.31.61-.71.6-.34-.01-.69-.05-1.03-.1-2.16-.29-4.28-.78-6.35-1.48-2.26-.76-4.43-1.74-6.58-2.75-1.96-.92-3.93-1.81-5.97-2.53-.06-.02-.13-.03-.21-.05-.09.16-.05.32-.04.48.06.71.14 1.42.18 2.13.03.44-.15.65-.49.68-.43.04-.7-.17-.78-.6-.17-.92-.22-1.86-.26-2.79-.02-.46-.04-.91-.05-1.37 0-.12-.04-.2-.15-.25-.62-.27-1.24-.53-1.85-.8-.15-.07-.21 0-.23.14-.08.53-.16 1.05-.21 1.58-.07.72-.1 1.44-.16 2.16-.03.33-.28.54-.61.53-.33 0-.6-.27-.61-.58-.02-.48.09-.94.13-1.41 0-.02 0-.03.01-.05.11-.68 0-.78-.68-.86-1.59-.17-3.18-.19-4.77-.15-.64.02-1.29.08-1.93.14-.56.06-.88-.21-.83-.73.03-.31.22-.5.53-.54 1.56-.18 3.13-.25 4.69-.19.95.03 1.9.12 2.84.28.18.03.29 0 .32-.22.15-.97.25-1.94.46-2.9.46-2.07 1.01-4.11 1.85-6.07.27-.62.55-1.24.83-1.87.03-.06.08-.12.04-.21-.13 0-.22.08-.3.15-1.63 1.36-3.05 2.9-4.05 4.79-.06.12-.13.25-.21.36-.33.46-.91.4-1.14-.11-.21-.48-.32-1-.38-1.52-.17-1.43.19-2.75.87-3.99.48-.88 1.22-1.53 2.02-2.12.4-.29.82-.54 1.25-.77.07-.04.17-.05.17-.19-.32-.04-.64-.11-.96-.12-.79-.02-1.59 0-2.37.08-.81.07-1.61.13-2.4.32-.36.09-.72.19-1.07.29-.29.08-.58.17-.8-.12-.23-.3-.22-.63-.06-.95.24-.46.59-.83.94-1.19 1.11-1.16 2.43-1.95 4.02-2.22 1.44-.25 2.84-.1 4.21.4.12.04.24.1.38.15.02-.14-.06-.22-.11-.3-.92-1.31-2.01-2.48-3.24-3.5-.24-.2-.51-.36-.79-.48-.19-.08-.36-.2-.49-.36-.29-.38-.16-.81.29-.98.23-.09.47-.11.71-.13 1.31-.11 2.57.03 3.76.66 1.39.74 2.39 1.81 3.02 3.25.12.27.24.54.35.81.04.1.07.19.17.26.12-.05.14-.17.18-.27.56-1.31 1.46-2.31 2.67-3.04.89-.53 1.85-.86 2.9-.91 1.09-.06 2.12.14 3.13.54.12.05.24.1.35.16.46.26.5.77.08 1.1-.25.19-.55.29-.84.39-1.86.66-3.47 1.72-4.89 3.07-.02.02-.04.05-.08.09.09.06.17.02.25 0 1.63-.43 3.22-.34 4.76.37 1.17.54 2.04 1.4 2.73 2.46.36.56.67 1.14.87 1.78.16.52-.04.91-.5.99-.23.04-.45-.04-.64-.16-1.21-.73-2.57-1.07-3.92-1.43-.61-.17-1.24-.3-1.88-.32-.11 0-.23-.01-.31.09 0 .11.1.15.16.21.88.79 1.67 1.64 2.15 2.75.48 1.13.69 2.3.55 3.53-.06.57-.16 1.12-.39 1.65-.17.39-.5.52-.84.36a.654.654 0 0 1-.28-.29c-.4-.69-.76-1.39-1.21-2.05a23.536 23.536 0 0 0-4.06-4.57c-.12-.1-.22-.22-.4-.27-.15.24-.21.52-.31.78-.65 1.68-1.25 3.37-1.66 5.13-.29 1.27-.53 2.54-.64 3.84-.1 1.1-.14 2.2-.12 3.31 0 .2.08.32.25.4.68.35 1.39.46 2.16.45 5.85-.04 11.7-.03 17.54-.03.24 0 .48 0 .72-.02.33-.01.53.12.62.43.09.3-.02.63-.26.78-.17.11-.37.14-.57.14h-6.08c-1.85 0-3.69.02-5.54-.02-1.03-.02-2.07 0-3.1.01-.31 0-.62-.1-.99.01 2.35 1.1 4.65 2.22 7.03 3.17Zm-7.22-21.71c-.38.18-.78.31-1.11.58.76 0 1.5.03 2.23-.01.65-.04 1.29-.05 1.93.04 1.25.16 2.47.46 3.66.85.32.1.65.2 1.02.31-.1-.23-.25-.35-.37-.49-.7-.8-1.5-1.44-2.54-1.74-.9-.26-1.8-.25-2.71-.12-.72.1-1.42.26-2.12.59Zm-8.11-1.32c-.93-.15-1.87-.15-2.79.07-.93.22-1.72.73-2.5 1.3.15.11.23.07.31.06.42-.06.85-.13 1.27-.18.67-.09 1.34-.08 2.01-.12.77-.04 1.53.02 2.29.09.9.09 1.79.21 2.67.38.07.01.16.03.21-.09-1.04-.73-2.15-1.31-3.48-1.5Zm-1.65 5.63c-.77.88-1.42 2.88-1.1 3.37.06-.01.08-.07.1-.11.33-.54.71-1.04 1.11-1.52 1.01-1.24 2.22-2.26 3.47-3.24.42-.33.84-.67 1.32-1.05-.15 0-.21 0-.28.02-.63.17-1.26.34-1.86.61-1.03.47-1.99 1.02-2.78 1.91Zm13.47 3.29.06.09c.05.07.1.17.2.13.1-.04.07-.15.06-.23-.02-.15-.03-.31-.05-.46-.05-.43-.08-.86-.24-1.26-.77-1.95-2.25-3.1-4.2-3.72-.09-.03-.19-.05-.29.06 1.54 1.74 3.22 3.36 4.45 5.4Zm-2.35-11.42c.84-.67 1.78-1.18 2.73-1.67.11-.06.24-.09.27-.23-.07-.08-.15-.07-.23-.07-1.12-.04-2.18.17-3.14.77-1.2.75-1.9 1.9-2.43 3.16-.13.3-.22.62-.32.94l.08.05c.9-1.09 1.92-2.07 3.03-2.95Zm-8.97 16.74c-.06.33-.1.67-.19.99-.06.23.02.34.22.42.48.2.95.41 1.43.61.25.1.29.07.31-.21.06-.84.05-1.68.2-2.52.02-.1 0-.2-.1-.25-.46-.23-.92-.45-1.42-.69-.2.55-.31 1.08-.44 1.64Zm1.73-18.56c-.64-.41-1.3-.81-2.1-.89 1.83 1.65 3.24 3.61 4.49 5.71-.22-1.89-.8-3.58-2.39-4.82Zm-.07 13.08c-.34.75-.58 1.54-.84 2.32-.07.2-.04.33.16.41.32.14.65.28.97.43.19.09.26-.02.28-.18.1-.85.32-1.66.56-2.48.06-.19 0-.34-.18-.43-.17-.08-.34-.16-.51-.25-.19-.1-.33-.08-.43.17Zm1.77-1.68c.2-.54.41-1.08.62-1.61.13-.34.28-.67.42-1 .07-.16-.02-.28-.13-.35-.11-.08-.18.05-.25.12-.07.07-.13.14-.18.22-.56.78-1.03 1.61-1.47 2.46-.17.34-.17.35.17.53.59.33.61.33.82-.36Z"/>
  <path fill="#fff" d="M45.35 37.38h-.47c-.4-.01-.65-.26-.64-.65 0-.36.27-.62.65-.62h3.51c.43 0 .67.22.68.6 0 .39-.27.67-.69.67h-3.05Z"/>
  <circle cx="46.89" cy="27.25" r="3.97" fill="#fff"/>
  <path fill="#0c2780" d="M55.33 33.16h6v3h-6v-3Z"/>
  <path fill="#d93e3e" d="M67.33 33.16h6v3h-6v-3Z"/>
  <path fill="#fff" d="M73.33 33.16h6v3h-6v-3Z"/>
  <path fill="#069446" d="M79.33 33.16h6v3h-6v-3Z"/>
  <path fill="#f5ad11" d="M61.33 33.16h6v3h-6v-3Z"/>
  <path fill="#1844b5" d="M55.51 26.16V14.99h7.18v1.87h-5.07v2.7h4.42v1.87h-4.42v4.72h-2.11Zm12.7.2c-.96 0-1.78-.17-2.45-.51a5.71 5.71 0 0 1-1.71-1.34l1.42-1.38c.38.45.81.79 1.28 1.02.48.24 1.01.35 1.58.35.65 0 1.14-.14 1.47-.42.33-.29.5-.67.5-1.15 0-.37-.11-.68-.32-.91-.21-.24-.61-.41-1.2-.51l-1.06-.16c-2.23-.35-3.34-1.43-3.34-3.25 0-.5.09-.95.27-1.36.19-.41.46-.75.82-1.04.37-.3.8-.52 1.26-.66a5.42 5.42 0 0 1 1.7-.24c.84 0 1.58.14 2.21.42.63.28 1.17.69 1.62 1.23l-1.44 1.36c-.28-.34-.62-.62-1.01-.83-.39-.21-.89-.32-1.49-.32s-1.07.12-1.38.35c-.3.22-.45.54-.45.96s.12.74.37.94c.25.2.64.35 1.18.45l1.04.19c1.13.2 1.96.57 2.5 1.09.54.51.82 1.23.82 2.16 0 .53-.1 1.02-.29 1.46-.18.43-.45.8-.82 1.12-.35.31-.79.55-1.31.72-.51.17-1.1.26-1.78.26Zm13.22-.2-.89-2.85h-3.97l-.88 2.85h-2.14l3.74-11.17h2.62l3.71 11.17h-2.19Zm-2.84-9.24h-.08l-1.42 4.59h2.94l-1.44-4.59Z"/>
</svg>
