<svg xmlns="http://www.w3.org/2000/svg" viewBox="0 0 104 50">
  <path fill="#fff" d="M16.6 33.3h.89l1.81-6.33-.12-.39 1.44-.85.15-1.18L18.93 23l-1.4-.52-2.1.92-1.03.3-.41 1.55.74 1.14.4 12.76 2.51-2.51v-1.62h-1.03v-1.73Zm9.55-25.45c1.16 0 2.15.68 2.52 1.62.24-.12.51-.19.79-.19 1.06 0 1.92.92 1.92 2.05 0 .14-.01.27-.04.41.27-.22.63-.35 1.02-.35.85 0 1.53.63 1.53 1.4s-.69 1.4-1.53 1.4-1.53-.63-1.53-1.4v-.02c-.17.18-.36.33-.58.43.04.1.06.22.07.33 0 .67-.77 1.22-1.73 1.22s-1.73-.54-1.73-1.22c0-.49.41-.91 1-1.1-.03-.05-.05-.09-.08-.14-.4.28-.89.46-1.42.49-.57.55-1.44.9-2.42.9-1.14 0-2.13-.47-2.67-1.17-.14.04-.29.07-.43.09v.02c0 .85-.82 1.55-1.82 1.55h-.13v.02c0 1.03-.98 1.86-2.19 1.86s-2.19-.83-2.19-1.86.98-1.86 2.19-1.86c.18 0 .35.02.52.05.12-.65.72-1.17 1.49-1.28.03-.79.86-1.43 1.88-1.43.33 0 .64.07.91.19.57-.56 1.45-.92 2.44-.92.49-.64 1.3-1.07 2.22-1.07Z"/>
  <path fill="#1844b5" d="M27.07 26c-.07-.96-.16-1.92-.27-2.88-.1-.91-.18-1.81-.13-2.73.04-.67.43-1.15.96-1.53.58-.41 1.11-.85 1.45-1.49.13-.25.24-.5.31-.77.02-.08.05-.15 0-.22-.09-.15-.86-.34-1.02-.25-.94.5-1.93.73-2.99.63-.2-.02-.29.05-.34.24-.24.82-.34 1.65-.36 2.49-.01.67.03 1.35-.01 2.02-.06.95-.16 1.91-.25 2.86-.06.68-.14 1.35-.2 2.03-.08.74-.15 1.49-.23 2.23-.04.37-.35.6-.74.57-.36-.03-.58-.26-.56-.66.03-.89.16-1.77.25-2.66.08-.78.18-1.56.26-2.34.07-.64.15-1.28.17-1.92.03-.95-.44-1.59-1.33-1.95-.57-.23-1.18-.23-1.77-.34-1.34-.25-2.42-.89-3.07-2.13-.14-.27-.36-.17-.55-.16a3.6 3.6 0 0 1-1.88-.33c-1.96-.93-2.25-3.42-.57-4.84.77-.65 1.67-.96 2.69-.88.27.02.42-.05.57-.3.91-1.68 2.76-2.45 4.66-1.95.23.06.35.02.5-.17.84-1.06 1.96-1.53 3.3-1.5 1.28.02 2.32.54 3.09 1.56.1.13.18.2.38.14 1.89-.59 4.06.29 4.85 2.02.09.19.22.21.4.2.76-.05 1.49.07 2.17.43 1.54.81 2.16 2.73 1.31 4.15-.49.82-1.26 1.26-2.19 1.38-.52.07-.88.2-1.21.66-.89 1.22-2.19 1.71-3.66 1.83-.61.05-1.23.07-1.81.28-1.04.37-1.48 1.15-1.32 2.25.13.87.21 1.75.32 2.62.11.92.23 1.84.33 2.76.06.53.12 1.07.12 1.6 0 .36-.23.65-.5.86-.28.23-.69.04-.74-.33-.09-.67-.16-1.35-.24-2.02-.06-.48-.11-.97-.17-1.48Zm1.72-11.39c.09.05.19.09.28.15 1.09.71 2.17.7 3.25-.03.39-.26.7-.2 1.01.17.65.78 1.86 1.09 2.81.71 1.2-.48 1.47-1.72.56-2.64-.7-.71-1.54-.83-2.47-.62-.6.14-.82 0-1.01-.6-.21-.68-.62-1.21-1.26-1.54-.87-.44-1.75-.45-2.63-.02-.53.25-.83.15-1.08-.36-.58-1.17-1.89-1.74-3.18-1.39-.82.22-1.38.72-1.76 1.46-.21.41-.5.51-.93.32-.07-.03-.14-.07-.21-.1-.53-.24-1.12-.3-1.69-.19-1.09.22-1.78.89-2.08 1.95-.09.31-.27.49-.57.52-.14.02-.28-.03-.42-.06-.83-.19-1.61-.09-2.28.46-.56.45-.88 1.05-.68 1.78.19.7.75 1.03 1.44 1.16.96.17 1.75-.14 2.42-.83.34-.35.62-.41.99-.16 1.07.75 2.15.71 3.23.03.36-.23.66-.22 1.01.02 1.41.99 3.17.98 4.57-.03.2-.14.4-.23.69-.16Zm4.27 2.89c.25-.21.51-.42.7-.72-.38-.21-.73-.39-1.02-.66-.09-.09-.18-.02-.26.01-.47.23-.99.36-1.52.39-.09 0-.18 0-.21.11-.14.56-.33 1.09-.63 1.6 1.33 0 2.12-.19 2.94-.74Zm-11.09-1.05c-.13.19-.03.39 0 .58.14.85.66 1.41 1.37 1.85.02-.07.03-.11.03-.15.07-.57.11-1.14.28-1.69.19-.6.18-.6-.38-.89-.12-.06-.24-.17-.4-.08-.28.16-.59.23-.92.36Zm-3.54.28c.55.86 1.8 1.57 2.46 1.36-.17-.44-.27-.89-.31-1.36-.01-.13-.07-.19-.21-.22a4.27 4.27 0 0 1-1.26-.38c-.08-.04-.15-.06-.24 0-.13.11-.27.21-.42.31-.1.07-.1.15-.02.28Zm14.11 12.9c-1.34.54-2.02 1.58-2.25 2.93-.07.41.14.82.24 1.23.15.59.35 1.17.32 1.8-.01.26-.02.52-.11.77-.2.6-.12 1.19-.04 1.79.14 1.17.29 2.33.44 3.5.02.19.06.38.09.57.04.23 0 .43-.21.56-.19.14-.45.14-.65 0a.919.919 0 0 1-.42-.66c-.17-1.04-.28-2.08-.41-3.13-.06-.49-.12-.99-.17-1.49-.06-.64.05-1.26.2-1.88-.29.59-.76 1.1-.83 1.78-.02.16-.02.33-.05.49-.11.47-.57.61-.92.28-.27-.25-.33-.58-.28-.93.05-.43.16-.85.39-1.22.67-1.09.94-2.3 1.12-3.56.27-1.96 1.48-3.69 3.7-4.22.48-.12.96-.26 1.44-.4.41-.12.76-.35 1.03-.7.29-.38.64-.69 1.05-.94 1.13-.67 1.9-1.64 2.48-2.8.63-1.27 1.32-2.51 1.98-3.77.16-.31.34-.6.57-.86a.46.46 0 0 0 .1-.45c-.07-.28-.17-.55-.15-.84 0-.34.26-.62.6-.67.3-.04.59.16.7.48.02.06.05.13.06.19 0 .3.18.31.41.28.2-.03.29-.11.22-.33a.787.787 0 0 1 0-.48c.09-.26.33-.44.61-.44.29-.01.55.16.65.43a3 3 0 0 1 .18.84c.03.3.14.5.42.66.56.32 1.08.69 1.65 1.01.68.38.87 1.23.7 1.79-.19.62-.75 1-1.51 1.02-.52.02-1.03.07-1.55.12-.31.03-.45.26-.53.54-.33 1.13-.67 2.26-1.01 3.39-.28.92-.53 1.84-.83 2.75-.17.5-.23 1.01-.26 1.52-.05 1.06-.24 2.09-.64 3.08-.21.52-.21 1.07-.28 1.61-.14 1.14-.26 2.28-.39 3.42l-.3 2.68c-.03.23.06.41.21.57.2.21.26.45.12.71-.12.22-.41.3-.72.22-.5-.12-.84-.62-.86-1.26-.02-.55.08-1.09.13-1.63.08-.86.18-1.71.27-2.57.11-1.02.24-2.03.32-3.05.04-.49.19-.94.36-1.38.35-.91.51-1.86.52-2.84 0-.65.23-1.26.41-1.87l1.74-5.84c.25-.83.82-1.29 1.69-1.36.51-.04 1.01-.1 1.52-.11.14 0 .28-.04.33-.19.05-.16-.11-.21-.21-.27-.75-.46-1.51-.92-2.27-1.36-.28-.17-.57-.06-.82.07-.41.21-.73.51-.95.93-.77 1.49-1.56 2.97-2.34 4.46a6.38 6.38 0 0 1-2.33 2.53c-.4.24-.76.55-1.06.92-.52.65-1.24.98-2.02 1.19-.52.14-1.03.28-1.57.43Z"/>
  <path fill="#1844b5" d="M20.59 35.69v2.65c0 .2.04.25.26.24 1.29-.05 2.59-.09 3.88.07.23.03.46.04.69.07.34.04.55.27.53.6-.01.37-.26.66-.6.64-.38-.02-.76-.08-1.14-.11-1.46-.11-2.94-.09-4.4.05-1.5.14-2.98.43-4.4.93-.47.17-.92.38-1.39.56-.45.17-.82.02-.93-.37-.08-.28.03-.64.37-.76.53-.19.55-.54.55-1.01-.02-4.12-.02-8.24-.02-12.36 0-.22-.03-.35-.28-.4-.35-.08-.49-.37-.51-.69-.04-.44-.06-.88.02-1.32.13-.79.62-1.26 1.39-1.42.23-.05.45-.17.6-.36 1.07-1.22 3.03-1.24 4.11-.04.21.23.43.34.72.41.67.16 1.37.62 1.41 1.82.01.34.04.69-.05 1.03-.08.33-.27.56-.61.61-.17.02-.2.11-.2.25v3.37c0 .22.09.27.29.27h3.77c.63 0 .91.2 1.12.78.12.33.25.66.36 1 .06.19.17.26.36.25.14 0 .29 0 .43.02.41.06.6.29.61.7 0 .3-.14.51-.44.54-.46.05-.92.07-1.37-.04-.34-.08-.55-.34-.67-.67-.13-.34-.25-.68-.37-1.03-.07-.22-.19-.31-.44-.31-1.11.01-2.23.02-3.34 0-.26 0-.33.11-.33.35v3.66Zm-1.3-1.41v-7.4c0-.27-.08-.35-.34-.34-1.09.01-2.19 0-3.28 0-.38 0-.38 0-.38.39v12.26c0 .1-.04.21.07.32 1.17-.36 2.37-.62 3.6-.76.26-.03.33-.14.32-.39-.01-1.34 0-2.69 0-4.09ZM16.7 23.2c-.31.14-.57.37-.73.67-.18.31-.43.47-.8.44a.694.694 0 0 0-.56.24c-.15.18-.16.4-.1.6.05.2.26.11.4.11h2.24c.9 0 1.8-.01 2.7 0 .27 0 .33-.11.28-.35-.09-.44-.26-.6-.73-.6-.39 0-.64-.15-.85-.47-.42-.67-1.06-.89-1.85-.63Zm20.45 17.79c-.07-1.26-.15-2.5-.22-3.73-.03-.61-.06-1.23-.07-1.84-.01-.4-.05-.44-.44-.36-.78.17-1.57.26-2.37.23-.19 0-.3.06-.37.23-.18.44-.41.87-.67 1.27-.17.26-.26.56-.26.87-.02.51-.03 1.01-.06 1.52-.05.8-.06 1.61-.09 2.42 0 .17.07.32.11.47.06.26.1.52-.14.71-.21.17-.52.16-.78-.02-.31-.2-.44-.51-.46-.86-.03-1.03.06-2.05.1-3.08.01-.31.03-.61.01-.92-.02-.67.15-1.32.51-1.89.6-.99.98-2.06 1-3.23 0-.33.28-.6.61-.59.33 0 .61.27.62.6.02.31.03.62-.03.92-.03.19 0 .26.21.27.67.03 1.32-.1 1.96-.25.17-.04.2-.14.16-.3-.06-.24-.06-.48.08-.69.14-.22.35-.34.61-.31.27.02.48.17.55.44.2.77.39 1.54.44 2.34.08 1.55.14 3.1.25 4.65.06.8.03 1.61.21 2.4.05.21-.04.42-.23.52-.22.13-.45.1-.65-.03-.34-.22-.48-.56-.53-.95-.03-.27-.04-.53-.06-.83Zm5.82-1.54c-.46-.43-.78-.92-1.03-1.47a.855.855 0 0 1-.08-.47c.02-.29.28-.51.57-.49.03 0 .05 0 .08.01.39.09.67.36.96.62.08.08.15.17.27.3.13-.33.13-.63.19-.91.02-.09-.09-.14-.15-.2-.69-.58-1.12-1.33-1.36-2.19-.08-.3-.09-.6.18-.82.22-.18.54-.16.86.04.47.3.8.71 1.03 1.21.04.08.08.17.12.26.15-.03.18-.16.24-.25.33-.52.74-.96 1.24-1.31.19-.13.4-.25.64-.22.4.04.63.44.46.84-.28.65-.69 1.21-1.28 1.59-.36.23-.53.53-.62.92-.04.19-.12.38-.12.63l.48-.32c.33-.22.68-.4 1.07-.47.28-.05.52 0 .69.24.17.26.09.5-.09.71-.54.65-1.19 1.15-2 1.4-.24.07-.3.19-.29.43.02.83.24 1.61.53 2.37.17.44.05.78-.31.91-.31.11-.62-.02-.79-.35-.38-.69-.55-1.45-.66-2.22-.03-.17-.08-.28-.24-.36-.21-.11-.38-.26-.57-.42Z"/>
  <path fill="#1844b5" d="M22.48 35.83c-.39-.07-.58-.26-.59-.61-.02-.38-.02-.77 0-1.15.02-.42.28-.65.69-.64.36.01.59.27.6.67v1.04c0 .48-.2.68-.7.7Zm2.16 1.44a.595.595 0 0 1-.23-.52v-.95c0-.32.21-.55.52-.59.37-.05.66.11.73.44.09.43.1.88 0 1.31-.1.43-.54.56-1.02.31Zm-8.04-8.48c.01-.12.02-.22.03-.31.04-.33.27-.52.61-.52s.63.21.64.53c.02.7.02 1.4 0 2.1-.01.33-.32.54-.68.52-.33-.02-.56-.23-.56-.56l-.03-1.75Z"/>
  <path d="M50.94 34.05h8v3h-8v-3Z"/>
  <path fill="#ffaa0d" d="M58.94 34.05h8v3h-8v-3Z"/>
  <path fill="#66b849" d="M66.94 34.05h8v3h-8v-3Z"/>
  <path fill="#d93e3e" d="M74.94 34.05h8v3h-8v-3Z"/>
  <path fill="#0c2780" d="M82.94 34.05h8v3h-8v-3Z"/>
  <path fill="#1844b5" d="M51.58 27.05V15.88h7.18v1.87h-5.07v2.7h4.42v1.87h-4.42v4.72h-2.11Zm12.71.19c-.96 0-1.78-.17-2.45-.51a5.71 5.71 0 0 1-1.71-1.34l1.42-1.38c.38.45.81.79 1.28 1.02.48.24 1.01.35 1.58.35.65 0 1.14-.14 1.47-.42.33-.29.5-.67.5-1.15 0-.37-.11-.68-.32-.91-.21-.24-.61-.41-1.2-.51l-1.06-.16c-2.23-.35-3.34-1.43-3.34-3.25 0-.5.09-.95.27-1.36.19-.41.46-.75.82-1.04.37-.3.8-.52 1.26-.66a5.42 5.42 0 0 1 1.7-.24c.84 0 1.58.14 2.21.42.63.28 1.17.69 1.62 1.23l-1.44 1.36c-.28-.34-.62-.62-1.01-.83-.39-.21-.89-.32-1.49-.32s-1.07.12-1.38.35c-.3.22-.45.54-.45.96s.12.74.37.94c.25.2.64.35 1.18.45l1.04.19c1.13.2 1.96.57 2.5 1.09.54.51.82 1.23.82 2.16 0 .53-.1 1.02-.29 1.46-.18.43-.45.8-.82 1.12-.35.31-.79.55-1.31.72-.51.17-1.1.26-1.78.26Zm10.64 0c-.74 0-1.4-.12-2-.35a4.1 4.1 0 0 1-1.52-1.09c-.42-.48-.74-1.07-.96-1.78-.22-.72-.34-1.54-.34-2.48s.11-1.77.34-2.5c.22-.74.54-1.35.96-1.84.41-.49.93-.88 1.52-1.14.6-.26 1.26-.38 2-.38 1 0 1.83.21 2.5.64.66.43 1.19 1.07 1.58 1.94l-1.81.96c-.16-.5-.42-.9-.78-1.2-.36-.31-.86-.46-1.49-.46-.79 0-1.42.27-1.89.8-.46.53-.69 1.28-.69 2.24v1.76c0 .97.23 1.72.69 2.24.47.51 1.1.77 1.89.77.63 0 1.14-.17 1.54-.51.4-.34.7-.76.88-1.26l1.71 1.01c-.41.83-.94 1.48-1.62 1.95-.67.46-1.51.69-2.51.69Zm12.75-.19-.9-2.85h-3.97l-.88 2.85h-2.14l3.74-11.17h2.62l3.71 11.17h-2.19Zm-2.85-9.25h-.08l-1.42 4.59h2.94l-1.44-4.59Z"/>
</svg>
