<svg xmlns="http://www.w3.org/2000/svg" viewBox="0 0 104 50">
  <path fill="#fff" d="m23.76 18.13-1.85-.64 5.41-6.41 6.06-.14 8.19 8.19-4.63-1-3.63-1.64-2.49 1.92-2.92-1.64-4.13 1.35Z"/>
  <path fill="#1844b5" d="M40.42 26.86c-.61.53-1.36.64-2.09.8-.17.04-.34.08-.52.09-.29.02-.4.16-.38.45.02.43.02.85 0 1.28 0 .19.07.26.26.26h1.14c.43 0 .74.29.75.69 0 .38-.29.69-.7.72-.32.02-.65.02-.97 0-.27-.01-.38.06-.36.35.06 1.03.13 2.05.22 3.07.12 1.45.15 2.91.12 4.36 0 .41-.28.67-.66.69-.4.02-.66-.19-.73-.61-.04-.22-.03-.44-.03-.67-.02-1.03-.01-2.06-.06-3.09-.06-1.3-.18-2.6-.27-3.9 0-.14-.06-.21-.2-.2H25.39c-.4-.01-.39-.01-.41.38-.04 1-.07 2-.11 3-.07 1.5-.19 2.99-.39 4.47-.05.36-.29.56-.67.57-.39 0-.67-.21-.7-.56-.05-.51.04-1.02.07-1.52l.21-2.79c.08-1.04.15-2.08.17-3.13.01-.4 0-.42-.41-.42-.39 0-.78.03-1.17-.03-.38-.05-.58-.33-.55-.76.02-.35.27-.61.63-.62.42-.01.83-.01 1.25 0 .24 0 .3-.09.3-.31-.01-.37 0-.74 0-1.11 0-.47-.06-.53-.53-.6-.63-.09-1.26-.21-1.85-.47-.64-.27-.98-.75-1.02-1.45-.03-.53-.1-1.05-.14-1.58-.01-.15-.03-.3 0-.44.07-.45.48-.7.95-.53 1.34.47 2.74.68 4.14.9 1.24.19 2.48.38 3.75.43 1.08.05 2.17.05 3.25.03 1.28-.03 2.54-.18 3.8-.4 1.33-.23 2.65-.48 3.95-.89.69-.22 1.15.14 1.11.86-.05.7-.14 1.4-.23 2.09-.03.23-.17.41-.34.58Zm-6.92-.92c-.62.04-1.24.09-1.86.11-1.37.04-2.74-.04-4.1-.16-1.39-.12-2.77-.35-4.15-.54-.59-.07-1.17-.2-1.73-.38-.05.23 0 .42 0 .62.01.27.15.4.39.46.62.17 1.26.3 1.9.4 1.27.21 2.54.4 3.82.47 1.37.08 2.73.2 4.1.11 1.37-.09 2.74-.14 4.09-.35 1.03-.16 2.06-.37 3.07-.63.24-.06.35-.2.36-.42.01-.19 0-.38 0-.58-.04 0-.07-.02-.1 0-.87.25-1.76.34-2.64.49-1.03.17-2.06.36-3.16.41Zm-7.69 3.8h3.78c.22 0 .29-.07.29-.29 0-.25-.05-.5-.07-.74-.01-.18-.11-.26-.31-.26-1.41 0-2.81-.13-4.21-.3-.19-.02-.23.05-.23.21 0 .2-.02.4-.04.61-.1.78-.09.78.7.78h.08Zm6.18 0h3.75c.17 0 .36 0 .31-.23-.08-.35-.04-.7-.07-1.05-.03-.31-.17-.32-.4-.28-.76.13-1.52.16-2.29.21-.49.03-.98.04-1.47.1-.52.06-.52.07-.52.62q0 .64.68.64Z"/>
  <path fill="#1844b5" d="M24.88 12.66c.51-.54 1-1.07 1.5-1.59.43-.45.97-.69 1.59-.69 1.7-.02 3.4-.01 5.09 0 .64 0 1.19.29 1.62.75 1.55 1.65 3.13 3.26 4.72 4.87 2.27 2.3 4.61 4.51 7.09 6.58.96.8 1.99 1.52 3 2.26.25.18.45.38.45.72 0 .28-.07.52-.31.67-.26.16-.53.11-.76-.05-.45-.31-.89-.64-1.33-.97-2.23-1.64-4.31-3.45-6.3-5.38a.79.79 0 0 0-.5-.24c-1.47-.15-2.94-.38-4.3-1-.74-.33-1.42-.77-2.11-1.18-.23-.14-.46-.28-.73-.32-.52-.08-.84.23-1.12.58-.22.27-.44.53-.71.74-.84.68-1.77.69-2.66.05-.3-.22-.58-.47-.87-.69-.32-.25-.67-.24-1.03-.14-.56.15-1.05.46-1.56.72-.46.23-.91.45-1.42.57-.85.19-1.61-.03-2.31-.52l-.35-.25c-.39.35-.77.69-1.14 1.04-2.62 2.47-5.35 4.81-8.25 6.95-.35.26-.73.25-.98-.03-.24-.27-.24-.83.04-1.07.34-.3.72-.55 1.08-.83 2.13-1.59 4.11-3.35 6.08-5.12 1.82-1.63 3.51-3.38 5.22-5.13.41-.42.82-.85 1.25-1.3Zm-.61 2.71c-.49.5-.99 1-1.48 1.51-.21.21-.2.25.05.41.56.37 1.12.28 1.68.01.78-.37 1.52-.81 2.35-1.06.64-.21 1.34-.14 1.93.18.42.22.75.54 1.09.85.39.35.7.33 1.07-.04.18-.18.35-.38.53-.57.39-.4.8-.77 1.35-.95.67-.22 1.27-.02 1.85.31 1.01.58 2.01 1.16 3.1 1.57.45.17.9.33 1.4.3 0-.13-.11-.17-.18-.24-1.78-1.78-3.55-3.56-5.26-5.4-.25-.27-.56-.44-.93-.44h-4.65c-.33 0-.64.12-.87.38-.99 1.08-2.01 2.14-3.05 3.18ZM12.39 37.4c1.36-.74 2.75-1.37 4.23-1.79 1.26-.35 2.54-.65 3.87-.66.42 0 .84-.08 1.27 0 .17.03.23.1.27.26.04.17.06.35.04.52-.03.37-.19.52-.57.54-1.2.07-2.4.11-3.58.4-1.74.44-3.42 1.12-4.97 2.03l-.81.48c-.36.21-.79.1-.99-.24-.2-.34-.09-.76.27-.98.32-.19.64-.38.97-.58Zm30.88-.08c1.49-.17 2.91-.55 4.29-1.09.44-.17.87-.37 1.31-.55.57-.24 1.1.13 1.04.72-.03.31-.25.46-.49.59-.77.4-1.58.68-2.4.96a18.3 18.3 0 0 1-3.43.77c-.23.03-.46.06-.69.06-.77 0-1.53.1-2.3.06-.3-.01-.59-.03-.88-.06-.27-.03-.43-.17-.49-.45-.05-.29.03-.55.13-.81.06-.15.2-.11.32-.11h2.58c.33 0 .66-.06 1.02-.09ZM30.6 35.9c1.41.33 2.79.65 4.18.96.17.04.26.13.31.28.08.28.15.56.06.85-.06.2-.18.31-.4.31-.45-.02-.87-.16-1.3-.26-1.67-.38-3.33-.78-4.99-1.15-.61-.14-1.23-.24-1.85-.37-.45-.09-.7-.4-.59-.86.18-.79 0-.7.75-.57 1.28.22 2.56.5 3.84.81Z"/>
  <path fill="#fff" d="M15.02 30.64c.08-.18.3-.26.48-.18.08.04.14.1.18.18.05.11.16.19.28.21.2.02.34.2.32.4 0 .09-.05.17-.11.22-.09.09-.13.21-.11.33a.36.36 0 0 1-.28.42c-.08.02-.17 0-.25-.04a.363.363 0 0 0-.35 0c-.17.1-.39.04-.49-.14a.363.363 0 0 1-.04-.25.367.367 0 0 0-.11-.33.353.353 0 0 1-.02-.51c.06-.06.14-.1.22-.11.12-.01.23-.09.29-.21Zm.59 2.84c.07-.16.26-.23.43-.16.07.03.13.09.16.16.05.1.14.17.25.19.18.02.3.18.28.36 0 .08-.04.15-.1.2-.08.08-.12.19-.1.3.03.17-.08.34-.25.38-.07.01-.15 0-.22-.03a.339.339 0 0 0-.31 0c-.15.09-.35.03-.44-.12a.287.287 0 0 1-.03-.22.339.339 0 0 0-.1-.3.317.317 0 0 1-.02-.45c.05-.06.12-.09.2-.1.11-.01.21-.08.25-.19Zm4.07-4.35c.07-.16.26-.23.43-.16.07.03.13.09.16.16.05.1.14.17.25.18.18.02.3.18.28.36 0 .08-.04.15-.1.2-.08.08-.12.19-.1.3.03.17-.08.34-.25.38-.08.02-.15 0-.22-.03a.339.339 0 0 0-.31 0c-.15.09-.35.03-.44-.12a.282.282 0 0 1-.03-.22.339.339 0 0 0-.1-.3.317.317 0 0 1-.02-.45c.05-.06.12-.09.2-.1.11-.01.21-.08.25-.18Zm-6.95 0c.06-.13.22-.19.35-.13.06.03.1.07.13.13.04.08.12.14.21.15.14.02.25.15.23.29 0 .06-.04.12-.08.16-.07.06-.1.15-.08.24.03.14-.06.28-.21.31-.06.01-.13 0-.18-.03a.297.297 0 0 0-.26 0c-.13.07-.29.02-.36-.1-.03-.05-.04-.12-.03-.18a.243.243 0 0 0-.08-.24.257.257 0 0 1-.01-.37c.04-.05.1-.08.16-.08.09-.01.17-.07.21-.15Zm.64 3.56c.06-.13.22-.19.35-.13.06.03.1.07.13.13.04.08.12.14.21.15.14.02.25.15.23.29 0 .06-.04.12-.08.16-.07.06-.1.15-.08.24.03.14-.06.28-.21.31-.06.01-.12 0-.18-.03a.297.297 0 0 0-.26 0c-.13.07-.29.03-.36-.1-.03-.05-.04-.12-.03-.18a.243.243 0 0 0-.08-.24.257.257 0 0 1-.01-.37c.04-.05.1-.08.16-.08.09-.01.17-.07.21-.15Zm4.2-7.27c.06-.13.22-.19.35-.13.06.03.1.07.13.13.04.08.12.14.21.15.14.02.25.15.23.29 0 .06-.04.12-.08.16-.07.06-.1.15-.08.25.03.14-.06.28-.21.31-.06.01-.12 0-.18-.03a.297.297 0 0 0-.26 0c-.13.07-.29.03-.36-.1-.03-.05-.04-.12-.03-.18a.267.267 0 0 0-.08-.25.257.257 0 0 1-.01-.37c.04-.05.1-.08.16-.08.09-.01.17-.07.21-.15Zm-5.56 5.7c.06-.13.22-.19.35-.13.06.03.1.07.13.13.04.08.12.14.21.15.14.02.25.15.23.29 0 .06-.04.12-.08.16-.07.06-.1.15-.08.24.03.14-.06.28-.21.31-.06.01-.13 0-.18-.03a.297.297 0 0 0-.26 0c-.13.07-.29.02-.36-.1-.03-.05-.04-.12-.03-.18a.243.243 0 0 0-.08-.24.257.257 0 0 1-.01-.37c.04-.05.1-.08.16-.08.09-.01.17-.07.21-.15Zm6.84.93a.429.429 0 0 1 .72.31c0 .15.09.29.22.37.21.12.28.39.16.59-.05.09-.13.16-.23.19-.14.05-.25.17-.28.32-.05.24-.28.39-.51.34a.477.477 0 0 1-.26-.16.448.448 0 0 0-.39-.17.437.437 0 0 1-.48-.39c-.01-.1.01-.21.07-.29.09-.13.1-.29.04-.42-.1-.22 0-.48.22-.58.09-.04.2-.05.3-.02.15.04.3 0 .42-.09Zm-1.79-4.09a.436.436 0 0 1 .79-.05c.07.13.21.22.36.23.37.02.55.47.29.74-.1.11-.14.27-.1.41.06.23-.08.47-.31.53-.1.03-.21.02-.3-.03a.397.397 0 0 0-.42.03c-.2.13-.47.07-.6-.13a.449.449 0 0 1-.07-.3c.02-.15-.04-.3-.16-.4a.43.43 0 0 1 .2-.76c.15-.03.27-.13.33-.27Z"/>
  <path fill="#d93e3e" d="M66.96 32.47h13v3h-13v-3Z"/>
  <path fill="#fff" d="M79.96 32.47h13v3h-13v-3Zm-26 0h13v3h-13v-3Z"/>
  <path fill="#1844b5" d="M60.99 14.31v8.03c0 .5-.08.95-.26 1.36-.16.41-.4.75-.7 1.04-.32.3-.69.53-1.1.67-.44.16-.93.24-1.47.24-1.03 0-1.84-.27-2.42-.8-.58-.54-.94-1.26-1.1-2.16l1.95-.4c.1.48.27.85.51 1.12.26.26.6.38 1.04.38s.76-.13 1.02-.38c.28-.27.42-.67.42-1.22v-6.16h-3.52V14.3h5.63Zm2.56 11.16V14.3h7.18v1.87h-5.07v2.7h4.42v1.87h-4.42v4.72h-2.11Zm12.7.2c-.96 0-1.78-.17-2.45-.51a5.71 5.71 0 0 1-1.71-1.34l1.42-1.38c.38.45.81.79 1.28 1.02.48.24 1.01.35 1.58.35.65 0 1.14-.14 1.47-.42.33-.29.5-.67.5-1.15 0-.37-.11-.68-.32-.91-.21-.24-.61-.41-1.2-.51l-1.06-.16c-2.23-.35-3.34-1.43-3.34-3.25 0-.5.09-.95.27-1.36.19-.41.46-.75.82-1.04.37-.3.8-.52 1.26-.66a5.42 5.42 0 0 1 1.7-.24c.84 0 1.58.14 2.21.42s1.17.69 1.62 1.23l-1.44 1.36c-.28-.34-.62-.62-1.01-.83-.39-.21-.89-.32-1.49-.32s-1.07.12-1.38.35c-.3.22-.45.54-.45.96s.12.74.37.94c.25.2.64.35 1.18.45l1.04.19c1.13.2 1.96.57 2.5 1.09.54.51.82 1.23.82 2.16 0 .53-.1 1.02-.29 1.46-.18.43-.45.8-.82 1.12-.35.31-.79.55-1.31.72-.51.17-1.1.26-1.78.26Zm13.22-.2-.9-2.85H84.6l-.88 2.85h-2.14l3.74-11.17h2.62l3.71 11.17h-2.19Zm-2.84-9.24h-.08l-1.42 4.59h2.94l-1.44-4.59Z"/>
</svg>
