<svg xmlns="http://www.w3.org/2000/svg" viewBox="0 0 104 50">
  <path fill="#fff" d="M42.14 23.21c1.17.53 3.52 1.71 3.52 2.25s.68 1.57 1.03 2.01c.79-.49 2.49-1.47 2.93-1.47.55 0 1.62 1.29 1.18 2.06-.44.77-4.31 5.1-5.18 5.1-.7 0-4.19.07-5.84.11l-4.03-2.67c-.64-1-1.9-3.17-1.81-3.87.09-.7.39-1.08.53-1.18.97.14 2.98.47 3.26.68.28.21 1.6 1.62 2.23 2.3.26-.95.8-2.89.83-3.06.04-.18.92-1.58 1.36-2.25Zm-20.83 9.84-1.62.09.35-2.89h5.55l-4.28 2.8ZM27 29.07h-6.81l.11-.92H27v.92Zm17.24-13.52-.61 1.71-1.32 1.31h-3.63l.1-2.84-3.54.22-.09 2.62h-4.69l.23-2.62h-3.63v2.62h-1.49v1.18h1.48v.92h-2.48v1.18h2.47v.92h-3.39v1.18h3.39v.92H22.6v1.18h4.43v.92h-6.57l1.35-11.07c-1.39-.47-4.16-1.46-4.2-1.71l-.09-.79 27.69-.17-.96 2.32ZM29.76 26.53l.04-.48h.44l-.49.48Zm1.67-1.66H29.9l.08-.92h2.38l-.93.92Zm2.12-2.1h-3.47l.08-.92h4.31l-.93.92Zm5-.48v-.44h.44l-.44.44Zm-3.48-1.62h-4.81l.08-.92h4.75l-.03.92Zm5.11 0H38.6l.03-.92h2.47l-.93.92Z"/>
  <path fill="#1844b5" d="M25.08 10.32c.26-.01.52 0 .78.03.57.08.75.27.81.83.02.18 0 .36 0 .55 0 .45.02.47.49.47h9.67c.54 0 .61-.06.59-.58-.05-1.2.36-1.3 1.32-1.33 1.21-.03 2.42-.02 3.62 0 .85 0 1.12.29 1.13 1.13q0 .78.78.78h.79c.39.02.62.2.68.59.19 1.19.02 2.27-.96 3.09-.14.11-.13.25-.13.4 0 1.15 0 2.3-.01 3.45 0 .18-.02.36-.06.54-.08.31-.3.44-.61.44s-.5-.15-.58-.43c-.04-.16-.07-.33-.06-.5 0-1.06 0-2.12.01-3.18 0-.32-.09-.44-.42-.44-.95 0-1.89 0-2.83-.04-.35-.01-.49.12-.53.45-.09.92-.2 1.83-.29 2.74-.12 1.15-.22 2.31-.34 3.46-.05.43-.33.68-.68.66-.36-.03-.62-.31-.59-.74.06-.91.14-1.81.23-2.72.1-.99.21-1.99.31-2.98 0-.07 0-.14.01-.2.09-.6.04-.66-.55-.66h-.96c-.6 0-.58 0-.61.61-.08 1.94-.02 3.87-.04 5.81 0 .19 0 .39-.11.56-.12.22-.36.34-.61.31-.27-.02-.47-.16-.55-.44-.06-.21-.08-.43-.07-.64v-5.71c0-.47-.04-.5-.51-.51h-2.53c-.32 0-.48.1-.51.44-.09.93-.2 1.85-.3 2.78l-.46 4.1-.36 3.29c-.13 1.21-.27 2.42-.39 3.62-.06.61-.11 1.22-.17 1.83-.03.28.07.4.36.4h6.9c.09 0 .19.02.26-.09-.08-.19-.27-.29-.42-.42-1.33-1.19-2.38-2.57-2.93-4.29-.23-.7-.31-1.45-.25-2.19.04-.5.34-.81.83-.82 1.95-.02 3.74.44 5.25 1.75.06.05.12.1.19.15.04.03.08.04.14.08.17-.36.14-.76.22-1.12.19-.95.44-1.88.96-2.72.41-.65.73-.84 1.53-.64 2.06.53 3.56 1.72 4.45 3.66.16.35.2.37.56.16.92-.52 1.88-.93 2.91-1.15.21-.04.42-.08.64-.09.44-.03.74.27.75.78.02 1.08-.2 2.12-.59 3.13a7.779 7.779 0 0 1-2.73 3.55c-.08.06-.15.13-.24.21.12.13.27.1.39.1h1.95c.54.01.85.47.66.94-.12.31-.38.4-.69.4h-3.25l-30.28-.02c-.17 0-.34.02-.51.02-.47 0-.84-.33-.84-.73 0-.4.33-.68.82-.68h2.15c.28 0 .4-.08.44-.38.3-2.04.56-4.09.83-6.14.24-1.89.45-3.79.65-5.69.14-1.32.19-2.65.3-3.98.02-.29-.06-.42-.37-.47-1.01-.17-2-.43-2.86-1.05-.53-.39-.93-.87-1.04-1.54-.1-.63.19-1 .82-1.07.97-.12 1.93-.04 2.9-.06.47-.01.54-.07.55-.53.01-1.15.24-1.37 1.39-1.36h2.8Zm-4.12 18.53c-.16 1.12-.3 2.25-.48 3.37-.05.29.04.37.31.37h5.23c.32 0 .41-.12.41-.43.02-5.19-.06-10.39.07-15.58 0-.33-.09-.44-.43-.43-1.15.02-2.3.14-3.45 0-.28-.03-.36.15-.38.37-.02.26-.02.52-.05.78-.1 1.17-.2 2.33-.31 3.49-.1 1.04-.18 2.08-.3 3.12-.19 1.62-.41 3.24-.63 4.92Zm7.71-14.04H43.5c.5 0 .65-.11.8-.56.19-.58.15-.64-.46-.64H18.59c-.12 0-.25-.03-.38.06.26.26.58.4.91.53 1.55.58 3.18.71 4.8.67 1.56-.04 3.12-.02 4.75-.04Zm12.57 12.16c-.2 1.74.1 3.39.78 4.99.21.49.47.78 1.06.7.49-.07.52-.04.64-.52.36-1.45.86-2.86 1.87-3.98.55-.61.45-1.08.15-1.66-.07-.13-.13-.27-.21-.39-.74-1.1-1.55-2.08-2.96-2.34-.34-.06-.53.01-.67.34-.38.9-.56 1.85-.66 2.87Zm-6.26.56c.93 2.38 2.64 3.98 4.94 5.02.24.11.5.12.78.05 0-.07 0-.12-.03-.17-.36-.9-.53-1.85-.79-2.78-.68-2.39-2.97-3.39-4.8-3.51-.29-.02-.37.14-.32.38.06.32.14.64.23 1.02Zm-7.15-6.65v6.11c0 1.66-.01 3.33 0 4.99 0 .15-.07.35.15.42.1-.06.09-.15.1-.22.07-.67.15-1.33.22-2 .25-2.33.5-4.65.77-6.97.12-1.08.25-2.17.37-3.25.13-1.12.25-2.24.38-3.35.04-.33-.03-.45-.36-.45-.39-.01-.77 0-1.16 0-.41 0-.44.04-.44.46v4.27h-.01Zm19.68 10.54c1.57-1.1 2.48-2.62 2.83-4.5.08-.44 0-.52-.44-.38-.53.16-1.04.4-1.51.71-1.73 1.17-2.68 2.86-3.22 4.83-.07.26.03.34.32.26.71-.19 1.36-.5 2.02-.92Zm-7.36-19.64h-1.06c-.14 0-.25.04-.25.21 0 .16.09.22.23.22h2.73c.15 0 .27-.05.27-.23 0-.21-.15-.2-.28-.2h-1.64Zm-15.86.43c.24 0 .48 0 .72-.01.12 0 .22-.08.23-.21 0-.15-.11-.18-.23-.2-.07 0-.14-.01-.2-.01h-2.15c-.15 0-.35-.05-.34.21 0 .23.19.22.35.22h1.64Zm2.02 23.17c1.13-.06 2.16.22 3.15.64 1 .43 2.04.64 3.13.53.6-.06 1.19-.22 1.74-.47 2.11-.94 4.21-.92 6.31.01.88.39 1.8.54 2.76.46a6.35 6.35 0 0 0 1.72-.41c1.84-.7 3.69-.67 5.56-.13.65.19.87.65.53 1.11-.21.28-.49.34-.82.26-.69-.18-1.38-.35-2.11-.38-.97-.04-1.87.18-2.77.5-1.94.69-3.85.58-5.72-.25-1.59-.71-3.14-.62-4.73.05-1.97.83-3.99.94-6 .07-.89-.38-1.8-.64-2.77-.63-.72 0-1.4.13-2.05.45-1.11.54-2.33.8-3.57.78-.73 0-1.45-.14-2.14-.39-.71-.26-1.42-.48-2.17-.56-.46-.05-.72-.38-.67-.79.04-.35.31-.55.77-.56.72-.01 1.39.2 2.06.44.97.35 1.95.54 2.98.46.56-.04 1.09-.21 1.61-.41 1.02-.4 2.05-.76 3.2-.76Z"/>
  <path fill="#fff" d="M26.31 37.13c1.13-.06 2.16.22 3.15.64 1 .43 2.04.64 3.13.53.6-.06 1.19-.22 1.74-.47 2.11-.94 4.21-.92 6.31.01.88.39 1.8.54 2.76.46a6.35 6.35 0 0 0 1.72-.41c1.84-.7 3.69-.67 5.56-.13.65.19.87.65.53 1.11-.21.28-.49.34-.82.26-.69-.18-1.38-.35-2.11-.38-.97-.04-1.87.18-2.77.5-1.94.69-3.85.58-5.72-.25-1.59-.71-3.14-.62-4.73.05-1.97.83-3.99.94-6 .07-.89-.38-1.8-.64-2.77-.63-.72 0-1.4.13-2.05.45-1.11.54-2.33.8-3.57.78-.73 0-1.45-.14-2.14-.39-.71-.26-1.42-.48-2.17-.56-.46-.05-.72-.38-.67-.79.04-.35.31-.55.77-.56.72-.01 1.39.2 2.06.44.97.35 1.95.54 2.98.46.56-.04 1.09-.21 1.61-.41 1.02-.4 2.05-.76 3.2-.76Z"/>
  <path fill="#d93e3e" d="M56.31 32.13h16v3h-16v-3Z"/>
  <path fill="#fff" d="M72.31 32.13h16v3h-16v-3Z"/>
  <path fill="#1844b5" d="M64.49 17.11h-.06l-.86 1.78-2.29 4.22-2.29-4.22-.86-1.78h-.06v8.02h-2V13.96h2.38l2.86 5.46h.06l2.83-5.46h2.29v11.17h-2v-8.02Zm11.55 8.02-.9-2.85h-3.97l-.88 2.85h-2.14l3.74-11.17h2.62l3.71 11.17h-2.19Zm-2.85-9.25h-.08l-1.42 4.59h2.94l-1.44-4.59Zm10.16 9.44c-.96 0-1.78-.17-2.45-.51a5.71 5.71 0 0 1-1.71-1.34l1.42-1.38c.38.45.81.79 1.28 1.02.48.24 1.01.35 1.58.35.65 0 1.14-.14 1.47-.42.33-.29.5-.67.5-1.15 0-.37-.11-.68-.32-.91-.21-.24-.61-.41-1.2-.51l-1.06-.16c-2.23-.35-3.34-1.43-3.34-3.25 0-.5.09-.95.27-1.36.19-.41.46-.75.82-1.04.37-.3.8-.52 1.26-.66a5.42 5.42 0 0 1 1.7-.24c.84 0 1.58.14 2.21.42.63.28 1.17.69 1.62 1.23l-1.44 1.36c-.28-.34-.62-.62-1.01-.83-.39-.21-.89-.32-1.49-.32s-1.07.12-1.38.35c-.3.22-.45.54-.45.96s.12.74.37.94c.25.2.64.35 1.18.45l1.04.19c1.13.2 1.96.57 2.5 1.09.54.51.82 1.23.82 2.16 0 .53-.1 1.02-.29 1.46-.18.43-.45.8-.82 1.12-.35.31-.79.55-1.31.72-.51.17-1.1.26-1.78.26Z"/>
</svg>
