<svg fill="none" xmlns="http://www.w3.org/2000/svg" viewBox="0 0 19 37"><path d="M16.297 2.627c-.242-.035-.468.06-.682.154-1.854.82-3.04 2.733-2.813 4.746.08.716.308 1.406.479 2.106.14.602.237 1.211.29 1.824.157 1.815-.149 3.71-.767 5.406-.474 1.3-1 2.56-1.64 3.788a43.576 43.576 0 0 1-2.316 3.844 47.69 47.69 0 0 1-2.609 3.62c-.15.184-.46.632-.662.721.222-.462.444-.923.697-1.37.727-1.277 1.586-2.479 2.383-3.714 1.366-2.116 2.61-4.291 3.483-6.657.894-2.418 1.231-4.923.456-7.46-.257-.84-.681-1.645-.772-2.523a4.384 4.384 0 0 1 .037-1.108c.026-.17.243-.797.192-.903l-.026-.005c-.09-.015-.206.066-.274.116-.705.522-1.214 1.228-1.544 2.027-.794 1.922-.28 3.266.399 5.152.191.531.393 1.066.48 1.623.078.494.067.96.006 1.452-.13-1.018-.526-2.047-1.05-2.943-.354-.604-.73-1.172-.979-1.828a4.856 4.856 0 0 1-.308-1.372c-.017-.214-.006-.896-.063-1.045l-.044-.01c-.494.47-.828 1.218-.988 1.869-.363 1.469-.093 3.016.534 4.407.81 1.796 1.575 2.748 1.243 4.817-.168-2.036-1.656-3.789-2.528-5.609-.251-.524-.321-1.085-.531-1.617l-.013-.03c-.317.472-.483 1.12-.58 1.675-.415 2.382.668 3.899 1.562 5.983.26.606.479 1.15.493 1.81 0 .408-.003.816-.046 1.222-.214-.891-.48-1.838-.937-2.646-.263-.466-.601-.912-.92-1.345-.305-.412-.622-.842-1.002-1.193-.069.77-.149 1.555-.015 2.328.306 1.78 1.55 3.418 1.502 5.236-.118-.25-.2-.517-.313-.77-.3-.668-.863-1.637-1.515-2.04-.054-.032-.083-.044-.143-.033-.02.065-.007.124.007.19.05.227.132.455.197.68.124.424.235.846.31 1.28a8.76 8.76 0 0 1 .124 2.02c-.105 1.762-.903 3.151-1.419 4.785a8.843 8.843 0 0 0-.417 2.505c-.008.283-.05.64.031.913l.055.026c.258-.015.918-.715 1.021-.945.119-.264.153-.795.21-1.097.211-1.093.609-2.159 1.28-3.055 1.143-1.529 2.73-2.019 4.45-2.709.392-.157.767-.352 1.154-.52.329-.14.854-.276 1.119-.492.023-.019.015-.033.017-.061-.017-.017-.023-.024-.041-.037-.128-.094-.354-.118-.508-.143-1.001-.161-1.947-.064-2.934.075a5.138 5.138 0 0 1 1.664-.86c.3-.087.618-.133.926-.196a8.45 8.45 0 0 0 1.506-.44c1.424-.586 2.292-1.653 2.84-3.035-.242.08-.476.205-.711.306a8.72 8.72 0 0 1-1.304.447c-.37.09-.747.161-1.127.21-.627.083-1.276.104-1.849.375.64-.607 1.436-1.063 2.244-1.43.389-.177.791-.332 1.17-.528.944-.488 1.803-1.213 2.38-2.092.342-.52.53-1.029.647-1.639.026-.133.071-.297.04-.432-.08-.012-.131.048-.187.097-1.336 1.194-2.118 1.368-3.868 1.744.397-.499.919-.94 1.44-1.314.366-.261.75-.505 1.086-.801a4.994 4.994 0 0 0 1.038-1.293c.246-.432.435-.858.554-1.342.31-1.262.13-2.59-.578-3.727-.007.145.012.293.012.44 0 .356-.072.695-.177 1.033-.38 1.215-1.053 1.772-2.188 2.334.409-.88 1.01-1.663 1.236-2.62.561-2.376-1.376-4.262-.46-6.851a4.25 4.25 0 0 1 .475-.93c.122-.18.272-.36.369-.555l.01-.02Z" fill="#A49772"/></svg>