<svg fill="none" xmlns="http://www.w3.org/2000/svg" viewBox="0 0 19 37"><path d="M4.353 2.627c.241-.035.467.06.681.154 1.855.82 3.04 2.733 2.814 4.746-.08.716-.309 1.406-.48 2.106-.14.602-.237 1.211-.29 1.824-.157 1.815.15 3.71.767 5.406.474 1.3 1 2.56 1.64 3.788a43.564 43.564 0 0 0 2.317 3.844 47.703 47.703 0 0 0 2.608 3.62c.15.184.46.632.662.721a21.833 21.833 0 0 0-.697-1.37c-.726-1.277-1.585-2.479-2.383-3.714-1.366-2.116-2.61-4.291-3.483-6.657-.893-2.418-1.231-4.923-.456-7.46.257-.84.682-1.645.773-2.523.038-.37.017-.743-.038-1.108-.026-.17-.243-.797-.191-.903l.025-.005c.091-.015.206.066.274.116.706.522 1.214 1.228 1.544 2.027.795 1.922.281 3.266-.398 5.152-.192.531-.393 1.066-.48 1.623-.079.494-.068.96-.007 1.452.13-1.018.527-2.047 1.051-2.943.354-.604.73-1.172.978-1.828.17-.442.273-.904.309-1.372.016-.214.005-.896.062-1.045l.044-.01c.494.47.828 1.218.989 1.869.362 1.469.092 3.016-.535 4.407-.81 1.796-1.574 2.748-1.243 4.817.168-2.036 1.656-3.789 2.529-5.609.25-.524.32-1.085.53-1.617l.013-.03c.318.472.484 1.12.58 1.675.415 2.382-.667 3.899-1.562 5.983-.26.606-.479 1.15-.493 1.81 0 .408.004.816.047 1.222.213-.891.479-1.838.936-2.646.264-.466.602-.912.921-1.345.305-.412.622-.842 1.001-1.193.07.77.149 1.555.016 2.328-.307 1.78-1.55 3.418-1.502 5.236.118-.25.2-.517.313-.77.3-.668.862-1.637 1.515-2.04.053-.032.082-.044.142-.033.02.065.007.124-.007.19-.049.227-.131.455-.197.68-.123.424-.234.846-.31 1.28a8.76 8.76 0 0 0-.123 2.02c.104 1.762.902 3.151 1.418 4.785.259.81.399 1.653.417 2.505.008.283.05.64-.03.913l-.055.026c-.258-.015-.919-.715-1.022-.945-.118-.264-.152-.795-.21-1.097-.21-1.093-.608-2.159-1.28-3.055-1.143-1.529-2.73-2.019-4.45-2.709-.392-.157-.767-.352-1.154-.52-.328-.14-.854-.276-1.118-.492-.023-.019-.016-.033-.017-.061.017-.017.022-.024.04-.037.128-.094.354-.118.508-.143 1.002-.161 1.947-.064 2.935.075a5.158 5.158 0 0 0-1.664-.86c-.301-.087-.619-.133-.926-.196a8.451 8.451 0 0 1-1.507-.44c-1.424-.586-2.291-1.653-2.84-3.035.242.08.477.205.712.306.423.18.853.335 1.303.447.371.09.748.161 1.128.21.626.083 1.275.104 1.848.375-.64-.607-1.435-1.063-2.244-1.43-.388-.177-.79-.332-1.169-.528-.944-.488-1.803-1.213-2.38-2.092a4.323 4.323 0 0 1-.648-1.639c-.025-.133-.07-.297-.04-.432.081-.012.132.048.187.097 1.336 1.194 2.118 1.368 3.869 1.744-.398-.499-.92-.94-1.441-1.314-.365-.261-.749-.505-1.085-.801a4.994 4.994 0 0 1-1.039-1.293 5.155 5.155 0 0 1-.553-1.342 4.816 4.816 0 0 1 .578-3.727c.006.145-.013.293-.013.44 0 .356.072.695.178 1.033.38 1.215 1.052 1.772 2.187 2.334-.409-.88-1.01-1.663-1.236-2.62-.56-2.376 1.376-4.262.46-6.851a4.18 4.18 0 0 0-.475-.93c-.122-.18-.272-.36-.368-.555l-.01-.02Z" fill="#A49772"/></svg>