<svg xmlns="http://www.w3.org/2000/svg" viewBox="0 0 104 50">
  <path fill="#fff" d="M41.96 40.76H29.73V12.9l3.4.68c1.59 2.72 5.44 8.97 8.15 12.23 2.72 3.26 1.59 11.33.68 14.95Z"/>
  <path fill="none" stroke="#1844b5" stroke-linecap="round" stroke-linejoin="round" stroke-width="1.2" d="M30.29 12.41c.39-.03.67.19.96.41 1.28 1.01 2.45 2.15 3.57 3.34.82.86 1.56 1.78 2.27 2.72.15.2.47.24.52.51.05.28.22.5.37.72.14.23.3.46.47.67.22.28.45.53.56.9.11.39.38.73.58 1.09.88 1.68 1.63 3.41 2.18 5.23.3 1 .56 2.02.7 3.05.07.52.13 1.03.19 1.55.13 1.17.14 2.35.12 3.52-.01.77-.08 1.54-.17 2.31-.09.75-.24 1.49-.29 2.25M30.05 6.84c.06.71.01 1.41.03 2.12v2.09c0 .35-.09.73.08 1.06.21.39-.12.68-.1 1.04.04 1.02.02 2.03.01 3.05 0 1.33.02 2.66-.05 3.98-.02.41 0 .8.03 1.19.02.28.04.55-.11.8a.17.17 0 0 0 0 .1c.15.28.1.58.1.88v17.03c0 .15.02.31.02.47m14.12.2c.22.01.45 0 .67.02.22.02.42.1.59.21.53.35 1.03.74 1.5 1.17.14.13.28.26.21.49-.07.23-.25.28-.44.34-.09.03-.17.02-.26.02-2.09 0-4.18.02-6.26 0-1.5-.02-3 0-4.5-.02-.71 0-1.42-.01-2.12 0-1.95.05-3.9 0-5.85.03-.69 0-1.38.03-2.07.05-.2 0-.39-.06-.54-.18a.39.39 0 0 1-.05-.54c.15-.2.36-.33.55-.49.31-.26.63-.51.96-.75.3-.22.62-.33 1.01-.32.58.02 1.16 0 1.73 0h.13c.35-.02.65-.21 1.04-.07.31.11.69.08 1.02 0 .43-.09.83.03 1.24.03 1.1-.02 2.19 0 3.29 0h3.13c.24 0 .46-.15.67-.13.22.02.44.14.67.13.33-.01.66 0 .98 0 .43.01.85-.09 1.3.03.43.11.91 0 1.37 0"/>
  <path fill="none" stroke="#1844b5" stroke-linecap="round" stroke-linejoin="round" d="M40.2 35.85c-.72-.04-1.43-.01-2.15 0-1.61.02-3.23 0-4.84 0-.33 0-.65-.02-.98-.03m6.93-7.65c-.25.09-.51.11-.78.11-1.78 0-3.55.01-5.33.02-.28 0-.57.02-.85.02m7.58 2.49c-.76.09-1.52.04-2.28.04-.3 0-.6-.05-.91 0-.18.03-.38-.02-.57-.02h-3.86"/>
  <path fill="none" stroke="#1844b5" stroke-linecap="round" stroke-linejoin="round" d="M38.28 25.63c.26.22.38.52.49.83.12.36.24.73.36 1.09.05.16.11.32.06.49-.01.04-.03.1.02.16.34.39.35.91.49 1.37.07.23.17.47.14.7-.06.42.12.78.19 1.17.08.5.19 1.01.17 1.53-.01.31-.02.33-.34.36-.59.06-1.19.01-1.78 0H32.23m-.05-12.64c.42.02.84.06 1.27.03.42-.03.85 0 1.27.02.18 0 .37 0 .51-.11.21-.15.37-.04.52.08.12.1.23.22.31.36.28.46.6.89.82 1.38.28.62.19.67-.48.77-.08.01-.15 0-.23 0h-3.99m7.94 10.1c.15.22.19.46.18.72-.01.4.08.79.05 1.19v.15c-.18.71.04 1.44-.1 2.15-.08.44-.13.88-.18 1.32-.07.6-.27 1.18-.26 1.79m-4.37-20.11c0-.26-.08-.49-.23-.7a30.04 30.04 0 0 0-1.74-2.17c-.06-.08-.12-.15-.18-.23-.25-.32-.53-.6-.93-.73-.03 0-.06.03-.08-.02-.1-.35-.35-.64-.39-1.01"/>
  <path fill="none" stroke="#1844b5" stroke-linecap="round" stroke-linejoin="round" stroke-width="1.2" d="M29.9 20.72h-2.98c-.46 0-.57.1-.57.57v.44c0 .36.13.49.49.49h2.56c.16 0 .33.02.49.02"/>
  <path fill="none" stroke="#1844b5" stroke-linecap="round" stroke-linejoin="round" d="M32.2 25.79c1.56 0 3.12-.02 4.68-.02.4 0 .79.02 1.19-.07.22-.05.22-.17.2-.32-.03-.21-.13-.4-.23-.6-.18-.37-.35-.74-.52-1.11-.11-.25-.29-.45-.52-.59"/>
  <path fill="none" stroke="#1844b5" stroke-linecap="round" stroke-linejoin="round" stroke-width="1.2" d="M41.31 19.37c-.13.33-.36.57-.67.75-.59.36-1.16.74-1.74 1.11m3.52-2.17c-.33.02-.62.16-.93.24-.08.02-.16.09-.23.02-.46-.39-1-.28-1.53-.26-.4.01-.81.03-1.22 0-.32-.04-.64.03-.91.2"/>
  <path fill="#d93e3e" d="M47.02 33.99h8v3h-8v-3Z"/>
  <path fill="#fff" d="M63.02 33.99h8v3h-8v-3Z"/>
  <path d="M71.02 33.99h8v3h-8v-3Z"/>
  <path fill="#178930" d="M55.02 33.99h8v3h-8v-3Z"/>
  <path fill="#1844b5" d="M50.26 27.18c-.96 0-1.78-.17-2.45-.51a5.71 5.71 0 0 1-1.71-1.34l1.42-1.38c.38.45.81.79 1.28 1.02.48.24 1.01.35 1.58.35.65 0 1.14-.14 1.47-.42.33-.29.5-.67.5-1.15 0-.37-.11-.68-.32-.91-.21-.24-.61-.41-1.2-.51l-1.06-.16c-2.23-.35-3.34-1.43-3.34-3.25 0-.5.09-.95.27-1.36.19-.41.46-.75.82-1.04.37-.3.8-.52 1.26-.66a5.42 5.42 0 0 1 1.7-.24c.84 0 1.58.14 2.21.42.63.28 1.17.69 1.62 1.23l-1.44 1.36c-.28-.34-.62-.62-1.01-.83-.39-.21-.89-.32-1.49-.32s-1.07.12-1.38.35c-.3.22-.45.54-.45.96s.12.74.37.94c.25.2.64.35 1.18.45l1.04.19c1.13.2 1.96.57 2.5 1.09.54.51.82 1.23.82 2.16 0 .53-.1 1.02-.29 1.46-.18.43-.45.8-.82 1.12-.35.31-.79.55-1.31.72-.51.17-1.1.26-1.78.26Zm10.64 0c-.74 0-1.4-.12-2-.35a4.1 4.1 0 0 1-1.52-1.09c-.42-.48-.74-1.07-.96-1.78-.22-.72-.34-1.54-.34-2.48s.11-1.77.34-2.5c.22-.74.54-1.35.96-1.84.41-.49.93-.88 1.52-1.14.6-.26 1.26-.38 2-.38 1 0 1.83.21 2.49.64.66.43 1.19 1.07 1.58 1.94l-1.81.96c-.16-.5-.42-.9-.78-1.2-.36-.31-.86-.46-1.49-.46-.79 0-1.42.27-1.89.8-.46.53-.69 1.28-.69 2.24v1.76c0 .97.23 1.72.69 2.24.47.51 1.1.77 1.89.77.63 0 1.14-.17 1.54-.51.4-.34.7-.76.88-1.26l1.71 1.01c-.41.83-.94 1.48-1.62 1.95-.67.46-1.51.69-2.51.69Zm12.75-.19-.9-2.85h-3.97l-.88 2.85h-2.14l3.74-11.17h2.62l3.71 11.17h-2.19Zm-2.85-9.25h-.08l-1.42 4.59h2.94l-1.44-4.59Z"/>
</svg>
