<svg xmlns="http://www.w3.org/2000/svg" viewBox="0 0 104 50">
  <path fill="#fff" d="m27.43 15.04 9.38 17.11-9.75.68-.18-1.29-8.1-.18 7.42-13.74 1.23-2.58Zm16.43-1.97-.18-2.33 1.04 2.7 7.05 1.1V8.77l-7.54 1.72-3.62.18-11.96-1.53.06 6.19 11.65-2.21 3.5-.06Z"/>
  <path fill="#1844b5" d="M22.45 32.11h.57c.14 0 .21.08.16.22-.13.38-.26.76-.38 1.13-.03.09-.08.15-.19.13-1.28-.14-2.56-.28-3.84-.41-.52-.06-.83.27-.65.73.49 1.27 1 2.52 1.81 3.63.3.41.64.77 1.02 1.14h-.27c-.47.01-.94-.03-1.41.04-.4.05-.58.25-.56.63.02.32.25.51.62.51H38.4c1.44 0 2.73.42 3.8 1.43.11.1.21.22.31.33.27.27.63.3.88.08.25-.22.26-.58 0-.88-.94-1.08-2.12-1.74-3.53-2-.22-.04-.25-.12-.17-.3.17-.41.32-.83.45-1.26.03-.11.06-.22.06-.33.02-.35-.11-.53-.46-.58-.44-.06-.89-.02-1.34 0-.45.01-.89 0-1.34.02-.16 0-.2-.1-.25-.22-.23-.56-.45-1.12-.7-1.68-.2-.44-.49-.61-.97-.6-1.49.02-2.99.01-4.48 0-.47 0-.82.19-1.07.57-.09.14-.18.19-.35.15-.49-.12-.99-.23-1.49-.32-.18-.03-.22-.11-.22-.27.01-.22.01-.43 0-.65-.02-.24.06-.32.31-.31 1.27.01 2.54 0 3.81 0h4.62c.21 0 .41 0 .62-.04.38-.06.58-.36.43-.73-.09-.24-.22-.46-.34-.69-2.05-3.77-4.1-7.54-6.09-11.35-1.04-2-2.11-4-3.19-5.98-.12-.21-.18-.44-.17-.68.01-.38.01-.77 0-1.15-.01-.46-.37-.71-.81-.57-.24.08-.37.26-.37.55v2.68c0 .19-.04.35-.13.52-1.18 2.27-2.35 4.53-3.52 6.8-1.45 2.81-2.91 5.61-4.36 8.42-.08.15-.16.3-.22.45-.17.44.06.79.54.8h3.79Zm6.5-.17h-1.08c-.32 0-.32 0-.32-.32V16.96c0-.13-.04-.26.08-.43 2.67 5.16 5.43 10.24 8.2 15.4-2.33-.09-4.58.01-6.88 0Zm-4.43 3c.65.1 1.29.18 1.94.29.91.15 1.82.32 2.72.54.09.02.19.04.23.15.29.63.84.95 1.44 1.22.82.37 1.7.42 2.58.43 1.69.02 3.39 0 5.08 0 .29 0 .32.04.21.3-.04.1-.09.19-.12.29-.18.46-.3.54-.78.54H24.14c-.94 0-1.74-.33-2.43-.92-.98-.84-1.55-1.97-2.05-3.14-.01-.03 0-.06 0-.1.24-.09.47 0 .69.02.7.05 1.4.1 2.1.17.68.06 1.36.14 2.09.21Zm-4.15-5.49c1.96-3.76 3.87-7.55 5.92-11.28.1.1.08.17.08.23v4.67c0 .11-.02.21-.05.3-.85 2.45-1.7 4.89-2.55 7.34-.07.2-.17.27-.38.26h-3.5c-.08 0-.17.03-.28-.05l.76-1.47Zm3.59 4.11 2.36-6.62h.03v7.1c-.76-.11-1.53-.21-2.3-.28-.12-.01-.12-.08-.09-.2Zm6.62 2.03c-.07-.09-.22-.16-.15-.29.07-.14.2-.22.37-.21h4.06c.18 0 .3.06.37.23.11.26.22.51.29.78.07.28.06.29-.21.29-.98 0-1.96.03-2.93-.09-.65-.08-1.27-.23-1.8-.7Z"/>
  <path fill="#1844b5" d="M39.97 9.73c-.11.19-.28.1-.42.11-.44.02-.65.22-.63.66 0 .26.13.44.39.51.17.05.19.13.18.27-.05.53-.1 1.06-.13 1.59-.01.18-.08.23-.25.23h-.67c-.31 0-.51.22-.52.54-.02.34.18.6.48.64h.1c.46.01.47.01.43.47-.08.95-.18 1.9-.27 2.85-.07.82-.13 1.63-.21 2.45-.07.79-.15 1.57-.23 2.35-.07.79-.13 1.57-.2 2.36-.07.79-.15 1.57-.22 2.35-.06.61-.1 1.22-.16 1.83-.05.59-.12 1.17-.17 1.76-.02.23-.03.46 0 .69.02.29.32.55.6.55.29 0 .58-.24.61-.54.07-.73.14-1.46.2-2.19.02-.25.04-.51.05-.76.01-.21.09-.3.33-.3 1.22.01 2.44 0 3.67 0 .49 0 .76-.38.6-.84-.07-.21-.21-.34-.44-.34-1.15 0-2.3-.01-3.45-.02h-.12c-.44 0-.45-.02-.41-.45.07-.79.14-1.57.2-2.36.02-.22.09-.33.34-.32.74.01 1.49.01 2.23 0 .52 0 .79-.37.65-.84-.08-.25-.26-.38-.57-.38h-2.23c-.22 0-.3-.06-.28-.29.08-.71.16-1.42.23-2.14.02-.19.11-.23.28-.23h4.17c.18 0 .25.08.27.23.02.15 0 .3.04.45.03.12-.06.14-.16.16-.37.07-.73.18-1.04.4-.34.24-.3.71.06.88.1.05.2.04.3.02.42-.07.83-.17 1.26-.08.47.1.85.34 1.2.75-.25-.03-.43-.06-.61-.08-1.52-.16-3.03.82-3.37 2.36-.01.05-.02.11-.02.16-.02.34.06.48.3.55.24.07.4 0 .56-.29.21-.39.51-.74.88-1 .44-.31.92-.47 1.45-.49.1 0 .2.01.3.06l-.22.15c-.92.62-1.33 1.49-1.3 2.59 0 .09.02.17.04.26.07.33.26.45.59.37.05-.01.09-.05.16-.01.04.34.08.69.11 1.05.08.92.15 1.84.23 2.76.01.17-.02.25-.2.27-.58.09-1.15.25-1.7.47-.23.09-.25.07-.27-.18-.04-.49-.03-.99-.03-1.48 0-.64-.39-1.03-1.01-1.02-.62 0-1.04.43-1.04 1.04v2.37c0 .22-.07.34-.27.44-.82.38-1.63.78-2.42 1.21-.18.09-.35.19-.42.4-.08.26-.02.5.19.67.21.18.5.2.74.07.59-.31 1.17-.63 1.76-.92 1.16-.58 2.3-1.19 3.52-1.62 1.44-.5 2.87-.52 4.26.13 1.66.78 2.64 2.09 2.89 3.92 0 .05.02.09.03.14.04.18-.01.27-.21.26h-8.67c-.42 0-.62.19-.62.61 0 .32.27.57.64.57h9.41c.42 0 .63-.22.64-.66.05-1.93-.62-3.56-2.04-4.87-.59-.54-1.23-.99-1.99-1.25-.16-.05-.21-.15-.22-.31-.05-1.4-.12-2.8-.18-4.21-.03-.68-.04-1.36-.06-2.03 0-.05 0-.09.02-.13.1-.07.18 0 .25.04.73.37 1.12 1 1.33 1.75.03.09.04.19.07.28.07.2.21.29.42.28.21 0 .34-.13.39-.32.08-.31.09-.63.03-.95-.12-.81-.59-1.53-1.28-1.96-.05-.03-.1-.05-.1-.15.18-.11.39-.07.58-.03.82.13 1.41.59 1.85 1.27.07.11.13.22.21.32.11.16.28.18.45.15s.26-.16.3-.34c.04-.22 0-.43-.07-.63-.42-1.4-1.86-2.3-3.31-2.09-.16.02-.33.04-.53.06.05-.17.16-.25.27-.34.41-.31.88-.44 1.39-.41.25.01.49.04.74.06.24.02.43-.06.51-.29a.522.522 0 0 0-.21-.61c-.31-.2-.66-.33-1.02-.38-1.15-.17-2.06.24-2.77 1.14-.04.05-.07.13-.17.16-.22-.32-.46-.62-.79-.84-.17-.12-.34-.25-.54-.3-.2-.06-.26-.19-.27-.37-.07-.87-.13-1.73-.2-2.6-.08-.97-.18-1.93-.27-2.9-.02-.18-.04-.36-.05-.55-.01-.17.06-.27.25-.27h.26c.33-.02.58-.3.56-.63 0-.33-.23-.54-.59-.56-.22 0-.43-.03-.64 0-.19.03-.28-.05-.3-.24-.02-.25-.05-.51-.07-.76-.02-.28-.03-.56-.05-.84 0-.13.04-.2.17-.25.32-.12.49-.39.44-.66-.06-.33-.28-.51-.67-.51-.42 0-.41.07-.43-.44 0-.26 0-.51-.04-.76-.05-.31-.23-.5-.54-.51-.95-.01-1.9-.02-2.85 0-.42 0-.61.23-.62.67v.93Zm4.22 8.63q.06.4-.36.4H40c-.2 0-.32-.08-.28-.29.11-.51.16-1.02.21-1.53.02-.22.11-.26.3-.26h3.49c.19 0 .31.05.33.28.03.45.09.9.13 1.4Zm-2.12-7.28h1.03c.16 0 .22.06.24.22.06.53.01 1.07.04 1.6 0 .17-.12.21-.26.21h-2.3c-.19 0-.27-.08-.26-.27.03-.51.04-1.02.05-1.53 0-.17.08-.24.25-.24.38 0 .77 0 1.2.01Zm3.86 15.88c-.29-.34-.62-.25-.98-.06.1-.48.3-.87.59-1.2.23-.26.5-.47.83-.59.15-.06.23-.03.24.14 0 .08.02.16.03.24l.06 1.7c.01.4.03.79.05 1.19.04.94.09 1.88.13 2.82 0 .12.03.27-.17.27-.18 0-.31-.03-.33-.25-.02-.29-.06-.57-.09-.85-.07-.92-.13-1.84-.21-2.76-.02-.2 0-.42-.15-.63Zm-4.51-12.45v.79c0 .12-.04.2-.18.2h-1.03c-.12 0-.16-.07-.16-.18 0-.28 0-.56.05-.84.02-.13.08-.18.2-.18h.93c.11 0 .18.06.19.22Zm2.23-.2c.11.02.15.1.16.21.02.26.06.52.09.78.02.15-.06.2-.2.2h-.81c-.17 0-.25-.08-.25-.24v-.74c0-.17.09-.23.24-.23.25 0 .49 0 .78.02Zm-2.13-4.96h1.07c.19 0 .21.13.21.28 0 .14-.04.22-.2.22h-1.22c-.16 0-.21-.08-.22-.21-.02-.24.13-.28.36-.28Z"/>
  <path d="M56.5 33.74h9.81v2.94H56.5v-2.94Z"/>
  <path fill="#f6c80d" d="M76.12 33.74h9.81v2.94h-9.81v-2.94Z"/>
  <path fill="#02c7c7" d="M66.31 33.74h9.81v2.94h-9.81v-2.94Z"/>
  <path fill="#1844b5" d="M60.19 27.06c-.94 0-1.74-.17-2.4-.5-.64-.33-1.21-.78-1.68-1.32l1.4-1.35c.38.44.79.78 1.26 1 .47.23.99.35 1.55.35.64 0 1.12-.14 1.44-.41.32-.28.49-.66.49-1.13 0-.37-.1-.66-.31-.89-.21-.23-.6-.4-1.18-.5l-1.04-.16c-2.19-.35-3.28-1.41-3.28-3.19 0-.49.09-.94.27-1.33.19-.4.46-.74.8-1.02.37-.29.79-.51 1.24-.64.54-.16 1.1-.24 1.66-.24.83 0 1.55.14 2.17.41.62.27 1.15.68 1.59 1.21l-1.41 1.33c-.27-.34-.61-.61-.99-.82-.39-.21-.87-.31-1.46-.31s-1.05.11-1.35.35c-.29.22-.44.53-.44.94s.12.73.36.93c.24.2.63.35 1.16.44l1.02.19c1.11.2 1.93.55 2.45 1.07.53.5.8 1.21.8 2.12 0 .52-.09 1-.28 1.43-.18.42-.45.79-.8 1.1-.35.3-.78.54-1.29.71-.5.17-1.08.25-1.74.25Zm10.44 0c-.72 0-1.38-.11-1.96-.35-.57-.24-1.08-.6-1.49-1.07-.41-.47-.72-1.05-.94-1.74-.22-.7-.33-1.51-.33-2.43s.11-1.74.33-2.45c.22-.72.53-1.32.94-1.81.42-.49.92-.86 1.49-1.11.59-.25 1.24-.38 1.96-.38.98 0 1.8.21 2.45.63s1.17 1.05 1.55 1.9l-1.77.94c-.16-.49-.41-.88-.77-1.18-.36-.3-.84-.46-1.46-.46-.78 0-1.39.26-1.85.79-.45.52-.68 1.26-.68 2.2v1.73c0 .95.23 1.68.68 2.2.46.5 1.08.75 1.85.75.62 0 1.12-.17 1.51-.5.4-.33.69-.75.86-1.24l1.68.99c-.4.82-.93 1.46-1.59 1.92-.66.45-1.48.68-2.46.68Zm5.82-11.15h5.07c.45 0 .85.07 1.21.2.37.14.68.32.93.57.26.25.45.56.56.89.14.35.21.73.21 1.15s-.06.78-.17 1.07c-.09.26-.24.51-.44.71-.18.19-.39.33-.63.42-.23.09-.47.15-.72.16v.09c.26 0 .52.05.77.14.28.09.54.25.77.46.24.2.44.46.6.79.16.31.24.71.24 1.18 0 .44-.07.85-.22 1.24-.14.38-.33.71-.58.99-.25.28-.56.51-.9.68-.36.16-.74.24-1.13.24h-5.56V15.93Zm2.07 9.2h2.89c.4 0 .71-.1.93-.3.22-.21.33-.51.33-.89v-.53c0-.39-.11-.69-.33-.89-.22-.21-.53-.31-.93-.31h-2.89v2.94Zm0-4.63h2.56c.38 0 .67-.1.88-.3.21-.21.31-.5.31-.86v-.49c0-.37-.1-.65-.31-.85-.21-.21-.5-.31-.88-.31h-2.56v2.81Z"/>
</svg>
